<svg id="Calque_1" data-name="Calque 1" xmlns="http://www.w3.org/2000/svg" viewBox="0 0 354.15 98.28">
    <defs>
        <style>
            .cls-1{fill:#00d9b1}.cls-3{fill:#1d1d1b}.cls-4{fill:#fff}
        </style>
    </defs>
    <path class="cls-1" d="M18.8 51a36.82 36.82 0 0 0 7.83 22 32.54 32.54 0 0 0 8.63 7.61c1.65 1 3.16-1.58 1.51-2.59C28.11 72.7 23 63.05 22 53.34a22 22 0 0 1-.2-2.34 1.5 1.5 0 0 0-3 0ZM53.48 15.63a34.65 34.65 0 0 1 36.45 33c.1 1.92 3.1 1.93 3 0a37.69 37.69 0 0 0-39.45-36c-1.92.08-1.93 3.08 0 3Z"/>
    <path class="cls-1" d="M89.93 48.59a35.12 35.12 0 0 1-12.21 28.25 34.52 34.52 0 0 1-14 7.19 23.83 23.83 0 0 1-7.41 1L55.8 85h-.36c-.29 0 .38.07-.14 0s-1.29-.23-1.93-.39a21.94 21.94 0 0 1-2.26-.71c-.09 0-.62-.26-.23-.09l-.6-.27a14.26 14.26 0 0 1-1.28-.79 11.2 11.2 0 0 1-3.77-3.56 12.87 12.87 0 0 1-1.88-6.56A32 32 0 0 1 46 60.26a96 96 0 0 1 10.1-18.49c1.08-1.61-1.52-3.12-2.59-1.52a104.67 104.67 0 0 0-9.8 17.62 39.73 39.73 0 0 0-3.32 12.73c-.34 5.41 1.43 10.66 5.88 13.94A19.52 19.52 0 0 0 55.8 88a20.36 20.36 0 0 0 5.2-.37 37.17 37.17 0 0 0 15.68-6.23A38 38 0 0 0 92.88 53a35.24 35.24 0 0 0 .05-4.36c-.08-1.92-3.08-1.93-3 0ZM54.81 12.56A37.7 37.7 0 0 0 18.84 52c.09 1.92 3.09 1.93 3 0a34.68 34.68 0 0 1 33-36.46c1.92-.1 1.93-3.1 0-3Z"/>
    <path class="cls-1" d="m60.86 43.09-10.57-7.43.54 2.06L57.64 28l-2 .53L66.16 36l-.54-2-6.81 9.7a1.51 1.51 0 0 0 .54 2 1.53 1.53 0 0 0 2-.54l6.81-9.69a1.53 1.53 0 0 0-.53-2.06L57.1 26a1.54 1.54 0 0 0-2.05.54l-6.81 9.7a1.52 1.52 0 0 0 .53 2l10.58 7.43a1.51 1.51 0 0 0 2-.54 1.54 1.54 0 0 0-.49-2.04Z"/>
    <path class="cls-1" d="m69 28.66-6.71-4.72-1-.67a1.52 1.52 0 0 0-2.05.53l-2.7 3.85a1.53 1.53 0 0 0 .54 2.05l6.71 4.72 1 .67a1.53 1.53 0 0 0 2.05-.54l2.7-3.84a1.51 1.51 0 0 0-.54-2.05 1.53 1.53 0 0 0-2 .54L64.2 33l2-.54-6.71-4.72-1-.67.54 2.05 2.7-3.84-2 .54 6.72 4.72 1 .67A1.5 1.5 0 0 0 69 28.66ZM28.19 45c.26 5.8 2.78 12.69 8.53 15a13.27 13.27 0 0 0 8.29.15 1.47 1.47 0 0 0 1.05-1 12.82 12.82 0 0 0-6.92-13.32 23.75 23.75 0 0 0-9.45-2.29c-1.93-.12-1.92 2.88 0 3a26.6 26.6 0 0 1 4.18.57 18.5 18.5 0 0 1 3.2 1 13 13 0 0 1 2.49 1.47c-.23-.18.24.21.3.26a6.14 6.14 0 0 1 .47.42c.28.28.55.58.81.88s-.06-.11.18.24c.11.15.22.3.32.46s.38.63.55 1l.2.42c.18.39-.07-.21.08.19s.23.65.33 1 .14.55.2.82 0 .25.07.38.09.7 0 .15a13.18 13.18 0 0 1 .1 1.4 8.54 8.54 0 0 1 0 1.13 1.53 1.53 0 0 0 0 .3c-.05-.46.07-.45 0-.26l1.05-1.05a12.4 12.4 0 0 1-3.51.49H39.6c-.27 0 .35.06-.09 0a8.89 8.89 0 0 1-1.44-.35c-.08 0-.66-.26-.36-.12-.21-.09-.41-.2-.62-.3a10.28 10.28 0 0 1-1.09-.83c-.19-.14.27.23 0 0l-.35-.21-.43-.4a11.37 11.37 0 0 1-.87-1c.23.29-.14-.2-.18-.27l-.33-.48c-.22-.36-.43-.74-.63-1.12-.1-.18-.19-.37-.28-.56s-.3-.69-.15-.32c-.15-.38-.3-.76-.43-1.15a23.25 23.25 0 0 1-1-4c0-.14-.05-.29-.07-.44s.05.41 0-.06c0-.21-.05-.42-.07-.63s0-.37 0-.56c-.1-1.9-3.1-1.91-3.02-.01Z"/>
    <path class="cls-1" d="m33.94 51.73 8.77 7 1.24 1a1.54 1.54 0 0 0 2.12 0 1.5 1.5 0 0 0 0-2.12l-8.77-7-1.24-1a1.54 1.54 0 0 0-2.12 0 1.52 1.52 0 0 0 0 2.12Z"/>
    <circle cx="184.85" cy="59.66" r="17.02" style="stroke:#00d9b1;stroke-miterlimit:10;stroke-width:1.5px;fill:#00d9b1"/>
    <path class="cls-3" d="m121.83 34.32 1.15-.84-3-1.7c-1 8.68-4.37 16.86-6.5 25.29-.53 2.14-1 4.29-1.34 6.47s-.13 4.16 2.11 5c1.82.66 4.06.26 5.94.07a51.53 51.53 0 0 0 7.07-1.24c2.46-.61 1.42-4.42-1.05-3.8a43.92 43.92 0 0 1-6 1.09q-1.43.15-2.85.21a10.89 10.89 0 0 0-1.28 0 1 1 0 0 1-.46-.05l.29.46s.91-5.16 1-5.61c.43-1.85.93-3.68 1.45-5.51 2.14-7.41 4.66-14.69 5.56-22.38a2 2 0 0 0-3-1.7l-1.15.84a2 2 0 0 0-.7 2.69 2 2 0 0 0 2.69.71Z"/>
    <path class="cls-3" d="M128.14 53.43c.2 3.69.23 7.37.11 11.06a2 2 0 1 0 3.94 0c.13-3.69.09-7.37-.11-11.06a2 2 0 0 0-3.94 0Z"/>
    <path class="cls-3" d="m130 54.84 9.9-3a2 2 0 1 0-1-3.8l-9.9 3a2 2 0 1 0 1 3.8ZM129.84 62.05l6.7-.82a2.08 2.08 0 0 0 1.4-.58 2 2 0 0 0 0-2.78 1.91 1.91 0 0 0-1.4-.58l-6.7.82a2.18 2.18 0 0 0-1.39.58 2 2 0 0 0 0 2.79 1.86 1.86 0 0 0 1.39.57ZM130 68.72a19.94 19.94 0 0 1 2-.46l.47-.08.31-.05h-.13l1-.11a23.4 23.4 0 0 1 4.1 0 2 2 0 0 0 2-2 2 2 0 0 0-2-2 24.53 24.53 0 0 0-8.82.77 2 2 0 0 0 1.07 3.93ZM149.38 54.38a2.62 2.62 0 0 0 .47-4.29 4.88 4.88 0 0 0-2.56-.61 5.76 5.76 0 0 0-2.33.33 4.13 4.13 0 0 0-2.73 3.62c0 1.64 1.08 2.75 2.29 3.67.9.69 1.89 1.24 2.85 1.84l.63.42c.09.06.58.42.47.33a6.28 6.28 0 0 1 .54.49c.1.1.2.2.29.31.24.27-.21-.34.15.19l.21.35s.15.3.07.13.07.18.08.23.07.25.1.38a1.36 1.36 0 0 1 .06.29V62.53c0 .14-.05.54 0 .33a3.34 3.34 0 0 1-1.06 2s-.29.22-.07.07l-.34.21a3.84 3.84 0 0 1-.35.18c.25-.1-.09 0-.18 0l-.39.09c-.32.07.42 0-.16 0a7.12 7.12 0 0 1-.8 0h-.07l-.49-.11-.37-.13c-.3-.11.31.21-.17-.08-.1-.07-.61-.39-.42-.24a4.27 4.27 0 0 1-.69-.72A2 2 0 0 0 141.6 67c3 3.67 9.3 3.13 11.46-1.12a7.36 7.36 0 0 0 .1-6.61c-1-2-3.06-3.23-4.93-4.37-.49-.3-1-.61-1.46-1-.28-.21.16.14-.11-.09l-.32-.29c-.33-.31-.1-.23-.17 0-.12.35 0 .15 0 .1-.11.11.17-.13.14-.11s-.21.08 0 0a4.17 4.17 0 0 1 1.79 0l-1.18-.9a1.38 1.38 0 0 1 .44-1.66 2 2 0 0 0-.71 2.69 2 2 0 0 0 2.7.71ZM204.51 53.86a59.64 59.64 0 0 0-.13 12.6 2 2 0 0 0 2 2 2 2 0 0 0 2-2 60.31 60.31 0 0 1 .13-12.6 2 2 0 0 0-2-2 2 2 0 0 0-2 2Z"/>
    <path class="cls-3" d="m205.69 55.34 4.31 6.19 2.14 3 1 1.47.59.84.29.42c.27.46.29.24.08-.64l.9-1.18-.07.05 1-.27h-.08l1 .27.53.52.2 1.52v-.07l-.91 1.18h.07a2 2 0 1 0-2-3.41 2.1 2.1 0 0 0-.38 3.34 2.15 2.15 0 0 0 3.54-.87c.38-1.14-.21-2-.84-2.93l-1.63-2.31-6.42-9.13a2 2 0 0 0-2.69-.71 2 2 0 0 0-.71 2.7Z"/>
    <path class="cls-3" d="m217.78 67.25.51-14.59a2 2 0 0 0-3.94 0l-.51 14.59a2 2 0 0 0 3.94 0ZM223 52.35c-2.47 2.31-4.43 5.62-4 9.11a7.29 7.29 0 0 0 6 6.06 7.55 7.55 0 0 0 8-3.66 8.54 8.54 0 0 0-.15-8.87 7.55 7.55 0 0 0-4.72-3.33 6.72 6.72 0 0 0-5.85 1.61 2 2 0 0 0 0 2.78 2 2 0 0 0 2.79 0c.4-.36-.33.18.13-.11l.28-.17c.08 0 .56-.22.14-.09l.33-.1c.16 0 .33-.08.49-.12-.37.09-.13 0 0 0h.56c.11 0 .57.11.15 0a7.62 7.62 0 0 1 .82.22c-.41-.14.08 0 .15.08a2.69 2.69 0 0 1 .29.16 3.93 3.93 0 0 1 .42.29c-.29-.23-.06 0 0 0a9.74 9.74 0 0 1 .7.74c-.27-.34.06.11.09.16a2.75 2.75 0 0 1 .17.29c.09.15.16.3.24.45 0-.06-.13-.36 0 0a6.52 6.52 0 0 1 .21.72c0 .15.06.3.09.45-.06-.33 0-.15 0 .08v.75c0 .1-.07.61 0 .08v.3c0 .1-.11.5-.18.74l-.15.43c-.14.38.17-.31 0 .08-.13.22-.24.44-.37.66s-.15.2-.21.3.31-.32 0 0c-.18.17-.34.36-.53.53 0 0-.4.29-.14.12l-.3.19-.33.17c-.12.07-.42.14 0 0-.23.07-.45.15-.69.2h-.16c.32-.07-.12 0-.17 0a8.23 8.23 0 0 1-.86 0h.09a1.56 1.56 0 0 1-.42-.08l-.69-.2c-.34-.1 0 0 .06 0l-.38-.19a6.81 6.81 0 0 1-.73-.45c.05 0 .32.28.06 0a4.11 4.11 0 0 1-.31-.29c-.11-.11-.51-.68-.24-.24-.13-.21-.25-.4-.37-.61s0 0 0 .08a4.75 4.75 0 0 1-.2-.64c0-.12-.05-.23-.08-.34.1.44 0-.13 0-.24a3.08 3.08 0 0 1 0-.43v-.16a5.93 5.93 0 0 1 .24-1c0-.17.11-.33.17-.5.14-.39-.13.23.08-.18a12.6 12.6 0 0 1 1.14-1.85c-.2.26 0 0 0 0 .16-.19.31-.37.48-.55s.5-.52.76-.77a2 2 0 0 0 0-2.78 2 2 0 0 0-2.79 0ZM234.3 54.71a31.53 31.53 0 0 0 4.79 11.34 2 2 0 0 0 3.6-.47 112.91 112.91 0 0 0 2.91-12 2 2 0 0 0-1.38-2.43 2 2 0 0 0-2.43 1.38 109.93 109.93 0 0 1-2.9 12l3.6-.47a27.82 27.82 0 0 1-4.38-10.4 2 2 0 0 0-2.43-1.38 2 2 0 0 0-1.38 2.43ZM248.63 52.53 244.83 66a2 2 0 1 0 3.8 1l3.8-13.45a2 2 0 0 0-3.8-1Z"/>
    <path class="cls-3" d="M248.78 54.86 256.07 67a2 2 0 0 0 3.41-2l-7.3-12.11a2 2 0 1 0-3.4 2Z"/>
    <path class="cls-3" d="m249.35 65.75 3.93-.48a1.42 1.42 0 0 0 .76-.17 1.38 1.38 0 0 0 .63-.41 2 2 0 0 0 0-2.78 1.87 1.87 0 0 0-1.39-.58l-3.93.47a2.21 2.21 0 0 0-1.4.58 2 2 0 0 0-.58 1.39 2 2 0 0 0 .58 1.4 1.91 1.91 0 0 0 1.4.58ZM263 53.44a78.14 78.14 0 0 0 1.34 12.77 2 2 0 0 0 2.43 1.38 2 2 0 0 0 1.37-2.43 70.86 70.86 0 0 1-1.2-11.72 2 2 0 1 0-3.94 0Z"/>
    <path class="cls-3" d="m259.19 55.4 13.07-.85a2 2 0 1 0 0-3.94l-13.07.85a2 2 0 0 0 0 3.94Z"/>
    <path class="cls-3" d="M274.58 54.24v10.25a2 2 0 1 0 3.94 0V54.24a2 2 0 1 0-3.94 0Z"/>
    <path class="cls-3" d="m277.31 54.74 8.35-1a2.13 2.13 0 0 0 1.39-.58 2 2 0 0 0 .58-1.39 2 2 0 0 0-2-2l-8.35 1a2.14 2.14 0 0 0-1.4.57 2.05 2.05 0 0 0-.58 1.4c.05 1 .88 2.1 2 2ZM277.93 62.63l.49-.22-.47.19a8.86 8.86 0 0 1 2.15-.6l-.52.07a8.68 8.68 0 0 1 2.22 0l-.52-.07h.26a2.11 2.11 0 0 0 1.52-.2 2 2 0 0 0 .71-2.7 1.91 1.91 0 0 0-1.18-.9 9.8 9.8 0 0 0-3.63 0 10.09 10.09 0 0 0-3 1 2 2 0 0 0-.71 2.7 2.06 2.06 0 0 0 1.18.91 2.23 2.23 0 0 0 1.52-.2ZM275.77 68.52l9.44-1a2 2 0 0 0 2-2 2 2 0 0 0-2-2l-9.44 1a2 2 0 0 0-2 2 2 2 0 0 0 2 2ZM290.58 51.76a24.07 24.07 0 0 0-.06 7.53 19.21 19.21 0 0 0 2.17 6.71 4.83 4.83 0 0 0 2.74 2.32 4.45 4.45 0 0 0 3.61-.64c2.27-1.51 2.64-4.23 2.94-6.73a43.11 43.11 0 0 0 .13-8.65 2 2 0 0 0-2-2 2 2 0 0 0-2 2 42.37 42.37 0 0 1-.08 8.12 12.56 12.56 0 0 1-.58 3.11c.07-.11 0-.06-.07.16s-.15.27-.23.4c.17-.25-.44.41-.16.19 0 0-.53.28-.25.17a2.85 2.85 0 0 1-.39.11h-.07a.26.26 0 0 1 .24.05c-.2-.13-.22-.14-.07 0-.06 0-.39-.45-.2-.19a6.46 6.46 0 0 1-.67-1.27 19.33 19.33 0 0 1-1.05-3.34 19.07 19.07 0 0 1-.21-6.9 2 2 0 0 0-1.32-2.52 2 2 0 0 0-2.42 1.37ZM305.37 52.66 305.29 68c0 2.54 3.93 2.54 3.94 0l.08-15.38c0-2.54-3.93-2.54-3.94 0Z"/>
    <path class="cls-3" d="M307.53 54.77a5.13 5.13 0 0 1 3.13-.88c-.3 0 .41.12.49.15-.22-.08.38.21.45.27-.23-.18.2.22.21.23-.23-.29.23.51.1.21 0 .25.07.29 0 .12a2.16 2.16 0 0 1 0 .44c0-.28-.1.33-.1.33a4.44 4.44 0 0 1-.69 1.1 7.49 7.49 0 0 1-1 1c-.18.14-.46.31-.62.41s-.32.07-.18.08.07.06-.18 0c-2.18-.63-3.38 2.44-1.52 3.61a98.19 98.19 0 0 1 8.86 6.16 2 2 0 0 0 2.79 0 2 2 0 0 0 0-2.79 108.25 108.25 0 0 0-9.64-6.83L308.11 62c2.2.64 4.33-.78 5.75-2.34a6.45 6.45 0 0 0 1.91-5.7 5.36 5.36 0 0 0-4-3.8 8.65 8.65 0 0 0-6.26 1.24c-2.22 1.24-.23 4.65 2 3.41Z"/>
    <path class="cls-3" d="m329.28 54.92.68-.67a2 2 0 0 0-.4-3.1 10.33 10.33 0 0 0-8-.28c-1.52.61-3 1.58-3 3.43a5.4 5.4 0 0 0 2.17 3.7 23.2 23.2 0 0 0 3 2.09c.46.28.91.57 1.35.88s.15.12.08.06l.3.26.28.29s.35.39.24.26.24.34.31.47.36.71.24.41a4.38 4.38 0 0 1 .21.73c0-.1 0-.34 0 0v.46c-.11.28.14-.24 0 0l-.15.25c.18-.24 0 0-.06 0-.33.24-.1.08 0 0l-.33.19c-.32.19-.14.06-.05 0a4 4 0 0 1-.46.14c-.13 0-.26.06-.39.09s.19 0-.16 0h-.89a7.09 7.09 0 0 1-.79 0c.42 0-.32-.07-.43-.1s-.8-.29-.44-.12l-.3-.15s-.42-.29-.21-.12-.1-.08-.09-.11-.08-.07.06.11l-.08-.13c-.07-.11-.09-.3 0 .06-.12-.39 0 .37 0-.1a2 2 0 1 0-3.94 0c0 2.89 2.72 4.29 5.25 4.59s5.37-.36 6.8-2.57c1.54-2.41.34-5.44-1.44-7.33a14.59 14.59 0 0 0-3.08-2.27c-.49-.3-1-.59-1.45-.92a8.44 8.44 0 0 1-1.21-1c-.15-.16-.14-.24-.32-.41s0-.53-.1.18a.57.57 0 0 1-.31.64l.17-.11a7.62 7.62 0 0 1 1.76-.64 6.58 6.58 0 0 1 3.54.33l-.4-3.1-.68.67a2 2 0 1 0 2.79 2.79Z"/>
    <path class="cls-4" d="M171.58 62.5q3.16.31 6.34.56c2 .16 4.41.42 5.49-1.76a6.61 6.61 0 0 0-.23-5.63A5.79 5.79 0 0 0 179 53a10 10 0 0 0-5.21.13C171.7 54 171 56 170.54 58a9 9 0 0 0 .39 6.14 8.14 8.14 0 0 0 3.77 3.61c4.09 2 9.31 1.55 13.42-.12a2 2 0 0 0 1.38-2.43 2 2 0 0 0-2.42-1.37A15.62 15.62 0 0 1 179 65c-2.15-.31-4.63-1.44-4.84-3.74a9.12 9.12 0 0 1 .73-3.92c.1-.27.2-.44.32-.49a4 4 0 0 1 1.62-.1c.43 0 1.08.07 1.28.11a4.86 4.86 0 0 1 1.29.39 1 1 0 0 1 .5.62 4 4 0 0 1 .07 1.56v.14s.32-.37.3-.3-.37 0-.56 0c-.88 0-1.77-.12-2.66-.19-1.79-.15-3.59-.31-5.38-.49a2 2 0 0 0-2 2 2 2 0 0 0 2 2ZM190.71 61.1l5.66-.34a2 2 0 1 0 0-3.94l-5.66.34a2 2 0 1 0 0 3.94Z"/>
</svg>