<?xml version="1.0" encoding="UTF-8" standalone="no"?>
<svg
   version="1.1"
   width="252.1893"
   height="252.32869"
   viewBox="0 0 252.1893 252.32869"
   xml:space="preserve"
   id="svg2"
   xmlns="http://www.w3.org/2000/svg"
   xmlns:svg="http://www.w3.org/2000/svg"><defs
   id="defs2" />
<g
   style="opacity:1;fill:none;fill-rule:nonzero;stroke:none;stroke-width:0;stroke-linecap:butt;stroke-linejoin:miter;stroke-miterlimit:10;stroke-dasharray:none"
   transform="matrix(2.81,0,0,2.81,-0.33566014,-0.2175316)"
   id="g2">
	
	
<path
   style="fill:#ffffff;fill-opacity:1;stroke-width:0;paint-order:stroke fill markers"
   d="m 119.36,253.89058 c -0.616,-0.0698 -2.70265,-0.27994 -4.637,-0.46696 C 92.485334,251.27363 70.045526,242.41874 51.751085,228.5745 40.519392,220.07497 29.954364,208.77926 22.299981,197.08655 11.325098,180.32149 4.8824659,162.56239 2.3447494,142.08 1.5392147,135.57838 1.541951,120.17829 2.3498098,113.6 4.8454566,93.278278 11.383441,75.256915 22.314446,58.569286 30.638442,45.861603 42.102714,33.97856 54.77615,24.921812 70.887389,13.408327 90.062445,5.7093389 109.6,2.9094603 c 13.29493,-1.9052643 27.36452,-1.6883888 40.48,0.6239788 34.05619,6.0043868 64.57382,26.2853799 83.62993,55.5776459 10.95411,16.838214 17.37009,34.859357 19.79817,55.608915 0.63619,5.43676 0.53579,21.90634 -0.16875,27.68 -6.67688,54.71656 -47.1261,98.54434 -100.85935,109.28372 -8.42483,1.68383 -12.98074,2.12595 -23.04,2.23587 -4.928,0.0539 -9.464,0.0408 -10.08,-0.029 z m -13.50364,-58.46532 c 7.60796,-2.64578 14.44147,-11.49873 19.56379,-25.34526 0.91152,-2.464 1.84021,-4.9623 2.06375,-5.55179 l 0.40644,-1.07178 1.21603,3.47178 c 2.4796,7.07932 5.57284,13.69189 8.31987,17.78582 1.47112,2.19243 4.74991,5.88064 6.57376,7.39462 2.20373,1.82932 5.99981,3.60603 8.66511,4.05559 7.67477,1.29451 16.71632,-3.20492 25.57489,-12.72709 13.99307,-15.04128 9.30106,-29.44757 -11.80368,-36.24192 l -3.64368,-1.17302 4.02516,-0.21519 c 9.34686,-0.49968 16.34839,-2.7519 21.94678,-7.05976 4.70317,-3.61901 8.35664,-9.44392 9.779,-15.59116 0.89913,-3.88589 2.83246,-23.431527 3.73506,-37.761015 0.52175,-8.283082 -0.0861,-12.607232 -2.25204,-16.02193 -4.23184,-6.671504 -14.91365,-5.68183 -27.3866,2.537379 -12.21114,8.046688 -28.603,26.861821 -40.24975,46.200046 -1.33512,2.21682 -2.89687,4.98245 -3.47057,6.14584 l -1.04308,2.11526 -1.85094,-3.51536 C 119.54184,110.54207 107.05566,93.904794 96.014259,82.867453 84.856038,71.713334 74.472077,65.571507 65.881994,65.045046 58.008493,64.562506 54.155805,68.49607 53.271757,77.92 c -0.332883,3.548541 1.524406,27.71628 3.061702,39.84 0.742935,5.85907 1.467543,8.4706 3.381165,12.18594 5.181328,10.05964 15.888554,15.67648 30.082634,15.78084 l 4.51726,0.0332 -2.687356,0.71452 c -12.006906,3.19242 -20.261156,9.73289 -21.834615,17.30123 -1.400032,6.73415 2.108224,14.52926 9.858295,21.90446 9.87584,9.39814 18.249257,12.51197 26.205518,9.74505 z"
   id="path3"
   transform="matrix(0.35587189,0,0,0.35587189,-0.50056705,-0.50056705)" /></g>
</svg>
