<?xml version="1.0" encoding="iso-8859-1"?>
<!-- Generator: Adobe Illustrator 16.0.0, SVG Export Plug-In . SVG Version: 6.00 Build 0)  -->
<!DOCTYPE svg PUBLIC "-//W3C//DTD SVG 1.1//EN" "http://www.w3.org/Graphics/SVG/1.1/DTD/svg11.dtd">
<svg version="1.1" id="Capa_1" xmlns="http://www.w3.org/2000/svg" xmlns:xlink="http://www.w3.org/1999/xlink" x="0px" y="0px"
	 width="199.975px" height="199.975px" viewBox="0 0 199.975 199.975" style="enable-background:new 0 0 199.975 199.975;"
	 xml:space="preserve">
<g>
	<g>
		<path d="M188.772,30.23h-43.426v-8.405c0-2.317-1.882-4.202-4.202-4.202s-4.203,1.885-4.203,4.202v8.405H93.519
			c-6.18,0-11.206,5.029-11.206,11.208v14.755l-5.834-1.945c-1.524-0.542-15.119-5.278-27.642-5.894l-1.669,3.333h-0.047
			l4.721,36.737l-5.604,9.792l-5.603-9.792l4.716-36.737h-0.048l-1.667-3.338c-12.988,0.637-27.167,5.727-27.802,5.956
			c-0.231,0.082-0.38,0.258-0.594,0.364c-0.46,0.219-0.882,0.466-1.283,0.777c-0.343,0.266-0.626,0.544-0.904,0.864
			c-0.306,0.342-0.572,0.695-0.808,1.097c-0.234,0.405-0.406,0.818-0.563,1.267c-0.084,0.247-0.25,0.438-0.31,0.7L0.167,109.805
			c-0.833,3.774,1.541,7.513,5.316,8.354c0.518,0.116,1.027,0.171,1.524,0.171c3.212,0,6.109-2.228,6.838-5.489l10.344-46.533
			c0.722-0.225,1.541-0.466,2.43-0.714v47.812l-5.574,69.318c-0.369,4.624,3.076,8.68,7.706,9.045
			c0.229,0.018,0.453,0.027,0.684,0.027c4.331,0,8.01-3.33,8.363-7.731l5.038-62.646c1.042,0.457,2.185,0.72,3.39,0.72
			c1.207,0,2.356-0.263,3.389-0.72l5.041,62.646c0.353,4.401,4.032,7.731,8.363,7.731c0.231,0,0.456-0.005,0.684-0.027
			c4.629-0.365,8.075-4.427,7.706-9.045l-5.577-69.318V65.593c3.561,1.009,5.962,1.866,6.025,1.885
			c0.026,0.011,0.054,0.006,0.089,0.011c0.027,0.011,0.049,0.033,0.077,0.044l10.272,3.423v37.721
			c0,6.186,5.026,11.206,11.206,11.206h20.399l-17.888,66.792c-0.6,2.244,0.733,4.547,2.968,5.144
			c0.366,0.099,0.736,0.142,1.089,0.142c1.858,0,3.555-1.236,4.059-3.119l18.48-68.963h14.325v48.871
			c0,2.32,1.881,4.202,4.201,4.202s4.202-1.882,4.202-4.202v-48.871h14.326l18.475,68.963c0.509,1.883,2.204,3.119,4.063,3.119
			c0.351,0,0.723-0.043,1.089-0.142c2.235-0.597,3.574-2.905,2.968-5.144l-17.888-66.792h20.399c6.177,0,11.206-5.021,11.206-11.206
			V41.438C199.979,35.259,194.945,30.23,188.772,30.23z M194.376,108.677c0,3.086-2.512,5.604-5.604,5.604H93.519
			c-3.093,0-5.603-2.518-5.603-5.604V72.828l17.742,5.917c0.738,0.24,1.485,0.358,2.222,0.358c2.928,0,5.669-1.86,6.646-4.791
			c0.162-0.493,0.131-0.985,0.178-1.485l42.107-19.484c0.7-0.323,1.007-1.16,0.681-1.861c-0.323-0.7-1.154-1.012-1.863-0.681
			L114.399,69.88c-0.676-1.999-2.147-3.71-4.304-4.432l-22.175-7.39V41.438c0-3.086,2.51-5.604,5.604-5.604h95.253
			c3.092,0,5.604,2.518,5.604,5.604v67.239H194.376z"/>
		<path d="M46.239,46.846c9.771,0,17.704-11.341,17.704-21.12c0-9.784-7.933-17.712-17.704-17.712
			c-9.784,0-17.719,7.935-17.719,17.712C28.52,35.505,36.455,46.846,46.239,46.846z"/>
		<path d="M164.159,64.436l-10.143,8.129c-0.298,0.241-0.473,0.6-0.473,0.982v11.328h-19.064c-0.698,0-1.259,0.565-1.259,1.261
			v11.33h-19.064c-0.695,0-1.257,0.563-1.257,1.265c0,0.688,0.557,1.258,1.252,1.258h20.324c0.693,0,1.262-0.569,1.262-1.258V87.396
			h19.064c0.69,0,1.26-0.561,1.26-1.261V74.151l9.882-7.929l2.459,2.456l2.895-9.276l-9.277,2.893L164.159,64.436z"/>
		<rect x="118.2" y="77.574" width="10.271" height="17.276"/>
		<rect x="138.512" y="64.441" width="10.271" height="17.275"/>
	</g>
</g>
<g>
</g>
<g>
</g>
<g>
</g>
<g>
</g>
<g>
</g>
<g>
</g>
<g>
</g>
<g>
</g>
<g>
</g>
<g>
</g>
<g>
</g>
<g>
</g>
<g>
</g>
<g>
</g>
<g>
</g>
</svg>
