<?xml version="1.0" encoding="UTF-8" standalone="no"?>
<!-- Created with Inkscape (http://www.inkscape.org/) -->

<svg
   version="1.1"
   id="svg1"
   width="528.84418"
   height="528.76172"
   viewBox="0 0 528.84418 528.76172"
   sodipodi:docname="facebook.png"
   xmlns:inkscape="http://www.inkscape.org/namespaces/inkscape"
   xmlns:sodipodi="http://sodipodi.sourceforge.net/DTD/sodipodi-0.dtd"
   xmlns="http://www.w3.org/2000/svg"
   xmlns:svg="http://www.w3.org/2000/svg">
  <defs
     id="defs1" />
  <sodipodi:namedview
     id="namedview1"
     pagecolor="#ffffff"
     bordercolor="#000000"
     borderopacity="0.25"
     inkscape:showpageshadow="2"
     inkscape:pageopacity="0.0"
     inkscape:pagecheckerboard="0"
     inkscape:deskcolor="#d1d1d1">
    <inkscape:page
       x="0"
       y="0"
       width="528.84418"
       height="528.76172"
       id="page2"
       margin="0"
       bleed="0" />
  </sodipodi:namedview>
  <g
     inkscape:groupmode="layer"
     inkscape:label="Image"
     id="g1"
     transform="translate(-152.1329,-74.953742)">
    <path
       style="fill:#ffffff"
       d="m 405.66963,603.63854 c -8.25848,-0.49882 -14.73808,-1.03358 -19.96946,-1.64808 -100.94647,-11.85745 -186.49401,-80.93939 -219.51034,-177.2605 -7.30805,-21.32033 -11.52479,-41.95917 -13.59784,-66.55469 -0.69304,-8.2226 -0.57979,-31.66647 0.19382,-40.12214 2.60144,-28.43396 8.23952,-52.27962 18.25999,-77.22864 32.37131,-80.59825 103.06539,-140.76069 187.53986,-159.601153 12.33937,-2.75207 24.39842,-4.55621 38.8397,-5.81077 8.03862,-0.69834 31.82695,-0.57619 40.48855,0.2079 32.75292,2.96494 61.45102,10.57984 90.08834,23.90451 81.10971,37.739533 138.07213,114.663613 150.4247,203.138843 8.94377,64.05979 -5.80425,128.81636 -41.62681,182.77761 -17.71472,26.68455 -40.78745,50.54984 -66.84318,69.13928 -39.49249,28.1759 -84.47153,44.465 -134.05832,48.54904 -4.67942,0.3854 -26.25858,0.7486 -30.22901,0.50879 z m 15.11451,-90.84485 0.82442,-0.26115 v -73.96433 -73.96432 l 30.32062,-0.0998 30.32061,-0.0998 1.59368,-0.85045 c 2.50784,-1.3383 4.62745,-3.52539 5.65738,-5.83749 0.8171,-1.8343 1.24529,-4.58729 3.31959,-21.34259 2.51688,-20.33024 2.56806,-21.42177 1.13657,-24.23952 -1.26645,-2.49288 -3.07808,-4.28562 -5.57132,-5.51323 l -2.45561,-1.20908 -32.17353,-0.10308 -32.17353,-0.10307 0.10437,-28.47708 0.10438,-28.47708 1.20956,-3.48091 c 1.74796,-5.03034 3.68134,-8.08177 7.58117,-11.96532 2.93275,-2.9205 3.86221,-3.59477 7.18212,-5.21022 6.53545,-3.18012 5.62584,-3.08077 30.3783,-3.3179 19.37983,-0.18565 21.92363,-0.27644 22.90076,-0.81736 1.45258,-0.80411 2.97437,-2.44169 3.45761,-3.72069 0.26102,-0.69085 0.38972,-9.02947 0.38972,-25.25025 v -24.21876 l -0.92577,-1.57971 c -0.57145,-0.9751 -1.58817,-1.96908 -2.65649,-2.59708 l -1.73072,-1.01737 -25.64885,-0.11168 c -32.42836,-0.14121 -38.35342,0.20195 -47.45039,2.74817 -12.12105,3.39265 -22.27988,9.27606 -31.46334,18.22176 -10.10692,9.84525 -16.83783,21.40847 -20.17095,34.65224 -2.20168,8.74811 -2.22831,9.33072 -2.22831,48.75255 v 35.88963 H 340.4273 c -15.70076,0 -22.68566,0.12509 -23.88782,0.4278 -2.17404,0.54743 -4.64521,2.93007 -5.20848,5.02189 -0.27427,1.01858 -0.36766,8.87412 -0.29769,25.04016 l 0.10197,23.55595 0.88907,1.55222 c 0.48898,0.85372 1.54653,2.00792 2.35011,2.56488 l 1.46104,1.01267 23.39035,0.0995 23.39034,0.0995 v 72.48643 72.48643 l 4.67176,0.82144 c 5.54509,0.97499 14.09165,2.08404 19.69466,2.55568 4.51058,0.37969 32.51653,0.24748 33.80153,-0.15957 z"
       id="path1"
       sodipodi:nodetypes="scsssssssssssssccccccssssscccccssssssscsscssssscsssscsscccccsssc"
       inkscape:export-filename="facebook.svg"
       inkscape:export-xdpi="96"
       inkscape:export-ydpi="96" />
  </g>
</svg>
