<?xml version="1.0" encoding="iso-8859-1"?>
<!-- Generator: Adobe Illustrator 16.0.0, SVG Export Plug-In . SVG Version: 6.00 Build 0)  -->
<!DOCTYPE svg PUBLIC "-//W3C//DTD SVG 1.1//EN" "http://www.w3.org/Graphics/SVG/1.1/DTD/svg11.dtd">
<svg version="1.1" id="Capa_1" xmlns="http://www.w3.org/2000/svg" xmlns:xlink="http://www.w3.org/1999/xlink" x="0px" y="0px"
	 width="23.232px" height="23.233px" viewBox="0 0 23.232 23.233" style="enable-background:new 0 0 23.232 23.233;"
	 xml:space="preserve">
<g>
	<path d="M4.398,11.211c0.571,0.894,1.084,1.546,0.933,2.591c-0.146,1.012-0.086,2.075-0.587,3.005
		c-0.355,0.66,0.23,0.688,0.527,0.943c1.171,1.012,2.676,0.604,4.007,0.923c1,0.24,2.47,1.208,2.748-0.985
		c0.05-0.394,0.661-0.506,1.13-0.522c0.75-0.031,1.455,0.137,2.153,0.389c0.99,0.355,2.659-0.353,3.061-1.26
		c0.169-0.383-0.012-0.44-0.323-0.596c-0.828-0.411-0.778-1.065-0.575-1.9c0.174-0.727,0.312-1.787-0.597-2.121
		c-0.834-0.307-0.304-0.605-0.116-0.785c0.899-0.877,1.427-1.916,1.968-3.06c0.55-1.16-0.011-1.182-0.693-1.381
		c-2.522-0.738-4.841-1.874-6.952-3.442c-0.804-0.599-1.495-0.408-1.554,0.587C9.469,4.568,9.086,4.905,8.199,4.912
		c-0.351,0.005-0.697,0.11-0.856,0.471C6.831,6.55,6.109,6.024,5.479,5.57c-0.33-0.24-0.562-0.573-0.997-0.276
		c-0.477,0.324-0.184,0.649-0.001,1c0.531,1.014,0.286,1.184-0.869,1.119C3.373,7.398,3.176,7.309,2.993,7.207
		c-0.307-0.17-0.578-0.365-0.95-0.264C1.712,7.024,1.385,7.131,1.05,7.179C0.599,7.244-0.013,7.021,0,7.819
		c0.011,0.684,0.208,1.179,0.999,1.376C2.307,9.521,3.492,9.791,4.398,11.211z"/>
	<path d="M21.9,18.642c-0.342,0.482-0.185,1.017,0.091,1.499c0.15,0.264,0.365,0.523,0.686,0.382
		c0.521-0.237,0.521-0.777,0.527-1.247c0.005-0.461,0.157-0.964-0.292-1.544C22.532,18.063,22.144,18.3,21.9,18.642z"/>
</g>
<g>
</g>
<g>
</g>
<g>
</g>
<g>
</g>
<g>
</g>
<g>
</g>
<g>
</g>
<g>
</g>
<g>
</g>
<g>
</g>
<g>
</g>
<g>
</g>
<g>
</g>
<g>
</g>
<g>
</g>
</svg>
