<?xml version="1.0" encoding="UTF-8" standalone="no"?>
<!-- Created with Inkscape (http://www.inkscape.org/) -->

<svg
   version="1.1"
   id="svg1"
   width="528.90643"
   height="528.9126"
   viewBox="0 0 528.90644 528.9126"
   xmlns="http://www.w3.org/2000/svg"
   xmlns:svg="http://www.w3.org/2000/svg">
  <defs
     id="defs1" />
  <g
     id="g1"
     transform="translate(-71.93701,-57.728244)">
    <path
       style="fill:#ffffff"
       d="m 322.92825,586.39626 -2.01527,-0.11247 -4.94657,-0.38 -4.94656,-0.38001 -5.12977,-0.56797 -5.12977,-0.56797 -8.42748,-1.41463 -8.42749,-1.41462 -6.58943,-1.52789 -6.58943,-1.52788 -5.31896,-1.45709 -5.31897,-1.4571 -6.96183,-2.30854 -6.96183,-2.30855 -6.0458,-2.37678 -6.04581,-2.37678 -5.49618,-2.45581 -5.49618,-2.45581 -7.32825,-3.76123 -7.32824,-3.76124 -5.49618,-3.22049 -5.49619,-3.22048 -5.67939,-3.72744 -5.67939,-3.72744 -4.76336,-3.45507 -4.76335,-3.45507 -5.31298,-4.25208 -5.31298,-4.25209 -4.76336,-4.18189 -4.76336,-4.1819 -6.44426,-6.41221 -6.44427,-6.41221 -3.45249,-3.86887 -3.45249,-3.86887 -3.53571,-4.21866 -3.53572,-4.21865 -4.55934,-6.03899 -4.55934,-6.03899 -3.76434,-5.6285 -3.76434,-5.6285 -4.1006,-6.85391 -4.10059,-6.85391 -4.2494,-8.38344 -4.249415,-8.38345 -2.82032,-6.59542 -2.82031,-6.59542 -1.92475,-5.12977 -1.92474,-5.12977 -1.882132,-5.74389 -1.882132,-5.74389 -1.605428,-5.80384 -1.605429,-5.80384 -1.311698,-5.85685 -1.311698,-5.85685 -0.908125,-4.94657 -0.908125,-4.94656 -0.743971,-5.12977 -0.743972,-5.12977 -0.557686,-5.49619 -0.557686,-5.49618 -0.363084,-5.49618 -0.363084,-5.49619 -0.0051,-10.62595 -0.0051,-10.62596 0.382683,-6.0458 0.382682,-6.0458 0.726239,-6.59542 0.726238,-6.59542 0.936708,-5.8626 0.936709,-5.86259 1.439506,-7.00111 1.439506,-7.0011 1.849981,-6.92256 1.84998,-6.92256 2.674582,-8.06107 2.674586,-8.06107 2.10563,-5.29959 2.10564,-5.2996 2.13051,-4.81555 2.1305,-4.81555 3.37243,-6.73982 3.372425,-6.73981 2.58659,-4.58016 2.58658,-4.58015 2.3709,-3.84733 2.3709,-3.84732 3.55397,-5.31676 3.55397,-5.31675 4.39016,-5.87269 4.39017,-5.87268 4.12017,-4.9327 4.12017,-4.9327 4.87679,-5.31537 4.87678,-5.31537 4.34951,-4.21135 4.3495,-4.21135 3.65976,-3.30992 3.65976,-3.30993 4.39695,-3.65793 4.39695,-3.65794 5.95136,-4.47476 5.95137,-4.47476 5.46129,-3.65252 5.4613,-3.652524 6.54154,-3.93595 6.54153,-3.93595 8.06107,-4.11964 8.06107,-4.11964 5.12977,-2.26985 5.12977,-2.26985 6.04581,-2.38229 6.0458,-2.3823 6.96183,-2.30566 6.96183,-2.30566 6.0458,-1.64571 6.0458,-1.64572 5.67939,-1.30233 5.67939,-1.30232 6.0458,-1.08529 6.04581,-1.08528 7.51145,-0.92893 7.51145,-0.92893 5.12977,-0.47084 5.12977,-0.47085 15.38931,-3.5e-4 15.38931,-3.5e-4 5.31298,0.4721 5.31298,0.47211 6.0458,0.7268 6.0458,0.72681 5.49618,0.92032 5.49619,0.92032 4.58015,0.93683 4.58015,0.93683 6.59542,1.6508 6.59542,1.65079 6.96183,2.14115 6.96184,2.14114 6.77862,2.53341 6.77863,2.5334 4.94656,2.11113 4.94657,2.11113 6.29939,3.03495 6.2994,3.03495 4.50976,2.46653 4.50977,2.46653 5.82108,3.48555 5.82107,3.48554 5.17129,3.471544 5.17129,3.47154 5.49618,4.10336 5.49619,4.10336 4.39694,3.60764 4.39695,3.60764 4.75578,4.2463 4.75578,4.2463 5.51738,5.52598 5.51738,5.52598 4.23268,4.73356 4.23268,4.73356 3.60764,4.39695 3.60764,4.39695 4.09365,5.49618 4.09364,5.49618 3.65629,5.49619 3.65628,5.49618 2.59733,4.26069 2.59733,4.26069 3.39245,6.18206 3.39245,6.18206 2.71605,5.67791 2.71604,5.67792 2.48702,5.87208 2.48702,5.87207 1.83447,4.93856 1.83447,4.93856 2.04121,6.29225 2.04122,6.29225 1.64288,6.16577 1.64289,6.16576 1.29381,5.86259 1.29382,5.8626 1.08794,6.46678 1.08795,6.46678 0.73623,6.35765 0.73623,6.35764 0.47095,5.31298 0.47094,5.31298 -0.004,14.47328 -0.004,14.47328 -0.46606,5.31298 -0.46607,5.31298 -0.72095,6.22901 -0.72096,6.229 -1.10719,6.59542 -1.1072,6.59542 -1.29024,5.8626 -1.29024,5.8626 -1.65436,6.229 -1.65436,6.22901 -2.66972,8.06107 -2.66971,8.06107 -2.46131,6.19071 -2.46131,6.19071 -3.09767,6.81692 -3.09767,6.81693 -3.51819,6.59542 -3.51819,6.59542 -3.28929,5.4715 -3.2893,5.4715 -3.99433,5.97562 -3.99434,5.97563 -4.35091,5.77425 -4.35092,5.77425 -3.92737,4.69134 -3.92737,4.69134 -3.88259,4.25199 -3.88259,4.252 -5.14892,5.11551 -5.14892,5.11551 -4.58016,4.111 -4.58015,4.111 -4.39695,3.60776 -4.39694,3.60775 -5.49619,4.09364 -5.49618,4.09365 -5.49618,3.66495 -5.49618,3.66495 -5.51156,3.3145 -5.51156,3.3145 -5.89375,3.16403 -5.89376,3.16404 -6.54889,3.04844 -6.54888,3.04845 -6.55347,2.64295 -6.55347,2.64296 -7.00378,2.36987 -7.00379,2.36988 -4.96546,1.43795 -4.96547,1.43795 -5.285,1.2977 -5.28501,1.2977 -6.42128,1.2598 -6.42129,1.25981 -6.229,0.91417 -6.22901,0.91417 -5.67939,0.56574 -5.67939,0.56574 -6.0458,0.37059 -6.0458,0.37059 -10.25955,-0.0661 -10.25954,-0.0661 z m 98.32885,-126.60557 4.34411,-0.97189 3.7094,-1.19104 3.70939,-1.19104 5.32054,-2.68062 5.32053,-2.68061 3.48092,-2.46354 3.48091,-2.46354 4.94666,-4.95817 4.94666,-4.95816 2.46224,-3.48092 2.46225,-3.48091 2.36293,-4.58016 2.36292,-4.58015 1.46539,-4.25918 1.46538,-4.25919 0.73829,-3.43547 0.73828,-3.43547 0.39091,-3.55808 0.39092,-3.55808 v -75.5098 -75.5098 l -0.39012,-3.55808 -0.39011,-3.55807 -0.70924,-3.29771 -0.70925,-3.29771 -1.12676,-3.48092 -1.12676,-3.48092 -2.15657,-4.50209 -2.15657,-4.50209 -2.08093,-3.19257 -2.08094,-3.19256 -2.10199,-2.56489 -2.10198,-2.56488 -3.6176,-3.50248 -3.6176,-3.50247 -2.74809,-2.02454 -2.74809,-2.02453 -2.56489,-1.55076 -2.56488,-1.55076 -3.29771,-1.58145 -3.29771,-1.58145 -3.84733,-1.30923 -3.84733,-1.30922 -3.29771,-0.72347 -3.29771,-0.72347 -3.66412,-0.4097 -3.66412,-0.40969 -78.22901,0.11898 -78.22901,0.11899 -4.42241,0.98721 -4.42241,0.98722 -3.82186,1.31294 -3.82187,1.31295 -4.07828,1.97921 -4.07828,1.97922 -3.79958,2.55357 -3.79958,2.55357 -3.48092,3.09921 -3.48091,3.09921 -2.56489,2.9986 -2.56488,2.99859 -2.3109,3.36485 -2.3109,3.36485 -2.33285,4.76336 -2.33285,4.76336 -1.27977,4.03054 -1.27978,4.03053 -0.55945,2.74809 -0.55945,2.74809 -0.40117,3.11451 -0.40118,3.1145 0.11123,78.59542 0.11122,78.59542 0.64865,3.21042 0.64864,3.21041 0.92762,3.20104 0.92763,3.20103 1.43835,3.66489 1.43836,3.66489 2.0404,3.7012 2.04039,3.7012 2.89938,3.86152 2.89937,3.86153 3.29546,3.3175 3.29546,3.3175 3.39517,2.62395 3.39516,2.62396 3.48668,2.05242 3.48668,2.05242 3.49436,1.53822 3.49436,1.53822 3.65068,1.11894 3.65068,1.11894 2.9313,0.57825 2.9313,0.57825 2.38167,0.31022 2.38168,0.31022 78.96184,-0.0584 78.96183,-0.0583 z m -160.06931,-23.58888 -2.9313,-0.52031 -3.32794,-1.06468 -3.32794,-1.06469 -2.81271,-1.33475 -2.81271,-1.33475 -3.38607,-2.2528 -3.38607,-2.25281 -3.50216,-3.49995 -3.50216,-3.49995 -2.43612,-3.67506 -2.43612,-3.67505 -1.2673,-2.78091 -1.2673,-2.78091 -0.95435,-3.02104 -0.95434,-3.02103 -0.63397,-3.34743 -0.63396,-3.34743 v -71.63359 -71.63359 l 0.63396,-3.34743 0.63397,-3.34742 0.96167,-3.06479 0.96168,-3.06479 1.25185,-2.72495 1.25184,-2.72496 2.44425,-3.68726 2.44424,-3.68725 3.50216,-3.50217 3.50216,-3.50216 3.67506,-2.43612 3.67505,-2.43612 2.78091,-1.2673 2.78091,-1.2673 2.93388,-0.92681 2.93388,-0.92681 3.25138,-0.56873 3.25138,-0.56872 71.8604,-0.001 71.8604,-10e-4 3.2541,0.5616 3.2541,0.56161 3.00663,0.91085 3.00663,0.91086 4.0213,2.01307 4.0213,2.01307 3.04841,2.24532 3.04841,2.24533 2.74809,2.8037 2.74809,2.8037 2.24308,3.28224 2.24308,3.28223 1.35063,2.68942 1.35062,2.68942 1.2453,3.72279 1.24529,3.7228 0.56411,3.48092 0.5641,3.48091 v 71.26718 71.26718 l -0.5641,3.48091 -0.56411,3.48092 -1.24529,3.7228 -1.2453,3.7228 -1.35062,2.68941 -1.35063,2.68942 -2.24308,3.2853 -2.24308,3.28531 -3.12691,3.12691 -3.12691,3.12691 -3.2853,2.24339 -3.28531,2.2434 -2.9313,1.46073 -2.93129,1.46073 -2.34649,0.80344 -2.34649,0.80344 -2.96649,0.79901 -2.96649,0.79901 -73.46565,0.0682 -73.46564,0.0682 z m 84.58411,-42.84015 4.19416,-0.54981 4.16048,-1.0546 4.16048,-1.05461 3.66413,-1.37286 3.66412,-1.37287 2.89593,-1.45203 2.89593,-1.45204 3.25917,-2.01603 3.25916,-2.01604 2.822,-2.23055 2.82201,-2.23056 2.70767,-2.59127 2.70768,-2.59127 2.76355,-3.29771 2.76354,-3.29771 2.31735,-3.53426 2.31734,-3.53426 2.18468,-4.52681 2.18467,-4.52681 1.29793,-3.97215 1.29793,-3.97214 0.94747,-4.45534 0.94746,-4.45533 0.19047,-7.69466 0.19048,-7.69466 -0.61387,-4.21374 -0.61387,-4.21374 -0.92346,-3.66412 -0.92347,-3.66412 -1.29987,-3.48092 -1.29987,-3.48092 -1.9302,-3.84732 -1.9302,-3.84733 -2.1752,-3.29771 -2.1752,-3.29771 -2.2323,-2.7678 -2.23231,-2.7678 -3.62662,-3.48092 -3.62663,-3.48093 -2.17246,-1.67039 -2.17246,-1.6704 -3.21801,-2.09646 -3.21801,-2.09646 -4.47665,-2.13488 -4.47665,-2.13487 -3.89712,-1.28446 -3.89712,-1.28445 -3.61433,-0.74476 -3.61433,-0.74475 -3.10489,-0.38522 -3.10489,-0.38522 -5.5058,0.007 -5.50579,0.007 -3.77536,0.53666 -3.77537,0.53666 -3.36967,0.78732 -3.36968,0.78732 -3.66412,1.26638 -3.66412,1.26697 -4.07203,1.98264 -4.07202,1.98264 -4.35546,2.89368 -4.35545,2.89367 -3.66413,3.28023 -3.66412,3.28023 -2.56488,3.01756 -2.56489,3.01756 -2.29566,3.1748 -2.29566,3.17481 -2.9115,5.86259 -2.9115,5.8626 -1.07513,3.29771 -1.07513,3.29771 -0.93405,4.21374 -0.93405,4.21374 -0.38671,3.55808 -0.38672,3.55807 v 4.05942 4.05942 l 0.38672,3.55808 0.38671,3.55807 0.93405,4.21374 0.93405,4.21375 1.08591,3.29771 1.08592,3.29771 2.33007,4.84126 2.33007,4.84127 1.7223,2.67018 1.72229,2.67019 2.39351,3.07254 2.3935,3.07255 3.33066,3.34784 3.33066,3.34784 3.16955,2.46698 3.16955,2.46698 3.14229,1.97279 3.14229,1.97279 3.39808,1.64618 3.39808,1.64619 3.48092,1.29014 3.48091,1.29015 3.91458,0.97339 3.91457,0.9734 3.59688,0.49007 3.59688,0.49008 5.56902,0.0378 5.56902,0.0378 z m -15.51541,-23.87379 -0.91603,-0.14058 -3.45781,-0.76775 -3.4578,-0.76774 -2.32465,-0.875 -2.32465,-0.87499 -2.64503,-1.33198 -2.64502,-1.33197 -2.57906,-1.74028 -2.57905,-1.74028 -2.41215,-2.05916 -2.41215,-2.05917 -2.19425,-2.65368 -2.19424,-2.65367 -1.65323,-2.56489 -1.65323,-2.56488 -1.16585,-2.31885 -1.16585,-2.31884 -1.2325,-3.72696 -1.23251,-3.72696 -0.57976,-3.45388 -0.57976,-3.45388 0.001,-4.24077 10e-4,-4.24078 0.5641,-3.48092 0.56411,-3.48091 1.24529,-3.7228 1.24529,-3.7228 1.35063,-2.68941 1.35063,-2.68942 2.1884,-3.20155 2.1884,-3.20155 2.80277,-2.88522 2.80277,-2.88522 2.97701,-2.19155 2.977,-2.19155 3.63417,-1.86675 3.63417,-1.86674 2.90116,-0.97389 2.90117,-0.97389 3.59989,-0.69784 3.59989,-0.69784 h 5.06878 5.06879 l 3.2541,0.56635 3.2541,0.56636 3.72696,1.24591 3.72696,1.24591 2.13563,1.08141 2.13564,1.0814 3.37956,2.22295 3.37956,2.22295 2.98005,2.84712 2.98005,2.84712 2.18989,2.93702 2.18989,2.93703 1.29335,2.30758 1.29335,2.30758 1.26386,2.99671 1.26385,2.99671 0.86052,3.31196 0.86052,3.31195 0.42449,4.30997 0.4245,4.30997 -0.40614,4.11195 -0.40613,4.11196 -0.88904,3.53745 -0.88904,3.53745 -1.46161,3.39024 -1.46161,3.39024 -1.36056,2.23261 -1.36056,2.23262 -2.29526,2.96553 -2.29527,2.96552 -2.6723,2.47414 -2.67229,2.47414 -3.50095,2.33068 -3.50095,2.33067 -2.78091,1.2673 -2.78092,1.26731 -3.00786,0.95018 -3.00787,0.95019 -3.3606,0.54505 -3.36059,0.54504 -4.94657,-0.0484 -4.94656,-0.0484 z m 88.95483,-110.94853 2.29835,-1.04072 2.15469,-2.30337 2.15469,-2.30337 0.82219,-2.13143 0.8222,-2.13143 0.006,-3.1145 0.006,-3.11451 -0.61953,-1.64885 -0.61954,-1.64886 -1.33302,-1.94692 -1.33302,-1.94692 -2.03098,-1.45435 -2.03098,-1.45435 -2.03052,-0.60468 -2.03052,-0.60467 -2.56489,0.0314 -2.56488,0.0314 -2.11871,0.79916 -2.11871,0.79916 -1.54238,1.17641 -1.54238,1.17642 -1.38533,1.81573 -1.38532,1.81573 -0.77058,2.50725 -0.77059,2.50725 0.16959,2.64256 0.16959,2.64257 0.96979,2.1183 0.96979,2.1183 1.14212,1.44204 1.14212,1.44205 1.64073,1.12885 1.64072,1.12884 1.89477,0.70311 1.89478,0.7031 3.29771,-0.12003 3.29771,-0.12003 z"
       id="path1" />
  </g>
</svg>
