<?xml version="1.0" encoding="UTF-8" standalone="no"?>
<!-- Created with Inkscape (http://www.inkscape.org/) -->

<svg
   version="1.1"
   id="svg1"
   width="528.90417"
   height="529.03851"
   viewBox="0 0 528.90418 529.03851"
   xmlns="http://www.w3.org/2000/svg"
   xmlns:svg="http://www.w3.org/2000/svg">
  <defs
     id="defs1" />
  <g
     id="g1"
     transform="translate(-201.01123,-84.240738)">
    <path
       style="fill:#0a66c2;fill-opacity:1"
       d="m 449.42657,612.95821 -4.76336,-0.32117 -5.86259,-0.58685 -5.8626,-0.58686 -6.22901,-0.91094 -6.229,-0.91094 -7.32825,-1.45965 -7.32824,-1.45966 -6.39722,-1.65012 -6.39722,-1.65013 -5.49167,-1.68402 -5.49167,-1.68402 -5.8821,-2.10852 -5.88211,-2.10853 -3.74186,-1.50077 -3.74186,-1.50077 -5.41845,-2.42597 -5.41844,-2.42596 -5.49618,-2.79388 -5.49619,-2.79388 -0.2748,0.0816 -0.27481,0.0816 -0.002,-0.27481 -0.002,-0.27481 -3.20395,-1.64885 -3.20394,-1.64886 -0.1832,-0.20816 -0.18321,-0.20816 -4.21374,-2.51109 -4.21374,-2.51108 -6.77863,-4.44713 -6.77862,-4.44712 -4.35892,-3.27638 -4.35892,-3.27637 -1.1786,-0.91604 -1.1786,-0.91603 -1.97393,-1.60142 -1.97393,-1.60141 -1.999,-1.6963 -1.99899,-1.69629 -3.31398,-2.92645 -3.31399,-2.92646 -5.63645,-5.50102 -5.63646,-5.50103 -5.31091,-5.86259 -5.31092,-5.8626 -5.00582,-6.22901 -5.00581,-6.22901 -4.02707,-5.67938 -4.02706,-5.67939 -2.95074,-4.58016 -2.95073,-4.58015 -1.65814,-2.74809 -1.65815,-2.74809 -2.58687,-4.61624 -2.58688,-4.61623 -2.78313,-5.55698 -2.78312,-5.55697 -2.51614,-5.60792 -2.51615,-5.60792 -3.11718,-8.03567 -3.11719,-8.03566 -1.85219,-5.8626 -1.8522,-5.86259 -0.96371,-3.46438 -0.96371,-3.46437 -1.23025,-5.14632 -1.23026,-5.14631 -1.12774,-5.67939 -1.12774,-5.67939 -1.07195,-7.51145 -1.07195,-7.51145 -0.65881,-6.59542 -0.65881,-6.59542 -7.9e-4,-17.03817 -7.9e-4,-17.03817 0.64143,-6.41221 0.64144,-6.41221 0.73895,-5.49619 0.73895,-5.49618 0.90909,-5.31298 0.90909,-5.31298 0.94113,-4.39694 0.94113,-4.39695 1.08917,-4.39695 1.08916,-4.39694 1.97572,-6.77863 1.97572,-6.77862 1.66063,-4.67472 1.66063,-4.67472 2.06461,-5.21841 2.06461,-5.21841 2.29642,-5.12978 2.29642,-5.12977 3.46642,-6.96183 3.46643,-6.96183 1.40548,-2.56489 1.40547,-2.56488 2.74487,-4.58016 2.74486,-4.58015 4.01686,-6.0458 4.01685,-6.0458 4.24743,-5.67939 4.24742,-5.67939 4.44751,-5.31298 4.44751,-5.31298 4.38715,-4.76335 4.38716,-4.76336 6.01467,-5.83721 6.01467,-5.83721 4.94656,-4.24439 4.94657,-4.24439 3.48966,-2.77532 3.48967,-2.77531 4.20499,-3.10916 4.20499,-3.10915 6.0458,-4.02413 6.0458,-4.02414 4.21375,-2.53573 4.21374,-2.53574 0.1832,-0.19162 0.18321,-0.19162 3.1145,-1.63032 3.11451,-1.63033 0.36641,-0.2778 0.36641,-0.2778 6.22901,-3.164 6.22901,-3.16401 4.03053,-1.8469 4.03053,-1.84689 6.22901,-2.48125 6.22901,-2.48124 6.41839,-2.191283 6.41839,-2.19128 6.62577,-1.86656 6.62577,-1.86656 4.54362,-1.07738 4.54363,-1.07739 5.67939,-1.10759 5.67939,-1.1076 6.22901,-0.91506 6.22901,-0.91506 5.67939,-0.57075 5.67939,-0.57075 5.86259,-0.36599 5.8626,-0.36598 9.52671,4.1e-4 9.52672,4e-4 6.0458,0.37059 6.04581,0.37059 5.67939,0.55348 5.67938,0.55349 6.41222,0.92851 6.41221,0.92852 6.35548,1.26035 6.35548,1.26036 6.10254,1.50257 6.10253,1.50256 5.8626,1.76635 5.86259,1.76635 5.31298,1.88465 5.31298,1.884643 0.36641,0.10297 0.36641,0.10297 0.91603,0.37917 0.91603,0.37916 1.3807,0.57725 1.3807,0.57725 0.17184,0.0269 0.17184,0.0269 1.74517,0.7586 1.74517,0.7586 0.36642,0.0748 0.36641,0.0748 1.187,0.62866 1.187,0.62865 0.0954,-0.0452 0.0954,-0.0452 1.46565,0.64568 1.46565,0.64568 1.83206,0.83302 1.83206,0.83303 7.34537,3.64514 7.34537,3.64515 4.37982,2.4831 4.37983,2.48309 3.79687,2.34335 3.79687,2.34335 3.89778,2.61082 3.89779,2.61082 4.58015,3.31747 4.58015,3.31746 5.31298,4.25209 5.31298,4.25209 4.76336,4.17344 4.76336,4.17345 7.33074,7.33669 7.33075,7.33669 4.59647,5.31298 4.59647,5.31298 2.94286,3.66412 2.94287,3.66412 3.12062,4.21374 3.12062,4.21374 3.48628,5.12978 3.48629,5.12977 3.72804,6.16835 3.72804,6.16836 3.48287,6.51512 3.48287,6.51511 3.05923,6.55317 3.05923,6.55317 1.85287,4.58015 1.85287,4.58016 1.80433,4.94656 1.80433,4.94657 1.86616,5.86259 1.86616,5.8626 1.13649,4.21374 1.13648,4.21374 1.08055,4.53966 1.08054,4.53967 1.25349,6.63591 1.25349,6.6359 0.73781,5.31298 0.73781,5.31298 0.55674,5.49618 0.55673,5.49619 0.37666,6.54446 0.37667,6.54446 -0.004,8.11203 -0.004,8.11202 -0.36013,6.22901 -0.36013,6.22901 -0.38666,4.03053 -0.38666,4.03054 -0.72402,5.67939 -0.72403,5.67939 -1.09939,6.33789 -1.0994,6.33789 -1.44815,6.42396 -1.44815,6.42396 -2.01074,7.02441 -2.01073,7.02441 -2.17461,6.41221 -2.1746,6.41222 -2.20471,5.49618 -2.20471,5.49618 -1.80836,4.03054 -1.80835,4.03053 -2.60428,5.31298 -2.60427,5.31298 -2.71304,4.94656 -2.71304,4.94657 -2.85087,4.76335 -2.85086,4.76336 -3.72731,5.67939 -3.7273,5.67939 -4.42611,5.8626 -4.4261,5.86259 -4.0977,4.94657 -4.0977,4.94656 -5.53244,5.99022 -5.53244,5.99022 -5.56321,5.22511 -5.56322,5.22512 -5.08917,4.36233 -5.08918,4.36233 -4.21374,3.27431 -4.21374,3.27432 -4.03054,2.90392 -4.03053,2.90392 -4.58015,3.01651 -4.58016,3.01651 -5.49618,3.29608 -5.49618,3.29608 -5.67939,3.04892 -5.67939,3.04891 -4.94657,2.34601 -4.94656,2.34601 -0.18321,0.011 -0.1832,0.011 -1.46565,0.74771 -1.46565,0.74772 -0.0954,-0.0616 -0.0955,-0.0616 -1.187,0.62865 -1.187,0.62865 -0.36641,0.0748 -0.36641,0.0748 -1.74517,0.7586 -1.74518,0.7586 -0.27009,0.068 -0.2701,0.068 -1.28244,0.5362 -1.28244,0.5362 -0.91603,0.37916 -0.91603,0.37917 -0.36641,0.0905 -0.36642,0.0905 -1.09923,0.46369 -1.09924,0.4637 -0.18321,0.0624 -0.1832,0.0623 -0.54962,0.21533 -0.54962,0.21533 -1.46565,0.442 -1.46565,0.44199 -0.45801,0.36353 -0.45802,0.36352 v -0.27293 -0.27294 l -0.54962,0.45614 -0.54961,0.45615 v -0.27294 -0.27294 l -0.54962,0.45614 -0.54962,0.45615 v -0.27294 -0.27294 l -0.54962,0.45615 -0.54962,0.45614 v -0.20834 -0.20833 l -2.10687,0.74268 -2.10687,0.74269 -0.54962,0.12557 -0.54961,0.12558 -0.0916,0.0738 -0.0916,0.0738 -0.27481,0.0721 -0.27481,0.0721 -2.05631,0.62627 -2.0563,0.62626 -0.69179,0.17511 -0.69178,0.17512 -5.49619,1.45586 -5.49618,1.45585 -5.31298,1.09348 -5.31297,1.09349 -5.49619,0.91475 -5.49618,0.91476 -4.39695,0.56279 -4.39694,0.56279 -6.0458,0.57159 -6.04581,0.5716 -14.29007,0.13265 -14.29008,0.13264 z m -50.01527,-142.52155 0.73283,-0.73283 -0.009,-82.53435 -0.009,-82.53435 -0.33754,-1.45584 -0.33753,-1.45584 -0.66136,-0.50515 -0.66136,-0.50516 -26.9313,0.22561 -26.9313,0.22561 -0.68958,0.81935 -0.68959,0.81936 0.26007,83.35878 0.26007,83.35878 0.52957,0.82443 0.52956,0.82442 h 27.10606 27.10606 z m 73.6955,-0.28573 1.69549,-0.83535 1.33285,-1.29445 1.33286,-1.29445 1.00219,-1.90073 1.00218,-1.90074 0.18323,-44.15267 0.18322,-44.15268 0.86056,-2.56488 0.86057,-2.56489 1.26812,-2.42846 1.26812,-2.42845 2.00376,-2.42925 2.00375,-2.42925 2.09655,-1.64967 2.09655,-1.64967 2.82624,-1.47364 2.82624,-1.47364 2.85315,-0.76923 2.85315,-0.76924 4.21374,-0.0255 4.21374,-0.0255 2.56489,0.65785 2.56488,0.65784 2.99391,1.42732 2.9939,1.42732 2.45825,1.97126 2.45824,1.97126 1.98691,2.47777 1.98692,2.47776 1.05773,2.09536 1.05774,2.09536 0.76718,2.27735 0.76718,2.27735 0.35131,2.77083 0.35131,2.77083 0.0182,40.89955 0.0182,40.89955 0.65333,1.90011 0.65333,1.9001 0.96847,1.46346 0.96847,1.46345 1.63734,1.12652 1.63734,1.12652 1.78095,0.45648 1.78096,0.45649 19.40271,-0.18321 19.4027,-0.1832 1.64886,-0.85641 1.64885,-0.85641 1.22356,-1.15886 1.22356,-1.15886 0.97492,-1.83206 0.97491,-1.83206 0.11217,-50.74809 0.11218,-50.7481 -0.4072,-5.23897 -0.4072,-5.23897 -0.52686,-2.99665 -0.52687,-2.99665 -0.94813,-3.67153 -0.94813,-3.67153 -1.20518,-3.12063 -1.20519,-3.12063 -1.55716,-3.10962 -1.55717,-3.10963 -1.90421,-2.9313 -1.90421,-2.93129 -2.83764,-3.38112 -2.83765,-3.38112 -2.81738,-2.42129 -2.81737,-2.4213 -3.28225,-2.20192 -3.28225,-2.20192 -3.62883,-1.82103 -3.62883,-1.82103 -3.77869,-1.26443 -3.77869,-1.26443 -3.4171,-0.7254 -3.41711,-0.7254 -5.21949,-0.44165 -5.2195,-0.44166 -4.85684,0.44453 -4.85684,0.44453 -3.66412,0.74941 -3.66412,0.7494 -3.84733,1.2795 -3.84733,1.2795 -3.84733,1.83473 -3.84733,1.83474 -4.21374,2.78725 -4.21374,2.78724 -4.8131,4.81543 -4.81309,4.81543 -0.17971,-4.41735 -0.1797,-4.41736 -0.65958,-1.82895 -0.65958,-1.82895 -1.87043,-1.87043 -1.87042,-1.87042 -2.14146,-0.80123 -2.14147,-0.80122 -19.64871,0.10365 -19.6487,0.10365 -1.57376,0.8403 -1.57377,0.8403 -1.36959,1.23734 -1.36959,1.23735 -0.90397,1.76969 -0.90398,1.76968 v 76.94657 76.94657 l 0.87272,1.93103 0.87272,1.93103 1.96087,1.79212 1.96086,1.79213 1.56336,0.5595 1.56337,0.55951 19.78625,-0.0689 19.78626,-0.0689 z m -95.8079,-192.62945 2.86808,-0.54875 2.82466,-0.9407 2.82465,-0.94069 2.98483,-1.79394 2.98484,-1.79394 2.32957,-2.04525 2.32957,-2.04525 1.84923,-2.45762 1.84923,-2.45762 1.42837,-2.74809 1.42837,-2.74809 0.96518,-3.07849 0.96518,-3.07849 0.27694,-3.44039 0.27695,-3.4404 -0.27431,-3.12861 -0.27431,-3.12862 -0.7498,-2.73302 -0.74979,-2.73302 -1.07406,-2.36879 -1.07405,-2.36878 -1.6862,-2.51323 -1.6862,-2.51324 -3.00799,-2.91416 -3.00799,-2.91416 -2.79196,-1.72461 -2.79196,-1.7246 -2.99919,-1.09457 -2.99919,-1.09457 -3.29934,-0.56937 -3.29935,-0.56938 -3.55072,0.19475 -3.55073,0.19474 -1.28244,0.21397 -1.28245,0.21397 -2.01526,0.56603 -2.01527,0.56602 -2.19847,0.91658 -2.19848,0.91658 -3.02565,2.00437 -3.02565,2.00436 -2.3861,2.4097 -2.3861,2.4097 -1.65359,2.48736 -1.6536,2.48737 -1.1306,2.49348 -1.1306,2.49349 -0.887,3.48512 -0.88701,3.48512 -0.0187,4.21374 -0.0188,4.21374 0.40901,2.25415 0.40902,2.25415 0.90166,2.651 0.90167,2.651 1.50398,2.78951 1.50399,2.78951 1.99695,2.47262 1.99695,2.47263 2.18098,1.81502 2.18097,1.81503 2.47552,1.45858 2.47552,1.45859 2.43359,0.96386 2.43359,0.96386 3.2458,0.68397 3.2458,0.68397 3.35708,0.0258 3.35708,0.0258 z"
       id="path1" />
  </g>
</svg>
