<?xml version="1.0" encoding="UTF-8" standalone="no"?>
<svg
   version="1.1"
   width="140.5"
   height="140.26395"
   viewBox="0 0 140.5 140.26395"
   xml:space="preserve"
   id="svg3"
   xmlns="http://www.w3.org/2000/svg"
   xmlns:svg="http://www.w3.org/2000/svg"><defs
   id="defs3" />
<g
   style="opacity:1;fill:none;fill-rule:nonzero;stroke:none;stroke-width:0;stroke-linecap:butt;stroke-linejoin:miter;stroke-miterlimit:10;stroke-dasharray:none"
   transform="matrix(2.81,0,0,2.81,-56.200001,-56.323638)"
   id="g3">
	
	
	
	<g
   id="g4"><rect
     x="20.82"
     y="36.619999"
     rx="0"
     ry="0"
     width="10.37"
     height="33.34"
     style="opacity:1;fill:#ffffff;fill-rule:nonzero;stroke:none;stroke-width:1;stroke-linecap:butt;stroke-linejoin:miter;stroke-miterlimit:10;stroke-dasharray:none"
     id="rect1" /><path
     d="M 26.005,32.062 C 22.685,32.062 20,29.37 20,26.055 c 0,-3.318 2.685,-6.011 6.005,-6.011 3.313,0 6.005,2.692 6.005,6.011 0,3.315 -2.693,6.007 -6.005,6.007 z"
     style="opacity:1;fill:#ffffff;fill-rule:nonzero;stroke:none;stroke-width:1;stroke-linecap:butt;stroke-linejoin:miter;stroke-miterlimit:10;stroke-dasharray:none"
     stroke-linecap="round"
     id="path2" /><path
     d="M 70,69.956 H 59.643 V 53.743 c 0,-3.867 -0.067,-8.84 -5.385,-8.84 -5.392,0 -6.215,4.215 -6.215,8.562 V 69.956 H 37.686 V 36.617 h 9.939 v 4.559 h 0.141 c 1.383,-2.622 4.764,-5.385 9.804,-5.385 10.493,0 12.43,6.903 12.43,15.88 z"
     style="opacity:1;fill:#ffffff;fill-rule:nonzero;stroke:none;stroke-width:1;stroke-linecap:butt;stroke-linejoin:miter;stroke-miterlimit:10;stroke-dasharray:none"
     stroke-linecap="round"
     id="path3" /></g>
</g>
</svg>
