<?xml version="1.0" encoding="UTF-8" standalone="no"?>
<!-- Created with Inkscape (http://www.inkscape.org/) -->

<svg
   version="1.1"
   id="svg1"
   width="255.06828"
   height="260.52408"
   viewBox="0 0 255.06828 260.52408"
   xmlns="http://www.w3.org/2000/svg"
   xmlns:svg="http://www.w3.org/2000/svg">
  <defs
     id="defs1" />
  <g
     id="g1"
     transform="translate(-17.656483,-50.41819)">
    <g
       id="g5"
       transform="translate(-297.25431,-145.38202)"
       style="fill:#ffffff">
      <path
         style="fill:#ffffff;stroke-width:0.917863;paint-order:stroke fill markers"
         d="m 320.77279,451.28568 c -0.8799,-7.04245 -0.12979,-162.77511 0.78843,-163.689 0.80695,-0.80314 53.36405,-1.09987 54.14175,-0.30568 0.24718,0.25241 0.75391,37.98429 1.12609,83.84862 0.57481,70.83538 0.48407,83.51165 -0.60275,84.19984 -0.70368,0.44558 -13.33107,0.81648 -28.06086,0.82421 l -26.78144,0.014 z"
         id="path2" />
      <path
         style="fill:#ffffff;stroke-width:0.917863;paint-order:stroke fill markers"
         d="m 407.65895,455.26107 c -1.69652,-0.40081 -3.65558,-1.29975 -4.35347,-1.99764 -2.93611,-2.93611 -3.22696,-11.45219 -2.94194,-86.13867 0,0 -0.0588,-49.7063 0.2835,-74.2859 0.0156,-1.12151 2.72377,-3.06746 2.72377,-3.06746 1.30877,-1.30848 3.64932,-2.06501 5.62191,-2.52256 5.59871,-1.29864 38.03217,-1.07124 40.67149,0.28516 3.87765,1.9928 5.90504,5.73406 6.33602,11.69221 l 0.40035,5.53484 7.15543,-6.83626 c 11.90158,-11.3707 26.08393,-17.03407 42.64523,-17.02932 28.52765,0.008 50.96713,16.04783 60.26711,43.07869 2.68024,7.79024 3.49568,25.85073 3.51073,77.75485 0,0 -0.0469,30.45436 -0.14866,46.95483 -0.004,0.72986 -0.63003,1.76613 -1.16909,2.75002 -0.5385,0.98287 -1.24203,1.64827 -1.24203,1.64827 -0.7126,0.75557 -1.58963,1.23647 -2.41341,1.70453 -3.60116,2.04611 -9.5303,1.57492 -27.73666,1.2392 -15.08622,-0.27819 -16.84214,-0.47877 -18.66761,-2.13252 -4.1111,-3.72438 -4.10644,-3.6738 -4.65643,-50.49272 0,0 -0.26036,-29.44579 -0.6906,-43.83946 -0.10301,-3.44592 -2.47153,-6.46328 -2.47153,-6.46328 -5.50655,-8.21036 -13.76066,-15.74733 -25.69267,-15.76964 -6.18856,-0.0116 -8.15968,0.38738 -12.53851,2.53773 -5.70753,2.80286 -10.56887,7.62599 -13.80779,13.69925 -2.09184,3.92239 -1.53687,4.25632 -1.99597,50.21786 0,0 -0.44104,26.04941 -0.94821,45.46431 -0.0372,1.42553 -1.55551,2.98618 -2.69835,4.03307 -1.14283,1.04688 -4.23979,2.89726 -4.23979,2.89726 l -19.05913,-0.094 c -10.48252,-0.0517 -20.44719,-0.42189 -22.1437,-0.8227 z"
         id="path3" />
      <path
         style="fill:#ffffff;stroke-width:0.917863;paint-order:stroke fill markers"
         d="m 341.41942,262.17962 c -6.27879,-1.35273 -12.10342,-4.7282 -17.12393,-9.9236 -14.39392,-14.89534 -11.90863,-38.83087 5.24748,-50.53788 16.71424,-11.40547 38.86355,-5.80262 48.6874,12.31587 2.98112,5.4982 3.14155,6.26282 3.14155,14.97271 0,8.20077 -0.27455,9.73773 -2.57707,14.42658 -4.97696,10.13509 -13.93721,16.96028 -24.93482,18.9933 -6.28454,1.16176 -5.86303,1.17012 -12.44061,-0.24698 z"
         id="path4" />
    </g>
  </g>
</svg>
