<?xml version="1.0" encoding="utf-8"?>
<!-- Generator: Adobe Illustrator 16.0.0, SVG Export Plug-In . SVG Version: 6.00 Build 0)  -->
<!DOCTYPE svg PUBLIC "-//W3C//DTD SVG 1.1//EN" "http://www.w3.org/Graphics/SVG/1.1/DTD/svg11.dtd">
<svg version="1.1" id="Layer_1" xmlns:serif="http://www.serif.com/"
	 xmlns="http://www.w3.org/2000/svg" xmlns:xlink="http://www.w3.org/1999/xlink" x="0px" y="0px" width="130px" height="129.947px"
	 viewBox="0 0 130 129.947" enable-background="new 0 0 130 129.947" xml:space="preserve">
<path fill="#00ACED" d="M47.397,109.771c39.212,0,60.653-32.492,60.653-60.651c0-0.928,0-1.857-0.043-2.741
	c4.153-3.006,7.78-6.763,10.653-11.051c-3.802,1.679-7.913,2.829-12.245,3.359c4.42-2.651,7.78-6.807,9.372-11.802
	c-4.111,2.431-8.664,4.199-13.529,5.172c-3.89-4.157-9.415-6.721-15.561-6.721c-11.758,0-21.308,9.55-21.308,21.309
	c0,1.679,0.177,3.315,0.574,4.862c-17.726-0.884-33.421-9.372-43.941-22.282c-1.813,3.14-2.874,6.808-2.874,10.699
	c0,7.382,3.757,13.926,9.504,17.728c-3.492-0.088-6.764-1.06-9.637-2.653v0.267c0,10.345,7.339,18.92,17.108,20.91
	c-1.769,0.485-3.669,0.75-5.614,0.75c-1.37,0-2.697-0.131-4.023-0.397c2.697,8.488,10.565,14.634,19.894,14.81
	c-7.293,5.703-16.489,9.109-26.481,9.109c-1.724,0-3.404-0.09-5.083-0.312C24.145,106.234,35.373,109.771,47.397,109.771z"/>
</svg>
