<?xml version="1.0" encoding="UTF-8" standalone="no"?>
<!-- Created with Inkscape (http://www.inkscape.org/) -->

<svg
   version="1.1"
   id="svg1"
   width="317.2597"
   height="316.49603"
   viewBox="0 0 317.25971 316.49603"
   xmlns="http://www.w3.org/2000/svg"
   xmlns:svg="http://www.w3.org/2000/svg">
  <defs
     id="defs1" />
  <g
     id="g1"
     transform="translate(-672.83507,-317.52515)">
    <g
       id="g3"
       transform="translate(486.30231,138.06413)">
      <path
         style="fill:#ffffff;stroke-width:0.879389;paint-order:stroke fill markers"
         d="m 188.275,495.16776 c -1.95803,-1.23967 -0.85898,-7.80625 7.80563,-46.63692 4.36573,-19.56515 7.9377,-36.22881 7.9377,-37.03036 0,-0.80154 -1.43686,-4.56724 -3.19302,-8.36821 -16.53906,-35.79663 -18.77566,-75.3174 -6.44105,-113.81318 3.67315,-11.46374 14.54306,-33.01315 21.71773,-43.05502 18.16847,-25.42912 44.17275,-45.58561 73.34653,-56.85254 29.99364,-11.58355 67.89351,-13.16877 99.24157,-4.15091 38.02683,10.93912 70.68356,35.79185 91.69854,69.78528 21.05986,34.06602 28.45037,76.76698 19.94962,115.26518 -12.98904,58.82476 -57.17018,105.18978 -114.72602,120.39691 -16.384,4.3289 -27.68782,5.5592 -45.72825,4.97703 -22.5581,-0.72795 -39.67788,-4.57162 -59.49286,-13.3571 l -8.6623,-3.84066 -39.35143,8.73907 c -21.64328,4.8065 -40.14288,8.73531 -41.11021,8.7307 -0.96733,-0.005 -2.31381,-0.35977 -2.99218,-0.78927 z m 182.326,-33.51681 c 24.09739,-4.65032 44.28492,-15.49047 62.08446,-33.33765 34.12946,-34.2208 46.95873,-85.28715 32.80402,-130.575 -13.05899,-41.78211 -50.93739,-74.78778 -97.13549,-84.63988 -10.29929,-2.1964 -34.31135,-2.19326 -44.73871,0.006 -17.97178,3.79022 -36.68689,11.93489 -51.23698,22.29794 -9.16477,6.52744 -24.27692,21.62492 -30.6762,30.64641 -23.30891,32.86013 -29.62024,72.89322 -17.30842,109.78826 2.46595,7.38976 7.70264,18.77333 12.58763,27.36312 l 2.00042,3.51756 -6.64498,24.83367 c -3.65474,13.65852 -6.4599,25.01875 -6.2337,25.24495 0.22621,0.22621 11.65223,-2.58422 25.39117,-6.2454 23.99485,-6.39419 25.06842,-6.59975 27.22528,-5.21276 12.94901,8.32703 34.79135,15.77268 53.01237,18.07095 9.31894,1.17542 28.06097,0.32772 38.86913,-1.75803 z"
         id="path2" />
      <path
         style="fill:#ffffff;stroke-width:0.879389;paint-order:stroke fill markers"
         d="m 371.16271,413.23528 c -17.5995,-3.4523 -39.65669,-16.02297 -58.00184,-33.05597 -25.80457,-23.9589 -42.25268,-53.46656 -43.78451,-78.54877 -0.45276,-7.41346 -0.26489,-9.05747 1.66838,-14.59965 3.90519,-11.19513 11.09512,-19.97951 19.80348,-24.19515 4.60772,-2.23056 9.1126,-1.82677 12.22335,1.09562 2.94288,2.7647 12.99278,33.35928 12.31997,37.5053 -0.30873,1.90248 -2.19622,4.93594 -5.22733,8.40104 -7.31195,8.35888 -8.19101,11.11092 -5.32773,16.67926 7.69918,14.97293 45.46518,51.15752 55.32358,53.00696 3.02589,0.56767 7.08012,-1.04266 9.24751,-3.67308 0.69027,-0.83773 3.17027,-3.04031 5.51111,-4.89462 5.80117,-4.59544 8.16311,-4.44996 26.43895,1.62852 17.50854,5.82327 19.86987,7.44746 19.86987,13.66707 0,8.97945 -13.18971,22.14369 -26.25447,26.20376 -5.9705,1.85542 -16.55881,2.20216 -23.81032,0.77971 z"
         id="path3" />
    </g>
  </g>
</svg>
