<?xml version="1.0" encoding="UTF-8" standalone="no"?>
<!-- Created with Inkscape (http://www.inkscape.org/) -->

<svg
   version="1.1"
   id="svg1"
   width="306.6134"
   height="277.44186"
   viewBox="0 0 306.6134 277.44187"
   xmlns="http://www.w3.org/2000/svg"
   xmlns:svg="http://www.w3.org/2000/svg">
  <defs
     id="defs1" />
  <g
     id="g1"
     transform="translate(-201.45752,-177.62566)">
    <path
       style="fill:#ffffff;fill-opacity:1;stroke-width:0.785954"
       d="m 203.49835,452.6421 c 1.12245,-1.33396 20.72793,-22.4663 43.56772,-46.96076 43.50964,-46.66176 63.78176,-68.71465 64.74633,-70.43385 0.35887,-0.63964 -1.97675,-4.67425 -6.22221,-10.74842 -6.87296,-9.83344 -98.74501,-138.89161 -102.10958,-143.43944 l -1.82046,-2.46069 45.75038,-0.54839 c 25.16272,-0.30162 49.62657,-0.43219 54.36413,-0.29016 l 8.61373,0.25824 12.06533,16.89801 c 18.68032,26.1626 48.70313,67.72171 50.81656,70.34291 l 1.90113,2.35786 2.90199,-2.75084 c 3.70365,-3.51076 34.80759,-36.37173 61.56081,-65.03836 l 20.72061,-22.20256 9.9316,0.1 c 5.46238,0.055 13.8127,0.32026 18.55626,0.58947 l 8.62465,0.48947 -10.57546,11.39634 c -5.8165,6.26798 -27.18515,29.25714 -47.48588,51.08702 -20.30073,21.82988 -38.96365,41.91412 -41.47316,44.63166 -2.50951,2.71753 -4.56275,5.49319 -4.56275,6.16813 0,1.41259 9.52983,14.97347 70.48518,100.29991 l 44.21566,61.89389 -54.40309,-0.01 -54.40309,-0.01 -4.18047,-5.68817 c -2.29925,-3.12849 -17.06289,-23.54897 -32.80809,-45.37885 -15.74519,-21.82988 -29.52014,-40.75173 -30.61099,-42.04855 l -1.98338,-2.35786 -8.63443,9.03847 c -4.74894,4.97116 -24.99123,26.61195 -44.98289,48.09065 l -36.34846,39.05218 -19.12925,0.049 -19.12926,0.0491 z"
       id="path15" />
  </g>
</svg>
