<?xml version="1.0" encoding="UTF-8" standalone="no"?>
<!-- Created with Inkscape (http://www.inkscape.org/) -->

<svg
   version="1.1"
   id="svg1"
   width="527.61633"
   height="527.14978"
   viewBox="0 0 527.61633 527.14978"
   xmlns="http://www.w3.org/2000/svg"
   xmlns:svg="http://www.w3.org/2000/svg">
  <defs
     id="defs1" />
  <g
     id="g1"
     transform="translate(-90.868171,-52.565935)">
    <path
       style="fill:#000000;fill-opacity:1;stroke-width:0.785954"
       d="M 331.2797,579.54247 C 308.69042,576.90388 288.56994,572.57473 270.33104,566.42869 180.30786,536.0932 112.44794,457.93022 95.129429,364.62655 89.748225,335.63525 89.448564,301.89784 94.316193,273.06834 110.71086,175.96769 179.90101,95.673294 273.32453,65.331185 c 27.35618,-8.884746 52.14999,-12.766562 81.5338,-12.76525 71.27274,0.0032 137.13591,27.601206 187.75192,78.671925 41.07471,41.4437 66.66589,94.52521 74.46514,154.45649 1.87436,14.40307 1.87983,46.36913 0.0105,61.30443 -9.8197,78.45554 -46.4913,139.75429 -109.48783,183.01538 -31.26946,21.47343 -67.00809,37.46803 -100.0808,44.79054 -18.32842,4.05803 -24.12484,4.62562 -49.51512,4.84859 -13.18438,0.11577 -25.20948,0.0659 -26.72244,-0.11082 z M 282.67866,410.85756 c 23.11601,-24.74773 43.15614,-46.23375 44.53362,-47.74672 2.45604,-2.6976 2.52799,-2.72041 3.71813,-1.17893 0.66749,0.86455 16.09082,22.35058 34.27406,47.74672 l 33.06043,46.17481 h 56.17168 c 30.89442,0 56.05378,-0.27938 55.90968,-0.62086 -0.21944,-0.52005 -113.3743,-158.92987 -115.63026,-161.87523 -0.9509,-1.24148 -1.79596,-0.30337 57.50946,-63.84095 26.41892,-28.30422 48.03439,-51.73548 48.03439,-52.06947 0,-0.33397 -9.28408,-0.59249 -20.63129,-0.57447 l -20.6313,0.0328 -41.65558,44.67192 c -22.91056,24.56956 -41.84099,44.56616 -42.06761,44.43692 -0.22662,-0.12925 -14.72748,-20.24443 -32.22413,-44.7004 l -31.81207,-44.4654 -55.99924,-0.004 c -30.79958,-0.002 -55.9885,0.26098 -55.97538,0.58518 0.0131,0.32421 24.9886,35.42689 55.50106,78.00596 30.51245,42.57907 55.6468,77.84819 55.85411,78.37582 0.2073,0.52764 -0.27587,1.78753 -1.07373,2.79976 -0.79785,1.01223 -25.85452,27.93377 -55.68148,59.82564 -29.82696,31.89188 -54.34873,58.3074 -54.49282,58.70117 -0.15339,0.41915 8.348,0.71593 20.50858,0.71593 h 20.77058 z"
       id="path31" />
  </g>
</svg>
