<?xml version="1.0" encoding="utf-8"?>
<!-- Generator: Adobe Illustrator 16.0.0, SVG Export Plug-In . SVG Version: 6.00 Build 0)  -->
<!DOCTYPE svg PUBLIC "-//W3C//DTD SVG 1.1//EN" "http://www.w3.org/Graphics/SVG/1.1/DTD/svg11.dtd">
<svg version="1.1" id="Layer_1" xmlns="http://www.w3.org/2000/svg" xmlns:xlink="http://www.w3.org/1999/xlink" x="0px" y="0px"
	 width="792px" height="612px" viewBox="0 0 792 612" enable-background="new 0 0 792 612" xml:space="preserve">
<path fill="#fff" d="M27.462,336.725l75.759-154.214c3.231-6.583,9.936-10.751,17.269-10.743l160.345,0.15
	c7.229,0.006,13.849,4.072,17.123,10.517l75.136,147.946c5.916,11.637,2.42,25.846-8.201,33.431
	c-13.083,9.33-31.4,4.908-38.774-9.377l-50.752-98.268l-10.504,100.142l24.643,209.851c2.362,20.123-13.367,37.803-33.636,37.787
	h-0.074c-17.083-0.008-31.481-12.744-33.569-29.703l-20.696-167.924L181.495,574.28c-2.029,17.022-16.462,29.838-33.604,29.838
	c-20.194,0-35.9-17.569-33.632-37.639l23.652-209.624l-11.209-100L74.179,360.079c-6.383,12.56-21.579,17.785-34.336,11.82
	C26.593,365.706,21.016,349.844,27.462,336.725"/>
<path fill="#fff" d="M270.613,76.024c0.148,38.923-31.285,70.601-70.209,70.748c-38.923,0.148-70.597-31.282-70.745-70.205
	c-0.145-38.924,31.281-70.6,70.205-70.749C238.787,5.67,270.464,37.102,270.613,76.024"/>
<path fill="#fff" d="M653.604,76.024c0.148,38.923-31.284,70.601-70.205,70.748c-38.924,0.148-70.602-31.282-70.746-70.205
	c-0.148-38.924,31.28-70.6,70.205-70.749C621.781,5.67,653.457,37.102,653.604,76.024"/>
<path fill="#fff" d="M396.35,327.026l112.47-147.197c3.881-5.08,9.911-8.064,16.308-8.064h114.804
	c6.328,0,12.31,2.923,16.198,7.921L769.746,325.71c8.229,10.576,6.278,25.827-4.348,33.988c-9.397,7.224-22.643,6.557-31.271-1.57
	l-80.263-92.474L689.8,421.691h-50.127l5.044,156.727c0.422,13.417-10.301,24.537-23.723,24.611h-0.021
	c-12.33,0.063-22.674-9.283-23.871-21.557l-13.57-143.904l-13.113,144.135c-1.144,12.216-11.365,21.573-23.632,21.639
	c-13.489,0.067-24.354-11.045-23.978-24.525l4.488-156.632l-49.959,0.022l34.668-155.945l-79.765,92.919
	c-8.553,8.171-21.768,8.934-31.216,1.817l-0.022-0.02C390.302,352.915,388.211,337.676,396.35,327.026"/>
</svg>
