<?xml version="1.0" encoding="utf-8"?>
<!-- Generator: Adobe Illustrator 16.0.0, SVG Export Plug-In . SVG Version: 6.00 Build 0)  -->
<!DOCTYPE svg PUBLIC "-//W3C//DTD SVG 1.1//EN" "http://www.w3.org/Graphics/SVG/1.1/DTD/svg11.dtd">
<svg version="1.1" id="Layer_1" xmlns="http://www.w3.org/2000/svg" xmlns:xlink="http://www.w3.org/1999/xlink" x="0px" y="0px"
	 width="792px" height="612px" viewBox="0 0 792 612" enable-background="new 0 0 792 612" xml:space="preserve">
<g>
	<path fill="#fff" d="M173.321,606c0-158.165,151.631-206.819,204.025-64.577c62.688-87.979,116.045,0,116.045,0
		c0-39.306,158.146-144.112,158.146,64.577H173.321z"/>
	<path fill="#fff" d="M637.504,139.002c-74.673,23.343-267.656,17.851-268.543,239.964h-0.038v162.456h16.847v-161.55
		C640.004,370.582,621.031,155.496,637.504,139.002z M510.043,228.399c-6.042,3.995-12.124,8.581-18.48,13.177
		c-6.516,4.359-12.46,9.9-19.033,14.762c-6.239,5.265-12.557,10.618-18.678,16.149c-5.768,5.866-12.244,11.121-17.498,17.261
		c-5.314,6.083-11.298,11.495-15.707,17.793c-4.684,6.12-9.723,11.74-13.344,17.821c-3.74,6.003-8.188,11.297-10.845,16.937
		c-2.933,5.511-5.846,10.53-8.483,15.037c-2.086,4.734-3.937,8.877-5.451,12.271c-2.066,4.557-3.603,7.707-4.429,9.359h-0.67
		c0.079-1.771,0.296-5.295,0.788-10.49c0.413-3.818,0.747-8.563,1.633-13.915c1.319-5.177,2.854-11.102,4.822-17.498
		c1.535-6.632,4.901-13.05,8.089-20.056c2.973-7.185,7.225-14.093,11.908-21.1c4.35-7.263,9.841-13.954,15.511-20.745
		c5.393-7.065,12.281-12.793,18.5-19.249c6.692-5.865,13.562-11.573,20.568-16.809c7.163-4.96,14.21-9.919,21.434-13.984
		c7.046-4.399,14.19-8.001,21.04-11.209c6.712-3.503,13.464-5.924,19.563-8.404c24.643-9.447,42.298-11.297,42.298-11.297
		s-15.115,8.955-36.511,22.752C521.794,220.594,515.987,224.226,510.043,228.399z"/>
	<path fill="#fff" d="M178.301,197.872c37.101,6.495,145.392,6.535,173.439,182.01
		C231.068,388.158,178.301,197.872,178.301,197.872z"/>
	<path fill="#fff" d="M360.734,226.037c-1.022-4.999-2.105-10.402-3.03-16.119c-0.709-5.797-2.952-11.573-4.291-17.714
		c-1.495-6.121-3.307-12.38-4.646-18.836c-1.417-6.436-2.696-13.029-5.195-19.21c-2.008-6.327-4.016-12.665-6.003-18.895
		c-1.102-3.08-1.771-6.318-2.933-9.271c-1.26-2.933-2.519-5.815-3.74-8.66c-2.539-5.629-4.605-11.317-6.83-16.612
		c-2.834-4.871-5.294-9.644-7.637-14.112c-2.145-4.606-4.901-8.168-7.165-11.593c-2.302-3.385-4.152-6.554-6.161-8.64
		c-1.928-2.185-3.267-4.232-4.467-5.364c-1.162-1.151-1.771-1.771-1.771-1.771s3.208,1.151,8.385,4.596
		c2.795,1.574,5.609,3.986,8.797,6.869c3.188,2.893,7.145,5.983,10.196,10.274c3.346,4.094,6.987,8.562,10.667,13.492
		c3.11,5.167,6.278,10.717,9.388,16.582c3.208,5.826,6.555,11.849,8.483,18.501c2.283,6.534,4.604,13.157,6.929,19.79
		c2.479,6.624,3.581,13.532,4.88,20.263c1.398,6.731,2.283,13.443,3.405,19.879c0.964,6.445,2.283,12.636,2.146,18.638
		c0.236,5.964,0.236,11.613,0.218,16.828c0.019,6.949-0.139,13-0.355,18.118C442.297,75.842,308.813,27.523,266.929,5.184
		c0,0-52.255,190.09,97.879,239.099C363.55,239.174,362.132,233.043,360.734,226.037z"/>
</g>
</svg>
