<?xml version="1.0" encoding="utf-8"?>
<!-- Generator: Adobe Illustrator 16.0.0, SVG Export Plug-In . SVG Version: 6.00 Build 0)  -->
<!DOCTYPE svg PUBLIC "-//W3C//DTD SVG 1.1//EN" "http://www.w3.org/Graphics/SVG/1.1/DTD/svg11.dtd">
<svg version="1.1" id="Layer_1" xmlns="http://www.w3.org/2000/svg" xmlns:xlink="http://www.w3.org/1999/xlink" x="0px" y="0px"
	 width="792px" height="612px" viewBox="0 0 792 612" enable-background="new 0 0 792 612" xml:space="preserve">
<path fill="none" stroke="#fff" stroke-width="20" stroke-miterlimit="10" d="M219.057,585.861c0,5.218-5.131,9.449-11.462,9.449
	h-77.86c-6.33,0-11.461-4.231-11.461-9.449V405.45c0-5.219,5.131-9.45,11.461-9.45h77.86c6.331,0,11.462,4.231,11.462,9.45V585.861z
	"/>
<path fill="none" stroke="#fff" stroke-width="20" stroke-miterlimit="10" d="M375.502,579.852
	c0,8.537-5.131,15.459-11.461,15.459h-77.861c-6.33,0-11.461-6.922-11.461-15.459V284.706c0-8.538,5.131-15.459,11.461-15.459
	h77.861c6.331,0,11.461,6.922,11.461,15.459V579.852z"/>
<path fill="none" stroke="#fff" stroke-width="20" stroke-miterlimit="10" d="M538.994,583.442
	c0,6.555-5.131,11.868-11.461,11.868h-77.86c-6.33,0-11.461-5.313-11.461-11.868V356.868c0-6.555,5.131-11.868,11.461-11.868h77.86
	c6.33,0,11.461,5.313,11.461,11.868V583.442z"/>
<path fill="none" stroke="#fff" stroke-width="20" stroke-miterlimit="10" d="M690.367,574.672c0,11.398-5.131,20.64-11.46,20.64
	h-77.861c-6.33,0-11.462-9.241-11.462-20.64V180.639c0-11.397,5.132-20.639,11.462-20.639h77.861c6.329,0,11.46,9.242,11.46,20.639
	V574.672z"/>
<polygon fill="#fff" stroke="#fff" stroke-width="20" stroke-miterlimit="10" points="607.485,43.104 634.053,64.041
	638.898,29.979 "/>
<polyline fill="none" stroke="#fff" stroke-width="20" stroke-miterlimit="10" points="115.668,288.742 329.116,190.999
	470.861,250.096 619.949,52.926 "/>
</svg>
