<?xml version="1.0" encoding="utf-8"?>
<!-- Generator: Adobe Illustrator 16.0.0, SVG Export Plug-In . SVG Version: 6.00 Build 0)  -->
<!DOCTYPE svg PUBLIC "-//W3C//DTD SVG 1.1//EN" "http://www.w3.org/Graphics/SVG/1.1/DTD/svg11.dtd">
<svg version="1.1" id="Layer_1" xmlns="http://www.w3.org/2000/svg" xmlns:xlink="http://www.w3.org/1999/xlink" x="0px" y="0px"
	 width="792px" height="612px" viewBox="0 0 792 612" enable-background="new 0 0 792 612" xml:space="preserve">
<path fill="#00B794" d="M111.077,374.259c37.193,156.641,194.326,253.475,350.969,216.28
	c156.642-37.192,253.474-194.325,216.279-350.968C641.136,82.929,483.997-13.9,327.361,23.294
	C170.717,60.484,73.885,217.618,111.077,374.259"/>
<path fill="#00B794" d="M394.148,604.062c-54.372,0-107.827-15.028-155.279-44.273c-67.542-41.624-114.839-107.06-133.167-184.252
	c-18.33-77.194-5.497-156.908,36.124-224.454C183.452,83.54,248.888,36.246,326.081,17.918
	c159.367-37.83,319.779,61.027,357.614,220.379c18.331,77.193,5.499,156.902-36.119,224.449
	c-41.628,67.547-107.061,114.838-184.254,133.165C440.355,601.365,417.168,604.062,394.148,604.062 M394.708,20.899
	c-21.81,0-43.944,2.514-66.074,7.768c-74.322,17.644-137.329,63.18-177.4,128.216c-40.079,65.032-52.433,141.778-34.784,216.104
	c17.649,74.319,63.18,137.323,128.216,177.398c65.031,40.073,141.786,52.429,216.103,34.784
	c74.324-17.647,137.33-63.181,177.402-128.217c40.075-65.029,52.432-141.778,34.782-216.105
	C641.776,109.547,524.146,20.899,394.708,20.899"/>
<g>
	<defs>
		<path id="SVGID_1_" d="M326.406,24.696C170.379,61.739,73.93,218.261,110.979,374.289
			c37.044,156.018,193.56,252.473,349.585,215.432c156.029-37.052,252.479-193.567,215.433-349.593
			C644.307,106.661,525.176,16.786,393.734,16.774C371.513,16.771,348.967,19.337,326.406,24.696"/>
	</defs>
	<use xlink:href="#SVGID_1_"  overflow="visible" fill="#FFFFFF"/>
	<clipPath id="SVGID_2_">
		<use xlink:href="#SVGID_1_"  overflow="visible"/>
	</clipPath>
	<path clip-path="url(#SVGID_2_)" fill="#00B794" d="M361.118,564.661c-0.07,0-0.137-0.007-0.212-0.007l-12.007-0.279
		c-1.98-0.043-3.903-0.777-5.413-2.064l-35.046-29.9c-9.353-7.356-13.751-21.467-15.205-27.188c-0.175-0.693-0.608-1.267-1.22-1.621
		c-7.034-4.037-10.125-12.725-10.906-15.293c-0.088-0.289-0.15-0.556-0.211-0.855l-6.649-34.377
		c-0.225-1.171-1.231-2.044-2.555-2.233c-7.159-0.997-10.705-7.002-10.851-7.257l-6.043-12.807c-0.383-0.812-1.188-1.391-2.149-1.55
		c-35.679-5.886-49.739-33.554-52.195-39.041c-0.471-1.054-0.721-2.179-0.742-3.355l-0.383-19.361
		c-0.007-0.318,0.004-0.627,0.028-0.928l2.373-26.709c0.095-1.088-0.46-2.129-1.414-2.663l-19.35-10.719
		c-0.675-0.373-1.296-0.834-1.845-1.369l-11.959-11.637c-0.405-0.391-0.749-0.798-1.063-1.261
		c-0.337-0.492-3.642-4.872-17.404-8.066c-12.703-2.949-21.249-12.32-25.215-17.641c-0.719-0.963-1.948-1.373-3.077-1.006
		l-28.725,9.248c-3.49,1.117-7.316-0.082-9.532-2.991l-26.309-34.504c-1.833-2.41-2.279-5.531-1.193-8.349l39.682-103.313
		c0,0,0-0.004,0.004-0.004c0.584-1.52,1.581-2.844,2.885-3.815L248.745,28.112c1.322-0.996,2.894-1.585,4.543-1.705l79.082-5.932
		c2.379-0.166,4.74,0.639,6.493,2.244c1.75,1.607,2.781,3.89,2.809,6.271l0.347,25.084c0.035,2.854-1.33,5.538-3.662,7.184
		l-16.877,11.924c-0.197,0.138-0.368,0.295-0.518,0.482l-12.236,14.585c-0.103,0.121-0.191,0.244-0.27,0.376l-11.045,18.659
		c-0.878,1.496-2.179,2.682-3.757,3.426l-74.339,35.019c-0.65,0.309-1.156,0.856-1.406,1.532l-18.464,48.68
		c-0.292,0.754-0.236,1.603,0.155,2.315l14.621,26.816c1.326,2.446,1.404,5.394,0.195,7.898l-3.135,6.522
		c-1.704,3.545-5.593,5.496-9.454,4.746l-8.304-1.617l-33.851-3.186c-0.653-0.058-1.319,0.114-1.857,0.497l-12.203,8.658
		c-0.746,0.528-1.181,1.395-1.162,2.314l0.202,9.068c0.019,0.953,0.497,1.791,1.309,2.292c0.805,0.5,1.767,0.549,2.63,0.151
		l10.73-5.061c3.823-1.796,8.352-0.597,10.771,2.854l5.241,7.456c1.431,2.039,1.917,4.601,1.32,7.033l-3.446,14.071
		c-0.136,0.553-0.091,1.143,0.115,1.675l13.229,19.927c0.077,0.118,0.151,0.245,0.21,0.374c0.429,0.917,1.326,1.518,2.334,1.578
		c0.284,0.018,0.56,0.076,0.825,0.169l10.361,3.719c0.222-0.015,0.435-0.059,0.64-0.123l12.101-3.807
		c0.585-0.185,1.096-0.567,1.447-1.069l10.139-14.582c0.859-1.229,2.034-2.217,3.392-2.865l7.585-3.57
		c1.24-0.591,2.71-0.24,3.563,0.828c0.85,1.071,0.853,2.583,0.009,3.656l-1.208,1.533c-0.539,0.682-0.722,1.566-0.502,2.409
		c0.222,0.841,0.812,1.518,1.618,1.852l1.174,0.485c0.497,0.209,1.047,0.267,1.575,0.162l18.533-3.52
		c1.986-0.375,4.039-0.043,5.8,0.924l10.674,5.9c0.396,0.225,0.853,0.341,1.31,0.348l39.826,0.354
		c2.577,0.024,4.988,1.183,6.619,3.177l9.009,11.015c0.115,0.144,0.254,0.28,0.402,0.402l15.905,12.88
		c0.43,0.346,0.91,0.551,1.44,0.602l39.97,4.016c3.464,0.346,6.353,2.686,7.369,5.956c4.143,13.35-1.997,26.188-4.825,31.09
		c-0.32,0.559-0.426,1.249-0.288,1.939c3.85,19.538,1.222,33.757-0.09,38.961c-0.366,1.473-1.138,2.835-2.228,3.939l-19.248,19.465
		c-0.436,0.443-0.716,1.034-0.779,1.66l-4.955,48.187c-0.157,1.538-0.727,3.004-1.645,4.249l-15.373,20.866
		c-0.419,0.569-0.603,1.265-0.52,1.972l1.294,10.819l2.639,12.654c0.146,0.71,0.563,1.326,1.168,1.728l12.11,8.112
		c2.835,1.896,4.292,5.294,3.716,8.659C368.935,561.604,365.284,564.661,361.118,564.661 M266.057,440.849
		c0.02,0,2.301,3.581,6.457,4.164c3.794,0.528,6.822,3.319,7.522,6.944l6.651,34.389c0.329,1.14,2.862,9.043,8.269,12.154
		c2.005,1.156,3.423,3.031,3.989,5.273c1.303,5.135,5.207,17.767,13.232,24.082l35.132,29.975c0.482,0.405,1.095,0.646,1.723,0.655
		l12.019,0.28c1.327,0.005,2.555-0.952,2.787-2.288c0.186-1.071-0.278-2.161-1.182-2.764l-12.117-8.115
		c-1.89-1.265-3.188-3.19-3.658-5.418l-2.599-12.414c-0.051-0.243-0.093-0.498-0.12-0.758l-1.292-10.815
		c-0.264-2.196,0.32-4.383,1.626-6.159l15.373-20.865c0.291-0.397,0.475-0.866,0.523-1.36l4.956-48.186
		c0.205-1.958,1.077-3.803,2.456-5.201l19.241-19.463c0.354-0.357,0.591-0.771,0.709-1.231c0.946-3.763,3.746-17.503,0.018-36.387
		c-0.407-2.089-0.066-4.224,0.968-6.022c2.446-4.233,7.754-15.276,4.306-26.4c-0.312-1.007-1.231-1.728-2.337-1.842l-39.966-4.013
		c-1.667-0.165-3.247-0.819-4.563-1.887l-15.905-12.884c-0.464-0.374-0.882-0.789-1.254-1.241l-9.004-11.021
		c-0.524-0.636-1.294-1.007-2.118-1.013l-39.826-0.36c-1.433-0.012-2.849-0.388-4.104-1.078l-10.671-5.897
		c-0.564-0.309-1.227-0.417-1.849-0.295l-18.538,3.521c-1.669,0.309-3.369,0.133-4.932-0.507l-1.17-0.482
		c-2.526-1.049-4.371-3.165-5.062-5.811c-0.125-0.49-0.211-0.983-0.255-1.474l-0.979,0.46c-0.432,0.205-0.806,0.523-1.083,0.914
		l-10.11,14.539c-1.091,1.588-2.699,2.776-4.534,3.353l-12.095,3.806c-1.004,0.323-2.046,0.46-3.107,0.384
		c-0.281-0.02-0.555-0.068-0.822-0.17l-10.473-3.758c-2.895-0.322-5.435-2.089-6.753-4.69l-13.262-19.987
		c-0.078-0.114-0.147-0.245-0.211-0.373c-0.843-1.787-1.05-3.827-0.579-5.748l3.448-14.074c0.192-0.776,0.037-1.589-0.42-2.239
		l-5.238-7.454c-0.776-1.101-2.22-1.485-3.437-0.914l-10.733,5.056c-2.659,1.257-5.747,1.077-8.249-0.467
		c-2.499-1.554-4.027-4.229-4.092-7.17l-0.204-9.07c-0.061-2.875,1.299-5.592,3.645-7.249l12.202-8.658
		c1.691-1.201,3.764-1.741,5.815-1.558l33.584,3.143c0.285,0.033,0.566,0.068,0.843,0.123l8.307,1.623
		c1.24,0.229,2.474-0.385,3.018-1.518l3.134-6.526c0.386-0.797,0.366-1.74-0.063-2.518l-14.617-26.82
		c-1.219-2.235-1.394-4.883-0.477-7.256l6.79-17.594l11.653-31.034c0.797-2.123,2.365-3.819,4.412-4.79l74.341-35.022
		c0.501-0.238,0.916-0.616,1.196-1.091l11.051-18.671c0.248-0.418,0.521-0.803,0.824-1.163l12.231-14.576
		c0.479-0.572,1.031-1.08,1.639-1.511l16.875-11.92c0.739-0.525,1.178-1.384,1.167-2.294l-0.344-25.087
		c-0.011-0.769-0.331-1.482-0.896-1.999c-0.569-0.522-1.296-0.766-2.073-0.719l-79.082,5.93c-0.526,0.043-1.031,0.23-1.452,0.545
		l-151.53,113.636c-0.415,0.314-0.735,0.735-0.923,1.223L60.144,250.982c-0.346,0.904-0.201,1.899,0.382,2.669l26.306,34.504
		c0.709,0.93,1.932,1.309,3.044,0.957l28.724-9.248c3.524-1.126,7.382,0.111,9.606,3.093c3.483,4.678,10.946,12.9,21.82,15.421
		c14.813,3.434,19.585,8.49,20.947,10.496c0.087,0.137,0.194,0.244,0.309,0.36l11.956,11.633c0.173,0.172,0.372,0.315,0.588,0.435
		l19.347,10.723c2.992,1.653,4.727,4.926,4.425,8.334l-2.366,26.696l0.372,19.668c0.005,0.379,0.083,0.726,0.231,1.056
		c2.243,5.005,15.07,30.245,47.774,35.638c2.877,0.473,5.313,2.288,6.521,4.854L266.057,440.849z M640.971,420.706
		c-1.84,0-3.642-0.596-5.157-1.729l-10.834-8.07c-2.471-1.848-3.779-4.888-3.423-7.942l2.931-25.182
		c0.079-0.669-0.088-1.338-0.472-1.893l-22.028-31.821c-1.197-1.732-1.722-3.839-1.479-5.926l2.248-19.423
		c0.088-0.738-0.137-1.493-0.603-2.066l-14.262-17.452c-0.804-0.978-1.39-2.151-1.7-3.387l-7.356-29.701
		c-0.043-0.166-0.108-0.353-0.192-0.526l-1.923-4.083c-0.373-0.8-1.082-1.353-1.951-1.53c-0.851-0.172-1.731,0.056-2.387,0.64
		l-1.424,1.271c-1.771,1.567-4.011,2.342-6.279,2.157c-2.266-0.131-10.1,0.604-32.605,11.754
		c-28.57,14.145-64.951-3.773-75.422-9.598c-2.769-1.538-4.462-4.481-4.42-7.674l0.431-29.819c0.013-0.702-0.242-1.376-0.719-1.901
		l-19.813-21.813c-2.698-2.978-3.005-7.372-0.745-10.69l23.178-34.026c0.135-0.201,0.308-0.436,0.494-0.661l20.273-24.301
		c1.025-1.229,2.376-2.151,3.893-2.661l48.848-16.405c1.561-0.525,3.22-0.593,4.831-0.193l25.02,6.173
		c0.535,0.133,1.086,0.098,1.588-0.075l10.609-3.762c0.877-0.312,1.513-1.007,1.752-1.898c0.235-0.895,0.028-1.812-0.576-2.511
		l-2.088-2.416c-0.347-0.405-0.797-0.696-1.301-0.845l-14.923-4.447c-0.757-0.23-1.479-0.553-2.153-0.986l-4.606-2.911
		c-0.764-0.482-1.717-0.559-2.549-0.209l-10.895,4.566c-1.356,0.572-2.841,0.787-4.309,0.62l-7.023-0.784
		c-2.178-0.245-4.165-1.296-5.594-2.957l-3.47-4.027c-0.984-1.136-2.719-1.284-3.876-0.302l-1.944,1.64
		c-2.043,1.726-4.718,2.398-7.337,1.869l-6.169-1.276c-0.925-0.187-1.839,0.083-2.504,0.748c-0.669,0.662-0.944,1.572-0.761,2.493
		l0.766,3.891c0.394,2.006,0.071,4.084-0.911,5.864c-2.302,4.13-8.641,14.199-17.858,18.543c-8.584,4.049-18.813-3.183-25.881-9.953
		c-1.742-1.672-2.714-4.02-2.659-6.433c0.055-2.423,1.133-4.728,2.96-6.333l13.415-11.725c0.457-0.399,0.776-0.953,0.893-1.547
		l4.468-22.945c0.062-0.308,0.067-0.617,0.022-0.927l-1.25-8.571c-0.124-0.854-0.624-1.583-1.371-2.007
		c-0.75-0.417-1.628-0.475-2.43-0.144l-6.17,2.589c-2.005,0.837-4.23,0.896-6.272,0.166l-7.384-2.658
		c-0.828-0.298-1.771-0.175-2.502,0.327l-1.58,1.085c-2.234,1.541-4.996,1.947-7.574,1.109c-2.581-0.833-4.585-2.777-5.493-5.333
		l-6.329-17.799c-1.254-3.53-0.111-7.446,2.851-9.739l26.976-20.92c2.018-1.565,4.603-2.16,7.11-1.626l23.836,5.078
		c0.544,0.116,1.106,0.064,1.629-0.144l83.935-34.555c2.197-0.907,4.693-0.864,6.845,0.108c2.163,0.978,3.849,2.818,4.625,5.055
		l41.979,120.968c0.105,0.309,0.271,0.604,0.483,0.86l97.795,117.311c2.22,2.668,2.638,6.386,1.058,9.477l-20.442,40.133
		c-0.087,0.173-0.16,0.363-0.213,0.55l-23.041,86.975c-0.112,0.412-0.255,0.813-0.423,1.205l-22.72,52.769
		c-1.051,2.449-3.131,4.251-5.703,4.941C642.482,420.6,641.725,420.706,640.971,420.706 M574.191,254.021
		c0.578,0,1.177,0.061,1.768,0.18c2.696,0.554,4.914,2.298,6.09,4.792l1.93,4.095c0.242,0.514,0.432,1.042,0.571,1.587l7.359,29.715
		c0.103,0.394,0.288,0.772,0.543,1.085l14.262,17.445c1.469,1.801,2.164,4.159,1.898,6.472l-2.247,19.434
		c-0.082,0.67,0.088,1.338,0.47,1.893l22.024,31.821c1.193,1.722,1.723,3.827,1.48,5.919l-2.932,25.185
		c-0.112,0.979,0.307,1.949,1.096,2.538l10.833,8.077c0.675,0.503,1.537,0.671,2.367,0.452c0.822-0.22,1.482-0.796,1.82-1.574
		l22.722-52.773c0.057-0.127,0.101-0.259,0.135-0.386l23.042-86.974c0.162-0.595,0.378-1.169,0.653-1.712l20.453-40.139
		c0.504-0.99,0.37-2.172-0.338-3.025l-97.79-117.313c-0.667-0.792-1.184-1.705-1.528-2.697L568.894-12.858
		c-0.256-0.722-0.776-1.294-1.477-1.61c-0.698-0.314-1.474-0.321-2.186-0.033l-83.938,34.555c-1.624,0.664-3.389,0.817-5.093,0.46
		l-23.842-5.08c-0.802-0.174-1.629,0.018-2.268,0.517l-26.977,20.92c-0.946,0.734-1.313,1.985-0.91,3.109l6.329,17.803
		c0.293,0.821,0.928,1.438,1.755,1.7c0.817,0.273,1.708,0.144,2.419-0.352l1.58-1.088c2.291-1.577,5.22-1.957,7.838-1.019
		l7.383,2.657c0.646,0.232,1.362,0.209,2.003-0.054l6.17-2.588c2.488-1.04,5.256-0.881,7.608,0.449
		c2.344,1.331,3.912,3.618,4.301,6.288l1.25,8.565c0.142,0.976,0.121,1.953-0.074,2.917L466.3,98.187
		c-0.364,1.875-1.356,3.598-2.794,4.859l-13.415,11.73c-0.595,0.521-0.933,1.244-0.948,2.028c-0.02,0.775,0.282,1.503,0.846,2.045
		c3.779,3.621,13.229,11.732,19.29,8.882c7.674-3.615,13.196-12.449,15.219-16.079c0.315-0.565,0.411-1.208,0.281-1.861l-0.767-3.89
		c-0.564-2.848,0.331-5.771,2.392-7.818c2.063-2.048,5.005-2.927,7.841-2.337l6.176,1.273c0.844,0.177,1.689-0.042,2.344-0.593
		l1.946-1.646c3.613-3.049,9.056-2.611,12.142,0.966l3.471,4.028c0.455,0.529,1.089,0.864,1.782,0.941l7.024,0.785
		c0.467,0.046,0.941-0.013,1.373-0.202l10.898-4.563c2.613-1.089,5.585-0.838,7.973,0.661l4.612,2.917
		c0.216,0.136,0.444,0.243,0.686,0.315l14.916,4.446c1.588,0.474,3.003,1.382,4.086,2.646l2.079,2.412
		c1.867,2.168,2.544,5.109,1.813,7.871c-0.734,2.762-2.778,4.985-5.476,5.938l-10.612,3.764c-1.603,0.568-3.312,0.651-4.966,0.245
		l-25.022-6.178c-0.514-0.128-1.046-0.099-1.543,0.065l-48.848,16.396c-0.488,0.167-0.916,0.462-1.242,0.853l-20.264,24.289
		l-23.339,34.245c-0.72,1.059-0.622,2.46,0.24,3.41l19.813,21.818c1.483,1.632,2.279,3.747,2.247,5.939l-0.432,29.824
		c-0.014,1.013,0.522,1.95,1.396,2.438c9.833,5.479,43.938,22.351,69.937,9.463c17.252-8.538,29.574-12.786,35.679-12.347
		c0.672,0.072,1.353-0.195,1.915-0.691l1.422-1.265C570.085,254.783,572.1,254.021,574.191,254.021 M564.11-17.227h0.036H564.11z"/>
</g>
</svg>
