<?xml version="1.0" encoding="utf-8"?>
<!-- Uploaded to: SVG Repo, www.svgrepo.com, Generator: SVG Repo Mixer Tools -->
<svg fill="#00B794" height="800px" width="800px" version="1.2" baseProfile="tiny" id="forst-protection-by-Adioma.com"
	 xmlns="http://www.w3.org/2000/svg" xmlns:xlink="http://www.w3.org/1999/xlink"  viewBox="0 0 128 128"
	 xml:space="preserve">
<path d="M119.2,99.5c0.9,4-1.6,7.7-5.3,8.5l-46.8,10.7c-5.6,1.5-12.1,0.7-17.4-2.6l-21.6-13.6c-2.7-1.7-5.9-2.3-8.8-1.6L1,113.6
	L0.9,85.2l25.7-14.6c5.6-2.8,11.5-0.3,16.6,2.9l31,19.6c3.2,2.1,4.2,6.5,2.1,9.7c-2.1,3.2-6.4,4.1-9.7,2.1L41.7,89.1
	c-1-0.7-2.4-0.4-3.1,0.7c-0.7,1.1-0.5,2.5,0.7,3.2l24.8,15.8c2.6,1.8,5.8,2.3,8.8,1.6c3-0.8,5.6-2.7,7.3-5.3
	c0.9-1.2,1.5-2.7,1.7-4.1l28.8-6.6C114.5,93.6,118.2,95.9,119.2,99.5z M60.3,48v17.4c-4.2,1.7-6.7,3.8-6.7,6.1
	c0,5.5,14.2,4.1,31.3,4.1s30.6,1.3,30.6-4.1c0-2.2-2.2-4.2-5.9-5.8V48H124l-9-10.7h6l-9.1-10.8h6L107,13.6l-7.7,9.1l6.7,8.2h-6.7
	l10.1,11.9H90.5V48h13.7v15.8c-4.5-1.2-10.1-2-16.2-2.2V40.4h16.2L94.1,28.5h6.7L90.5,16h6.7L85,1.7L72.8,16h6.7L69.1,28.2h7
	L65.8,40.4h16.2v21.3c-6,0.2-11.6,0.9-16.2,2l0-15.7h13.7v-5.2H60.6L71,30.6h-7l6.8-7.9l-7.7-9.1L52.4,26.4h5.8l-9.1,11h6.1L46,48
	H60.3z"/>
</svg>