<?xml version="1.0" encoding="utf-8"?>
<!-- Generator: Adobe Illustrator 16.0.0, SVG Export Plug-In . SVG Version: 6.00 Build 0)  -->
<!DOCTYPE svg PUBLIC "-//W3C//DTD SVG 1.1//EN" "http://www.w3.org/Graphics/SVG/1.1/DTD/svg11.dtd">
<svg version="1.1" id="Layer_1" xmlns="http://www.w3.org/2000/svg" xmlns:xlink="http://www.w3.org/1999/xlink" x="0px" y="0px"
	 width="792px" height="612px" viewBox="0 0 792 612" enable-background="new 0 0 792 612" xml:space="preserve">
<g>
	<path fill="#00B794" d="M180.336,440.681h70.902v120.637h91.009V349.669c0-30.688,25.4-56.086,56.088-56.086
		c30.688,0,56.086,25.398,56.086,56.086v211.648h91.012V440.681h70.9v120.637h92.064V344.379H528.498
		c-2.114-57.143-41.272-104.762-94.186-119.578v-58.208h-29.631V74.53h28.577V21.616h-28.577V4.685h-5.29h-5.29v160.852h-29.628
		v58.205c-52.915,14.815-93.128,62.432-95.242,119.578H89.33v216.941h91.009v-119.58H180.336z"/>
	<polygon fill="#00B794" points="89.327,576.137 2.551,576.137 2.551,610 792,610 792,576.137 707.341,576.137 707.341,576.137 	"/>
	<rect x="637.496" y="258.663" fill="#00B794" width="69.845" height="67.727"/>
	<rect x="89.327" y="258.663" fill="#00B794" width="69.842" height="67.727"/>
	<rect x="467.12" y="21.616" fill="#00B794" width="33.863" height="52.912"/>
</g>
</svg>
