<?xml version="1.0" encoding="utf-8"?>
<!-- Uploaded to: SVG Repo, www.svgrepo.com, Generator: SVG Repo Mixer Tools -->
<svg fill="#00B794" height="800px" width="800px" version="1.1" id="Layer_1" xmlns="http://www.w3.org/2000/svg" xmlns:xlink="http://www.w3.org/1999/xlink" 
	 viewBox="0 0 256 256" xml:space="preserve">
<path d="M241.2,152.8L209,45.6h-73.5V32.3c0-3.6-3.6-7.3-7.3-7.3c-3.6,0-7.3,3.6-7.3,7.3v13.4H47.4L15.2,152.8h-0.7h-3.6
	c0,24.3,19.7,44.1,44.1,44.1s44.1-19.7,44.1-44.1h-4.2h-0.7L63.8,52.3h57.7v156.4H64.4v22.4h7.3h56.5h56.5h7.3v-22.4h-57.1V52.3
	h57.7l-30.4,100.5h-0.7h-4.2c0,24.3,19.7,44.1,44.1,44.1s44.1-19.7,44.1-44.1h-3.6H241.2z M84.2,152.8H25.8l28.9-97.5L84.2,152.8z
	 M172.2,152.8l29.5-97.5l28.9,97.5H172.2z"/>
</svg>