<?xml version="1.0" encoding="utf-8"?>
<!-- Generator: Adobe Illustrator 16.0.0, SVG Export Plug-In . SVG Version: 6.00 Build 0)  -->
<!DOCTYPE svg PUBLIC "-//W3C//DTD SVG 1.1//EN" "http://www.w3.org/Graphics/SVG/1.1/DTD/svg11.dtd">
<svg version="1.1" id="Layer_1" xmlns="http://www.w3.org/2000/svg" xmlns:xlink="http://www.w3.org/1999/xlink" x="0px" y="0px"
	 width="600px" height="600px" viewBox="0 0 600 600" enable-background="new 0 0 600 600" xml:space="preserve">
<path fill="#00B794" d="M472.793,235.453c-8.766,12.422-20.672,22.875-31.359,33.609c-18.047,18-36.047,36.047-54.047,54.047
	c-18.797,18.797-37.594,37.594-56.391,56.391c-8.672,8.672-17.297,17.297-25.969,25.969c-2.672,2.672-7.266,2.672-9.938,0
	c-0.281-0.281-0.516-0.516-0.797-0.797c-5.859-5.859-11.766-11.766-17.625-17.625l-33.422-33.422
	c-13.266-13.266-26.484-26.484-39.75-39.75c-12.188-12.188-24.375-24.375-36.563-36.563c-3.844-3.844-7.688-7.688-11.531-11.531
	h57.563c3.141,0,6.656-1.734,8.109-4.641c4.313-8.766,8.625-17.578,12.938-26.344c5.438-11.016,10.875-22.078,16.266-33.094
	c1.688,4.359,3.422,8.719,5.109,13.078c6.938,17.859,13.922,35.766,20.859,53.625c1.594,4.125,3.188,8.25,4.828,12.375
	c1.406,3.563,3.797,6.188,7.781,6.703c3.422,0.469,7.781-1.125,9.328-4.5c7.5-16.125,15-32.203,22.453-48.328
	c3.281,7.031,6.563,14.016,9.891,21.047c0.844,1.781,1.688,3.609,2.531,5.391c1.359,2.906,5.016,4.641,8.109,4.641h29.766
	c4.922,0,9.609-4.313,9.375-9.375s-4.125-9.375-9.375-9.375h-23.859c-5.297-11.25-10.547-22.5-15.844-33.703
	c-0.844-1.781-1.688-3.609-2.531-5.391c-2.859-6.094-13.313-6.141-16.172,0c-7.219,15.516-14.438,31.078-21.656,46.594
	c-1.641-4.172-3.234-8.344-4.875-12.516c-6.938-17.859-13.922-35.766-20.859-53.625c-1.594-4.125-3.234-8.25-4.828-12.375
	c-1.406-3.563-3.797-6.188-7.781-6.703c-3.469-0.469-7.688,1.125-9.328,4.453c-4.313,8.766-8.625,17.578-12.938,26.344
	c-6.891,13.969-13.734,27.984-20.625,41.953c-0.797,1.641-1.641,3.328-2.438,4.969h-70.172c-0.047,0-0.094,0-0.094,0
	c-7.406-8.109-13.875-16.875-18.469-27.094c-11.297-25.125-12.375-54.375-1.875-79.969c11.719-28.688,36.141-50.813,66.094-59.156
	c31.172-8.672,64.969-1.641,90.281,18.375c6.422,5.063,12.047,11.156,17.859,16.922c3.094,3.094,6.188,6.188,9.234,9.234
	l13.266-13.266c7.266-7.266,14.625-14.25,23.391-19.734c12.891-8.109,27.516-12.891,42.563-14.625
	c30.094-3.469,60.75,7.5,82.172,28.781c3.844,3.891,7.359,8.109,10.594,12.516C496.652,152.906,496.887,201.281,472.793,235.453z"/>
</svg>
