<?xml version="1.0" encoding="utf-8"?>

<!DOCTYPE svg PUBLIC "-//W3C//DTD SVG 1.1//EN" "http://www.w3.org/Graphics/SVG/1.1/DTD/svg11.dtd">
<!-- Uploaded to: SVG Repo, www.svgrepo.com, Generator: SVG Repo Mixer Tools -->
<svg height="800px" width="800px" version="1.1" id="_x32_" xmlns="http://www.w3.org/2000/svg" xmlns:xlink="http://www.w3.org/1999/xlink" 
	 viewBox="0 0 512 512"  xml:space="preserve">
<style type="text/css">
	.st0{fill:#00B794;}
</style>
<g>
	<path class="st0" d="M400.578,261.3c0,0-41.401-77.691-43.513-81.63c-7.257-13.633-20.294-23.571-44.866-23.571h-25.981
		c3.683-5.104,5.89-11.366,5.89-18.094c0-17.092-13.891-30.983-30.976-31.037h-70.17c-17.099,0.054-30.976,13.944-30.976,31.037
		c0,6.762,2.206,12.977,5.889,18.074h-12.672c-15.353,0-27.808,12.456-27.808,27.822c0,8.665,3.953,16.395,10.167,21.5
		c-11.9,3.168-20.646,13.998-20.646,26.88c0,11.528,7.013,21.418,17.004,25.642c-7.838,6.729-14.987,14.223-21.228,22.474
		c-9.571,12.578-16.828,26.461-21.783,41.083c-4.888,14.676-7.406,30.19-7.406,46.031c0,38.558,15.041,74.895,42.335,102.148
		C151.09,496.959,187.495,512,226.039,512c38.558,0,74.908-15.041,102.202-42.342c22.88-22.886,37.19-52.177,41.144-83.796
		l61.113,6.844V262.147L400.578,261.3z M190.961,129.374h70.17c4.738,0,8.624,3.845,8.624,8.631c0,3.629-2.261,6.728-5.47,7.994
		v-0.21h-76.113v0.372c-3.426-1.164-5.835-4.366-5.835-8.157C182.337,133.22,186.168,129.374,190.961,129.374z M347.128,383.391
		c-7.73,59.915-58.96,106.257-121.088,106.257c-67.476,0-122.185-54.709-122.185-122.138c0-55.292,36.716-101.999,87.107-117.095
		v-95.63h70.17v12.787c-13.796-7.297-31.247-3.878-41.13,8.895c-11.034,14.296-8.408,34.834,5.889,45.876l35.241,27.24v0.832
		c0.65,0.19,1.259,0.447,1.909,0.643l66.258,51.216c11.941,18.886,18.886,41.238,18.886,65.235
		C348.184,372.871,347.818,378.185,347.128,383.391z M261.131,186.913v7.399l-16.166,23.212l-12.645-9.64
		c-7.446-5.754-8.827-16.49-3.073-23.936c3.263-4.211,8.19-6.628,13.524-6.628c3.805,0,7.406,1.232,10.425,3.561L261.131,186.913z"
		/>
	<path class="st0" d="M227.908,34.3c9.477,0.013,17.153-7.663,17.167-17.14c0-9.47-7.663-17.146-17.126-17.16
		c-9.477-0.013-17.167,7.656-17.181,17.14C210.767,26.597,218.431,34.286,227.908,34.3z"/>
	<path class="st0" d="M220.841,91.818c5.564,0.014,10.086-4.502,10.086-10.08c0.014-5.571-4.494-10.092-10.072-10.099
		c-5.564,0-10.086,4.522-10.1,10.086C210.754,87.297,215.263,91.818,220.841,91.818z"/>
	<path class="st0" d="M240.742,56.503c0,6.668,5.388,12.056,12.063,12.076c6.648,0,12.062-5.382,12.062-12.042
		c0.014-6.66-5.388-12.07-12.049-12.07C246.157,44.454,240.755,49.843,240.742,56.503z"/>
	<path class="st0" d="M290.374,384.657c-21.824,0-40.656-6.898-60.598-14.209c-19.983-7.257-40.602-14.831-64.701-14.831
		c-13.565,0-27.09,2.369-41.346,7.155c-0.041,1.577-0.095,3.154-0.095,4.738c0,56.435,45.922,102.358,102.406,102.358
		c26.576,0,51.758-10.154,70.955-28.614c16.788-16.152,27.47-37.299,30.516-60.07c0.163-1.266,0.312-2.471,0.42-3.737
		c-2.789,1.104-5.632,2.051-8.421,2.843C309.829,383.229,300.163,384.657,290.374,384.657z"/>
</g>
</svg>