<?xml version="1.0" encoding="UTF-8" standalone="no"?>
<svg xmlns:svg="http://www.w3.org/2000/svg"
     xmlns="http://www.w3.org/2000/svg" version="1.1"
     width="360" height="185">
    <!-- Created with the Wikimedia parliament diagram creator (http://parliamentdiagram.toolforge.org/archinputform.php) -->
    <g>
        <g style="fill:#DDDDDD; stroke-width:0.00; stroke:#000000" 
           id="0_Party-1"> 
            <title>b'Party 1'</title>
            <circle cx="8.87" cy="176.92" r="3.08"/> 
            <circle cx="16.57" cy="176.92" r="3.08"/> 
            <circle cx="24.26" cy="176.92" r="3.08"/> 
            <circle cx="31.96" cy="176.92" r="3.08"/> 
            <circle cx="39.65" cy="176.92" r="3.08"/> 
            <circle cx="47.34" cy="176.92" r="3.08"/> 
            <circle cx="55.04" cy="176.92" r="3.08"/> 
            <circle cx="62.73" cy="176.92" r="3.08"/> 
            <circle cx="70.43" cy="176.92" r="3.08"/> 
            <circle cx="78.12" cy="176.92" r="3.08"/> 
            <circle cx="85.82" cy="176.92" r="3.08"/> 
            <circle cx="93.52" cy="176.92" r="3.08"/> 
            <circle cx="101.21" cy="176.92" r="3.08"/> 
            <circle cx="9.26" cy="168.07" r="3.08"/> 
            <circle cx="16.98" cy="168.03" r="3.08"/> 
            <circle cx="24.69" cy="167.99" r="3.08"/> 
            <circle cx="32.40" cy="168.11" r="3.08"/> 
            <circle cx="40.12" cy="168.06" r="3.08"/> 
            <circle cx="47.85" cy="168.01" r="3.08"/> 
            <circle cx="55.58" cy="167.95" r="3.08"/> 
            <circle cx="63.30" cy="168.11" r="3.08"/> 
            <circle cx="71.04" cy="168.05" r="3.08"/> 
            <circle cx="78.79" cy="167.98" r="3.08"/> 
            <circle cx="10.11" cy="159.26" r="3.08"/> 
            <circle cx="17.87" cy="159.18" r="3.08"/> 
            <circle cx="86.55" cy="167.90" r="3.08"/> 
            <circle cx="25.64" cy="159.09" r="3.08"/> 
            <circle cx="94.28" cy="168.10" r="3.08"/> 
            <circle cx="33.37" cy="159.34" r="3.08"/> 
            <circle cx="41.16" cy="159.25" r="3.08"/> 
            <circle cx="102.07" cy="168.02" r="3.08"/> 
            <circle cx="48.96" cy="159.15" r="3.08"/> 
            <circle cx="56.77" cy="159.04" r="3.08"/> 
            <circle cx="11.41" cy="150.49" r="3.08"/> 
            <circle cx="64.52" cy="159.35" r="3.08"/> 
            <circle cx="19.24" cy="150.38" r="3.08"/> 
            <circle cx="72.37" cy="159.25" r="3.08"/> 
            <circle cx="27.10" cy="150.26" r="3.08"/> 
            <circle cx="34.86" cy="150.64" r="3.08"/> 
            <circle cx="80.24" cy="159.13" r="3.08"/> 
            <circle cx="42.75" cy="150.52" r="3.08"/> 
            <circle cx="88.14" cy="158.98" r="3.08"/> 
            <circle cx="13.16" cy="141.81" r="3.08"/> 
            <circle cx="50.65" cy="150.39" r="3.08"/> 
            <circle cx="21.09" cy="141.68" r="3.08"/> 
            <circle cx="95.95" cy="159.41" r="3.08"/> 
            <circle cx="58.59" cy="150.24" r="3.08"/> 
            <circle cx="29.06" cy="141.53" r="3.08"/> 
            <circle cx="66.41" cy="150.72" r="3.08"/> 
            <circle cx="36.87" cy="142.04" r="3.08"/> 
            <circle cx="103.93" cy="159.28" r="3.08"/> 
            <circle cx="74.40" cy="150.59" r="3.08"/> 
            <circle cx="44.88" cy="141.91" r="3.08"/> 
            <circle cx="15.36" cy="133.23" r="3.08"/> 
            <circle cx="23.42" cy="133.09" r="3.08"/> 
            <circle cx="52.94" cy="141.76" r="3.08"/> 
            <circle cx="82.46" cy="150.44" r="3.08"/> 
            <circle cx="31.51" cy="132.93" r="3.08"/> 
            <circle cx="61.05" cy="141.60" r="3.08"/> 
            <circle cx="39.39" cy="133.58" r="3.08"/> 
            <circle cx="90.58" cy="150.26" r="3.08"/> 
            <circle cx="68.93" cy="142.25" r="3.08"/> 
            <circle cx="18.00" cy="124.78" r="3.08"/> 
            <circle cx="47.56" cy="133.45" r="3.08"/> 
            <circle cx="98.49" cy="150.93" r="3.08"/> 
            <circle cx="26.20" cy="124.63" r="3.08"/> 
            <circle cx="77.14" cy="142.12" r="3.08"/> 
            <circle cx="55.80" cy="133.30" r="3.08"/> 
            <circle cx="34.46" cy="124.48" r="3.08"/> 
            <circle cx="42.40" cy="125.29" r="3.08"/> 
            <circle cx="106.76" cy="150.80" r="3.08"/> 
            <circle cx="21.07" cy="116.47" r="3.08"/> 
            <circle cx="85.44" cy="141.97" r="3.08"/> 
            <circle cx="64.11" cy="133.15" r="3.08"/> 
            <circle cx="29.44" cy="116.34" r="3.08"/> 
            <circle cx="50.76" cy="125.17" r="3.08"/> 
            <circle cx="72.09" cy="134.00" r="3.08"/> 
            <circle cx="93.85" cy="141.82" r="3.08"/> 
            <circle cx="37.89" cy="116.22" r="3.08"/> 
            <circle cx="59.22" cy="125.06" r="3.08"/> 
            <circle cx="24.57" cy="108.33" r="3.08"/> 
            <circle cx="80.55" cy="133.90" r="3.08"/> 
            <circle cx="45.91" cy="117.18" r="3.08"/> 
            <circle cx="101.89" cy="142.75" r="3.08"/> 
            <circle cx="33.13" cy="108.24" r="3.08"/> 
            <circle cx="67.78" cy="124.94" r="3.08"/> 
            <circle cx="54.49" cy="117.12" r="3.08"/> 
            <circle cx="89.15" cy="133.81" r="3.08"/> 
            <circle cx="75.86" cy="126.01" r="3.08"/> 
            <circle cx="41.78" cy="108.16" r="3.08"/> 
            <circle cx="28.49" cy="100.38" r="3.08"/> 
            <circle cx="110.54" cy="142.69" r="3.08"/> 
            <circle cx="63.18" cy="117.06" r="3.08"/> 
            <circle cx="49.89" cy="109.31" r="3.08"/> 
            <circle cx="37.25" cy="100.36" r="3.08"/> 
            <circle cx="97.91" cy="133.73" r="3.08"/> 
            <circle cx="84.62" cy="125.99" r="3.08"/> 
            <circle cx="58.71" cy="109.31" r="3.08"/> 
            <circle cx="72.02" cy="117.02" r="3.08"/> 
            <circle cx="32.81" cy="92.65" r="3.08"/> 
            <circle cx="46.14" cy="100.35" r="3.08"/> 
            <circle cx="106.10" cy="134.97" r="3.08"/> 
            <circle cx="80.22" cy="118.32" r="3.08"/> 
            <circle cx="54.33" cy="101.68" r="3.08"/> 
            <circle cx="93.56" cy="126.00" r="3.08"/> 
            <circle cx="67.68" cy="109.35" r="3.08"/> 
            <circle cx="41.80" cy="92.70" r="3.08"/> 
            <circle cx="37.53" cy="85.15" r="3.08"/> 
            <circle cx="63.42" cy="101.79" r="3.08"/> 
            <circle cx="50.93" cy="92.79" r="3.08"/> 
            <circle cx="89.31" cy="118.43" r="3.08"/> 
            <circle cx="76.83" cy="109.43" r="3.08"/> 
            <circle cx="115.21" cy="135.07" r="3.08"/> 
            <circle cx="102.73" cy="126.06" r="3.08"/> 
            <circle cx="59.22" cy="94.33" r="3.08"/> 
            <circle cx="46.76" cy="85.31" r="3.08"/> 
            <circle cx="72.69" cy="101.96" r="3.08"/> 
            <circle cx="85.14" cy="110.98" r="3.08"/> 
            <circle cx="42.63" cy="77.91" r="3.08"/> 
            <circle cx="98.64" cy="118.61" r="3.08"/> 
            <circle cx="111.09" cy="127.65" r="3.08"/> 
            <circle cx="56.15" cy="85.53" r="3.08"/> 
            <circle cx="68.59" cy="94.58" r="3.08"/> 
            <circle cx="82.17" cy="102.20" r="3.08"/> 
            <circle cx="52.11" cy="78.20" r="3.08"/> 
            <circle cx="64.54" cy="87.29" r="3.08"/> 
            <circle cx="94.60" cy="111.28" r="3.08"/> 
            <circle cx="48.09" cy="70.94" r="3.08"/> 
            <circle cx="78.18" cy="94.92" r="3.08"/> 
            <circle cx="90.61" cy="104.04" r="3.08"/> 
            <circle cx="108.27" cy="118.89" r="3.08"/> 
            <circle cx="61.78" cy="78.57" r="3.08"/> 
            <circle cx="74.21" cy="87.71" r="3.08"/> 
            <circle cx="120.71" cy="128.02" r="3.08"/> 
            <circle cx="57.84" cy="71.39" r="3.08"/> 
            <circle cx="104.35" cy="111.69" r="3.08"/> 
            <circle cx="70.27" cy="80.57" r="3.08"/> 
            <circle cx="53.91" cy="64.26" r="3.08"/> 
            <circle cx="88.01" cy="95.37" r="3.08"/> 
            <circle cx="116.80" cy="120.89" r="3.08"/> 
            <circle cx="100.46" cy="104.58" r="3.08"/> 
            <circle cx="84.13" cy="88.26" r="3.08"/> 
            <circle cx="67.80" cy="71.95" r="3.08"/> 
            <circle cx="96.58" cy="97.53" r="3.08"/> 
            <circle cx="80.25" cy="81.22" r="3.08"/> 
            <circle cx="63.93" cy="64.90" r="3.08"/> 
            <circle cx="60.07" cy="57.89" r="3.08"/> 
            <circle cx="76.39" cy="74.21" r="3.08"/> 
            <circle cx="114.47" cy="112.29" r="3.08"/> 
            <circle cx="94.33" cy="88.98" r="3.08"/> 
            <circle cx="110.65" cy="105.31" r="3.08"/> 
            <circle cx="74.19" cy="65.69" r="3.08"/> 
            <circle cx="90.51" cy="82.03" r="3.08"/> 
            <circle cx="126.98" cy="121.64" r="3.08"/> 
            <circle cx="70.37" cy="58.76" r="3.08"/> 
            <circle cx="106.84" cy="98.37" r="3.08"/> 
            <circle cx="86.69" cy="75.11" r="3.08"/> 
            <circle cx="66.55" cy="51.85" r="3.08"/> 
            <circle cx="123.17" cy="114.74" r="3.08"/> 
            <circle cx="103.02" cy="91.48" r="3.08"/> 
            <circle cx="82.87" cy="68.23" r="3.08"/> 
            <circle cx="80.92" cy="59.80" r="3.08"/> 
            <circle cx="101.09" cy="83.06" r="3.08"/> 
            <circle cx="77.13" cy="52.97" r="3.08"/> 
            <circle cx="121.27" cy="106.31" r="3.08"/> 
            <circle cx="73.33" cy="46.15" r="3.08"/> 
            <circle cx="97.30" cy="76.23" r="3.08"/> 
            <circle cx="93.51" cy="69.43" r="3.08"/> 
            <circle cx="117.49" cy="99.50" r="3.08"/> 
            <circle cx="89.71" cy="62.64" r="3.08"/> 
            <circle cx="113.70" cy="92.71" r="3.08"/> 
            <circle cx="109.90" cy="85.94" r="3.08"/> 
            <circle cx="87.99" cy="54.31" r="3.08"/> 
            <circle cx="84.20" cy="47.56" r="3.08"/> 
            <circle cx="133.93" cy="116.02" r="3.08"/> 
            <circle cx="80.40" cy="40.81" r="3.08"/> 
            <circle cx="130.13" cy="109.27" r="3.08"/> 
            <circle cx="108.26" cy="77.64" r="3.08"/> 
            <circle cx="104.47" cy="70.90" r="3.08"/> 
            <circle cx="100.66" cy="64.18" r="3.08"/> 
            <circle cx="96.86" cy="57.47" r="3.08"/> 
            <circle cx="128.61" cy="101.01" r="3.08"/> 
            <circle cx="95.36" cy="49.23" r="3.08"/> 
            <circle cx="124.81" cy="94.31" r="3.08"/> 
            <circle cx="91.55" cy="42.54" r="3.08"/> 
            <circle cx="87.73" cy="35.85" r="3.08"/> 
            <circle cx="121.00" cy="87.62" r="3.08"/> 
            <circle cx="117.18" cy="80.93" r="3.08"/> 
            <circle cx="115.80" cy="72.75" r="3.08"/> 
            <circle cx="111.97" cy="66.07" r="3.08"/> 
            <circle cx="108.14" cy="59.40" r="3.08"/> 
            <circle cx="104.31" cy="52.73" r="3.08"/> 
            <circle cx="95.31" cy="31.27" r="3.08"/> 
            <circle cx="99.16" cy="37.93" r="3.08"/> 
            <circle cx="103.01" cy="44.59" r="3.08"/> 
            <circle cx="137.62" cy="104.55" r="3.08"/> 
            <circle cx="141.47" cy="111.21" r="3.08"/> 
            <circle cx="124.82" cy="76.48" r="3.08"/> 
            <circle cx="128.69" cy="83.14" r="3.08"/> 
            <circle cx="132.56" cy="89.79" r="3.08"/> 
            <circle cx="136.43" cy="96.45" r="3.08"/> 
            <circle cx="112.02" cy="48.45" r="3.08"/> 
            <circle cx="115.90" cy="55.10" r="3.08"/> 
            <circle cx="119.79" cy="61.76" r="3.08"/> 
            <circle cx="123.67" cy="68.41" r="3.08"/> 
            <circle cx="103.12" cy="27.08" r="3.08"/> 
            <circle cx="107.01" cy="33.74" r="3.08"/> 
            <circle cx="110.91" cy="40.39" r="3.08"/> 
            <circle cx="119.98" cy="44.63" r="3.08"/> 
            <circle cx="132.77" cy="72.62" r="3.08"/> 
            <circle cx="111.14" cy="23.31" r="3.08"/> 
            <circle cx="123.92" cy="51.30" r="3.08"/> 
            <circle cx="145.55" cy="100.61" r="3.08"/> 
            <circle cx="115.08" cy="29.98" r="3.08"/> 
            <circle cx="136.71" cy="79.29" r="3.08"/> 
            <circle cx="127.87" cy="57.98" r="3.08"/> 
            <circle cx="119.04" cy="36.66" r="3.08"/> 
            <circle cx="149.50" cy="107.29" r="3.08"/> 
            <circle cx="140.67" cy="85.97" r="3.08"/> 
            <circle cx="131.84" cy="64.65" r="3.08"/> 
            <circle cx="144.65" cy="92.65" r="3.08"/> 
            <circle cx="119.33" cy="19.96" r="3.08"/> 
            <circle cx="128.16" cy="41.30" r="3.08"/> 
            <circle cx="123.34" cy="26.67" r="3.08"/> 
            <circle cx="132.16" cy="48.02" r="3.08"/> 
            <circle cx="127.37" cy="33.39" r="3.08"/> 
            <circle cx="140.98" cy="69.37" r="3.08"/> 
            <circle cx="136.19" cy="54.75" r="3.08"/> 
            <circle cx="145.02" cy="76.12" r="3.08"/> 
            <circle cx="140.25" cy="61.49" r="3.08"/> 
            <circle cx="127.70" cy="17.03" r="3.08"/> 
            <circle cx="149.09" cy="82.88" r="3.08"/> 
            <circle cx="153.84" cy="97.51" r="3.08"/> 
            <circle cx="131.77" cy="23.82" r="3.08"/> 
            <circle cx="136.51" cy="38.45" r="3.08"/> 
            <circle cx="153.20" cy="89.66" r="3.08"/> 
            <circle cx="135.87" cy="30.61" r="3.08"/> 
            <circle cx="140.60" cy="45.26" r="3.08"/> 
            <circle cx="157.93" cy="104.30" r="3.08"/> 
            <circle cx="144.72" cy="52.08" r="3.08"/> 
            <circle cx="149.42" cy="66.75" r="3.08"/> 
            <circle cx="136.20" cy="14.55" r="3.08"/> 
            <circle cx="148.87" cy="58.94" r="3.08"/> 
            <circle cx="140.34" cy="21.42" r="3.08"/> 
            <circle cx="153.56" cy="73.62" r="3.08"/> 
            <circle cx="145.02" cy="36.11" r="3.08"/> 
            <circle cx="144.52" cy="28.33" r="3.08"/> 
            <circle cx="149.19" cy="43.04" r="3.08"/> 
            <circle cx="157.75" cy="80.54" r="3.08"/> 
            <circle cx="144.82" cy="12.50" r="3.08"/> 
            <circle cx="162.41" cy="95.27" r="3.08"/> 
            <circle cx="153.40" cy="50.00" r="3.08"/> 
            <circle cx="161.99" cy="87.51" r="3.08"/> 
            <circle cx="149.03" cy="19.50" r="3.08"/> 
            <circle cx="158.03" cy="64.77" r="3.08"/> 
            <circle cx="157.65" cy="57.01" r="3.08"/> 
            <circle cx="153.66" cy="34.29" r="3.08"/> 
            <circle cx="153.29" cy="26.54" r="3.08"/> 
            <circle cx="166.65" cy="102.29" r="3.08"/> 
            <circle cx="162.28" cy="71.83" r="3.08"/> 
            <circle cx="157.90" cy="41.37" r="3.08"/> 
            <circle cx="153.53" cy="10.91" r="3.08"/> 
            <circle cx="157.82" cy="18.05" r="3.08"/> 
            <circle cx="162.20" cy="48.51" r="3.08"/> 
            <circle cx="166.58" cy="78.96" r="3.08"/> 
            <circle cx="162.39" cy="32.97" r="3.08"/> 
            <circle cx="162.14" cy="25.26" r="3.08"/> 
            <circle cx="166.77" cy="63.44" r="3.08"/> 
            <circle cx="166.54" cy="55.73" r="3.08"/> 
            <circle cx="162.31" cy="9.76" r="3.08"/> 
            <circle cx="171.16" cy="93.91" r="3.08"/> 
            <circle cx="170.96" cy="86.20" r="3.08"/> 
            <circle cx="166.71" cy="40.25" r="3.08"/> 
            <circle cx="166.66" cy="17.08" r="3.08"/> 
            <circle cx="171.11" cy="70.75" r="3.08"/> 
            <circle cx="171.08" cy="47.61" r="3.08"/> 
            <circle cx="171.18" cy="32.19" r="3.08"/> 
            <circle cx="171.06" cy="24.49" r="3.08"/> 
            <circle cx="175.53" cy="101.28" r="3.08"/> 
            <circle cx="171.14" cy="9.08" r="3.08"/> 
            <circle cx="175.52" cy="78.18" r="3.08"/> 
            <circle cx="175.58" cy="62.78" r="3.08"/> 
            <circle cx="175.51" cy="55.08" r="3.08"/> 
            <circle cx="175.56" cy="39.69" r="3.08"/> 
            <circle cx="175.55" cy="16.60" r="3.08"/> 
            <circle cx="180.00" cy="8.85" r="3.08"/> 
            <circle cx="180.00" cy="24.23" r="3.08"/> 
            <circle cx="180.00" cy="31.92" r="3.08"/> 
            <circle cx="180.00" cy="47.31" r="3.08"/> 
            <circle cx="180.00" cy="70.38" r="3.08"/> 
            <circle cx="180.00" cy="85.77" r="3.08"/> 
            <circle cx="180.00" cy="93.46" r="3.08"/> 
            <circle cx="184.45" cy="16.60" r="3.08"/> 
            <circle cx="184.44" cy="39.69" r="3.08"/> 
            <circle cx="184.49" cy="55.08" r="3.08"/> 
            <circle cx="184.42" cy="62.78" r="3.08"/> 
            <circle cx="184.48" cy="78.18" r="3.08"/> 
            <circle cx="188.86" cy="9.08" r="3.08"/> 
            <circle cx="184.47" cy="101.28" r="3.08"/> 
            <circle cx="188.94" cy="24.49" r="3.08"/> 
            <circle cx="188.82" cy="32.19" r="3.08"/> 
            <circle cx="188.92" cy="47.61" r="3.08"/> 
            <circle cx="188.89" cy="70.75" r="3.08"/> 
            <circle cx="193.34" cy="17.08" r="3.08"/> 
            <circle cx="193.29" cy="40.25" r="3.08"/> 
            <circle cx="189.04" cy="86.20" r="3.08"/> 
            <circle cx="188.84" cy="93.91" r="3.08"/> 
            <circle cx="197.69" cy="9.76" r="3.08"/> 
            <circle cx="193.46" cy="55.73" r="3.08"/> 
            <circle cx="193.23" cy="63.44" r="3.08"/> 
            <circle cx="197.86" cy="25.26" r="3.08"/> 
            <circle cx="197.61" cy="32.97" r="3.08"/> 
            <circle cx="193.42" cy="78.96" r="3.08"/> 
            <circle cx="197.80" cy="48.51" r="3.08"/> 
            <circle cx="202.18" cy="18.05" r="3.08"/> 
            <circle cx="206.47" cy="10.91" r="3.08"/> 
            <circle cx="202.10" cy="41.37" r="3.08"/> 
            <circle cx="197.72" cy="71.83" r="3.08"/> 
            <circle cx="193.35" cy="102.29" r="3.08"/> 
            <circle cx="206.71" cy="26.54" r="3.08"/> 
            <circle cx="206.34" cy="34.29" r="3.08"/> 
            <circle cx="202.35" cy="57.01" r="3.08"/> 
            <circle cx="201.97" cy="64.77" r="3.08"/> 
            <circle cx="210.97" cy="19.50" r="3.08"/> 
            <circle cx="198.01" cy="87.51" r="3.08"/> 
            <circle cx="206.60" cy="50.00" r="3.08"/> 
            <circle cx="197.59" cy="95.27" r="3.08"/> 
            <circle cx="215.18" cy="12.50" r="3.08"/> 
            <circle cx="202.25" cy="80.54" r="3.08"/> 
            <circle cx="210.81" cy="43.04" r="3.08"/> 
            <circle cx="215.48" cy="28.33" r="3.08"/> 
            <circle cx="214.98" cy="36.11" r="3.08"/> 
            <circle cx="206.44" cy="73.62" r="3.08"/> 
            <circle cx="219.66" cy="21.42" r="3.08"/> 
            <circle cx="211.13" cy="58.94" r="3.08"/> 
            <circle cx="223.80" cy="14.55" r="3.08"/> 
            <circle cx="210.58" cy="66.75" r="3.08"/> 
            <circle cx="215.28" cy="52.08" r="3.08"/> 
            <circle cx="202.07" cy="104.30" r="3.08"/> 
            <circle cx="219.40" cy="45.26" r="3.08"/> 
            <circle cx="224.13" cy="30.61" r="3.08"/> 
            <circle cx="206.80" cy="89.66" r="3.08"/> 
            <circle cx="223.49" cy="38.45" r="3.08"/> 
            <circle cx="228.23" cy="23.82" r="3.08"/> 
            <circle cx="206.16" cy="97.51" r="3.08"/> 
            <circle cx="210.91" cy="82.88" r="3.08"/> 
            <circle cx="232.30" cy="17.03" r="3.08"/> 
            <circle cx="219.75" cy="61.49" r="3.08"/> 
            <circle cx="214.98" cy="76.12" r="3.08"/> 
            <circle cx="223.81" cy="54.75" r="3.08"/> 
            <circle cx="219.02" cy="69.37" r="3.08"/> 
            <circle cx="232.63" cy="33.39" r="3.08"/> 
            <circle cx="227.84" cy="48.02" r="3.08"/> 
            <circle cx="236.66" cy="26.67" r="3.08"/> 
            <circle cx="231.84" cy="41.30" r="3.08"/> 
            <circle cx="240.67" cy="19.96" r="3.08"/> 
            <circle cx="215.35" cy="92.65" r="3.08"/> 
            <circle cx="228.16" cy="64.65" r="3.08"/> 
            <circle cx="219.33" cy="85.97" r="3.08"/> 
            <circle cx="210.50" cy="107.29" r="3.08"/> 
            <circle cx="240.96" cy="36.66" r="3.08"/> 
            <circle cx="232.13" cy="57.98" r="3.08"/> 
            <circle cx="223.29" cy="79.29" r="3.08"/> 
            <circle cx="244.92" cy="29.98" r="3.08"/> 
            <circle cx="214.45" cy="100.61" r="3.08"/> 
            <circle cx="236.08" cy="51.30" r="3.08"/> 
            <circle cx="248.86" cy="23.31" r="3.08"/> 
            <circle cx="227.23" cy="72.62" r="3.08"/> 
            <circle cx="240.02" cy="44.63" r="3.08"/> 
            <circle cx="249.09" cy="40.39" r="3.08"/> 
            <circle cx="252.99" cy="33.74" r="3.08"/> 
            <circle cx="256.88" cy="27.08" r="3.08"/> 
            <circle cx="236.33" cy="68.41" r="3.08"/> 
            <circle cx="240.21" cy="61.76" r="3.08"/> 
            <circle cx="244.10" cy="55.10" r="3.08"/> 
            <circle cx="247.98" cy="48.45" r="3.08"/> 
            <circle cx="223.57" cy="96.45" r="3.08"/> 
            <circle cx="227.44" cy="89.79" r="3.08"/> 
            <circle cx="231.31" cy="83.14" r="3.08"/> 
            <circle cx="235.18" cy="76.48" r="3.08"/> 
            <circle cx="218.53" cy="111.21" r="3.08"/> 
            <circle cx="222.38" cy="104.55" r="3.08"/> 
            <circle cx="256.99" cy="44.59" r="3.08"/> 
            <circle cx="260.84" cy="37.93" r="3.08"/> 
            <circle cx="264.69" cy="31.27" r="3.08"/> 
            <circle cx="255.69" cy="52.73" r="3.08"/> 
            <circle cx="251.86" cy="59.40" r="3.08"/> 
            <circle cx="248.03" cy="66.07" r="3.08"/> 
            <circle cx="244.20" cy="72.75" r="3.08"/> 
            <circle cx="242.82" cy="80.93" r="3.08"/> 
            <circle cx="239.00" cy="87.62" r="3.08"/> 
            <circle cx="272.27" cy="35.85" r="3.08"/> 
            <circle cx="268.45" cy="42.54" r="3.08"/> 
            <circle cx="235.19" cy="94.31" r="3.08"/> 
            <circle cx="264.64" cy="49.23" r="3.08"/> 
            <circle cx="231.39" cy="101.01" r="3.08"/> 
            <circle cx="263.14" cy="57.47" r="3.08"/> 
            <circle cx="259.34" cy="64.18" r="3.08"/> 
            <circle cx="255.53" cy="70.90" r="3.08"/> 
            <circle cx="251.74" cy="77.64" r="3.08"/> 
            <circle cx="229.87" cy="109.27" r="3.08"/> 
            <circle cx="279.60" cy="40.81" r="3.08"/> 
            <circle cx="226.07" cy="116.02" r="3.08"/> 
            <circle cx="275.80" cy="47.56" r="3.08"/> 
            <circle cx="272.01" cy="54.31" r="3.08"/> 
            <circle cx="250.10" cy="85.94" r="3.08"/> 
            <circle cx="246.30" cy="92.71" r="3.08"/> 
            <circle cx="270.29" cy="62.64" r="3.08"/> 
            <circle cx="242.51" cy="99.50" r="3.08"/> 
            <circle cx="266.49" cy="69.43" r="3.08"/> 
            <circle cx="262.70" cy="76.23" r="3.08"/> 
            <circle cx="286.67" cy="46.15" r="3.08"/> 
            <circle cx="238.73" cy="106.31" r="3.08"/> 
            <circle cx="282.87" cy="52.97" r="3.08"/> 
            <circle cx="258.91" cy="83.06" r="3.08"/> 
            <circle cx="279.08" cy="59.80" r="3.08"/> 
            <circle cx="277.13" cy="68.23" r="3.08"/> 
            <circle cx="256.98" cy="91.48" r="3.08"/> 
            <circle cx="236.83" cy="114.74" r="3.08"/> 
            <circle cx="293.45" cy="51.85" r="3.08"/> 
            <circle cx="273.31" cy="75.11" r="3.08"/> 
            <circle cx="253.16" cy="98.37" r="3.08"/> 
            <circle cx="289.63" cy="58.76" r="3.08"/> 
            <circle cx="233.02" cy="121.64" r="3.08"/> 
            <circle cx="269.49" cy="82.03" r="3.08"/> 
            <circle cx="285.81" cy="65.69" r="3.08"/> 
            <circle cx="249.35" cy="105.31" r="3.08"/> 
            <circle cx="265.67" cy="88.98" r="3.08"/> 
            <circle cx="245.53" cy="112.29" r="3.08"/> 
            <circle cx="283.61" cy="74.21" r="3.08"/> 
            <circle cx="299.93" cy="57.89" r="3.08"/> 
            <circle cx="296.07" cy="64.90" r="3.08"/> 
            <circle cx="279.75" cy="81.22" r="3.08"/> 
            <circle cx="263.42" cy="97.53" r="3.08"/> 
            <circle cx="292.20" cy="71.95" r="3.08"/> 
            <circle cx="275.87" cy="88.26" r="3.08"/> 
            <circle cx="259.54" cy="104.58" r="3.08"/> 
            <circle cx="243.20" cy="120.89" r="3.08"/> 
            <circle cx="271.99" cy="95.37" r="3.08"/> 
            <circle cx="306.09" cy="64.26" r="3.08"/> 
            <circle cx="289.73" cy="80.57" r="3.08"/> 
            <circle cx="255.65" cy="111.69" r="3.08"/> 
            <circle cx="302.16" cy="71.39" r="3.08"/> 
            <circle cx="239.29" cy="128.02" r="3.08"/> 
            <circle cx="285.79" cy="87.71" r="3.08"/> 
            <circle cx="298.22" cy="78.57" r="3.08"/> 
            <circle cx="251.73" cy="118.89" r="3.08"/> 
            <circle cx="269.39" cy="104.04" r="3.08"/> 
            <circle cx="281.82" cy="94.92" r="3.08"/> 
            <circle cx="311.91" cy="70.94" r="3.08"/> 
            <circle cx="265.40" cy="111.28" r="3.08"/> 
            <circle cx="295.46" cy="87.29" r="3.08"/> 
            <circle cx="307.89" cy="78.20" r="3.08"/> 
            <circle cx="277.83" cy="102.20" r="3.08"/> 
            <circle cx="291.41" cy="94.58" r="3.08"/> 
            <circle cx="303.85" cy="85.53" r="3.08"/> 
            <circle cx="248.91" cy="127.65" r="3.08"/> 
            <circle cx="261.36" cy="118.61" r="3.08"/> 
            <circle cx="317.37" cy="77.91" r="3.08"/> 
            <circle cx="274.86" cy="110.98" r="3.08"/> 
            <circle cx="287.31" cy="101.96" r="3.08"/> 
            <circle cx="313.24" cy="85.31" r="3.08"/> 
            <circle cx="300.78" cy="94.33" r="3.08"/> 
            <circle cx="257.27" cy="126.06" r="3.08"/> 
            <circle cx="244.79" cy="135.07" r="3.08"/> 
            <circle cx="283.17" cy="109.43" r="3.08"/> 
            <circle cx="270.69" cy="118.43" r="3.08"/> 
            <circle cx="309.07" cy="92.79" r="3.08"/> 
            <circle cx="296.58" cy="101.79" r="3.08"/> 
            <circle cx="322.47" cy="85.15" r="3.08"/> 
            <circle cx="318.20" cy="92.70" r="3.08"/> 
            <circle cx="292.32" cy="109.35" r="3.08"/> 
            <circle cx="266.44" cy="126.00" r="3.08"/> 
            <circle cx="305.67" cy="101.68" r="3.08"/> 
            <circle cx="279.78" cy="118.32" r="3.08"/> 
            <circle cx="253.90" cy="134.97" r="3.08"/> 
            <circle cx="313.86" cy="100.35" r="3.08"/> 
            <circle cx="327.19" cy="92.65" r="3.08"/> 
            <circle cx="287.98" cy="117.02" r="3.08"/> 
            <circle cx="301.29" cy="109.31" r="3.08"/> 
            <circle cx="275.38" cy="125.99" r="3.08"/> 
            <circle cx="262.09" cy="133.73" r="3.08"/> 
            <circle cx="322.75" cy="100.36" r="3.08"/> 
            <circle cx="310.11" cy="109.31" r="3.08"/> 
            <circle cx="296.82" cy="117.06" r="3.08"/> 
            <circle cx="249.46" cy="142.69" r="3.08"/> 
            <circle cx="331.51" cy="100.38" r="3.08"/> 
            <circle cx="318.22" cy="108.16" r="3.08"/> 
            <circle cx="284.14" cy="126.01" r="3.08"/> 
            <circle cx="270.85" cy="133.81" r="3.08"/> 
            <circle cx="305.51" cy="117.12" r="3.08"/> 
            <circle cx="292.22" cy="124.94" r="3.08"/> 
            <circle cx="326.87" cy="108.24" r="3.08"/> 
            <circle cx="258.11" cy="142.75" r="3.08"/> 
            <circle cx="314.09" cy="117.18" r="3.08"/> 
            <circle cx="279.45" cy="133.90" r="3.08"/> 
            <circle cx="335.43" cy="108.33" r="3.08"/> 
            <circle cx="300.78" cy="125.06" r="3.08"/> 
            <circle cx="322.11" cy="116.22" r="3.08"/> 
            <circle cx="266.15" cy="141.82" r="3.08"/> 
            <circle cx="287.91" cy="134.00" r="3.08"/> 
            <circle cx="309.24" cy="125.17" r="3.08"/> 
            <circle cx="330.56" cy="116.34" r="3.08"/> 
            <circle cx="295.89" cy="133.15" r="3.08"/> 
            <circle cx="274.56" cy="141.97" r="3.08"/> 
            <circle cx="338.93" cy="116.47" r="3.08"/> 
            <circle cx="253.24" cy="150.80" r="3.08"/> 
            <circle cx="317.60" cy="125.29" r="3.08"/> 
            <circle cx="325.54" cy="124.48" r="3.08"/> 
            <circle cx="304.20" cy="133.30" r="3.08"/> 
            <circle cx="282.86" cy="142.12" r="3.08"/> 
            <circle cx="333.80" cy="124.63" r="3.08"/> 
            <circle cx="261.51" cy="150.93" r="3.08"/> 
            <circle cx="312.44" cy="133.45" r="3.08"/> 
            <circle cx="342.00" cy="124.78" r="3.08"/> 
            <circle cx="291.07" cy="142.25" r="3.08"/> 
            <circle cx="269.42" cy="150.26" r="3.08"/> 
            <circle cx="320.61" cy="133.58" r="3.08"/> 
            <circle cx="298.95" cy="141.60" r="3.08"/> 
            <circle cx="328.49" cy="132.93" r="3.08"/> 
            <circle cx="277.54" cy="150.44" r="3.08"/> 
            <circle cx="307.06" cy="141.76" r="3.08"/> 
            <circle cx="336.58" cy="133.09" r="3.08"/> 
            <circle cx="344.64" cy="133.23" r="3.08"/> 
            <circle cx="315.12" cy="141.91" r="3.08"/> 
            <circle cx="285.60" cy="150.59" r="3.08"/> 
            <circle cx="256.07" cy="159.28" r="3.08"/> 
            <circle cx="323.13" cy="142.04" r="3.08"/> 
            <circle cx="293.59" cy="150.72" r="3.08"/> 
            <circle cx="330.94" cy="141.53" r="3.08"/> 
            <circle cx="301.41" cy="150.24" r="3.08"/> 
            <circle cx="264.05" cy="159.41" r="3.08"/> 
            <circle cx="338.91" cy="141.68" r="3.08"/> 
            <circle cx="309.35" cy="150.39" r="3.08"/> 
            <circle cx="346.84" cy="141.81" r="3.08"/> 
            <circle cx="271.86" cy="158.98" r="3.08"/> 
            <circle cx="317.25" cy="150.52" r="3.08"/> 
            <circle cx="279.76" cy="159.13" r="3.08"/> 
            <circle cx="325.14" cy="150.64" r="3.08"/> 
            <circle cx="332.90" cy="150.26" r="3.08"/> 
            <circle cx="287.63" cy="159.25" r="3.08"/> 
            <circle cx="340.76" cy="150.38" r="3.08"/> 
            <circle cx="295.48" cy="159.35" r="3.08"/> 
            <circle cx="348.59" cy="150.49" r="3.08"/> 
            <circle cx="303.23" cy="159.04" r="3.08"/> 
            <circle cx="311.04" cy="159.15" r="3.08"/> 
            <circle cx="257.93" cy="168.02" r="3.08"/> 
            <circle cx="318.84" cy="159.25" r="3.08"/> 
            <circle cx="326.63" cy="159.34" r="3.08"/> 
            <circle cx="265.72" cy="168.10" r="3.08"/> 
            <circle cx="334.36" cy="159.09" r="3.08"/> 
            <circle cx="273.45" cy="167.90" r="3.08"/> 
            <circle cx="342.13" cy="159.18" r="3.08"/> 
            <circle cx="349.89" cy="159.26" r="3.08"/> 
            <circle cx="281.21" cy="167.98" r="3.08"/> 
            <circle cx="288.96" cy="168.05" r="3.08"/> 
            <circle cx="296.70" cy="168.11" r="3.08"/> 
            <circle cx="304.42" cy="167.95" r="3.08"/> 
            <circle cx="312.15" cy="168.01" r="3.08"/> 
            <circle cx="319.88" cy="168.06" r="3.08"/> 
            <circle cx="327.60" cy="168.11" r="3.08"/> 
            <circle cx="335.31" cy="167.99" r="3.08"/> 
            <circle cx="343.02" cy="168.03" r="3.08"/> 
            <circle cx="350.74" cy="168.07" r="3.08"/> 
            <circle cx="258.79" cy="176.92" r="3.08"/> 
            <circle cx="266.48" cy="176.92" r="3.08"/> 
            <circle cx="274.18" cy="176.92" r="3.08"/> 
            <circle cx="281.88" cy="176.92" r="3.08"/> 
            <circle cx="289.57" cy="176.92" r="3.08"/> 
            <circle cx="297.27" cy="176.92" r="3.08"/> 
            <circle cx="304.96" cy="176.92" r="3.08"/> 
            <circle cx="312.66" cy="176.92" r="3.08"/> 
            <circle cx="320.35" cy="176.92" r="3.08"/> 
            <circle cx="328.04" cy="176.92" r="3.08"/> 
            <circle cx="335.74" cy="176.92" r="3.08"/> 
            <circle cx="343.43" cy="176.92" r="3.08"/> 
            <circle cx="351.13" cy="176.92" r="3.08"/> 
        </g>
    </g>
</svg>
