<?xml version="1.0" encoding="utf-8"?>
<!-- Generator: Adobe Illustrator 16.0.0, SVG Export Plug-In . SVG Version: 6.00 Build 0)  -->
<!DOCTYPE svg PUBLIC "-//W3C//DTD SVG 1.1//EN" "http://www.w3.org/Graphics/SVG/1.1/DTD/svg11.dtd">
<svg version="1.1" id="b43bf247-fd00-4c66-86de-2f4e4870ba29"
	 xmlns="http://www.w3.org/2000/svg" xmlns:xlink="http://www.w3.org/1999/xlink" x="0px" y="0px" width="1113.58px"
	 height="784.41px" viewBox="0 0 1113.58 784.41" enable-background="new 0 0 1113.58 784.41" xml:space="preserve">
<title>visual data</title>
<ellipse opacity="0.1" fill="#00B794" enable-background="new    " cx="965" cy="767.42" rx="64" ry="16.99"/>
<path opacity="0.1" fill="#00B794" enable-background="new    " d="M1070.55,694.89c-24.35,20.2-59,28.561-92.51,33.841l-5.64,0.859
	c-35,5.22-70.391,8-105.9,9.69c-19,0.92-38,1.569-57,2.149l-14.89,0.44c-19.334,0.573-38.704,1.137-58.11,1.689
	c-19,0.54-38,1.047-57,1.521c-24.333,0.594-48.667,1.087-73,1.479c-19,0.301-38,0.507-57,0.62c-24.34,0.141-48.674,0.094-73-0.14
	c-19.014-0.193-38.014-0.526-57-1c-24.347-0.627-48.68-1.543-73-2.75c-16.507-0.807-33.003-1.776-49.49-2.91l-7.51-0.53
	c-70.77-5.1-142.81-14.25-204.74-43.17l-1.67-0.79c-0.83-0.39-1.66-0.779-2.49-1.189c-11.371-5.437-22.263-11.822-32.56-19.09
	c-18.31-13.061-33.43-29-41.42-47.91c-12.52-29.66-5.9-63,8.4-92c14.3-29,35.77-55.18,54.34-82.49c5.44-8,10.6-16.3,15.4-24.81
	c30-53.37,44.88-115.13,13.43-166.561c-4.151-6.557-8.634-12.898-13.43-19c-7.67-10-15.47-20-20.74-31.07
	c-12.29-25.76-9.65-54.73-5.17-82.25c6-36.59,17-76,51.38-98.86c35.67-23.74,86.3-22.54,130.57-14
	c68.83,13.19,132.36,40.8,196.49,65.7s131.31,47.67,201.82,50.12c15.146,0.519,30.311-0.033,45.38-1.65l0,0
	c20.089-2.064,39.904-6.237,59.12-12.45c27.75-9.14,53-22.89,71.72-42c40.15-40.85,115.6-43.94,170-19.27
	c51.91,23.54,85.48,73.36,83,123.12c-2.82,55.39-44.3,100.93-82.311,147.64c-4.609,5.66-9.159,11.34-13.59,17.06
	c-2.473,3.193-4.899,6.393-7.279,9.6l0,0c-4.171,5.66-8.2,11.35-12,17.11c-19.421,29.53-33.15,65-19.78,96.88
	c7.5,17.85,21.81,31.47,39.06,43.359c38.65,26.63,92,44.55,116,81.83C1109.11,625.84,1101.45,669.21,1070.55,694.89z"/>
<ellipse fill="#00B794" cx="193.5" cy="750.89" rx="57.01" ry="10.96"/>
<ellipse fill="#3F3D56" cx="192.55" cy="746.23" rx="6.64" ry="8.69"/>
<ellipse fill="#3F3D56" cx="192.55" cy="735.61" rx="6.64" ry="8.69"/>
<ellipse fill="#3F3D56" cx="192.55" cy="724.99" rx="6.64" ry="8.69"/>
<ellipse fill="#3F3D56" cx="192.55" cy="714.37" rx="6.64" ry="8.69"/>
<ellipse fill="#3F3D56" cx="192.55" cy="703.75" rx="6.64" ry="8.69"/>
<ellipse fill="#3F3D56" cx="192.55" cy="693.13" rx="6.64" ry="8.69"/>
<ellipse fill="#3F3D56" cx="192.55" cy="682.51" rx="6.64" ry="8.69"/>
<path fill="#00B794" d="M217.4,609.83c0.905-1.156,1.73-2.372,2.47-3.64l-17.44-2.87l18.86,0.149
	c3.655-7.959,3.876-17.072,0.61-25.199l-25.31,13.13l23.34-17.19c-8.807-15.195-28.264-20.374-43.459-11.567
	c-15.195,8.807-20.374,28.264-11.567,43.459c0.748,1.29,1.585,2.526,2.506,3.698c-1.411,1.799-2.624,3.743-3.62,5.8l22.64,11.761
	l-24.14-8.101c-3.445,10.18-1.52,21.41,5.12,29.86c-10.854,13.807-8.46,33.799,5.347,44.653c13.807,10.854,33.799,8.46,44.653-5.348
	c9.066-11.533,9.066-27.772,0-39.306c9.066-11.539,9.066-27.781,0-39.32L217.4,609.83z"/>
<path opacity="0.1" enable-background="new    " d="M160.61,629.49c-0.012,7.132,2.384,14.06,6.8,19.66
	c-10.854,13.807-8.46,33.799,5.347,44.652c13.807,10.854,33.799,8.46,44.653-5.347c9.066-11.533,9.066-27.772,0-39.306
	C221.66,643.74,160.61,625.92,160.61,629.49z"/>
<path fill="#3F3D56" d="M346.5,517.21v226c-16.507-0.807-33.003-1.776-49.49-2.91l-7.51-0.529V517.21c0-4.871,3.949-8.82,8.82-8.82
	l0,0h39.359C342.551,508.39,346.5,512.339,346.5,517.21z"/>
<path fill="#3F3D56" d="M419.5,746.021V366.21c0-4.871,3.949-8.82,8.82-8.82l0,0h39.359c4.871,0,8.82,3.949,8.82,8.82l0,0v380.8
	L419.5,746.021z"/>
<path fill="#3F3D56" d="M549.5,747.21v-302c0-4.871,3.949-8.82,8.82-8.82l0,0h39.359c4.871,0,8.82,3.949,8.82,8.82l0,0v301.35
	L549.5,747.21z"/>
<path fill="#3F3D56" d="M736.5,221.21v522.35c-19,0.54-38,1.047-57,1.521V221.21c0-4.871,3.949-8.82,8.82-8.82l0,0h39.359
	C732.551,212.39,736.5,216.339,736.5,221.21L736.5,221.21z"/>
<path fill="#3F3D56" d="M866.5,326.21v413c-19,0.92-38,1.57-57,2.15V326.21c0-4.871,3.949-8.82,8.82-8.82l0,0h39.359
	C862.551,317.39,866.5,321.339,866.5,326.21L866.5,326.21z"/>
<polyline fill="none" stroke="#3F3D56" stroke-width="7" stroke-linecap="round" stroke-miterlimit="10" points="318.5,385.41 
	448.5,240.41 578.5,313.41 708.5,89.41 838.5,196.41 "/>
<circle fill="#00B794" cx="318" cy="385.41" r="28"/>
<circle fill="#00B794" cx="448" cy="240.41" r="28"/>
<circle fill="#00B794" cx="578" cy="313.41" r="28"/>
<circle fill="#00B794" cx="708" cy="89.41" r="28"/>
<circle fill="#00B794" cx="958" cy="327.41" r="28"/>
<ellipse opacity="0.1" fill="#6C63FF" enable-background="new    " cx="233.68" cy="722.61" rx="18.68" ry="3.16"/>
<path fill="#A8A8A8" d="M221.14,707.94c0,0,10.65-0.33,13.86-2.62s16.39-5,17.19-1.351c0.8,3.65,16,18.24,4,18.34
	c-12,0.101-27.95-1.88-31.15-3.829C221.84,716.53,221.14,707.94,221.14,707.94z"/>
<path opacity="0.2" enable-background="new    " d="M256.38,721.03c-12,0.1-27.94-1.87-31.15-3.82c-2.44-1.49-3.41-6.82-3.74-9.28
	h-0.35c0,0,0.67,8.591,3.88,10.54c3.21,1.95,19.12,3.931,31.15,3.83c3.47,0,4.67-1.26,4.6-3.09
	C260.29,720.32,258.97,721.01,256.38,721.03z"/>
<ellipse opacity="0.1" fill="#00B794" enable-background="new    " cx="1063.8" cy="749.41" rx="34.311" ry="5.8"/>
<path fill="#A8A8A8" d="M1040.79,722.46c0,0,19.57-0.6,25.47-4.8c5.9-4.2,30.101-9.21,31.561-2.48
	c1.46,6.73,29.42,33.5,7.319,33.681c-22.1,0.18-51.34-3.44-57.229-7C1042.02,738.3,1040.79,722.46,1040.79,722.46z"/>
<path opacity="0.2" enable-background="new    " d="M1105.51,746.521c-22.1,0.18-51.34-3.44-57.229-7
	c-4.48-2.73-6.271-12.53-6.87-17h-0.65c0,0,1.24,15.789,7.12,19.369s35.14,7.21,57.23,7c6.38,0,8.579-2.319,8.46-5.68
	C1112.68,745.21,1110.25,746.48,1105.51,746.521z"/>
<linearGradient id="SVGID_1_" gradientUnits="userSpaceOnUse" x1="1507.6621" y1="54.9004" x2="1664.2686" y2="54.9004" gradientTransform="matrix(-1 0 0 -1 2513.709 606.6602)">
	<stop  offset="0" style="stop-color:#808080;stop-opacity:0.25"/>
	<stop  offset="0.54" style="stop-color:#808080;stop-opacity:0.12"/>
	<stop  offset="1" style="stop-color:#808080;stop-opacity:0.1"/>
</linearGradient>
<path fill="url(#SVGID_1_)" d="M849.6,344.58c0.186,1.751,0.881,3.41,2,4.77c1.45,1.64,3.62,2.39,5.57,3.37
	c5.047,2.583,8.901,7.014,10.76,12.37c3.33,9.72,3.761,20,8,29.381c4.24,9.379,9.221,18.389,12.88,27.999
	c2.08,5.45,3.74,11.12,6.79,16.08c1.477,2.439,3.361,4.607,5.57,6.41c-0.229,3.52-0.32,7-0.3,10.52
	c1.373-0.026,2.665,0.653,3.42,1.801c0.74,1.14,1.25,2.414,1.5,3.75c1.37,5.67-0.32,11.71,0.91,17.41
	c3.379,15.854,2.341,32.333-3,47.64c-1.37,3.88-3.09,16.72-1.63,20.57c5.439-0.551,10.26,2.79,15.35,5
	c0.411,3.017,0.166,6.087-0.72,9c-1.83,5.27-1.82,11-1.79,16.569l0.25,41.26c0,5.23,0.07,10.53,1.38,15.601
	c1.49,5.71,4.62,11.53,4.52,17.43c-0.27,12.7,5.73,24.8,5.25,37.4c-0.09,2.42-0.42,4.82-0.649,7.22
	c-0.591,6.394-0.43,12.834,0.479,19.19c1.82,12.659,6.63,25.109,5.431,37.84c-0.08,0.86-0.37,2-1.181,2.33
	c1,1.13,2.061,2.25,3.141,3.319c-0.219,0.365-0.517,0.676-0.87,0.91c-1.182,0.617-2.487,0.959-3.82,1
	c-1.563,0.041-3.081,0.534-4.37,1.42c-0.937,0.899-1.572,2.066-1.819,3.341c-0.721,2.548-0.281,5.284,1.199,7.479
	c0.894,1.124,2.061,1.999,3.391,2.54c4.62,2,9.92,0.55,14.74-0.91l18.88-5.72c1.151-0.239,2.214-0.793,3.069-1.6
	c0.392-0.463,0.651-1.022,0.75-1.62c4.17,1,8.75-0.23,13-1.5l18.88-5.73c1.153-0.234,2.218-0.789,3.07-1.6
	c0.688-0.837,0.97-1.936,0.771-3c0.14-0.061,0.279-0.101,0.42-0.17c1.439-0.65,3-1.92,2.649-3.45c-0.25-1-1.25-1.58-1.68-2.5
	c-0.412-1.218-0.146-2.562,0.7-3.53c0.739-1,1.739-1.83,2.42-2.88c2.18-3.34,0.7-7.729-0.12-11.64
	c-1.771-8.351-0.13-17.07-1.25-25.53c-0.38-2.85-1.07-5.65-1.62-8.48c-1.165-6.688-1.937-13.44-2.31-20.22
	c-0.721-9.68-3.41-19.22-1.87-28.819c0.747-5.635,1.065-11.318,0.949-17c0.109-3.62-0.048-7.243-0.47-10.841
	c-0.39-2.68-1.08-5.31-1.38-8c-0.243-3.023-0.297-6.06-0.16-9.09c0.138-6.755-0.486-13.505-1.859-20.12
	c-2-9.09-5.761-17.79-7.36-26.899c0.54,0.12,1.08,0.239,1.6,0.38c0.061-7-6.069-22.221-8.34-28.86
	c-0.332-0.813-0.534-1.674-0.6-2.55c0.137-1.155,0.348-2.301,0.63-3.43c0.29-2.42-1-4.721-1.35-7.141
	c-0.137-1.702-0.012-3.415,0.369-5.08c1.61-8.949,3.61-17.83,5.61-26.699c0.872-3.213,1.173-6.554,0.89-9.87
	c-0.47-3.557,0.624-7.143,3-9.83c0.879-0.811,1.628-1.752,2.221-2.79c0.332-0.892,0.481-1.84,0.439-2.79
	c-0.039-4.113-0.646-8.202-1.8-12.15c1.76-3.189,2.41-7.109,2.92-10.81c1.12-8.17,2.24-16.38,2.2-24.63
	c0.089-4.401-0.519-8.789-1.8-13c-0.937-2.602-2.08-5.123-3.421-7.541c-5.26-10.13-10.289-20.79-16.93-30.07
	c-2-2.82-0.74-6.71-0.6-10.19c0.149-4.2-1.51-8.23-3.141-12.09c-0.831-2.376-2.107-4.572-3.76-6.47c-1.129-1.243-2.721-1.966-4.4-2
	c-1.904,0.233-3.615,1.28-4.689,2.87c-2.442,3.327-3.454,7.493-2.811,11.57c0.665,4.041,2.426,7.821,5.091,10.93
	c1.287,1.564,2.762,2.965,4.39,4.17c1.653,5.253,3.32,10.503,5,15.75c2.64,8.35,5.28,16.74,9,24.641
	c1.09,2.289,2.29,4.619,2.42,7.149c0.141,2.729-1,5.33-1.91,7.899c-1.917,5.357-3.003,10.976-3.22,16.66
	c-0.292,0.13-0.573,0.284-0.84,0.46c-3.15,2.061-4.14,6.551-7.42,8.391c-1.91,1.069-4.23,1-6.37,1.49c-0.19,0-0.38,0.1-0.58,0.159
	c-0.08-0.399-0.16-0.79-0.21-1.199c-0.03-0.256-0.03-0.515,0-0.771c5.099-2.804,9.382-6.883,12.43-11.84
	c0.643-0.918,1.139-1.93,1.47-3c0.271-1.282,0.321-2.601,0.15-3.899c-0.167-4.337-0.787-8.644-1.85-12.851
	c-1.067-4.228-3.401-8.027-6.69-10.89c-1.64-1.32-3.53-2.311-5.16-3.641c-3.18-2.57-5.359-6.37-9-8.28
	c-4.785-2.331-10.554-0.838-13.609,3.52c-0.484,0.976-1.165,1.84-2,2.54c-0.637,0.301-1.258,0.635-1.86,1
	c-1.1,0.88-1.16,2.57-0.8,3.94c0.683,2.814,1.064,5.693,1.14,8.59c-6.665,7.822-6.69,19.318-0.06,27.17c0,1.859,0,3.72-0.07,5.58
	c0,0.35,0,0.71-0.069,1.06c-1.153-0.401-2.186-1.09-3-2c-1.12-1.4-1.32-3.46-2.69-4.61c-0.985-0.649-2.108-1.06-3.28-1.199
	c-2.912-0.662-5.643-1.956-8-3.79c-1.85-1.431-3.77-3.261-5.93-3.681c-3.728-6.99-8.078-13.631-13-19.84
	c-1.248-1.47-2.385-3.03-3.4-4.67c-2.149-3.75-2.789-8.16-4.149-12.27c-3.8-11.52-13.28-20.76-15.59-32.68
	c-0.841-4.32-3.58-8.08-5.46-12.06c-1.271-2.69-2.67-5.53-5.211-7.07c-3.27-2-7.789-1.08-10.51,1.61
	C850.182,336.801,848.982,340.725,849.6,344.58z M968.33,749.271c-1.182,0.616-2.487,0.959-3.82,1c-0.672,0.069-1.34,0.176-2,0.319
	c-0.25-2.1-0.39-4.229-0.55-6.3c-0.53-6.79-1.59-13.53-2.64-20.26c-1.101-7-1.62-14.66-4-21.38c-3.83-10.94-7.71-22.21-7.221-33.801
	c0.11-2.63,0.44-5.239,0.58-7.859c0.32-6.49-0.59-13.12,1-19.431c0.71-2.869,1.92-5.609,2.38-8.529
	c0.294-2.638,0.327-5.297,0.101-7.94c-0.438-9.177,0.326-18.371,2.27-27.35c1.86,2.43,2.471,5.569,3,8.58l3.75,20.34
	c2.23,12.07,4.2,24.87,10.11,35.61c-0.83,3.869-1.65,8-0.28,11.699c0.59,1.601,1.561,3,2.16,4.62c1,2.69,0.86,5.65,1.16,8.5
	c0.649,6,3.13,11.9,1.31,17.69c-1.872,5.97-3.089,12.126-3.63,18.359c-0.1,1.734-0.3,3.46-0.6,5.17c-0.32,1.54-0.84,3-1.13,4.58
	c-0.4,2.218-0.301,4.496,0.29,6.67c0.448,1.205,0.725,2.468,0.819,3.75c0,1.28-1.569,2.2-2.83,2.4c0.37,0.48,0.771,0.94,1.181,1.391
	C969.499,747.949,969.008,748.705,968.33,749.271z"/>
<path fill="#3F3D56" d="M928.84,760.81c-1.563,0.041-3.081,0.535-4.37,1.42c-0.94,0.889-1.577,2.05-1.819,3.32
	c-0.719,2.529-0.279,5.246,1.199,7.42c0.894,1.121,2.062,1.992,3.391,2.53c4.62,2,9.92,0.54,14.74-0.91l18.88-5.68
	c1.15-0.235,2.214-0.786,3.069-1.59c1.066-1.436,1.098-3.391,0.08-4.86c-1.014-1.411-2.398-2.515-4-3.189
	c-5.87-2.86-12.49-3.511-18.939-3.631c-2.4,0-4.771-0.58-6.4,1.271c-0.86,1-0.7,2.07-2,2.92
	C931.481,760.437,930.174,760.771,928.84,760.81z"/>
<path fill="#3F3D56" d="M964.51,750.43c-1.563,0.046-3.079,0.539-4.37,1.42c-0.938,0.891-1.574,2.051-1.819,3.32
	c-0.718,2.532-0.278,5.252,1.199,7.43c0.897,1.115,2.064,1.982,3.391,2.521c4.63,2,9.92,0.55,14.74-0.9l18.88-5.689
	c1.15-0.235,2.214-0.786,3.069-1.59c1.064-1.433,1.097-3.384,0.08-4.851c-1.016-1.41-2.399-2.514-4-3.189
	c-5.88-2.86-12.5-3.521-18.95-3.641c-2.399,0-4.76-0.569-6.399,1.28c-0.86,1-0.7,2.06-2,2.91
	C967.148,750.064,965.842,750.4,964.51,750.43z"/>
<path fill="#696791" d="M948.1,545.53c11.127-1.118,22.319-1.433,33.49-0.94c0.737-0.008,1.471,0.107,2.17,0.34
	c2.46,1,2.84,4.221,3.07,6.851c1,10.68,5.66,20.63,8,31.09c1.374,6.575,1.998,13.284,1.86,20c-0.136,3-0.082,6.006,0.159,9
	c0.301,2.67,1,5.29,1.381,7.95c0.422,3.573,0.578,7.173,0.47,10.77c0.114,5.64-0.203,11.279-0.95,16.87
	c-1.54,9.53,1.15,19,1.87,28.641c0.358,6.742,1.116,13.457,2.27,20.109c0.551,2.811,1.24,5.59,1.62,8.42
	c1.12,8.41-0.52,17.07,1.25,25.37c0.82,3.88,2.3,8.24,0.12,11.56c-0.68,1-1.68,1.851-2.42,2.86c-0.846,0.96-1.112,2.299-0.7,3.51
	c0.431,0.91,1.431,1.511,1.681,2.48c0.39,1.53-1.21,2.78-2.65,3.43c-10.85,4.9-24.84,1.45-32.16-7.939c1.26-0.2,2.8-1.11,2.83-2.391
	c-0.096-1.272-0.372-2.524-0.82-3.72c-0.589-2.157-0.688-4.419-0.29-6.62c0.29-1.54,0.811-3,1.131-4.55c0.3-1.7,0.5-3.417,0.6-5.141
	c0.541-6.193,1.758-12.311,3.63-18.239c1.82-5.75-0.66-11.57-1.31-17.57c-0.301-2.84-0.17-5.77-1.16-8.45
	c-0.601-1.58-1.57-3-2.16-4.58c-1.37-3.689-0.55-7.79,0.28-11.63c-5.91-10.67-7.88-23.39-10.11-35.38l-3.75-20.2
	c-0.56-3-1.17-6.109-3-8.53c-1.943,8.919-2.707,18.054-2.27,27.171c0.227,2.626,0.193,5.27-0.101,7.89
	c-0.46,2.9-1.67,5.63-2.38,8.47c-1.55,6.271-0.64,12.851-1,19.3c-0.14,2.61-0.47,5.2-0.58,7.811c-0.49,11.52,3.391,22.72,7.22,33.59
	c2.351,6.67,2.87,14.25,4,21.23c1,6.689,2.11,13.38,2.641,20.13c0.49,6.199,0.71,12.909,4.569,17.779
	c-3.529,2.29-7.17,4.62-11.3,5.41c-4.813,0.753-9.737-0.202-13.92-2.7c-4.158-2.486-7.876-5.646-11-9.35
	c0.811-0.28,1.101-1.46,1.181-2.31c1.199-12.66-3.61-25-5.431-37.601c-0.909-6.313-1.07-12.71-0.479-19.06
	c0.229-2.391,0.56-4.78,0.649-7.181c0.48-12.51-5.55-24.56-5.33-37.08c0.101-5.869-3-11.649-4.52-17.319
	c-1.31-5-1.35-10.3-1.38-15.5l-0.25-41c0-5.54,0-11.22,1.79-16.45c2.2-6.3-0.32-13.53-0.7-20.19
	C926.302,545.233,937.238,546.453,948.1,545.53z"/>
<path fill="#A0616A" d="M912.45,427.73c-4.203-8.594-9.338-16.699-15.311-24.17c-1.248-1.46-2.384-3.011-3.399-4.641
	c-2.15-3.73-2.79-8.11-4.15-12.19c-3.8-11.44-13.28-20.63-15.59-32.46c-0.84-4.3-3.58-8-5.46-12c-1.271-2.67-2.67-5.49-5.21-7
	c-3.271-2-7.79-1.08-10.51,1.6c-2.652,2.826-3.842,6.724-3.221,10.55c0.188,1.742,0.883,3.391,2,4.74c1.45,1.63,3.62,2.37,5.57,3.35
	c5.039,2.554,8.895,6.958,10.76,12.29c3.33,9.65,3.76,19.87,8,29.19s9.22,18.26,12.88,27.79c2.08,5.41,3.74,11,6.79,16
	s7.811,9.189,13.561,9.939c-0.039-3.625,0.512-7.231,1.63-10.68C912.04,436.1,914.26,431.46,912.45,427.73z"/>
<path fill="#A0616A" d="M974.36,435.21c-0.258-7.07,0.846-14.125,3.25-20.78c0.92-2.55,2-5.14,1.909-7.85
	c-0.13-2.52-1.33-4.83-2.42-7.109c-3.76-7.851-6.399-16.171-9-24.471l-5-15.65c-1.63-1.195-3.104-2.589-4.39-4.15
	c-2.665-3.082-4.427-6.84-5.09-10.86c-0.645-4.049,0.368-8.187,2.81-11.48c1.078-1.584,2.788-2.627,4.69-2.86
	c1.679,0.037,3.269,0.76,4.399,2c1.65,1.882,2.926,4.061,3.761,6.42c1.63,3.84,3.29,7.84,3.14,12c-0.14,3.46-1.43,7.32,0.6,10.13
	c6.641,9.22,11.671,19.81,16.931,29.88c1.342,2.4,2.485,4.904,3.42,7.49c1.284,4.19,1.893,8.559,1.8,12.939
	c0,8.191-1.08,16.351-2.2,24.471c-0.71,5.09-1.64,10.63-5.489,14C983.479,444.21,979.46,439.21,974.36,435.21z"/>
<circle fill="#A0616A" cx="948.92" cy="418.36" r="20.75"/>
<path fill="#A0616A" d="M958.97,440.21c0.5,3.75,2.511,7.11,4.47,10.35c1.181,2,2.69,4.131,5,4.351
	c-6.012,3.155-12.327,5.694-18.85,7.58c-2.217,0.745-4.541,1.12-6.88,1.109c-1.981-0.147-3.922-0.646-5.729-1.47
	c-8.014-3.489-13.981-10.464-16.19-18.92c2.583,0.069,5.167-0.129,7.71-0.59c1.452-0.111,2.806-0.777,3.78-1.86
	c0.579-1.014,0.851-2.174,0.78-3.34c0.1-3.46,0.109-6.93,0-10.39c5.098-0.325,10.213,0.306,15.079,1.859c2,0.65,4,1.431,6,1.94
	c1.261,0.32,4.73,0,5.66,0.729C961.33,432.59,958.62,437.66,958.97,440.21z"/>
<path fill="#F86D70" d="M949.85,452.82c0.467-5.607,4.472-10.285,9.94-11.61c2.14-0.479,4.46-0.42,6.37-1.479
	c3.28-1.83,4.27-6.29,7.42-8.341c3.149-2.05,7.62-0.909,10.36,1.681c2.739,2.59,4.13,6.279,5.25,9.89
	c1.672,4.881,2.579,9.991,2.689,15.15c0.042,0.943-0.107,1.886-0.439,2.77c-0.594,1.032-1.342,1.967-2.221,2.771
	c-2.374,2.664-3.47,6.231-3,9.77c0.284,3.294-0.017,6.611-0.89,9.8c-2,8.82-4,17.631-5.61,26.53c-0.378,1.638-0.502,3.324-0.37,5
	c0.311,2.41,1.641,4.69,1.351,7.101c-0.283,1.121-0.494,2.261-0.63,3.409c0.065,0.87,0.268,1.724,0.6,2.53
	c2.271,6.59,8.4,21.69,8.34,28.67c-10.649-2.729-26.35-3.34-37.35-3.39c-3.025-0.032-6.05,0.102-9.061,0.399
	c-7.229,0.78-14.63,2.891-21.64,0.94c-6.51-1.81-12.271-7-19-6.35c-1.46-3.82,0.26-16.57,1.63-20.431
	c5.341-15.199,6.379-31.578,3-47.33c-1.229-5.66,0.46-11.67-0.91-17.29c-0.25-1.329-0.76-2.597-1.5-3.729
	c-0.758-1.144-2.048-1.819-3.42-1.79c-0.124-9.04,0.714-18.067,2.5-26.93c0.66-3.15,2-6.87,5.23-7.41c2.859-0.49,5.26,1.93,7.56,3.7
	c2.358,1.825,5.09,3.108,8,3.76c1.172,0.14,2.295,0.551,3.28,1.2c1.37,1.14,1.57,3.189,2.689,4.58c2,2.489,6.471,2.279,7.891,5.149
	c0.311,0.855,0.561,1.73,0.75,2.62c0.672,1.705,1.816,3.184,3.3,4.26C944.188,450.515,946.897,452.025,949.85,452.82z"/>
<path fill="#2D293D" d="M932.06,396.3c-0.359-1.37-0.3-3,0.801-3.92c0.55-0.43,1.27-0.59,1.859-1c0.832-0.699,1.513-1.56,2-2.53
	c3.082-4.312,8.825-5.77,13.59-3.45c3.61,1.89,5.79,5.67,9,8.22c1.631,1.319,3.521,2.3,5.16,3.62c3.285,2.837,5.62,6.613,6.69,10.82
	c1.063,4.176,1.683,8.453,1.85,12.76c0.171,1.292,0.12,2.604-0.149,3.88c-0.333,1.069-0.829,2.082-1.471,3
	c-3.3,5-7.649,9.54-13.1,12.12s-12.08,3-17.46,0.3c-0.541-0.219-1.007-0.591-1.34-1.07c-0.306-0.729-0.38-1.536-0.21-2.31
	c0.291-3.057-0.313-6.132-1.74-8.851c-1-2-2.5-3.72-3.3-5.79c-0.744-2.316-1.063-4.749-0.94-7.18
	C933.21,408.63,933.64,402.359,932.06,396.3z"/>
</svg>
