<?xml version="1.0"?>
    
<!--********* Copyright (c) 2024 Pareto Softare, LLC DBA Simplemaps.com ***************************************
************* Free for Commercial Use, full terms at  https://simplemaps.com/resources/svg-license ************
************* Attribution is appreciated! https://simplemaps.com *******************************************-->

<svg baseprofile="tiny" fill="#000000" height="960" stroke="#ffffff" stroke-linecap="round" stroke-linejoin="round" stroke-width=".5" version="1.2" viewbox="0 0 1000 960" width="1000" xmlns="http://www.w3.org/2000/svg">
 <g id="features">
  <path d="M519.1 43.6l0.9 2.3 0.6 4.3 0.7 1.9 2.2 2.5 0.9 1.5 0.2 1.9-0.3 0.6-1.4 1.5-0.4 0.8 1.2 4.4-0.1 0.6-0.4 1.1-0.1 0.4 0.2 0.4 0.7 0.3 0.3 0.4 0.6 1.2 0.3 0.6 0.4 0.2 0.9 0.2 0.6 0 1.1-0.2 0.6 0.1 0.8 0.4 0.3 0.6 0.2 0.6 0.4 0.8 2.3 2.2 0.4 0.6 0.8 2 0.3 0.6 1.2 1 4.9 2.2 0.3 0.2 1 0.2 0.8-0.6 1.9-3.3 1.1-1.2 1.4-0.9 3.2-1 5-1.6 1.6 0.5 1 1 1 1.9 0.9 1.5 0.8 1.9 0.5 0.6 0.8 0.1 0.9 0.3 0.5 0.9 0.7 2.3-0.9 1.6 0.5 2.8 1.6 5.5 0.1 3.1 0.3 1.1 1 1.3 0.8 0.6 2.7 1.4 1.1 0.3 1.5-0.1 2.7-1 0.9-0.7 0.6-0.6 0.6-0.4 0.9-0.1 0.9 0.3 0.4 0.5-0.1 0.8-0.6 1.1 0.8 0.5 4 0.1 1.4 0.3 1.3 0.6 1.2 1.2 1 1.9 0.6 3.7 0 4.5 0.5 4 2.2 2 0.2-0.6 0.1 0 0.1 0.1 0.3-0.2 0.2-0.3 0.2-0.8 1.2-1.9 0.5-0.6 0.8-0.3 2.7-0.2 2.6 0.3 1.2 0.6 1.1 0.8 1.1 0.5 1.4 0 3.9-1.7 1.4-0.1 1.2 0.6 2 2.3 1.3 0.7 1.3 1.2 1.7 3.6 1.1 0.6 0.5-0.5-0.1-0.7 0-0.6 0.8-0.3 0.6 0.2 0.8 0.5 0.8 0.7 0.4 0.6-0.2 1-0.6 0.7-1.5 1.2-0.6 0.9-0.3 0.8-0.3 1.8-1.2 3.8-0.2 1.8 0.9 0.4 1.2-0.5 0.7-0.1 0.6 0.3 1.1 4.1 0.3 0.9 0.5 0.8-0.1 0.6-1.4 0.8-1.5 1-1.1 1.1-0.5 0.5-0.3 0.7-0.2 1.2 0.3 0.1 0.3 1.5 0.1 1.4-0.5-0.1 3.5 1.9 0.8 0.3 0.9-0.2 3.8-0.5 9.3 2.5 0.5 0.2 1.8-0.4 8.6-4.3 2.6-0.4 0.7-0.4 0.5-1.1 0.5-1.5 0.5-3.1-0.1-0.7-0.2-0.5-0.2-0.5 0.2-1 0.3-0.7 6.6-6.7 1.7-0.8 0.3 1.4 0.7 0.3 1.9-0.4 0.6 0.8-0.1 1.7-0.3 1.9-0.2 1.7-0.6-0.7-0.4 0.1-1.2 2.6 0 0.8 0.1 0.8-0.1 1.1-2.4 5.9-0.2 1.6 0.8 1.3 2.9 1.2 1 1.8 0.1 1.2-0.2 0.9-0.3 0.8-0.3 1.1-0.2 0.5-0.6 0.7-0.1 0.6 0.1 0.4 0.6 1.1 0.2 0.5 0 3.6 0.5 0.7 1.7 0.3 1.3-0.3 2.7-0.9 1.2-0.1 0.1 0 1.1 0.7 2.3 2.2 1.3 0.7 2.2 0.7 0.7 0.7 2.7 3.8 0.9 0.9 1.1 0.9 1.4 0.4 2.8-0.8 1.4 0 1.3 1.2 1.1 1.5 0.5 1.4-0.3 0.4-0.5 0.3-0.2 1.4 0.2 0.8 0.3 0.4 1 0.2 0.4-0.1 0.4-0.5 0.2-0.5 0.2-0.3 0.4 0.1 0.7 0.4 1.9 0.7 0.5 0.4 0.7 0.6 3 5.5 0.2 0.8 0 1-0.2 0.9 0 0.9 0.3 0.8 1.4 0.4 1.6-1 1.5-1.2 1.2-0.5 1.9 0.9 0.6 0.1 0.9-0.1 0.2-0.4 0.1-0.7 0.8-1 1.5-0.8 1.4 0.4 1.3 0.6 1.4 0.3 0.7-0.4 0.8-1 0.7-0.4 0.7 0.1 1.3 0.8 0.7 0.2 2 2.6 1.1 1 1.5 0.8 4 0.9 1.1 1.2 0.9 2.7 1-0.4 5.3-0.3 0.9-0.3 0.6-0.9 0.8-0.3 0.1-0.5 0-0.6 0.3-0.6 0.5-0.2 1.7-0.2-0.4-0.8 3.6-0.4 1.7 0.2 1.7 0.6 0.1 0.1 3 2.2 1.6 0.9 1.3 0.2 0.5 0 0.6-0.1 1.2-0.8 0.5-0.2 0.7 0.1 5.7 2.9 1.1 1 0.3 0.8 0.2 0.8 0 0.5-0.1 0 0.4 0.7 3 3.2 0.2 0.5-0.2 0.8-1.1 0.1-0.4 0.8 0.4 1.1 1.1 1.3 4.1 4 0.1 0.4-0.2 0.9 0.1 0.4 0.3 0.3 0.9 0.3 0.3 0.3 0.5 1.7 0.2 0.4 0 0.2 0.1 0.8 0.2 0.3 0.3 0 0.8-0.6 0.3 0 0.4 1.5-0.4 1.2-0.1 1.2 0.8 1.3 0.7 0.3 2.7 0 2.5 0.9 0.7-0.1 1.1-1.5-0.2-1.5-0.5-1.6 0.4-1.3 0.6-0.1 2.6 0.6 1.8-0.2 0.7 0.1 3.8 2.2 1.4 0-0.1 3.4 0.7 2.6 1.4 1.1 1.9-1.2 0.1-0.5-0.2-0.5-0.1-0.5 0.6-0.6 0.4 0 2.3 1.8 1 0.5 1 0.3 5.3 0.1 1.7 0.7 0.3 0.1 0.4-0.4 0.7-1.3 0.4-0.5 0.5-0.2 1.3-0.1 0.4-0.3 0.4-0.5 0.4-1.4 0.3-0.4 1-0.6 0.3-0.1 1.2-0.3 1.2 0.1 0.2 1 2.7 0.2 1.1 0.4 0.4 1.4-0.4 0.3-0.2 0.2-0.1 0.3 0.9 0.9 1.4 2.3 0.8 1 1.3 0.9 2.8 0.5 1.3 0.7 0.5 0.5 0.6 1.3 0.6 0.5 0.6 0.1 0.2 0 0.8-0.1 0.7-0.4 0.8-0.1 0.6 0.1 1.4 0.5 0.6 0.1 0.7-0.2 1.5-0.8 0.6-0.2 5.2 1.5 3.5-0.4 1.1 0.1 9.8 5.3 6.1 1.2 0.7 0.7 0 0.1-1.3 1.4-1.9 3.7-2.8 7.7-0.8 1.3-0.3 0.4-2.3 1.2-0.6 0-0.1 0.2-0.3 0.3-0.3 0.5-0.1 0.9-0.1 0.5-0.4 0.3-0.5 0.2-1.7 0-0.7 0.3-0.3 0.8-0.1 1.8-0.3 0.7-0.6 0.9-0.9 0.8-0.7 0.5-1.7 2-0.9 0.8-1.1 0.4-0.7 0.5-2.6 4.1-0.5 3 0 3.3 0.7 2 0 0.6-1.5 1.2-0.8 0.8-0.3 0.9-0.1 1.7-0.3 0.9-0.4 0.6-0.5 0.9-0.3 1.1-0.4 2.5-0.1 1.2 0.2 1.1 0.4 1.2 0.3 1.2-0.1 1.3-0.8 1.4-1.2 0.6-1 0.8-0.4 2-0.1 1.9-0.4 1.6-0.7 1.3-3.9 5.5-0.4 1.1-0.1 1.4-0.3 0.7-0.4 0.6-0.5 0.8-0.4 1.4-0.4 1.8 0.2 3.8 2.7 4.8 0.1 2.8-0.6 1.2-1.6 1.7-0.4 1.2 0.1 1.5-0.1 0.5-0.4 0.9-0.2 0.4-0.5 0.4-0.1 0.4-0.1 0.4 0 0.3 0.1 0.2 0 0.4 0.3 1.7-0.2 1-0.8 0.5-0.3 0.4-0.9 3-0.2 1.3 0.8 3.2-0.1 1.5-0.3 0.6-1 1.1-0.3 0.6 0.2 2 0.2 1 0.3 0.4 0.9 0.5 0.8 1.1 1.4 2.8 0.4 0.5 0.4 0.3 0.3 0.5 0.1 0.9-0.1 0.3-0.3 1-2.2 0.8-1.5 0.8-0.3 0.3-2.4 1.9 0.2 0.1 1 0.8 0.2 0 0 0.9-0.2 0.5-0.5 0.2-0.7-0.1-0.3 0.1-0.1 0.3 0.1 0.4 0.5 0.6 0 0.2 0 0.1 0 0.2-0.1 0.3-0.1 0.1-0.9 0.9-0.8-0.1-0.5-0.4-0.3-0.2-1-0.3-0.7 0.2 0 0.6 0.3 0.5 0.2 0.3 0.3 0.4 0.1 0.5-0.2 0.9-0.3 0.4-0.9 1.2-1.1 0.4-0.6 0.3-2.6-0.2-1.7 0-1.6 0.3-2.4 1-0.4 0.1-0.5-0.2-0.2-0.3-0.2-0.3-0.3-0.2-1.8-0.6-1.3-0.8-0.4-1.5 1.2-2.6-1.7 0.2-0.7-0.2-0.1 0-0.9-0.4-1.4-0.3-3.1 0.5-1.6-0.2-0.6-0.5-0.5-0.1-0.6 0.1-0.5 0.5-1.2 0.3 0.2 1 0.6 1.3 0.3 1.1-0.5 0.8-0.9 0.7-1 0.6-1.6 0.4-0.1 1.7-1.6 1-0.9 1.2-0.8 1.4-0.3 1.2 7.4-0.8 1.1-0.5 0.9 0.7 1 0.9 0.6 0.9-0.5 1-0.5 0.4-0.7 0.1-0.6 0.4-0.9 1.3-0.4 0.1-0.5 0.1-1.2 1.2-0.4 1.8 0.3 2.3-4.2 3.1-1.8 1.8-1.2 2-0.1 0.1-4 3.6-1.8 0.7 0.1 1.5-0.9 0.5-0.3 0.2-0.2 0.5-1.5 0.6-0.6 0.6-0.9 1.4 0.8 1.7-1.4 2.1-4.2 3.1-6.6 2.1-3 1.8-0.9 3.1 0.2 0.9 0.8 1.5 0.2 1-0.1 1.3-0.2 0.5-0.1 0.3-0.4 0.8-1 3-0.1 0.4 0.2 0.5 0.3 0.5 0.5 0.5 0 1.5-0.2 0.7-0.7 0.9-0.7 0.5-2 1.1-1.7 1.8-0.6 0.6-4.4 2.4-8.3 7.6-0.9 1.1 0.2 1.2 1.5 1.7-2.2 2.8-2.1 3.7-0.7 0.7-0.3 0.6 0 0.4 0.2 0.5 0.1 0.3 0 0.3 0 0.7 0.2 0.6-0.1 0.6-0.7 0.7 0.2 0.2 3.1 1.8 0.9 1 0.8 1.4 0 1-1.1 2.4-0.9 2.1-0.2 0.7-0.4 2.5 0 1 0 0.8-0.3 0.6-1.3 0.4-0.4 0.1-0.3-0.1-0.5-0.1-0.1-0.1-0.1 0.1-0.2 0-3.7 1.8-1.5 1-0.2 1 0.6 1.3 1.1 1.3-0.2 0.8-0.4 0.9-0.9 1.9 1.5-0.8 2.8-0.7 2.9-0.1 2.1 0.9 2-1 3.1-3.7 4-2.7 1.6-1.6-0.3-2.1-0.5-0.2-1 0.5-0.6-0.4-0.3-0.3-0.6-1.5 0-0.4-0.6-1.5-0.3-0.9 0.4-1.2 1.3-1.8 1.7-2.3 2.1-1.8 1.9-0.6 2-0.1 2-0.5 5.3-3.6 3.9-0.8 4.2 0.1 9.2 2.4 0.9 0.5 0.6 0.9 0.1 0.8 0 0.9-0.4 1.5-1.6 1.9-0.4 1 1.2 2.1 2.2 2.3 1.4 2.4-2.2 4.3-1.1 3.2-0.5 3.1 0.5 1.5 4.9 1 1 1-0.1 0.6-0.4 0.7-0.5 0.6-0.3 0.5 0.2-0.1 0.1 0.9 0 0.9-0.1 0.1 0 0.7-0.1 0.4 0 0.3 0.6 0.4 0.6 0.1 0.5-0.4 0.4-0.5 0.5-0.2 1.4 0.6 4.2 4.8 0.3 0.2 0.2 0.9 0.7 1.9 0.5 1.6 0.3 0.9 0.4 0.7-0.9 0.5-0.6 0.8-0.5 1-0.4 1.2-0.8 1.5-1.3 1-1.4 0.7-1.3 0.4-1.5 0-0.5 0.1 0 0.4-0.1 0.7 0 0.4-0.4 0.1-0.4-0.6-0.4-0.3-0.5-0.2-1.7 0.5-1 0.6-0.7 1.3-0.4 1.5 0 1.6 0.1 1.5 0.7 3.7 1.3 1.9 1.7 1.3 1.6 0.3 0.8 0.3 1.4 1.4 0.8 0.6 2 0.5 0.8 0.6 0.4 1.3-0.2 0.5-0.7 1.6-0.1 0.7 0.1 0.7 0.7 1 0.2 0.7 0.3 3.7 0.5 1.2 2.8 1.6 2.7 2.1 0.2 0.3 0.4 0.6 0.5 1.1 0.5 1 0.8 0.6 2.6 1.2 0.5 0.4-0.1 1.1-0.5 1.3-1.3 2.3-2 2.4-0.3 0.5 0.3 2.6 0.7 1.7 0 1.4-1.7 1.4-1.2 2.2-0.4 0.4-0.3-0.1-0.8-0.9-0.5-0.2-2.2 0.6-2.2 1-0.8 0.7-1.1 1.9-0.9 0.9-0.5 0.1-1.5 0-0.5 0.2-0.3 0.8 0.3 0.4 0.4 0.4-0.2 0.6-2 1-2.2-0.8-2.3-1.3-2.1-0.3-0.5 0.2-1.1 0.9-0.6 0.3-0.4 0.1-1.2-0.1-0.5 0.1-2.2 1.3-0.2 0.1-0.9 0.8-0.7 1 1.1 1.7 1 0.8 0.1 0.7-0.1 0.7 0.2 0.8 0.7 1.2 0.7 0.6 2.1 0.2 1.7 1.2 0.4 2.5-0.2 4.9 1.1 1.8 2 1.8 4.3 2.5 1.2 0.3 3-0.6 1.1 0.1 3.1 1.2 1.1 1.3 0.3 0.4 0.1 0.5 0 0.3-0.1 0.2 0 0.4-0.1 0.1-0.3 1.4 0 0.1 0.7 1.9 0.3 2.1 0.2 0.8 1.9 3.5 0.4 1.2-1.1 0-2.3-0.7-1.1 0-1.4 0.8-1.2 1.4-0.4 1.8 0.7 1.8-0.9 0.7-2.1 3.7-3.1 2.4-0.7 1.2 0.2 2.7 1.4 2.4 1.9 2 1.6 1.3-2.1 1.2-0.4 0.7-0.5 2.7-0.2 0.6 0 0.4 0.2 0.8 0.3 0.4 1.3 1.6 0.5 0.9 0.8 1.7 0.3 0.7 0.6 0.5 1.2 0.9 0.5 0.7 0.4 0.9 0.2 0.8 0.3 0.7 0.6 0.7 0.8 0.3 0.8-0.1 0.7-0.3 0.8 0 0.8 0.2 3.7 2 2.4 0.9 6.6 4 1.2 0.5 1.6 0.3 0.8 0.3 0.4 0.6 0.4 0.8 0.6 0.5 0.5 0.2 2.5 0 10.8-3.1 1.8-0.1 2.5-1.7 1.9 0.3-0.8 2.9 0.7 1.6 1.4 1.3 0.7 1.6 0.3 0.5-0.1 1.5-0.7 0.9-0.9 0.7-0.7 0.8-0.4 1.1-0.5 1.9-0.5 1-1.4 1.5-3.2 2.7-1.2 2-2.7 3-1 1.8 0.3 2.1 1.3 4.2-0.9 0.5-0.2 0-0.3 0-0.3 0.1 0 0.3 0.1 1.1-0.1 0.3-0.4 0.3-0.4-0.1-0.5 0.5-0.5 0.6-0.6 0.5-0.7-1-1.1-0.7-1.2 0.5-1 1-0.3 1-0.1 1-0.8 0.6-0.6 0.7-0.3 0.8-0.5 1-0.7 0.1-1.1-0.2-1.3-0.5-1.4 0.2-1 0.6-0.8 0.9 0.2 0.9-1.1 1.2-0.6 0.4-0.5-1.1-1.1-0.2-0.8 0.3-0.8 0.1-0.5 0.8-0.5 0.4-0.2 0.6-0.4 2.4 0.3 2.3 0.1 0.5 0.2 0.9 0.2 0.7-0.9 0.6-0.7-1.5-0.6-0.3-1 0-1 0.7-0.8 0.9-0.8 0.6-0.5 0.6-0.4-1-1 0-1.3-0.1-1.1 0.1-0.9 0.6-1 1.1-0.3 1.3 0.6 0.4-0.1 0 0.3 0.3 0 0.3-1.8 2.4-0.3 2-1.3 0.9-0.3 0.9-1.4 0.1-0.1-0.5-0.2-0.3-0.2-0.3-0.3 0.3-0.1 0.6 0.2 1.1-0.8 0.3-0.7-0.3-1 0-2.3 0.6-0.6-0.8-1-0.4-0.6 0.4-1 0.9 0.1 2.2-0.9 1.3 0 1.4-1.5 0.2-1.2 0.1-0.5 1.2-0.3 0.9-0.6 0.6-1.7 1.6-1.6 1-0.4 1.3 1.2 0.4 3.8-1 1.3 0.3 0.3 0.6-0.8 1.5-1 0.7-0.2 1.6 0.4 0.6 0.5 1-1.2 1-1.3 0.7-0.7 0.2-1.2 0.5-0.6-0.1-0.3-0.4-0.1-0.7-0.7 0.3-1.1 0-1.5 0.2-0.2 0.8-0.6 1-1.3 0.8-1.7-0.4-1.7 0.3-1.8 0-1.2 0.5-1.5 0.9-0.8 1.5 0.3 1.1 0.3 1.2-2 0-0.9-0.7-0.2-0.4-1.2-0.4-1.6-0.8-1.6-0.2-2.1 0.4-1.6 0.6-0.9 0.5-1 0.9-0.6 1.7-0.1 2 1.2 0.5 0.9-0.2-0.4 0.8-1.5 0.2-3.6 0.2-0.5-0.3 0.9-0.5 1-0.4 0.8-0.6-0.2-1.6-1.2-1.1-1.1 0.1-2.9 0.4-1.1 0-0.7-1.8-1.5-0.2-2.1 0-1.5-1 0.2-0.5 0.1-0.8 0.1-0.4-1-0.1-1 0.3-1.8 0.9 1.1 0.4 0.9 1.9 1 0.5 1.5 0.6-0.7 0.8-1.4-0.1-1.8 0-0.8 0.3-1.2 2-2.3-0.7-1.8-1.4-0.5-0.8 1.3-0.8 0.9-0.9-0.4-0.6-0.6-0.5-1.1-0.2-0.2-0.7-0.3-0.7-0.9-0.1-1.2 0-2.8-1.2-0.5-1.9-0.9-0.9-1.1-0.5-1.3-0.1-0.7 0.8-0.7 1.4-1.5-0.6-0.9-0.1-0.9-1.1-0.7-1-0.6-1.2-0.8-0.4-0.7 0.4-0.6 0.2-2.7-0.3-1.3 0.1-1.8-0.3-0.9-0.1-1.6 0.4-1.4-0.7 0.2-1.5 0.2-0.8 0.4-0.9 0.6-1.4-0.8-0.9-0.1-0.9-0.2-0.5-0.8-3.1-2.8-1.8-3.4 2.3-4.7-0.1-2.3 0.3-3.8-0.2-1.9-0.6-1.2-1.9-0.5-2.1 1.2-2.3 2-1.1 5.5 0 1.7-0.5 1.2-1 1.2-1.6 0.8-1.9-0.2-2-1.8 1.2-1.7 0.6-1.6-0.2-1.4-1.6-0.4-1.3 0-0.7-0.3-0.5-1.3-0.4-0.5-0.1-1.5 0.1-0.2-0.3-0.9-1.2-0.4-0.3-0.4 0.6-0.4 1.1-0.3 1.2-0.1 0.6 0.3 1.7 0.6 0.7 0.7 0.4 0.9 0.7 0.8 2.2-0.7 1.9-1.5 1-1.8 0.2-0.9-0.2-3.4-2-1.6 0.8-0.6 0.5-1.5 0.3-0.6 0.6-0.5 1.1 0.2 0.5 0.7 1.6 0.1 1 2.1-0.1-1.5 1.4-1.3 0.7-0.3-1.4-1.1-2-2.6-1.5-2.1-1.9-0.9-2.3 0.1-5-0.1-1.4-0.4-1.3-0.6-1.5-0.9-1.3-1.1-0.6 0 0.5 1.9 3 0.2 0.9 0 6.1 0.9 2.8 1.7 1.8 1.9 1.4 1.4 1.6-0.2 1.7-1.8 0.1-7.8-0.2-4.5-1-1.6-1-0.1-1.4 1.3-1.4 0.1-1.1-0.5-1.1-1.5-1.1-2.6-1.1-6.4 0.7-12.6-1-1.5-0.4-1.3-0.6-1.7-1.3-1-2 1-2-0.1-0.2-1.6-1.4-3.6-0.3-3.5 0.4-2.4 0.9-0.8 0.7-12.3 10.2-7.3 3.2-2 1.7-4.8 6.3-1.3 0.6-2.4-1.3-1.5 0.3-2.7 0.1-4.2 1.8-4.5 3.7-1 1.3-0.5 0.8-0.8 0.7-0.7 0.9-1.1 0.9-0.8 1.1-0.7 1.5-1.1 1.2-1.4 1.2-0.6 1.6-0.5 1.3-0.6 1.5-1 2.3-0.4 1.6-0.5 1.3-0.6 2.5-0.4 1.8 0.2 0.8 0.8 0.5 0 1.7-0.5 5-0.4 4.8-0.1 3.4 0.3 2.2-0.4 3.5 0.3 4.5 0.2 3.5 0.4 2.7 0.9 1.1 1.3 0.6 1.7 0.4 1.4 0.5 0.5 0.8 0 1-0.2 0.9 0.5 0.8 0.6 0.6 1 1.6 0.3 1.8 0 0.3-2.7 0.5-1.6 0-1.6-0.1-1.3-0.4-0.7-0.5-0.6-0.7-0.5-0.7-0.4-1-0.4-0.1-1.8 0-0.7-0.2-1 0.7-2-0.8-2.1 1.6-1 0.2-1.1 0-1 0.1-1 0.6-1.8 1.8-1 0.6-1.3 0.2-2.4-0.3-1.3 0.1-1.1 0.5-2.6 2.1-0.5 0.7 0.6 1.6 0.7 0.9 0.1 0.3-1.7 0.1-1.3-0.2-2.9-1-1.2 0-0.5 0.5-0.5 1.3-0.4 0.4-0.6 0.1-0.7-0.3-1.3-0.7-1.1-0.3-1.2-0.9-1-1.3-0.5-1.4-0.9 0-2-0.5-3.6-1.7-0.7-0.6-1.7-1-2 0.2-3.8 1.2-2.9-0.3-1 0.4-0.3 0.5-0.5 1.2-0.3 0.5-1.4 1.1-1.1 1.2-0.7 0.4-1 0.3-1.6 0.2-0.9-0.2-0.7-0.5-1.2-1-0.6-1.3-0.8-3.1-0.9-1.5-1-0.4-1.1 0-1.5-0.4-3.4-2.4-1.3-0.5-3.9-0.5-1.1-0.5 0-0.3 0-0.2-0.1-0.2-0.2-0.1 0.2-2.1 0.7-1.7 1.1-1.1 1.6-0.2-0.3-0.3-0.5-0.8-1.4-0.4-1-0.7 0.5-1.7-7-0.7-0.7-0.3-3.4-2.3-0.9 0.1-1.8 0.7-2-0.1-0.9 3.3-1.4 0.5-0.9-1.1-1.1-2.9-1.1-1.7-1.1-1.9-0.6-0.3-0.5-0.1-0.3-0.3 0.2-1.2-1.4-0.4-7.7 0-2 0.7-0.7-0.1-1.1-0.8-0.6-1.2-0.5-1.3-0.6-1.2-1.1-1-1.3-0.4-5.2-0.3-0.5-0.3-1-0.9-0.6-0.2-0.6 0.2-0.6 0.5-0.6 0.3-0.6-0.2-1-1-0.5-0.4-1.9-0.8-2.7-1.6-1-0.1-1.2 0.1-1.1-0.3-2.1-0.8-1.1-0.1-1.7 0.1-1.4 0.6-0.3 1.2 0.1 1.8-0.9 2.3 0.7 1-0.4 0.4-0.3 0.3-0.4 0.9 0.9 0.3 0.8 0.9 0.4 1.3-0.1 1.4-0.1 0.2-0.4 0.7-0.8 0.2-2.2-0.2-7.7 0.2-1.1-0.5-2.3 0.7-1.2 0-1.3-0.2-0.3-0.3 0-0.3 0-0.4-0.1-0.3-1.7-1.4-1.2 0.4-1.1 1.1-1.7 2.4-0.9 0.2-1-1.2-1.3-2.3-1-0.5-3.3-0.9-1 0.2-1.2 0.8-3.7 0.5-4.8 1.8-2.2 0.2-2.4-1-0.4-0.4-0.3-0.4-0.4-0.4-0.8-0.2-0.6-0.3-0.2-0.5-0.1-0.6-0.4-0.5-1-0.8-0.7-1.3-0.4-1.4 0.2-1.5-1.2 0.5-1.7 0.5-1.7-0.2-0.7-1.6-3.6-2.2-0.2-0.1-0.9-0.9-0.4 0.9-0.4 0.6-0.5 0.2-0.5-0.6-3 2.4-1.5 0.9-1.9 0.1-3.3-1.5-1.6-0.1-0.1 2-0.5 0.2-1.1 0.7-0.5 0.1-0.6-0.4 0-0.5 0.1-0.5-0.3-0.5-0.3-0.1-1 0-0.4-0.2 0-0.3 0.1-0.4-0.1-0.4-2.4-3.2-1.1-0.9-2.1-1.3-0.6-0.1-0.6 0-0.6 0-0.7-0.6-0.3-0.8 0.1-0.5 0.2-0.4 0-0.5-0.3-0.7-0.9-2.4-1.6-0.5-4.8 0.8-4.9-0.4-2.4-0.7-2.1-1.7-0.8-0.9-1-0.3-2.2-0.2-0.4-0.4-1-0.7-0.6-0.2-2.3 0.2-2-1.6-2.1-1.2-3.6-0.6-1.2-0.8-1-1.2-0.3-1.1 0.5-1.1 1.3-1.1-1.4-0.4-1.4 0.5-1.1 1.2-0.4 1.7-0.2 2.3-0.5 1.1-1 0.3-1.7-0.1-1.5-0.4-1.4-0.8-1.1-1.3-0.8-1.8 0.5-0.7 2.5-2.8 0.8-1 1-2.7 0.6-3.4-0.2-3.1-1.8-1.8-0.7-0.1-0.7 0.3-0.7 0.1-2.6-1.3-1.9-0.6-1.2-0.1-0.9 0.6-0.5 1.4-0.4 0.8-0.7 0.4-0.7 0.1-0.7-0.1-0.8-0.4-0.3-0.4-0.4-1.4-0.1-0.8 0.2-0.5 0-0.4-0.7-0.4-1.1-0.6-0.6 0-1.2 0.5-1.4 0.2-0.7 0.3-0.7 0.1-0.1-0.3-0.2-0.3-0.2-1.7-0.8-1.1-1.7-0.8-0.1-1.1 0.1-1.8 0.1-0.9 0.2 0.1 1 0.7 0.5-0.6 1.1-0.5 5.5-0.9 1.4-2.1 1.4-0.7 1.1-0.9 0.6-0.7 1.3-2.6 0.3-1 0.5-0.7 2.5-3.2 0.4-0.9 1.9-2.6 0.4-2.7 1.5-4.8 2.5-14.1 1.5-4.9 2.2-11.1 3.9-24.4 1.7-12.2 0.5-5.4-0.2-1.2-0.5-2.5 0.1-0.7 1.6-2.4 0.2-0.6 0.2-1 1.1-4 1.2-1.5 1.6-0.1 3.8 0.9 2.1-0.3 1.3-0.9 0-1.3-1.5-1.6 0.8 0-0.6-1.3-4.6-4.4-0.7-0.3-0.3-0.1-0.3-0.3-0.3-0.2-0.4 0-0.2 0.3-0.2 0.4-0.1 0.3-0.1 0.2-0.4 0.8-2.8 4.2-0.7 3.9-0.5 2.1-0.4 1 3.7-43.1 2.6-13.9 1.1-18.6 0.4-1.3 2.1-4.3 0.9-1.4 1-0.4 0.6 0.4 0.2 0.4 0 0.6-0.1 1-0.2 0.3-0.1 0.5 0 0.5 0.2 0.4 0.7 1.1 0.5 0.7 4.1 3.2 2.7 1.5 0.9 0.3 7.5 8.4 1.7 2.5 0.8 2.7 0.1 1.8 0.8 3.2 1.2 8.2 0.2 1 2.1 5.1 2.1 2.7 2.4 2.3 2 1.2 0.5 0.6 0.6 1.1 0 0.9-0.1 1.3 0 1.9 0.3 1.8 0.5 1.4 0.9 0.6-0.3-1.2-0.2-2.4-0.4-1.1 0.6-2.4-0.7-1.9-1.4-1.4-1.4-0.9 1.9 0.1 1.6 0.4 1.4 0.7 1.4 1.1-1.6-2.7-2.4-1.2-2.7-0.9-2.2-1.7-1.1-2.3-0.8-2.8-2.4-16.8-0.8-3.4-2-5.6-1.3-2.5-1.4-2.2-2.8-3.3-8.8-6.4-0.2-0.3-0.3-1.7-0.4-0.4-2-0.7-3.3-3.4-1.9-0.7-1.1-0.3-1.1-0.6-0.8-0.9-0.8-1-1.1-0.9-2.2 0.5-1.1-0.4 1-6.2 0-1.2 4.1-1.2 1.2 0 4 4.7 0.7 0.5 0.7 0.7 4.4 2-1.4-1.6-5.6-4.5-1.6-1.9-0.3-0.8-0.1-1-0.3-1.4-0.4-1.3-0.5-0.9 0.7-0.4 0.4-0.5 0.3-0.5 0.3-0.4 0.7-0.6 1-0.6 0.5-0.1 0.5 0.1 0.4-0.2 0.3-1-0.1-1-0.4-0.9-0.4-0.8-0.4-0.4 0.4-0.3 0.6-0.7 0.3-0.2-1-0.7-0.7-1.2-0.9-3 1.3 1 1.1 0 0.8-0.7 0.7-1.5 0-0.6-0.3-0.4-0.4-0.4-0.4-0.3-1.1-0.5-0.3-0.7 0-0.9-0.5-1.2 0.1-0.8-0.1-0.4-0.3-0.1-0.8-0.3-0.2-0.1-0.3-0.4-0.4-0.3 0-0.4 0.7-0.8-1.4-1.1-0.5-0.1-0.2-0.1 0-0.5 0.1-0.4-0.1-0.3-0.3 0-1 0-0.6-0.1-0.6 0-0.5-0.1-0.6-0.6-0.1-0.8 0.4-0.9 0.6-0.7 0.6-0.4-0.3-1.7 0.7-1.2 4.2-2.7 0.5-1.1 0-0.7-0.3-0.8-0.2-1.3-1.3-1.9-2.8-0.2-2.3 1.4 0.1 2.9-1.7-0.5-1.2-1.5-1.1-1.7-1-0.2-0.6-0.2-1.9-1.1-1.4-1.2-0.8-0.4-3.3 1.1-1.6-0.1-0.7-1.9-0.3-2.3-1-1.6-1.4-1-1.7-0.3-4.2-0.2-1.6-0.6 0.5-1.1-1-1-3.3-0.5-2.1-1.9-1.7-0.4-0.8-0.5-0.5-0.8-0.7-1.9-0.6-1 0.1 1.1 0.3 1.5 0.1 0.8-0.3 0.4-0.5-0.4-0.6-0.8-1.4-6.6 0.3-1.5-1-0.5-0.5-1-0.3-1.2-0.4-1-0.9-1.1-1-0.9-0.7-0.8-0.6-2.3-0.8-0.7-1.1-0.3-1-0.2-0.5-0.5-1.9-3.8-3.4-3.6-1.9-1.4-1.6-0.5-0.8-0.6-0.4-1.4-0.2-1.7-0.1-1.6 0.1-2 0.4-0.9 1.6-1.1-0.3-1.3 0.9-1 2.4-1.5 0.7-1.3 1-3.3 0.8-1.6 1.1-0.8-0.1-1.6-0.7-1.6-0.7-1-1-1-3.7-2.1-7.1-1.2-2.2-1.3 0.8-0.5 0.7-0.6 0.7-0.6 2-0.2 0.5-0.4 0.2-0.7 0.2-1.4 0-1.2-0.7-1.4-0.2-1.4 0.1-1 0.3-1.2 0.4-1.1 0.5-0.8 1.5-0.6 5.7-0.6 0.4-0.3 0.4-0.2 0.5-0.1 0.5 0.6 0.5 0.4 3.1 0.9 1-0.1-0.5-0.6 0.8 0 0.6 0.2 0.6 0.4 0.6 0.6-1.3 0 0 0.7 2.6 1.9 2.5 0.5 0.7 0.4 1.3 1.5 1.4 0.6 3.4 0.1-1.3-0.8-2.5-0.5-1.1-0.9-1.9-2.2-2.1-1.9-2.2-1.3-1.2-0.4-1.5-0.1-0.5-0.2-0.9-0.9-2.3-0.7-8.6 0.6-1.9 1.2-0.4 0.7-0.3 0.6-0.3 0.5-0.7 0.6-1.8 0.6-1.5 1.4-1.1 0.5-1.2 0-1.2-0.5-0.9-0.8-1.5-1.8-1-0.6-1-0.1-0.6 0-0.5 0.1-0.4 0.5-0.3 0.6-0.1 0.5 0 0.3-1.8-0.1-5.8-3 0-0.6 1.4 0.2 2.6 1.2 1.4-0.2 1.1-1.2-0.6-1.3-1.2-1.2-0.9-1.3-0.5 0.3-0.2 0.1-0.2 0.2 0.3 0.7 0 0.3-0.3 0.9-0.4 0-0.1-2.6-0.8-1.4-2.5-1.7 4.9-3 0.7 0.1 0.6 0.2 1 0.2-0.1 0.6-0.1 0-0.2 0.1 0.4 0.6 0.6-0.7 2.2-1.2 0.2-0.6-1-0.2-1.5 0-1-0.4 0.5-1.3-1-0.7-1.3-0.2-0.8-0.5 0.6-1.7-0.9-1.2 0.7-0.6 3.8-0.2 2.3-0.6 1.3 0-1-0.2-1.7 0.3-1.1-0.1-4.7-1.8-1-0.2-0.8 0.1-2.1 0.7-2.3 0-0.5 0.2-0.4 0.3-0.4 0.1-0.6-0.6 0.9-0.2 1.1-0.7 0.9-1 0.5-1.2-1 0.9-0.8 0.2-0.9-0.1-1.1 0.2 0.5 0.1 0.4 0.2 0.2 0.4 0.2 0.6-1.6 0-0.7-0.2-0.7-0.5-0.1 2.2-0.8 0.5-2.1-0.7-1 0-3.2 1.2-1.2 0.1-1-0.1-0.8-0.4-0.8-0.8-0.1-0.4-1-1.8-0.2-0.1-0.3-0.5-0.6-0.2-0.7-0.2-0.2-0.1 0.1-0.1 0-0.4-1.1-0.4 1.1-0.8 1.7 0 0.9 1.8 0.4 0 0.3-0.4 0.4-0.2 0.4 0.1 0.6 0.5 0.1-0.5 0.3-1.4 1 1.2 1.5 0.5 1.7-0.2 1.3-0.9-0.4-0.6 2.4-3.4 0.3-1.7-1.4-1.8 0 0.6 0.6 0.6 0.1 0.6-0.4 0.5-0.8 0.2 0.9 0.6-0.3 0.4-0.2 0.2-0.8 0.1-0.3-0.5-3.1-2 1.3 0.2 1.3 0.4-0.8-1.1-0.7-0.4-1.9-0.4 0.8 0.6-1.3 0.6-3.2 0.3-0.6 0.7-0.5 1.1-1.2 0.6-2.1 0.5 0-0.6 0.4 0 0-0.7-0.8 0.1-0.2 0.2-0.2 0.4-0.5 0-0.2-1.1-0.1-1 0.2-0.7 0.6-0.4-0.9 0-0.7-0.5-0.4-0.9-0.1-1.1-0.5 0 0.1 0.7 0.3 1.2 0.1 0.6 0 2.2 0.2 0.9 0.5 1 0.7 0.9 0.7 0.7-0.2 0.6-0.1 0.3-0.2 0.3-0.1-0.3-0.7-0.9-0.5 0.3-0.5-0.5-0.7-1-0.8-0.7 0.3 1.2-0.3 0.5-0.6-0.2-0.3-1.2-0.2-1.4-0.4 0.1-0.2 1 0.4 1.3-0.9-0.1-0.4-0.1-0.4-0.5-1.9 1.1-1 0.1-0.9-0.5 0.4-0.3 0.4-0.4-0.6-0.5-0.7-0.5-0.7 0.1-0.5 0.9 0.3 0.2 0.2 0.3 0.3 0.2-0.7 3.1 0.4 2.6 1 2.1 1.4 1.6-0.9 0-1.2-0.4-0.4 0.4-0.4 0-0.8-2.6-0.1-0.9 0.2-1 0.5-1.5 0.2-1.3-0.2-2.1-0.4-1.6-0.7-1.2-0.9-1-0.6-0.4-0.7-0.3-0.5-0.3-0.3-0.6 0.1-1.2 0.8-2.6 4.6-2.1-0.2-0.5-0.1-0.5-0.1-0.7 0-0.9-0.3 0.2-0.7 0.3-0.3 0.2 0-2 0-0.6-0.4 0-0.5 1-0.6-0.2-0.9-0.4-0.9 0.2 0.8 0.3 0.6 0.7 0.4 1 0.3 1.2-0.3 0.1-0.1 0.1 0 0.1-0.1 0.4-0.7-0.6-0.4 0.4-0.5 0.6-0.9 0.2 0.2 0.3 0.7 1-0.9 0.4-0.3 0.8-0.2 0.9-0.6 0.4-0.4-0.4-1.9-2.1-1.6-0.5-2.7-0.7-1.6-0.1 1.1-0.5 1.1 0.2 2.4 0.9 0-0.6-0.9-0.6-1.1-0.4-2.6-0.3 0-0.6 0.5-0.1 0.3-0.2 0-0.5 0-0.8 0.2-0.4 1.1 0.2 0.4-0.1 0.8-2.1 0.5-1.1 0.8-0.6 0-0.7-1.3 1.6-1.7 1.6-1.9 1.1-1.3 0.4 0.5 0.2 0.4 0.4 0.3 0.5 0 0.6-5.1 1.2-0.9-0.2-0.2-0.5-1.9-2.4-0.9-1.9-0.7-0.8-0.2-0.4-0.3-0.7-0.6 0.6-1.1 0-2.1-0.6-1.6 0.1-0.6-0.1-0.4-0.3-0.8-0.8-0.2-0.2-2.4 0.2-1.2-0.5-0.5-1.2-0.5-0.3-3.3 1.8-0.9-0.8-1.3 0-1.4 0.3-1.1-0.1-0.1-0.3-1.1-2.3-0.5-0.4-0.4-0.4-0.2-0.5 0.2-1.1-0.5 0-0.4-0.2-0.8-0.5-0.2-1-1.1-1.3-1.7-1.2-1.6-0.3 0.5 1.9-0.4 1.4-1.4 1.5-1.3-0.3 0.7 0 0.5-0.1 0.3-0.4 0.2-0.8-0.7 0.2-0.6 0.1-0.5 0.2-0.3 0.8-1.8-1.5-0.8-0.3-1-0.1-0.7-0.4-0.8-1.1-0.6-1.5-0.2-1.5-0.7 1.1 0.4 1.4 0.8 1.3 0.8 0.7 0 0.6-0.8 0-0.6 0.3-0.6 0.4-0.6 0.6-1.2-2-0.8 0.2-0.2 1.1 0.9 0.7-0.2 0.3-0.2 0.3 0 0.6 1.7 0 0 0.7-2 1.9-1 0.6-1.5 0.4-9.1-0.4 0.1-0.7-0.2-1.3 0.1-0.5 0.4-0.3 0.6 0 0.5-0.1 0.3-0.6-0.2-1.6-1-2.4-0.6-2.5-0.9-1.7-2.9-3.9-5.5-4.3-0.6-0.3-0.9 0.5-0.7 0.9-0.8 0.5-1.9-1.9-1.1-0.2-2.1 0.2-4.6-1.4 0.4-0.3 0.3-0.5 0.3-0.6 0.4-0.7 0-0.3 0.1-0.4 0.2-0.3 0.2 0 0.5 0.5 0.3 0.2 20-4.5 3.5 1.1 0.9-0.4 0.3-0.7 0.6-2.6-0.3-1-0.9-1.2-0.2-0.6-0.3-2.1-0.8-0.8-2.6-0.6-0.5-0.3-0.4-0.5-0.3-0.5-0.1-0.6-1.6 0.5-3.3-2.1-1.7 0.6-0.9 1.7-0.9 2.1-1 1.7-1.6 0.6 0.5-2 0.3-0.6-0.7-1.1-0.4-0.8-0.1-0.6 0.3-1.1 0.5-0.4 0.2-0.4-0.4-1-0.8-0.2-3.7-0.1 0.2-1-0.2-0.9 0.7-0.4 0.5 0.1 0.5 0.2 0.7 0.1 0.8-0.3 0.1-0.6-0.2-0.7-0.1-0.3 1.1-2.9 0.8-0.8 1 0.5-0.8 3.4 1.7 0.9 5.6-0.4 0.6 0.3 0.4 0.4 0.5 0.3 0.8 0.2 0.7-0.1 2.9-0.8 4.2-0.3-0.4 0.4-0.4 0.1-0.9 0 1.3 0.6 5-1.1 0-0.7-1.9 0.1-0.7-0.3-0.3-1.1-0.5 0.7-0.9 0.2-0.8-0.3-0.3-0.9-0.4 0.1-2.6 0.2 0.5-0.9 0.2-0.2 0.6-0.2 0-0.4 0.3-0.4 0.6-0.4 1.2-1.4-1.1 0.1-1.4 1-0.9 0.3 0-0.7 0.4 0 0-0.7-0.4 0-0.2 0.5-0.4 0.5-0.2 0.4-1-0.4-1.9 1.3-1.4 0.3 0.2-0.4 0.2-0.2-0.4-0.6-0.5 0.5-0.7 0.4-0.9 0.2-0.8 0.1 0-0.6 3.5-4.3 0.7-0.6 5.9-3.5-1.1 0.4-1.9 1.1-1.3 0.4-4.1 0.7-2 0.8-3.9 2.5-3 0.8-1.8 0.9-1.2 0.2-1.1-0.3-2.2-0.9-1.2-0.2-0.2 0.3 0 0.7-0.1 0.7-0.5 0.3-3.2 0-0.8-0.3-0.5-1-0.4-1.9 1.1-0.1-0.1-1.2-1-2.6-0.1-1.7 0.3-1.8 0.7-1.2 1.2-0.4 0-0.6-1.6-1.1 0.6-2.7 1.6-2.9 1.1-1.6 0.6 0.4 0.7 0.3-0.5-0.7 1-0.7 1.2-0.4 1.9-0.2 1.2 0.3 2.1 1.2 0.7-0.2-1.4-2-0.5-1.3 0.9-0.6 2.8 0.8 1.1-0.1-1.6-0.7 0.1-0.3 0.2-0.4-0.2-0.3-0.5-0.3 0-0.6 4.8 0 1.4-0.2 2.1-1 1.4-0.1-0.9-0.5-0.3-0.1 0-0.7 1.7-0.3 1.7-1 1.7-0.7 1.6 0.1 1.1 1.3-0.4 2.1 1.4-0.2 1.9-1.1 0.7-0.2 0.7 0.2 1.4 0.5 0.9 0 0-0.7-1.2-0.3 0.3-1 1.1-1.1 1-0.7 1.2-0.5 1.4-0.3 1.4 0.1 1.1 0.7 0.4-0.6 0.3 0 0.3 0.4 0.3 0.7 0.4 0 0.4-0.4 0.2-0.6 0.1-0.7-0.3-0.8 0.9-0.2 0.8-0.3 1.3-0.8 2.2-0.7 0.3 0.4-0.1 0.8-0.2 0.7 0 0.5 0.8 0.3 0 0.6-0.5 0 0 0.7 0.7 0.4 0.4 0.7 0.1 0.9-0.4 1.1 1.8-1.7 0.9-0.5 1.2 0.3-0.6 0.5-0.3 0.2 0 0.6 0.8 1 1.8 1.2 0.8 1 0.5-0.6-0.5-0.7 0.5-0.6-0.3-0.6-0.2-0.8-0.4-1.9 0.4 0 0.2 0.6 0.2 0.3 0.5 0.5-0.2-1.7 0.2-1.8 0.5-1 0.8 0.6 0.2-0.4 0.2-0.5 0-0.5 0-0.6 0.8 1.1 1.2 0.4 2.8-0.2 0.7 0.3 1.4 1.3 0.7 0.4 0.8 0 2.2-0.6 0 1.6 1.5 0.4 1.8 0 0.9-0.4-0.6-2.2-0.2-1.4 0.2-0.7 3.2-0.6-0.9-0.6-2.1-2.6-0.3-1.6 0.7-0.8 1.7-0.8 1.4-2.4 0.3-0.8 0.4 0 0.6 0.5 2 0.1 2.1 1.3 0.8 0-0.3 0.3-0.2 0.3-0.1 0.3-0.2 0.4 1.5 0.1 0.7 0 0.6-0.4 0.6-0.8 0.4-0.3 5.2-1.9 0.8-0.6 0.4 0 0.6 0.2 1.8-2.4 1 0.3 0.4 1.3 0 1.9-0.5 1.7-0.8 0.9 0.1 0.4 0.1 0.3 0.3 0.6 0.2-1.2 0.5-0.9 1.9-2.3 1.5-1.3 0.5-0.7 0.7 0.3 1.1-1.4 0.8-0.3 0.8 0.5 0.4 0.9 0 1-0.4 0.9 0 0.6 0.9 0.7-0.5 0.7-0.8 2.5-0.4 0.7-1.3 1.8 0 0.7 0.4 0 2.1-4.2 1.2-1.8 1 0.2 0.6-0.5 0.6-0.2 0.7 0.2 0.6 0.5-0.4 0.7 0.2 0.1 0.1 0 0.1 0.1 0 0.4-0.6 0.2-0.5 0.3-1 0.8 0 0.6 0.8 0.7 1.6 0.6 3.1 0.1 1.3 0.5-0.1 0.8 0 0.5 0.1 0.7-0.6 0.5-0.3 0.1 0 0.6 0.9 0.6 1.1 1 1 1.1 0.4 0.9 4 3.5 0.6 2.8 0.3 0.7 0.1 0.5-0.2 0.5-0.1 0.4 0.2 0.6 0.3 0.3 0.8 0.4 1.5 1.1 3.5 1.8-0.2 0.8-0.2 0.7-0.4 0.5-0.4 0.5 0.7 0 0.6 0.3 0.5 0.6 0.5 0.7 0.9 0.7 0.1-0.9 0-1.3 0.3-0.7 2.4 0.1 1-0.4 1.2-1.3 1.5-2.4 0.5-0.6 0.6-0.5 1.1-0.3 4.2-2.6 0.9-1 0-0.7-0.6 0-1.2-0.6 2.8-0.8 1.3 0.2 0.6 1.2 1.6-0.6 1.9-1.2 1.6-1.6 0.8-1.7 0.3 1 0.4 0.7 0.6 0.3 0.8-0.1 0 0.7-0.4 0.4-0.3 0.4-0.2 0.6-0.3 0.5-1.7 1.9 1.1 0.9 1.1-0.8 1.3-1.3 1.4-0.7 0.3 0.5 0.3 2.2 0.2 0.5 0.7 0.3 0.4 0.8 0.3 1.1 0.1 1 0.6-0.4 0.5-0.7 0.2-1 0-1.1 0.2 1.4 0.4 1.1 0.5 0.6 1-0.6 0-0.6-0.3-0.1-0.6-0.5 0.7-1 0.8-0.6 0.7 0.1 0.8 0.8-0.4-0.5-0.4-0.7-0.5-1.3 2.8-1 3-0.3 0.1 0.4 1.3 2.4 0.1 1.1 0.3 0.9 0.6 0.7 0.7 0.2-0.2 1-0.2 0.3 1.6 2.5 0.4 1.2-0.3 2.1 0.6-0.7 1.9-1.2-1.7-1.3 0.4-0.7-1-1.7-0.2-1.5 0.4 0 0.3 0.5 0.3 0.2 0.7 0.6-0.5-1.1-0.5-0.5-0.7-0.3-0.7 0-0.5-0.5-1.2-2.8-0.6-1.2 0.2-0.7 0.5-0.9 0.7-0.6 0.9-0.3 0.3-0.3 0-0.7 0.1-0.6 0.5-0.3 2.3 0-0.3-0.7 6.3-1.3-0.2 0.4 0 0.4 0.2 0.5 0.4 0.7-1.5 2.5 0 2.2 1.4 1.6 2.6 0.7 4.5 0.1 4.9-0.8 3-1.6 0.4-0.1 0.6-0.2 4.9 0.7 6.6-1.5 2.3 0.8-1-1.6-1.3-0.7-2.4-0.2 0 0.2-0.3 0.4-0.4 0.1-0.1-0.4-0.1-0.6-0.2-0.6-0.3-0.3-2.2-0.7-0.7-0.5-0.4-0.5-0.5-2.2-2.3-2.1-0.5-2.2 0-2.6-0.3-2.2-0.7-1.5-1.5-0.4 0-0.7 0.8-0.4 0.7-0.8 0.4-1.1 0.5-4.5 0.4-1 0.5 0.8 0.4-1.1 0-0.8-0.3-0.5-0.7-0.2-0.3-0.6 0.7-5.4 0.4-1.4 0.8-0.5 1.5 0.7 0-0.6-1.2-0.5-1.3 0-1.2 0.6-0.5 1.5-0.2 0.4-0.4-0.6-0.5-0.9-0.2-0.8 0.1-2.3 0.1-1 0.3-0.9-0.9-0.2-0.3-0.7 0.1-1.1 0.3-1.2 0.4-1.2 0.4-0.6 1.2-0.8-0.7-0.6-0.2 0.1-0.3 0.5-0.5-1.5-0.4-1.8-0.3-1.9-0.1-1.7 0.5-0.9 1.1-0.1 2.2 0.7 0-0.6-1.3-0.4-1.6-0.8-1.3 0-0.5 1.8-1-1.2-1-3.5-0.9-1.1 0.4-0.4 0.2-0.1 0.2-0.2-1.7-1.4-0.8-1-0.5-1.5 1.3 0 0-0.6-0.8-2-0.5 0-0.5 1.7-1.1-0.8-1.4-1.5-1.2-0.7 0.2-0.7 0.1-0.3 0.2-0.3-0.9 0.2-0.8 0.4-0.7 0-0.6-0.6-0.2-1.3 0.2-3.2 0-1.4-0.2-0.6-0.3-0.6-0.9-1.7-0.1-0.4 0-0.5-0.2-0.8-0.6-1-1.6-2-0.4-0.5 0.4-1.4 1.8-1.6 0.4-0.9 0.2-3 0-1.6-0.4-1.4-0.5-1-0.4-0.9-0.5-0.7-2-0.4-2.7-1.2 0.5-2.2-0.2-1.4 0.3-0.8 1.7-0.2 0.5 0.2 1.3 0.9 0.7 0.2 1.7-0.2 0.6 0.2 0.3 0.4 0.3 1.2 0.3 0.4 0.2 0.1 0.7-0.1 0.3 0 1.4 0.5 4.1 0.6 4.6 1.6 1-0.1 0 0.3 0 0.4 0.2 0.5 0.4 0.2 0.6-0.2 0.9-0.9 0.6-0.3 0.7 0.2 1.3 0.5 0.8 0 1-0.5 1-0.9 1.6-2.2 0.9-0.7 2.8-0.9 1.2-0.1 7.4 1.4 0.5 0.3 0.2 0.6 0.3 1.6 1.4 2.9 0.3 1.7-1.6 1.1-0.3 0.9-0.1 0.9-0.3 0.4-1.3 0-0.6 0.2-0.4 0.5-0.3 2.3 0.8 1.9 1.1 1.6 0.9 2.7 4.7 5.9 0.6 1.5 0.2 2.1-0.1 1-0.3 0.8-0.3 0.4-0.1 0.3 0.2 1 0.5-0.1 0.7-0.4 0.7-0.1 0.6 0.6 0.5 0.6 0.7 0.4 1.2-0.3 0-0.7-0.7-0.9 0.5-1.3 1-1.2 1.1-0.5 8.2 0.5 7.3 2.8 10.6 0.6 2.6 0.8 1.6 0.2 2.2-1.3 1.5 0.4 2.7 1.2 4.2 0 1.1 0.4 1.9 1.3 3.1 0.7 5.8 3.5 1.5-1.4 10-2.4 2.8-1.4 1.7-1.4 1.4-0.4 0.6-0.5 1.5-2.3 4.1-3 7.7-1.8 7.7-1.7 2.8-1.5 1.2-1 1.1-1.5-4.4 2.8-5.1 0.7-5.2-0.7-4.4-1.5-1.3 0-1-0.1-1.5-0.4-1.2-0.8-0.5-0.9-0.2-0.6-0.9-0.6-0.2-0.8 0.1-1 0.2-0.7 3.1-5.9 2.5-8.4 0.9-1.1 3.1-2.5 0.7 0 0.6-0.6 8.1-3.8 0.7-0.9 7.7-4.6 2.1-0.7 2.5-1.6 4.8-1.8 5.3 0 25.5-8.2 1.5-1.2 1.5-0.5 2.5-2.8 8-6.5 3.3-4.1 0.7-0.6 0.6-0.8 1.3-5.1 2.2-2.9 2.1-0.3 6.1 3 0.6 0 0.5-0.5 0-0.7-0.6 0-0.4-0.1-0.4-0.4-0.3-0.8 1.3 0 0-0.7-1.2 0-1.3-0.4-0.9-0.8-0.4-1.1-0.6-1.2-2.7-1.3-0.6-0.8 0.1-3.1 0.5-3.8 1.3-2.6 1.4 0.3 1 0.2 0-0.6-3.4-2.7 0-0.7 1.1-3.2 0.1-4.6 0.3-4 1.9-1.4-1.7-2.6-0.3-1.4-0.3-4.6-0.6-4.1-0.1-2 0.3-1.8 1.3-3.8 0.8-1.5 0.3-1.8-0.4-2.3-1-3.6-0.1-1.4-0.1-0.5 1.5-1.2 0.6-0.2 1.3-0.1 1.1-0.5 1.1-1 1.8-2.5 1.9-1.8 11.8-5.2 1.1 0.2 2.2-1.2 9.9-1.3 10.6-3.5 0.7-0.4 0.5 0 3.7 0.4 5-1.3 2.5-1.2 1-0.6 0-0.1z m-33.3 783.5l0.1 0 0.7-0.2 0.2 0-0.7-1.2-0.6-1.4-0.7-0.9-0.7 0.3-0.7 1.5 0.1 1 0.9 0.7 1.4 0.2z m462.4-17.3l1.6 2.3-0.4 0-1.2-2.3z m-55.1 36.8l0.5-1-0.5-0.5-0.9-0.3-0.4-0.3 0.2-0.8 0.7-0.1 1.6 0 0.5-0.2 0.5-0.4 0.5-0.3 2.5-0.5 0.9-0.4 0.6-0.4 0.4-0.2 0.2 0.1 0.2-0.1 0.1-0.7-0.9-0.7-0.2-0.2-2.3-1.1-0.1-0.3-0.2-0.6-0.3-0.3-0.8 0.8-0.4-0.1-0.2-0.3-0.1-0.6 0.3-0.3 1.8-1.1-1.3-1.2-1.4 0.1-2.4 1.1 0.5-0.7-0.4-0.7-0.2-0.9-0.1-0.9 0.2-0.8 0.5 0.4 0.6 0 0.6-0.4 0.4-0.6 0.8 0.5 0.2-0.4 0.1-0.7 0.2-0.6 0.3-0.4 0.1-0.3 0.3-0.3 2-0.3 0.6-0.6 0.1-0.8 0-1 0.6-1.1 0.3-0.6-0.3-0.3-0.7-0.1-0.2-0.3 0.1-0.3 0.5-2.2 0.8-0.9 1.1-0.5 1.2-0.3-0.4-0.8 0.4-1.9-0.5-0.8 0-0.6 0.5 0.3 0.2 0 0.1 0.1 0.1 0.8 1-0.6 0.7 0.3 0.5 0.6 0.8 0.3 0.9-0.4 0.8-0.8 0.5-1.1 0.3-1.2-0.4-0.6 2.3-0.1 3.9-2.1 7-1.5 1.9-1 0.2-1.6 3.3-3.7 0.7-0.6 1.5-0.2 1.4 0 0.7 0.2 0.6-0.1 3.2 0.9 1.3 0.8 0.4 0.4 0.4 0.6 0.3 0.6 0.6 1.7 0.4 0 2.2-3.8 0.9-2.5-0.6-1.8 0.5-1.7-0.3-1.4-0.9-1.4-1-1.3 1.7-2.4 0-0.7-0.4-0.8 0-0.7 0.3-0.8 0.4-0.6 1.4-1.5-0.2-0.5-0.1-0.2 0.1-0.4 0.2-0.7-0.6-0.7-0.4-1.3-0.1-1.5 0.3-1.1 1-0.7 2.5 0 1.2-0.5 0.8 1.2 0.5 0.5 1.2 0.7 0 0.6-0.5 0.7-0.1 0.9 0.3 1 0.7 0.8-0.3 1.6 1.2 7.7-0.1 2.5-2 7.9 0.1 1-0.2 1.2 0.1 2.4-0.1 0.3-0.2 0.2-0.1 0.2-0.1 0.4 0.2 0.3 0.3 0.1 0.2 0.1 0.2 0.1 0.1 0.7 0.2 0.5 0 0.4-0.3 0.7 0.5 0.4 0.2 0.6 0.1 0.6 0.4 0.7 0.5 0.4 1.7 0.8-0.2-1.3-0.2-0.5-1-2.2 1.8 2.7 0.6 1.4 0.3 1.6-0.2 4.9 0.2 2.5 0.8 1.8-0.4 1.1-0.3 1.2-0.1 1.3 0 1.5 0.2 1.8 1.2 3.2 0.2 1.7-0.4 10.4 0.4 1.9-0.1 0.7-0.1 1.5-0.2 0.6-0.4 0.8-1.7 1.6-0.7 1-0.9 2.1-4.3 6.2-0.9 0.9-0.3 0.8-0.1 2.9-0.5 5.8 0.6 5.7-0.1 6-0.2 0.4-0.5 0.2-0.6 0.6-0.5 0.7-0.4 0.8 0.9 0-0.2 1.5-0.3 0.9-0.6 0.4-0.6 0-0.5 0-0.2 0.5 0.3 1.2-0.9-0.4-0.9-0.2-0.9-0.1-0.7 0.2 0.1 0.7-0.6 0.8-0.3 0.8 0.8 0.5 2-0.8 1.3-0.2 0.5 0.7-0.2 1.2-0.6 1-0.9 0.7-1.1 0.2-0.5 0.4-0.5 0.9-0.6 0.8-1.1 0.2 0.2 0.6 0.1 0.5-0.1 0.6-0.2 0.6 0.7 0.3 0.2 0.6-0.3 0.7-0.6 0.6 0.4 0.6-1 0.4-1.7 1.1-1 0.2 0 0.6 0.5 0.5 0.2 0.6-0.2 0.7-0.5 0.5 0 0.5 0.7-0.3 0.9-1 0.8-0.4-0.2 1.2-0.5 1.4-0.5 1.2-0.5 0.7-1 0.6-0.8-0.3-1.5-1.4-1-0.4-1.9-0.3-1.6-0.7 0.7-2.1 0.3-0.3 0.5-0.2-1-0.9-1.5-0.6-0.9-0.7 0.9-1.2 0-0.5-0.8 0.2-1.8 1.5-0.4-0.6 0.1-0.2 0.1 0 0.1-0.1 0.1-0.3-0.6 0.2-0.3 0.1-0.3 0.3-0.5-0.6-0.6-0.6-1.6-0.5-1.5-0.2-1 0.2-0.6-0.5-0.5-0.5-0.6-0.5-1.5-0.3-0.1-0.3-0.2-0.4-0.3-0.3-0.6-0.2-0.5 0-0.5 0-0.5-0.4 0.8-0.6 0-0.5-0.7-0.3-0.5-0.3-0.6 0.1-0.8-0.2-0.8-0.4-0.4-0.3 0.3-1.6-0.2-0.6-0.9-0.4 0.4-1 0.5-1.7 0.6-1.2 1 0.5 3.3-1.5 0.6-0.5 0.3-1.1 0.6-0.6 0.9-0.5 0.7-0.9-1.4-0.1-3.9-1.1-1.5 0-1.4-0.3-0.8-0.8 0.5-1.7-1.5 0-2.6 1-1.4 0.1 0.1-0.3 0.3-0.8-0.8 0.1-0.7-0.2-0.6-0.3-0.8-0.2 0.8-0.4 1.7-0.3 0.8-0.4 0.5-0.7 0.3-0.9-0.1-0.7-0.7-0.5 0-0.6 1.4 0 1.3-0.4 2-1.3-0.3-0.7-0.5-0.6-0.6-0.3-0.7-0.1 2-0.7 0.5-0.4-0.1-0.2-0.2-0.6-0.3-0.4-0.2 0 0.7-1.1 0.1-0.1 0.2-0.4 0.6-0.7 0.1-0.5-0.2-0.1-0.7-0.5-0.3-0.7-0.3-0.5-0.4-0.3-0.7-0.2-1.2 0.1-2.1 1.2-1.3 0.4-2.6 0.2-1.1 0.2-0.9 0.7-0.5-1.1 0.7-1.4-0.2-1.1-1.8-2.1 3.1-0.3 1.2-0.5 0.8-1.4-0.8-0.6 0.6-1 1.2-0.9 1.3-0.4 0.4-0.2 1.6-0.9 0.3 0 0.1-1.1-0.3-0.5-1-0.8-1.1-2.3-0.4-0.8-0.6-0.1-1.8 0.5-0.3-0.4-0.5-1-1.1-0.7-1.4-0.3-1.3 0 0.3-0.8 0.2-0.3-0.5-0.4-0.5-0.2-0.5-0.1-0.6 0.1 0.6-0.1 0.5-0.3 1-0.7 0-0.6-1.7 0 0-0.6 0.7-0.3 0.2-0.8-0.2-0.8-0.7-0.3z m-605.5-321.9l-0.3 0.8 0.6 0.6 1.8 1.1 0.5 0.8 0.1 0.7-0.5 3.8-0.7 2.3-0.9 1.4-1.1-0.5-0.9-3.1-0.5-1.2-0.6-1.2-3.7-4.1-1.3-1-1.3-1.6-1-1.7 0.2-0.8 0.2-0.9-0.7-2.1-1.4-3.1 1.9 0.3 2.1 1.1 2 1.6 1.4 1.6 0.7 0.4 0.8-0.3 0.8-0.1 0.9 0.9 0.3 1.1-0.1 1 0 0.9 0.7 0.7 0 0.6z m-3.8-19l-0.3-0.3-0.3-0.1-2.8-0.5-6-3.9-3.5 0.6-0.9-0.4-2.5-2.8-0.7-0.5 0-0.6 3.6-0.9 1.1 0.2 0.4 0.4 0.3 0.5 0 0.5-0.3 0.5-1.5-0.6-0.7 0 1.1 1.8 1.7 0 1.7-0.8 1.5-0.4 0 0.6-0.8 0 0 0.7 1 0.5 6.2 1 1.5 1 1.1 1.3 0.7 1.7-0.5 0-0.5 0.2-0.6 0.3z m-65.4-51.6l2.4 1 1.2 0.9 0.7 1.2-1.4-0.6-5-0.1-0.7-1.6 0.5-0.8 1.1-0.2 1.2 0.2z m8.5-23l0.7 0.8 2.1 1.1 0.6 0.6 0.3 1.3 0.2 1.9-0.3 1.2-1-0.6-1-2.1-1.3-2.1-1.5-1-1.7 0.8-1-1.4-0.9-3.5-1.1-1.3 3.5-0.2 1.2 0.2 1.2 0.8 0.2 1-0.3 1.2 0.1 1.3z m-56.6-31.5l0.8 0.4 1.8-0.1 0.6 0.7-0.2 1.7-1.7 0.5-4.8-0.4-3.2-1-1.1-0.8 0.2-1.4-0.5-1.5-0.6-1.5-0.4-1.3 0.5-0.5 0.3-0.6 0.4 0 0.5 0.5 0.8 0.2 2.8 1.5 1.5 1.2 0.2 0.2 2.1 2.2z m-119.7-105.9l0.1 0.2 0.1 0.3 0.2 0.2 0.4-0.1 0 0.7-3.2 1.7-1.1 0.2 0-0.6 0.3-0.1 0.4 0.1 0.2 0-0.4-1-0.6-0.1-1.5 0.4 0-0.6 2.5-1.5 1.4-0.4 1.2 0.6z m698.2 484.4l0.5-0.2 0.5 0.7 0.1 1.2-1.4 0.6-0.8 0.4-0.9 0.3-0.7-0.2-1.5-0.9-0.1-0.4 0.6-0.3 1.8 0 0.5-0.3 0.2-0.2 0.2-0.1 0.2 0.1 0.7-0.1 0.1-0.6z" id="FR" name="France">
  </path>
 </g>
 <g id="points">
  <circle class="41.85199361188721|-4.398182747852199" cx="90.9" cy="876.3" id="0">
  </circle>
  <circle class="45.74064508013562|2.9480086609209915" cx="545.5" cy="542.7" id="1">
  </circle>
  <circle class="50.601459415446136|8.824961787939543" cx="909.1" cy="91.3" id="2">
  </circle>
 </g>
 <g id="label_points">
  <circle class="France" cx="521" cy="457.3" id="FR">
  </circle>
 </g>
</svg>