<?xml version="1.0" encoding="utf-8"?>
<!-- Generator: Adobe Illustrator 16.0.0, SVG Export Plug-In . SVG Version: 6.00 Build 0)  -->
<!DOCTYPE svg PUBLIC "-//W3C//DTD SVG 1.1//EN" "http://www.w3.org/Graphics/SVG/1.1/DTD/svg11.dtd">
<svg version="1.1" id="Layer_1" xmlns="http://www.w3.org/2000/svg" xmlns:xlink="http://www.w3.org/1999/xlink" viewBox="-2 27 31 6" xml:space="preserve">
<g id="nouvelle_x5F_caledonie" title="Nouvelle Calédonie" data-slug="nouvelle-caledonie-988">
	<path id="path3436-9-7-5" fill="#AAAAAA" d="M0.438,28.56c-0.014,0.029,0.047,0.083,0.019,0.025
		C0.446,28.58,0.448,28.563,0.438,28.56z M0.477,28.631c0.031,0.048-0.008,0.087,0.04,0.13c0.019,0.023,0.038-0.027,0.003-0.046
		C0.525,28.683,0.5,28.649,0.477,28.631z M0.756,28.966c-0.012,0.018-0.024,0.07,0.014,0.063
		C0.799,29.061,0.769,28.975,0.756,28.966L0.756,28.966z M0.635,28.989C0.565,29.013,0.691,29.051,0.635,28.989z M0.922,29.011
		c-0.04,0.045,0.083,0.125,0.043,0.063C0.956,29.048,0.929,29.036,0.922,29.011z M0.788,29.034
		c-0.005,0.023,0.009,0.069,0.027,0.045c0.038,0.03,0.004,0.061,0.019,0.094c-0.091-0.036-0.001,0.108,0.004,0.03
		c0.032-0.019,0,0.051,0.057,0.029c0.034,0.002,0.057,0.09,0.011,0.076c-0.03,0.005,0.041,0.111,0.075,0.145
		c0.055,0.018,0.071,0.071,0.102,0.13c0.061,0.01,0.045,0.057,0.01,0.058c0.05,0.032,0.088,0.079,0.129,0.116
		c0.053,0.017,0.065,0.025,0.106,0.042c-0.014,0.034,0.01,0.037,0.034,0.054c-0.05-0.02,0.01,0.072,0.033,0.044
		c0.027,0.05,0.042-0.018,0.056,0.027c0.01,0.015,0.028,0.049,0.026,0.081c0.013,0.033,0.051,0.087,0.089,0.109
		c-0.029,0.034,0.03,0.074,0.02,0.021c0.023-0.047,0.005,0.029,0.04,0.001c-0.03,0.018,0.069,0.022,0.009,0.05
		c0.023,0.013,0.099-0.04,0.067,0.019c0.02,0.038,0.069,0.077,0.103,0.101c0.031-0.015,0.036,0.083,0.11,0.076
		c0.056,0.02,0.083-0.003,0.091,0.02c-0.031,0.046,0.078,0.074,0.109,0.083c0.016,0.024,0.022-0.002,0.043,0.006
		c-0.005,0.013,0.026,0.046,0.042,0.005c0.007-0.036,0.036,0.041,0.041,0.064c0.026-0.025,0.018-0.007,0.028,0.009
		c0.057,0.033-0.016,0.016,0.015,0.047c0.031-0.03,0.105,0.013,0.087,0.043c0.05,0.002,0.063,0.067,0.078,0.009
		c-0.007-0.004,0.045-0.052,0.046,0c-0.015,0.014,0.021,0,0.044,0.015c0.021,0.026-0.003,0.056,0.027,0.06
		c0.004,0.033-0.07-0.006,0,0.031c-0.005,0.03-0.069-0.003-0.02,0.039c0.034-0.023,0.067,0.05,0.099,0.057
		c0.017,0.014,0.068-0.029,0.056-0.002c-0.035,0.014,0.034,0.03,0.009,0.047c0.014,0.017,0.029-0.021,0.036-0.018
		c-0.007-0.039,0.057-0.011,0.045,0.006c-0.022,0.03,0.059-0.028,0.055,0.024c0.055,0,0.039,0.041,0.084,0.06
		c0.031-0.025,0.076,0.047,0.082,0.038c0.081-0.013-0.011,0.067,0.079,0.041c0.074,0.015-0.024-0.036,0.039-0.064
		c0.002-0.006-0.001,0.06,0.024,0.012c0.04,0.048-0.003,0.075,0.056,0.048c0.008-0.04,0.085-0.029,0.057-0.104
		c0.037-0.016-0.061-0.092-0.059-0.099c0.024-0.069-0.071-0.112-0.13-0.119c-0.015-0.025-0.061-0.023-0.087-0.037
		c0.083-0.01-0.034-0.051-0.029-0.044c-0.048-0.017-0.076-0.065-0.108-0.102c-0.035-0.027-0.043-0.056-0.077-0.085
		c-0.042-0.007-0.087-0.041-0.053-0.053c-0.027-0.008-0.118-0.035-0.103-0.041c-0.035-0.04-0.113-0.095-0.13-0.071
		C2.469,30.27,2.49,30.258,2.45,30.25c-0.024-0.034-0.076-0.065-0.041,0.001c0.006,0.004,0.032,0.047-0.001,0.041
		c0.006-0.018-0.064-0.037-0.018-0.047c-0.03-0.05-0.061-0.107-0.063-0.055c-0.041-0.042-0.008,0.053-0.039,0.003
		c0.014-0.047-0.027-0.027-0.046-0.076c-0.072-0.006-0.127-0.043-0.177-0.1c0.014,0.002,0.093,0.018,0.016-0.029
		c-0.03-0.023-0.064-0.023-0.112-0.06c-0.033-0.054-0.043-0.07-0.014-0.125c-0.05-0.013-0.092-0.026-0.123-0.073
		c-0.029-0.001,0.02-0.086-0.031-0.079c-0.037-0.026-0.094-0.008-0.147-0.044c-0.076-0.054-0.091-0.025-0.142-0.089
		c-0.049,0.008-0.056-0.091-0.109-0.124c-0.056-0.031-0.126-0.07-0.144-0.114c-0.043-0.051-0.089-0.063-0.147-0.087
		c-0.036-0.034-0.089-0.024-0.075,0.006c0.003,0.037,0,0.01-0.039,0.018c0-0.005-0.054-0.026-0.079-0.062
		c-0.041-0.041-0.073-0.085-0.105-0.118C0.81,29.032,0.793,29.046,0.788,29.034L0.788,29.034z M1.012,29.16
		C1.017,29.227,1.055,29.191,1.012,29.16z M0.86,29.236C0.844,29.274,0.88,29.255,0.86,29.236z M1.603,30.156
		C1.57,30.189,1.645,30.174,1.603,30.156z M1.701,30.172L1.7,30.175L1.701,30.172z M1.709,30.188L1.709,30.188L1.709,30.188z
		 M2.186,30.508C2.188,30.508,2.185,30.515,2.186,30.508z M2.518,30.679C2.493,30.69,2.54,30.682,2.518,30.679z M2.506,30.69
		C2.476,30.726,2.515,30.73,2.506,30.69z M2.41,30.697C2.392,30.749,2.487,30.707,2.41,30.697z M2.385,30.699
		C2.401,30.736,2.421,30.692,2.385,30.699z M2.449,30.716c-0.014,0.066,0.073,0.003,0.021,0.012
		C2.468,30.718,2.456,30.72,2.449,30.716z M2.467,30.754C2.43,30.795,2.509,30.819,2.467,30.754z M3.1,31.078
		c-0.032,0.001-0.051,0.064,0,0.065c0.008-0.034-0.012-0.013,0.026-0.049C3.125,31.078,3.11,31.081,3.1,31.078L3.1,31.078z"/>
	<path id="path4236-2-7" fill="#AAAAAA" d="M2.923,29.305c-0.025,0.007-0.043,0.036-0.025,0.016c0.02,0.011,0.033,0.083-0.001,0.125
		c0.034,0.061-0.083,0.137-0.059,0.145c0.064,0.008,0.083-0.051,0.106-0.099c-0.055,0.024-0.044-0.068-0.018-0.096
		c0.007-0.04,0.095-0.005,0.031-0.048C2.94,29.338,2.942,29.307,2.923,29.305z M3.418,29.561c-0.036,0.008-0.031,0.059-0.081,0.028
		c-0.054-0.016-0.083,0.093-0.009,0.052c0.023,0.021,0.083,0.002,0.075,0.057c-0.026,0.028-0.053,0.1-0.105,0.075
		c-0.064-0.016,0.007,0.024,0.012,0.05c0.007,0.048,0.066,0.113,0.131,0.102c0.053-0.012,0.024,0.046,0.077,0.045
		c0,0.057,0.096,0.044,0.08-0.01c-0.019-0.048,0.075-0.06,0.009-0.086c-0.063-0.003-0.01-0.101-0.092-0.089
		c-0.025-0.02-0.066-0.015-0.017-0.05c-0.032-0.046,0-0.102,0.002-0.131C3.47,29.603,3.459,29.551,3.418,29.561L3.418,29.561z
		 M2.819,29.59C2.803,29.603,2.835,29.595,2.819,29.59z M2.814,29.591c-0.039,0.012-0.087,0.021-0.024,0.02
		C2.801,29.612,2.812,29.596,2.814,29.591z M3.917,29.921c-0.028,0.033,0.068,0.048,0.007,0.001L3.917,29.921L3.917,29.921z
		 M3.706,29.96C3.703,29.977,3.75,29.979,3.706,29.96z M3.863,30.146C3.848,30.179,3.872,30.198,3.863,30.146z M4.057,30.15
		c-0.038,0.017-0.069,0.071-0.108,0.026c-0.073-0.007,0.02,0.067-0.002,0.105c0.035,0.033,0.024,0.071,0.012,0.095
		c0.05-0.011,0.082,0,0.09,0.042c0.047,0.026,0.08-0.018,0.127-0.021c-0.024-0.06,0.024-0.125,0.002-0.169
		c-0.047,0.034-0.119,0.036-0.135-0.036C4.031,30.173,4.076,30.162,4.057,30.15z M2.809,30.905c0,0.035-0.022,0.02-0.04,0.029
		c-0.029-0.001,0.025,0.021,0.039,0.011C2.78,30.958,2.795,30.98,2.79,30.994c0.023,0.027,0.012-0.024,0.035-0.021
		c0.005-0.026,0.023-0.02,0.016-0.059C2.843,30.9,2.817,30.907,2.809,30.905z M2.752,30.948c-0.008,0.031,0.069,0.031,0.006,0.006
		L2.752,30.948L2.752,30.948z M3.622,31.201c-0.021-0.002-0.029,0.045-0.021,0.068c0.001,0.024,0.008,0.044,0.022,0.045
		c0.042,0.027,0.068-0.016,0.064-0.055c0,0.022,0.037,0.064,0.02-0.001C3.682,31.226,3.662,31.214,3.622,31.201L3.622,31.201z
		 M3.689,31.296c-0.042,0.042,0.056,0.015-0.009,0.035C3.658,31.359,3.759,31.324,3.689,31.296z"/>
</g>
<g id="polynesie" title="Polynésie Française" data-slug="polynesie-francaise-987">
	<path fill="#AAAAAA" d="M6.488,29.086c-0.062,0.04-0.139,0.041-0.206,0.057c-0.085,0.008-0.01,0.103-0.054,0.142
		c-0.019-0.034,0-0.113-0.052-0.126c-0.073-0.019-0.13,0.028-0.136,0.104c0.016,0.033,0.043,0.132-0.007,0.054
		c-0.004-0.078-0.078-0.127-0.146-0.115c-0.053-0.012-0.067,0-0.118-0.001c-0.044-0.004-0.064,0.034-0.029-0.015
		c0-0.039-0.108,0.019-0.058,0.037c0.053-0.007-0.018,0.109,0.035,0.143c0.008,0.05,0.046,0.105,0.085,0.141
		c0.061,0.043,0.134,0.07,0.158,0.142c0.021,0.068,0.103,0.047,0.109,0.113c0.04,0.007,0.048-0.041,0.055,0.009
		c0.033,0.049,0.141,0.022,0.201,0.019c-0.002-0.044,0.063-0.059,0.06-0.121c0.03-0.021,0.022-0.101,0.052-0.12
		c0.068-0.027,0.092-0.097,0.054-0.161c0.023-0.031,0.043-0.08,0.06-0.119c0.019-0.027,0.117-0.048,0.04-0.083
		C6.538,29.167,6.544,29.099,6.488,29.086L6.488,29.086L6.488,29.086L6.488,29.086z M7.986,29.332
		c-0.034,0.014-0.075,0.061-0.11,0.025C7.848,29.4,7.78,29.33,7.751,29.383c-0.047-0.014-0.124,0.014-0.146,0.038
		c0.085,0.03-0.096,0.105,0.006,0.123c0.066,0.047,0.126,0.083,0.204,0.109c0.053,0.006,0.146,0.174,0.177,0.092
		c0.042-0.052,0.089-0.188,0.074-0.257C8.056,29.433,8.013,29.383,7.986,29.332L7.986,29.332z"/>
	<path fill="#AAAAAA" d="M9.891,31.411c-0.079-0.018-0.142-0.015-0.205-0.062c-0.079-0.024-0.15-0.033-0.234-0.04
		c-0.035-0.046-0.114-0.058-0.138-0.108c-0.042-0.057-0.105-0.09-0.137-0.135c0.035-0.072-0.007-0.171-0.07-0.221
		c-0.018-0.017,0.001-0.094-0.064-0.119c0.027-0.055-0.142-0.09-0.023-0.126c0.056,0.003-0.017-0.052-0.024-0.056
		c-0.042,0.049-0.071,0.042-0.059,0.114C8.9,30.7,8.817,30.742,8.758,30.723C8.705,30.73,8.63,30.716,8.62,30.785
		c-0.069,0.008-0.134,0.022-0.213,0.02c-0.057-0.015-0.104,0.078-0.162,0.032c-0.086,0.038-0.086-0.077-0.178-0.066
		c-0.073-0.016-0.136-0.029-0.188-0.066c-0.073-0.008-0.135-0.003-0.195-0.035c-0.087-0.025-0.098-0.084-0.104-0.169
		c-0.032-0.088-0.001-0.195-0.068-0.271c-0.005-0.076-0.112-0.179-0.103-0.211c0.111,0.003,0.255-0.015,0.308-0.128
		c0.022-0.091,0.138-0.061,0.202-0.088c0.041-0.04,0.036-0.104,0.08-0.144c0.069-0.082,0.038-0.193,0.012-0.284
		c-0.081-0.08,0.073-0.092,0.035-0.172c0.071,0.003,0.133,0.094,0.211,0.063c0.08,0.023,0.171-0.019,0.236,0.042
		c0.082,0,0.146,0.059,0.202,0.113c0.083,0.052,0.204,0.006,0.272,0.099c0.004,0.075,0.087,0.093,0.121,0.151
		c0.007,0.058,0.018,0.078,0.045,0.148C9.155,29.9,9.108,29.99,9.091,30.06c-0.03,0.064,0.005,0.147,0.042,0.191
		c0,0.089-0.041,0.208,0.02,0.279c0.095,0.02,0.201,0.108,0.299,0.04c0.063,0.014,0.145-0.01,0.174,0.056
		c0.077-0.027,0.113,0.061,0.204,0.042c0.054,0.028,0.072-0.012,0.095-0.042c0.014,0.083,0.119,0.108,0.159,0.191
		c0.039,0.033,0.022,0.129,0.03,0.169c-0.021,0.046,0.041,0.106-0.012,0.166c0.002,0.062-0.023,0.116-0.062,0.159
		C10.036,31.362,9.944,31.421,9.891,31.411z"/>
	<path fill="#AAAAAA" d="M7.586,29.488c-0.025,0.011-0.052,0.016-0.078,0.008c-0.028-0.002-0.045,0.028-0.07,0.039
		c-0.011,0.018-0.024,0.007-0.04,0.005c-0.028-0.006-0.004,0.048-0.036,0.047c-0.028,0.022,0.033,0.039,0.011,0.062
		c-0.021-0.02-0.022,0.02-0.006,0.024c-0.011,0.018,0.016,0.033,0.006,0.053c0.01,0.023,0.021,0.044,0.025,0.07
		c0.004,0.023-0.016,0.041-0.007,0.066c-0.004,0.017,0.002,0.034-0.017,0.044c0.017,0.016,0.002,0.042,0.022,0.053
		c0.01,0.021-0.02,0.077,0.02,0.069c0.038,0,0.081,0.006,0.118,0.001c0.025-0.005,0.05-0.016,0.074-0.025
		C7.63,30,7.639,29.986,7.658,29.977c0.02-0.016,0.049-0.038,0.06-0.061c0.016-0.02,0.021-0.04,0.042-0.055
		c0.023-0.015,0.041-0.011,0.068-0.011c0.024-0.004,0.077-0.013,0.102-0.012c0.023,0,0.053-0.044,0.063-0.061
		c0.009-0.014-0.021-0.067-0.025-0.081c-0.015-0.014-0.054-0.01-0.071-0.022c-0.023-0.01-0.042-0.028-0.065-0.037
		c-0.021-0.009-0.042-0.018-0.063-0.029C7.746,29.6,7.725,29.58,7.701,29.567c-0.021-0.02-0.046-0.032-0.068-0.047
		C7.618,29.51,7.598,29.501,7.586,29.488L7.586,29.488L7.586,29.488z"/>
</g>
<g id="saint_x5F_barthelemy" title="Saint-Barthélemy et Saint-Martin" data-slug="saint-barthelemy-et-saint-martin">
	<path fill="#AAAAAA" d="M15.43,28.725c-0.121-0.017-0.479,0.201-0.291,0.248c0.168-0.006,0.308-0.101,0.27-0.212l0.028-0.028
		L15.43,28.725L15.43,28.725L15.43,28.725z M14.253,28.759c-0.072,0.068-0.04,0.253-0.196,0.114
		c-0.168-0.072-0.064,0.522-0.354,0.289c-0.162,0.033-0.113,0.251-0.298,0.314c0.098,0.125,0.054,0.317-0.065,0.403
		c-0.105,0.047-0.217,0.163-0.333,0.069c-0.218-0.004,0.019-0.452-0.207-0.211c-0.112,0.191-0.261-0.054-0.412-0.004
		c-0.202,0.039-0.237,0.303,0.005,0.317c0.113,0.23,0.264-0.141,0.415-0.165c0.158,0.049,0.151,0.24,0.312,0.188
		c0.179,0.022,0.076-0.138,0.215-0.095c0.055-0.059,0.017,0.283-0.103,0.16c-0.028,0.184,0.275,0.145,0.355,0.033
		c0.078-0.07,0.144-0.181,0.23-0.225c0.134,0.026,0.267,0.053,0.376,0.141c0.144,0.029,0.306-0.041,0.445-0.001
		c0.177,0.151,0.065-0.235,0.081-0.274c-0.064,0.167-0.21-0.101-0.074-0.145c0.23-0.145-0.07-0.123-0.094-0.266
		c-0.046-0.083-0.091-0.247-0.029-0.311c0.217-0.059,0.053-0.437-0.167-0.327C14.32,28.764,14.287,28.757,14.253,28.759
		L14.253,28.759L14.253,28.759z M15.262,30.569c-0.151,0.03,0.034,0.192-0.153,0.156c0.029,0.036,0.143,0.09,0.213,0.167
		c0.09,0.083,0.212,0.142,0.242,0.271c-0.145,0.007,0.022,0.161,0.061,0.221c0.083,0.183,0.213,0.219,0.291,0.078
		c0.092,0.188,0.22-0.205,0.32,0.036c0.049-0.105,0.085-0.222,0.213-0.249c0.091-0.114,0.184,0.116,0.176-0.088
		c0.024-0.109,0.079-0.346-0.073-0.151c0.019-0.213-0.131,0.032-0.122-0.146c-0.122,0.072-0.112,0.039-0.111-0.077
		c-0.105,0.07-0.122-0.123-0.183,0.083c-0.043,0.146-0.263,0.062-0.326,0.185c-0.078-0.115-0.143-0.244-0.232-0.349
		C15.389,30.755,15.327,30.77,15.262,30.569z"/>
</g>
<g id="saint_x5F_pierre" title="Saint-Pierre-et-Miquelon" data-slug="saint-pierre-et-miquelon-975">
	<path fill="#AAAAAA" d="M26.177,28.071c-0.107,0.126-0.326,0.092-0.362,0.272c-0.069,0.082-0.058,0.178,0.026,0.226
		c0.08,0.157,0.051,0.332,0.021,0.492c0.048,0.146-0.02,0.391,0.17,0.451c0.078,0.14,0.134,0.304,0.202,0.454
		c0.066,0.215,0.097,0.444,0.068,0.668c-0.139,0.101-0.038,0.303-0.198,0.383c-0.152,0.032-0.227,0.15-0.318,0.26
		c-0.048,0.036,0,0.189,0.016,0.182c0.083-0.128,0.293-0.007,0.19,0.139c-0.025,0.092-0.009,0.22,0.084,0.119
		c0.026,0.05,0.103,0.024,0.087,0.116c0.002,0.109,0.143-0.067,0.18-0.094c0.102-0.122,0.241-0.213,0.374-0.299
		c0.125-0.109,0.289-0.227,0.25-0.417c0.005-0.095-0.078-0.174-0.073-0.263c-0.106,0.083-0.156-0.162-0.278-0.039
		c-0.083-0.028-0.172-0.099-0.247-0.156c-0.06-0.206-0.025-0.431,0.053-0.627c0.114-0.08-0.025-0.259-0.082-0.105
		c-0.137,0.133-0.166-0.179-0.229-0.252c0.102-0.065,0.273,0.114,0.382-0.013c0.058,0.039,0.059,0.175-0.048,0.211
		c0.09,0.05,0.189-0.085,0.257-0.135c0.06-0.134,0.08-0.283,0.151-0.414c0.016-0.14,0.012-0.345-0.174-0.36
		c-0.161-0.029-0.31-0.114-0.408-0.245c-0.109-0.132-0.32,0.039-0.349-0.18c-0.017-0.114,0.155-0.107,0.195-0.209
		C26.214,28.22,26.208,28.145,26.177,28.071z M27.523,31.412c-0.104-0.012-0.094,0.118,0.012,0.054
		C27.579,31.452,27.56,31.409,27.523,31.412L27.523,31.412z M27.499,31.512c-0.174,0.019-0.281,0.141-0.372,0.278
		c-0.046,0.102-0.121,0.218-0.169,0.291c0.084,0.007,0.094,0.026,0.105,0.101c0.09,0.082,0.051-0.125,0.16-0.079
		c0.074-0.042,0.092-0.081,0.092,0.032c0.029,0.02,0.112-0.002,0.125,0.018c-0.014-0.074,0.213-0.017,0.171-0.139
		c-0.095-0.04-0.079-0.15-0.102-0.231C27.635,31.733,27.602,31.564,27.499,31.512L27.499,31.512L27.499,31.512z"/>
</g>
<g id="Walllis-et-Futuma" title="Wallis-et-Futuna" data-slug="wallis-et-futuna-986">
	<path id="path11701" fill="#AAAAAA" d="M19.093,31.55l0.002-0.002l0.002-0.003l0.002-0.001l0-0.003l0.001-0.003l0.002-0.002
		l0.002-0.002l0.003-0.001l0.003-0.001h0.001l0.001-0.003l0.002-0.001l0-0.003v-0.003l-0.002-0.002l-0.001-0.001v-0.002l0-0.001
		l0.002-0.002l0.001-0.002l0.002-0.003l0-0.004l-0.001-0.004l-0.002-0.002l-0.001-0.002l-0.002-0.002l-0.001-0.002l-0.002,0l0,0
		v0.002v0.004l0,0.002V31.5v0.005l-0.001,0.003l0,0.003l-0.001,0.002l-0.002,0.001l-0.001,0.001L19.1,31.518l-0.003,0.003
		l-0.001,0.002l0,0.001l0,0.005l0,0.004l0,0.002v0.002l-0.001,0.001l-0.001,0.001l0,0.004v0.002L19.093,31.55L19.093,31.55z"/>
	<path id="path11703" fill="#AAAAAA" d="M19.008,31.409l0-0.002l0-0.002l-0.001-0.001h-0.001v0.007l0.001,0.002l0.001,0h0.002
		l0.001-0.001V31.41l-0.001,0L19.008,31.409L19.008,31.409z"/>
	<path id="path11705" fill="#AAAAAA" d="M19.157,31.32l0.003,0.001l0.002,0l0.001-0.002v-0.002l0-0.002l-0.002-0.002l-0.002,0
		l-0.003,0l0,0.001l0,0.002v0.002L19.157,31.32z"/>
	<path id="path11707" fill="#AAAAAA" d="M19.15,31.367l0.003-0.003l0.002-0.002l0.001-0.002l0.001-0.002v-0.003l0.001-0.005v-0.003
		l0.001-0.003l0.001-0.002l0-0.003l0-0.002l-0.003-0.002h-0.004h-0.002l-0.003,0.001l-0.003,0l-0.002,0l-0.002-0.001l-0.002-0.003
		l-0.001-0.002l-0.002-0.003l-0.001-0.003v-0.002l0-0.002v-0.002l0-0.002l-0.003-0.002h-0.004h-0.003l-0.003-0.002l-0.003-0.002
		l-0.002-0.003l-0.001-0.004l-0.001-0.004l-0.002-0.003l-0.001-0.003v-0.006l0-0.003l0-0.008l0-0.007v-0.006l0-0.005l-0.002-0.004
		l-0.003-0.004L19.1,31.243h-0.003l-0.003,0l-0.002,0l-0.003-0.001l-0.002-0.001l-0.002-0.001l-0.003,0.001l-0.001,0.002
		l-0.002,0.001l-0.001,0h-0.003l-0.002,0l-0.002-0.001l-0.001-0.004l-0.002-0.003l-0.003-0.003l-0.002-0.004l-0.002-0.004
		l-0.001-0.004l-0.001-0.002l-0.001-0.007l-0.002-0.005l-0.003-0.006l-0.001-0.003l-0.003-0.009l-0.001-0.004l-0.004-0.006
		l-0.002-0.002l-0.001-0.003l-0.001-0.003l-0.003-0.001l-0.001,0.001l-0.003,0l-0.003-0.003l-0.002-0.004l0-0.005l-0.003-0.002
		l-0.002-0.001l-0.002,0l-0.004,0.001l-0.002,0l-0.001-0.002l-0.002-0.002l-0.004-0.001l-0.002,0l-0.003,0h-0.001l-0.002,0l0,0
		v0.001l0.003,0.001l0.003,0h0.002L19,31.157l0,0.002v0.004l0,0.002l0.002,0.002l0,0.002l0,0.003l0,0.004l0,0.004v0.004
		l-0.001,0.002l0.001,0.004l0.001,0.002l0.001,0.002l0,0.003l0,0.002l0.001,0.003l-0.001,0.004l-0.001,0.002v0.004l0,0.003
		l0.001,0.005l0,0.006l0,0.004l-0.001,0.002l-0.001,0.002L19,31.241v0.002l0,0.001l-0.001,0.002l0.002,0.002h0.001l-0.001-0.002
		l0-0.001l0.001,0h0.001l0.002-0.001l0.002,0h0.005l0.003-0.001l0.001,0l0.002,0.001l0.003,0.001l0.002,0l0.002,0.001l0.004,0.003
		l0.002,0.004l0.001,0.002l0.002,0.005l0.002,0.003l0.001,0.004l0.001,0.005l0,0.003l0.001,0.003l0.001,0.006v0.005v0.007v0.005
		l-0.001,0.004l-0.001,0.005l-0.002,0.006l-0.003,0.004l-0.004,0.003l-0.003,0.004l-0.003,0.003l-0.003,0.003l-0.003,0.001
		l-0.003-0.001l-0.002,0l-0.002,0.002l-0.004,0.001l-0.002,0.002l-0.001,0.004v0.003l0,0.003l0,0.006l0,0.004l0,0.004l-0.001,0.002
		v0.002l0,0.002L19,31.38l0.002,0.001h0.003l0.003-0.001l0.001-0.003l0.001-0.002l0.003-0.003l0.005-0.003l0.006-0.003l0.006-0.001
		l0.007-0.001l0.004-0.002l0.004,0l0.002,0l0.005-0.002l0.004-0.001l0.005,0l0.004-0.001l0.003,0l0.003,0.001l0.001,0.002l0,0.004
		l0.004,0h0.003l0.003,0l0.004,0.001l0.002,0.001l0.003,0.002l0.005,0.002l0.003,0l0.001,0l0.002,0l0.002,0l0.003,0.003
		l0.003,0.002l0.004,0.002l0.004,0.001l0.004,0.001l0.005,0h0.003l0.003,0.001l0.003,0.001h0.002l0.003,0l0.001-0.001v-0.001
		l-0.001-0.001l-0.002-0.002l0-0.001l0-0.002l0.001-0.002l0.002-0.002V31.37L19.15,31.367z"/>
	<path id="path11709" fill="#AAAAAA" d="M18.955,31.13l-0.002-0.003l-0.002-0.002l-0.002-0.001l-0.001-0.002l-0.002-0.003l0-0.003
		l-0.002-0.002l-0.004-0.001l-0.005,0.001l-0.002,0.001l-0.004,0.001l-0.001,0.002l0.002,0.003l0.001,0.001l0.001,0.005
		l0.001,0.004l0.002,0.002l0.003,0.002l0.002,0.002l0.004,0.001l0.002-0.003l0-0.001h0.005l0.004-0.002l0.002,0l0.002,0.002
		l0.003-0.001l0-0.002l-0.002-0.002L18.955,31.13L18.955,31.13L18.955,31.13z"/>
	<path id="path11711" fill="#AAAAAA" d="M18.984,31.209L18.984,31.209l-0.001,0.002l0.001,0h0.001l0,0V31.21v0l0,0L18.984,31.209z"
		/>
	<path id="path11713" fill="#AAAAAA" d="M18.989,31.212L18.989,31.212h-0.001H18.989L18.989,31.212L18.989,31.212L18.989,31.212z"
		/>
	<path id="path11715" fill="#AAAAAA" d="M19.131,31.033l-0.003-0.002l-0.002-0.001l-0.002-0.001l-0.002,0.001h-0.002l-0.001-0.001
		h-0.001l0,0.002l-0.001,0.003v0.003l0,0.004l0.001,0.003l0.002,0.002l0.003,0.001l0.003,0l0.002-0.001l0-0.001l0.002-0.001h0.002
		l0.001,0l0.003-0.001l0.002-0.001v-0.004l-0.001-0.003l-0.001-0.001l-0.001,0L19.131,31.033z"/>
	<path id="path11717" fill="#AAAAAA" d="M19.431,31.021h-0.005l-0.004,0.001l-0.004,0.004l-0.004,0.002l-0.002,0.004l-0.001,0.003
		l-0.001,0.003l-0.001,0.002v0.004l0.002,0h0.003h0.003l0.002,0l0.002-0.001l0.002-0.001l0.001-0.002l0.002,0l0.003-0.002l0.001,0
		l0.003-0.001l0.004-0.001l0.002,0h0.001l0.001-0.001l0.002-0.002v-0.006l-0.001-0.002l-0.001-0.002l-0.002-0.002h-0.002l-0.003,0
		h-0.002L19.431,31.021z"/>
	<path id="path11719" fill="#AAAAAA" d="M20.118,29.649H20.11l-0.004-0.001l-0.004,0l-0.004,0.002v0.002l-0.001,0.002h-0.004
		l-0.004,0l-0.004,0.002L20.08,29.66l0,0.004l0.002,0.002l0.001,0.002l-0.001,0.002l-0.003,0.002l-0.002,0.004l-0.001,0.003
		l-0.001,0.004l0,0.002l0.004,0.001h0.004l0.003,0h0.011l0.007,0.002l0.003-0.001l0.004,0l0.005,0.001l0.003,0.001l0.004,0.001
		h0.006l0.004,0.001l0.004,0.001h0.006l0.002-0.001l0.004-0.002l0.004-0.001l0.002-0.002l0-0.002l0.005-0.002l0.002,0l0.003-0.001
		l0.002-0.002v-0.002l0.001-0.004l0.002-0.003l0.002,0l0.001-0.002l0.001-0.003v-0.004l-0.002-0.004l-0.001-0.002l-0.003-0.002
		l-0.003-0.002l-0.003-0.001l-0.001-0.001l-0.002-0.003l-0.004-0.003l-0.003,0h-0.003l-0.002-0.001l-0.003-0.002l-0.004-0.001
		l-0.004,0l-0.002,0.002l-0.002,0.003l-0.001,0.002l-0.001,0.003l-0.002,0.001l-0.002,0l-0.003,0L20.118,29.649L20.118,29.649
		L20.118,29.649z"/>
	<path id="path11721" fill="#AAAAAA" d="M20.059,29.721h0.003l0.004,0l0.003-0.001l0.002-0.002l0-0.003v-0.003l-0.001-0.002
		l-0.002,0l-0.002-0.001l0,0.002l0,0.002l-0.001,0.001l-0.001,0l-0.002,0l-0.002,0l-0.003,0.002l-0.001,0v0.001l0.001,0
		L20.059,29.721L20.059,29.721L20.059,29.721z"/>
	<path id="path11723" fill="#AAAAAA" d="M20.146,29.769l-0.006,0.002l-0.003,0H20.13l-0.001-0.002l-0.002,0l-0.002-0.001
		l-0.001,0.002l0.001,0.003v0.004l-0.001,0.005l-0.001,0.003v0.003l0,0.005l0,0.004v0.004l0.001,0.003l0,0.005l-0.002,0.004
		l0.001,0.004l0.003,0.001l0.003,0.001l0.004,0.003l0.001,0.004l0.003,0.004l0.004,0.001l0.007,0h0.014l0.004-0.001l0.004-0.001
		l0.003-0.001l0.006-0.002l0.002-0.003l0.003-0.004l0.002-0.004l0-0.004V29.8l-0.002-0.005l-0.002-0.004l-0.002-0.005l-0.002-0.005
		v-0.003v-0.002l0-0.003l0-0.004l-0.003-0.003l-0.004-0.001l-0.005,0l-0.003,0.001l-0.004,0.002h-0.004H20.15L20.146,29.769
		L20.146,29.769L20.146,29.769z"/>
	<path id="path11725" fill="#AAAAAA" d="M19.275,30.88l0.004-0.005l0.004-0.007l0.004-0.004l0.002-0.005l0.005-0.002l0.006-0.003
		l0.004-0.006l0.002-0.008l0.003-0.005l0.002-0.005l0.003-0.006l0.003-0.007l0.006-0.004l0.007-0.003l0.006-0.004l0.005-0.003
		l0.002-0.004l0.006-0.002l0.004-0.001h0.003l0.001,0.001v0.001v0.002v0.005l0.003,0.002h0.001l0.002-0.001l0.001-0.002l0-0.002
		l-0.001-0.001l-0.001-0.002v-0.001l0.001-0.002l0.005,0l0.006,0.002l0.004,0.002l0,0.004l0.001,0.003l0,0.003l0.001,0.003
		l0.002,0.003l0.003,0.007l0.004,0.002l0.004-0.002l0.002-0.002l0.005,0l0.005,0.003l0.005,0.003l0.004,0.002l0.005,0.003h0.003
		h0.002l0.003-0.003l0.007-0.001l0.005-0.002l0.004,0h0.007l0.004,0l0.003,0.002l0.002,0.003v0.003l0.004,0.003l0.003,0.003
		l0.003,0.004l0.003,0.005l0.004,0.005l0.004,0.002l0.001,0.002l0.004,0.004l0,0.005v0.004l0.002,0.003l0.005,0.001l0.002,0.001
		l0.004,0.002l0.007,0.001l0.003,0.002l0.004,0l0.008,0.002l0.006,0.001l0.002,0.004l0.004,0.005l0.002,0.002l0.007,0.003l0.005,0
		h0.006l0.008-0.002l0.004-0.001h0.003l0.006-0.001l0.006-0.003l0.002-0.003l0.002-0.003l0.003-0.004l0.001-0.004l0.004-0.005
		l0.003-0.003l0.003-0.003l0.003-0.004l0.003-0.003l0.006-0.001l0.004-0.002l0.005-0.003l0.005-0.004l0.005-0.002l0.002,0.002
		l0.002,0.001l0.004-0.001l0.003-0.001l0.003-0.001l0.006-0.003l0.001-0.002l0.001-0.002l0.007-0.002l0.005,0l0.006-0.001
		l0.003-0.004l0.001-0.004l0-0.003l0-0.004l0.001-0.004l0.002-0.004v-0.004l0.001-0.004l0.003-0.004l0.002-0.004l0.002-0.004
		l0.001-0.004l0-0.002l-0.001-0.003v-0.005l0-0.004l-0.002-0.002L19.7,30.766h-0.004l-0.004,0l-0.003,0l-0.004-0.005l-0.004-0.005
		l-0.005-0.003l-0.004-0.005l-0.004-0.002l-0.004-0.001l-0.006-0.005l-0.006-0.002l-0.005-0.004l-0.004-0.002l-0.002-0.004
		l-0.004-0.002l-0.004-0.001l-0.005-0.002l-0.007,0l-0.004,0h-0.008l-0.004-0.001h-0.008l-0.005,0.001v0.001l-0.002,0.002
		l-0.002,0.002l-0.006,0.003l-0.006,0.003h-0.008l-0.005,0l-0.005,0l-0.009-0.004l-0.005-0.003l-0.006-0.004l-0.003-0.004
		l-0.004-0.005l-0.003-0.003l-0.002-0.004l0.001-0.002h0.001l0.001,0l0-0.003l-0.002-0.002H19.52l-0.002-0.001l-0.001-0.001
		l0-0.002l-0.003-0.011l-0.001-0.011l-0.001-0.007V30.66l0.001-0.008l0.002-0.006l0.004-0.007l0.003-0.005l0.007-0.004l0.005-0.002
		l0.003-0.004l0.004-0.001l0.005-0.001l0.003-0.001l0.005-0.002l0.002-0.004v-0.005l-0.003-0.002h-0.003l-0.005,0l-0.006-0.002
		l-0.005-0.001l-0.005,0l-0.006,0.001l-0.004,0.002l-0.006,0.002l-0.005,0.001l-0.004,0.003l-0.004,0.003l-0.004,0.002
		l-0.007,0.003l-0.008-0.003l-0.005-0.004l-0.002-0.005l-0.001-0.003v-0.004l0.002-0.005l0.003-0.007l0.005-0.006l0.006-0.002
		l0.004-0.002l0.001-0.003l0-0.004l-0.003,0l-0.005,0h-0.004l-0.001-0.003l-0.001-0.003l0-0.004l0.001-0.001l0.001-0.002
		l-0.004-0.002V30.55l0.002-0.005l0.001-0.005l0.002-0.004l0.004-0.004l0.005-0.004l0.005-0.006l0.002-0.002l0.002-0.004
		l0.004-0.003l0.004-0.003l0.003,0l0.003-0.003l0.002-0.005l0.002-0.003l0.004-0.001l0.006-0.002l0.004-0.005l0.003-0.005l0-0.005
		l-0.001-0.005l-0.002-0.003l-0.003-0.001l-0.004,0l-0.003,0.001l-0.002,0.003l-0.003,0.002l-0.004,0l-0.003-0.002l0-0.005v-0.004
		l0-0.004v-0.004l-0.002-0.005l-0.001-0.005l-0.002-0.001l-0.003,0l-0.004-0.002V30.44l-0.001-0.003v-0.005l0.002-0.003
		l0.002-0.001l0.001-0.003L19.5,30.421l-0.001-0.003l0.001-0.005L19.5,30.41l0.002-0.006l0.001-0.005l0-0.006l0.003-0.007
		l0.001-0.005l0.003-0.005l0.003-0.003l0.001-0.005V30.36l0-0.004l0.002-0.005l0.003-0.004l0.001-0.005l0.003-0.004l0.003-0.005
		l0.002-0.004l0.004-0.004l0.002-0.003l0.001-0.003l0.004-0.002h0.005l0.004,0h0.002l0.003-0.003h0.003l0.003,0l0.001-0.005v-0.004
		v-0.003l0.003-0.004l-0.001-0.004l-0.002-0.003l-0.002-0.004l-0.004-0.002l-0.003-0.002l-0.002-0.004l-0.005-0.003l-0.005-0.002
		l-0.006-0.001l-0.002-0.002v-0.004v-0.006l-0.005-0.002l-0.004-0.001h-0.005l-0.002-0.003l0.002-0.004l0-0.003l0-0.005
		l-0.001-0.005l-0.001-0.006l0.003-0.004l0.005-0.004l0.003-0.004l0.004-0.003l0.002-0.003l0.001-0.004l0.002-0.002l0.004,0
		l0.006-0.002l0.003-0.003h0.005l0.006,0l0.002,0.004l0.003,0.005l0.005,0.002l0.005,0.002l0.004,0.002l0.001,0.004l0.001,0.004
		l0.005,0.001l0.003-0.001l0.002-0.001l0.006,0l0.005-0.003l0.004,0l0.004-0.003l0.002-0.003l0.005-0.003l0.002-0.003l0.001-0.007
		l0-0.005l-0.001-0.005l0.001-0.008l0-0.004l-0.002-0.01l-0.002-0.004l-0.001-0.005l0.001-0.005l0.002-0.003l0.003-0.004
		l0.004-0.002l0.002-0.004v-0.003l-0.002-0.004l-0.002-0.002h-0.003l-0.002,0.001l-0.002-0.002v-0.003v-0.003l-0.001-0.005
		l-0.002-0.006l-0.003-0.006l-0.003-0.003l-0.005-0.005l-0.007-0.002l-0.007-0.002l-0.005-0.001l-0.004-0.002l-0.003-0.004
		l-0.001-0.004v-0.006l0.002-0.003l0.001-0.006l-0.002-0.005l0.001-0.005l0.001-0.005l0.002-0.005l0.002-0.005l0-0.005l0.001-0.006
		l0.003-0.005l0.002-0.003l0.003-0.002h0.002l0.001-0.003l-0.002-0.004l-0.001,0V30l0.002-0.006l0.002-0.003l0.003-0.005
		l0.004-0.005l0.005-0.007l0.005-0.006l0.004-0.006l0.004-0.006l0.008-0.009l0.004-0.006l0.004-0.006l0.004-0.002l0.003-0.008
		l0.004-0.008l0.006-0.008l0.005-0.005l0.004-0.006l0.003-0.01l0.002-0.005l0.001-0.003l0.001-0.006l0.002-0.005l0.004-0.003
		l0.006-0.002l0.003-0.004l0.005-0.003h0.003l0.003,0.002l0.002,0.005l0.002,0.003l0.028-0.021l0.005-0.002l0.003-0.001h0.003
		l0.036,0.026l0.002,0.004l0.001,0.005l0.002,0.002l0.004,0.001l0.002-0.001l0.003-0.008l-0.001-0.003l-0.01-0.007l-0.001,0.002
		l-0.033-0.025l0.001-0.002l0.006,0l0.001,0l0-0.005v-0.004l0-0.005l0.003-0.006l0.003-0.003l0.004-0.002l0.002-0.005v-0.007
		l0.002-0.005l0.002-0.006l0.002-0.007l0.006-0.009l0.002-0.006l0.004-0.006l0.004-0.005l0.002-0.005l0.003-0.006l0.001-0.005
		l0.003-0.007l0.004-0.004l0.002-0.003l0.005-0.006l0.003-0.006l0.005-0.009l0.003-0.008l0.004-0.008l0.005-0.008l0.004-0.005
		l0.003-0.012l0.003-0.004l0.005-0.007l0.004-0.005l0.004-0.008l0.005,0l0.004-0.003l0.001-0.003l-0.003-0.002l0.001-0.005
		l0.006-0.013l0.003-0.007l0.004-0.004l0.002-0.006l0.001-0.002l0-0.004l0.002-0.005l0.003-0.003l0.004-0.003l0.002-0.004v-0.008
		l-0.001-0.002l-0.003-0.002l-0.002-0.001l-0.002,0l0-0.003l0-0.004l0-0.006v-0.007l-0.001-0.002l-0.003-0.004l-0.002,0
		l-0.003,0.001h-0.004l-0.004-0.001l-0.004-0.001l-0.003-0.002l-0.001-0.003l-0.002-0.005l-0.002-0.004l-0.002-0.004v-0.004
		l-0.002-0.006l-0.001-0.006v-0.007l-0.002-0.003l0-0.007v-0.003l0-0.006l0.001-0.007l0.001-0.004l-0.002-0.005l-0.002-0.002
		l-0.001-0.005v-0.011l-0.001-0.005l-0.002-0.006l-0.003-0.004l-0.004-0.004v-0.009l0-0.005l-0.003-0.002l-0.003-0.002
		l-0.004-0.004l-0.003-0.005l-0.004-0.006l-0.004-0.005l-0.005-0.005l-0.011-0.009l-0.005-0.002l-0.007-0.001l-0.006-0.002
		l-0.004,0H19.78l-0.006,0.001l-0.009-0.001l-0.007-0.002l-0.009-0.002l-0.006-0.001h-0.006h-0.009l-0.009-0.003l-0.003-0.001
		l-0.003-0.005l-0.003-0.006l-0.003-0.003l-0.006-0.009l-0.005-0.005l-0.004-0.009l-0.001-0.006l-0.001-0.004l-0.002-0.008
		l-0.003-0.007l-0.004-0.004l-0.004-0.006l-0.006-0.004l-0.01-0.01l-0.004-0.003l-0.004-0.006l-0.002-0.004l-0.006-0.021v-0.007
		L19.64,29.2l-0.001-0.008v-0.007v-0.007l-0.003-0.007l-0.004-0.004l-0.001-0.006l0-0.011l0-0.008l0.002-0.011l0-0.005l0-0.004
		l-0.003-0.006l0.026-0.015l-0.002-0.004l-0.026,0.016l-0.005-0.004l-0.004-0.006l-0.002-0.007l-0.004-0.004l-0.003-0.005
		l-0.002-0.006l-0.004-0.008l-0.01-0.007l-0.004-0.004l-0.006-0.004l-0.007-0.005l-0.006-0.003l-0.004-0.004l-0.003-0.009
		l-0.002-0.005l-0.001-0.006l-0.001-0.005V29.01l0.002-0.004l0.003-0.003l0-0.003l-0.003-0.006l-0.005-0.005l-0.001-0.004
		l-0.001-0.005v-0.006l0.001-0.005l-0.002-0.007l-0.002-0.004l0-0.004l0.001-0.002l0-0.004l-0.001-0.003h-0.003l-0.003,0.001
		l-0.002-0.001l-0.002-0.006l-0.004-0.003l-0.006-0.004l-0.003-0.004l-0.002-0.005l-0.001-0.004l-0.003-0.008l-0.004-0.004
		l-0.004-0.002l-0.005,0l-0.007,0.001l-0.003,0.002l-0.003-0.001h-0.007l-0.003,0.001l-0.002,0l-0.003,0.002H19.47l-0.003-0.002
		l-0.003-0.002l-0.003-0.006l-0.005-0.001l-0.004-0.006l-0.003-0.001l-0.004-0.001l-0.004-0.002l-0.003-0.006l-0.005-0.005
		l-0.006-0.003l-0.006-0.003l-0.005-0.005l-0.005-0.004l-0.008-0.005l-0.005-0.004l-0.005-0.001l-0.004-0.004l-0.002-0.003
		l-0.006-0.005l-0.007-0.002l-0.003-0.001l-0.003-0.005l-0.005-0.001l-0.006-0.003l-0.003-0.002l-0.002-0.001l-0.002-0.004
		l0.002-0.019l-0.003,0l-0.001,0.019l-0.006,0.002l-0.004,0.002l-0.004,0h-0.007l-0.004,0l-0.004-0.001l-0.004-0.002v-0.029h-0.003
		v0.03l-0.002,0.004L19.3,28.819l-0.005,0.001l-0.004,0.001l-0.006,0l-0.007,0.002l-0.006,0.001l-0.005,0.001l-0.006,0.001
		l-0.006,0.003l-0.004,0.002l-0.007,0.004l-0.007,0.002l-0.007,0.003l-0.007,0.004l-0.004,0.002l-0.006,0.003l-0.006,0.004
		L19.2,28.857l-0.008,0.003l-0.006,0.003l-0.006,0.002l-0.006,0.003l-0.005,0.003l-0.007,0.002l-0.006,0.002l-0.005,0.001
		l-0.007,0.002l-0.005-0.001l-0.005,0l-0.007,0l-0.003,0l-0.002,0.003v0.002l0.001,0.005l-0.002,0.002l-0.003,0.005l-0.002,0.001
		l-0.001,0.003l0.001,0.003l0.003,0.006l0.001,0.002l-0.001,0.005l-0.005,0.005l-0.001,0.007l-0.003,0.005l-0.005,0.006
		l-0.005,0.005l-0.003,0.004l-0.005,0.004l-0.003,0.007l-0.003,0.005l-0.003,0.005l-0.006,0.005l-0.004,0.008l-0.005,0.003
		l-0.002,0.004l-0.004,0.003l-0.007,0.001l-0.003,0.001l-0.004-0.001l-0.004,0.002l-0.002,0.004v0.004l-0.002,0.005l-0.003,0.005
		l-0.004,0.005l-0.002,0.002l-0.006,0.008l-0.003,0.005l-0.003,0.006l-0.007,0.004l-0.005,0.004l-0.003,0.004l-0.002,0.005
		l-0.003,0.006l0.002,0.004l0.002,0.004l0.004,0.002l0.004,0.003l0.001,0.004l0.003,0.005l-0.001,0.004l-0.002,0.009l-0.001,0.006
		l-0.001,0.006l-0.003,0.008l-0.003,0.01l-0.002,0.005l-0.003,0.003l-0.004,0.007l-0.001,0.002l-0.002,0.004l0.001,0.008l0,0.004
		l-0.002,0.004l-0.004,0.003l-0.001,0.005l0.001,0.002l0.003,0.006l0.001,0.004l-0.001,0.003l-0.003,0.004v0.005l-0.003,0.003
		l-0.004,0.004l-0.004,0.006l-0.001,0.004l-0.001,0.004l-0.003,0.003l-0.003,0.008l0,0.006l0.002,0.005l0.003,0.002l0.003,0.002
		l0,0.006l-0.001,0.003l-0.003,0.002v0.002l-0.004,0.004l0.002,0.004l0.002,0.002l0.001,0.006l-0.001,0.01L18.959,29.3
		l-0.005,0.011l-0.005,0.007l-0.005,0.008l-0.004,0.01l-0.005,0.007l-0.005,0.003l-0.006,0.001l-0.006,0l-0.003,0.004l0.001,0.003
		l0.003,0.003v0.005l-0.003,0.006l0,0.003l-0.001,0.007l0,0.007v0.006l0.004,0.003l0.003,0.002l0.001,0.004l-0.002,0.005
		l-0.002,0.004l0,0.005l0.002,0.003l0,0.004l0,0.006l0,0.007v0.003l0.002,0.006l-0.002,0.005l-0.005,0.002l-0.005,0.003
		l-0.001,0.008l-0.001,0.003l-0.004,0.002l-0.003,0.005l0,0.007l0.001,0.004l0.002,0.006l0.003,0.003l0.004,0.005l0.007,0.006
		l0.004,0.002l0.006,0.004l0.004,0.005l0.003,0.003l0.004,0.004l0.003,0.005l0.002,0.007l0.001,0.008l0.001,0.009l0.001,0.011
		v0.011l-0.001,0.01l0,0.014l-0.004,0.005l-0.003,0.004l0,0.006l-0.001,0.004l-0.003,0.005l0,0.008l-0.001,0.007l-0.002,0.008
		l-0.002,0.007l0.002,0.004l0.003,0.004l0,0.009l0.002,0.004l0.001,0.006l0.001,0.004l0.002,0.003l0.002,0.006v0.005l0,0.006
		l0.002,0.005l0,0.01l-0.001,0.006l-0.002,0.002l-0.004,0.002l-0.004,0.007l-0.001,0.006l0,0.004l-0.005,0.009l-0.001,0.005
		l-0.003,0.003l-0.004-0.001l-0.006,0l-0.007,0.005l-0.002,0.005l-0.004,0.009v0.005v0.006l0.001,0.007l-0.005,0.008l-0.002,0.005
		l-0.003,0.002l-0.005,0.001l-0.004,0.004l-0.008,0.005l-0.008,0.004l-0.005,0.004l-0.004,0.001l-0.008,0.002h-0.005l-0.004,0.005
		l-0.006,0.002l-0.005,0l-0.003,0.002l-0.006,0.002l-0.004,0l-0.005,0.001l-0.006,0.002l-0.003-0.002h-0.003l-0.005,0.002
		l-0.007,0.001l-0.004-0.002l-0.001-0.003l-0.004,0l-0.007,0.001l-0.006-0.001h-0.009l-0.007,0.003l-0.007,0.002l-0.006,0.006
		l-0.007,0.003l-0.007,0.001l-0.005,0.003l-0.008,0.003l-0.006,0.002l-0.005,0.003l-0.012,0.006l-0.003,0.007L18.673,29.9
		l-0.005,0.004l-0.005,0.003l-0.006,0.004l-0.007,0.001l-0.006-0.001l-0.002-0.003l-0.002-0.003l-0.004,0l-0.005,0.004l-0.005,0
		l-0.002,0.003l-0.004,0.001l-0.005,0l-0.005,0.001l-0.005,0.001l-0.007,0.005l-0.007,0.002l-0.01,0.003l-0.006,0.003l-0.008,0.004
		l-0.007,0.002l-0.008,0h-0.006l-0.004,0.001l-0.003,0.008l-0.001,0.006l-0.001,0.008l0.002,0.005l0,0.004v0.007l0,0.006
		l0.001,0.005l0.004,0.007l0.002,0.008l0.002,0.007l0.002,0.006l0,0.007l0.002,0.007l-0.002,0.005l0.001,0.008l0.003,0.007
		l0.001,0.007l0.002,0.007l0.001,0.004l0.002,0.005l0.003,0.004l0.004,0.006l0.004,0.004l0.004,0.008l0,0.006l0,0.007l-0.004,0.009
		l-0.003,0.005l-0.002,0.007l-0.001,0.01l-0.003,0.004l-0.002,0.004l-0.003,0.005l-0.002,0.006l-0.002,0.002l-0.006,0.007
		l-0.003,0.005l-0.001,0.008l-0.001,0.006l-0.001,0.008v0.008l0.002,0.006l0.002,0.007l0.005,0.01l0.005,0.006l0.004,0.008
		l0.003,0.006l0.003,0.006l0.002,0.005l0.002,0.004l0,0.005l0,0.004l-0.002,0.003l-0.001,0.004l0.003,0.004l0.004,0.004
		l0.005,0.006l0.001,0.005l0.002,0.005l0.002,0.007l0.001,0.006l0.001,0.004l0.003,0.006l0.005,0.002l0.002-0.002l0.003-0.001
		l0.004,0.003l0.005,0.003l0.004,0.002l0.006,0.002l0.005,0.001l0.007-0.001l0.008-0.002l0.005-0.003l0.008-0.001l0.006,0
		l0.009-0.001h0.007l0.008,0.001l0.007,0.004l0.002,0.004l0.002,0.005l0.004,0.002l0,0.005l0.006,0.003l0.007,0.002l0.005-0.001
		l0.005-0.003l0-0.003l0.001-0.001l0.006-0.003l0.006-0.001l0.007,0l0.006-0.001l0.005-0.002l0.006-0.002l0.007-0.001h0.01
		l0.003,0.003l0.001,0.003l-0.001,0.003l-0.002,0.003l-0.002,0.005v0.007l-0.001,0.003l-0.002,0.005l0,0.006l0.001,0.008
		l0.002,0.008l0.002,0.003l0,0.003l0.002,0.004l0.005,0.004l0.005,0.003l0.004,0.004l0.003,0.005l0.005,0.001l0.005,0.002
		l0.01,0.002l0.004-0.001l0.002-0.002l0.004-0.001l0.006,0.002l0.004,0.003l0.001,0.003l0,0.004l0.003,0.005l0.006,0.004
		l0.005,0.002l0.007,0.001l0.005-0.001l0.002-0.002l0.006,0l0.002,0.002h0.005l0.006,0.001l0.004-0.002l0.005-0.004l0.004-0.006
		l0.002-0.003l0.002,0.001l-0.004,0.013l-0.001,0.004L18.9,30.449l-0.007-0.001l-0.007,0l-0.005,0.001l-0.004,0.002l-0.001,0.005
		l0.001,0.003l0.005,0.001l0.002,0.001l0.001-0.003l-0.005-0.001l0-0.003l0.002-0.001l0.003,0l0.005,0l0.003,0.001l0.006,0
		l0.002-0.001l0.003-0.004l0-0.002l0.002,0.001l-0.004,0.007l0.003,0.001l0.002-0.003l0.002-0.003l0-0.002l-0.002-0.005l0-0.001
		l0-0.004l0.001-0.004l0.003-0.001l0.005-0.001l0.006,0.001l0.005,0.001l0.005,0.002v0.005l-0.003,0.004l0.004,0.005l0.001,0.001
		l-0.003,0.006l0,0.008l-0.003,0.008l-0.001,0.004v0.006v0.007l-0.002,0.008l-0.003,0.005l-0.001,0.005v0.008l-0.002,0.01
		L18.92,30.53l0.001,0.003l0.002,0.003l0.005,0.003l0.007,0.003l0.005,0.004l0.009,0.003l0.007,0.007l0.006,0.003h0.006
		l0.007,0.001l0.006,0.002l0.008,0.002h0.004L19,30.568l0.002,0.005l0.004,0.001l0.005,0.002l0.004,0.004l0.003,0.007l0.003,0.008
		l0.001,0.01l0.001,0.004l0.001,0.008l0.003,0.005v0.004l-0.001,0.004l-0.004,0.008l-0.001,0.006l0.004,0.005l0.003,0.001
		l0.001,0.006l0.002,0.004l0.003,0.004l0.002,0.006l0.002,0.007l0.003,0.003l0.001,0.004l0.002,0.004l0.005,0.004l0.004,0.007
		l0.004,0.006v0.005l0,0.005l-0.001,0.009l-0.002,0.005l-0.004,0.005l0,0.005l-0.002,0.003l-0.004,0.003l-0.001,0.002l-0.005,0.001
		l-0.003,0.002l-0.002,0.005l0.002,0.011l-0.001,0.007l0,0.004l-0.001,0.005L19.03,30.79l0,0.006l0,0.005l-0.001,0.007
		l-0.079-0.028l-0.002,0.006l0.083,0.03l0.001,0.008l0.001,0.003l0,0.006l-0.001,0.005l-0.002,0.007l0,0.008l-0.001,0.007
		l-0.003,0.004l-0.003,0.005l-0.002,0.003l0.002,0.004l0.008,0.005l0.005,0.003l0.007,0.003l0.003-0.002l-0.001-0.004V30.88
		l0.005-0.004l0.002-0.006l-0.002-0.002l-0.002-0.004l0.002-0.004l0.002-0.003l-0.001-0.005l0.001-0.001l0.004-0.001l0.002,0.004
		l0.001,0.006l0.003,0.003l0.006,0.003l0.002,0.002l-0.005,0.002l-0.005,0.002l0.002,0.004l0.003,0.001l0.008-0.002l0.004,0.003
		l0.004,0.005l0.002,0.005l-0.003,0.002l-0.005,0.001l-0.001,0.003l0,0.004l-0.002,0.003l-0.002,0.004l0.003,0.003h0.004
		l0.007-0.003l0.005-0.005l0.005-0.004l0.006-0.004l0.005-0.002l0.006-0.002l0.008-0.001l0.004,0l0.008,0.003l0.004,0.002
		l0.002,0.004l0.004,0.002l0.007-0.001l0.004,0.002l0.003,0.005l0.005,0.002l0.005,0.004l0.007,0.004l0,0.006l0,0.005l0.004,0.004
		l0.006,0l0.005-0.002l0.007,0l0.003,0.002l0.005,0.001l0.002,0.001l0.004,0.006l0.006,0.001h0.003l0.009,0l0.006-0.005
		l0.004-0.005l0.003-0.004l0.005-0.004l0.005-0.003l0.005-0.002l0.001-0.004V30.91l-0.005-0.005L19.26,30.9l0.004-0.001
		l0.005-0.001l-0.002-0.004V30.89l0.002-0.002l0.003-0.003L19.275,30.88L19.275,30.88L19.275,30.88z"/>
	<path id="path11727" fill="#AAAAAA" d="M19.826,28.823l0.001-0.006v-0.004l-0.002-0.003l-0.003-0.003l-0.004-0.003l-0.006,0
		L19.806,28.8l-0.003-0.001l-0.006,0l-0.004-0.001l-0.003,0l-0.003,0.001l-0.002,0.003l0,0.004l0.003,0.007h0.006l0.003,0.001
		l0.003,0.002l0.001,0.003l0.001,0.006l0,0.004l0.001,0.005l0,0.003l0.004,0.001h0.004l0.006-0.002l0.003-0.003l0.002-0.004
		l0.002-0.002L19.826,28.823z"/>
	<path id="path11729" fill="#AAAAAA" d="M19.685,28.59l-0.005-0.005l-0.004-0.004l-0.005-0.004l-0.004-0.003l-0.004-0.003
		l-0.005-0.003l-0.005-0.003l-0.006-0.002l-0.004-0.002h-0.007l-0.005,0.001l-0.006,0.002l-0.005,0.001l-0.003,0.003l-0.003,0.002
		l-0.002,0.002h-0.006l0.003,0.003h0.004l0.006,0l0.004-0.001h0.004l0.003,0.001l0.004,0.005l0.004,0.005l0.005,0.001l0.004,0.003
		l0.003,0.003l0.006,0.002l0.006,0.002l0.004,0.002l0.006,0l0.004,0.005l0.006,0.005l0.004,0.004l0.005,0.003l0.004,0h0.003
		l0.002-0.003v-0.002l-0.002-0.005l-0.002-0.003L19.693,28.6l-0.002-0.002l-0.002-0.002L19.685,28.59z"/>
	<path id="path11731" fill="#AAAAAA" d="M19.576,28.523l0.006,0l0.003-0.001l0.002-0.002l0-0.004l-0.001-0.002l-0.003-0.002
		l-0.002,0l-0.001,0.003l-0.002,0.002l-0.004,0h-0.003v0.002l0.001,0.001L19.576,28.523z"/>
	<path id="path11733" fill="#AAAAAA" d="M19.49,28.467l0.007-0.001l0.003-0.002l0-0.004l0.003-0.005l0.004-0.003l0.002-0.004
		l0-0.003l-0.003-0.001l-0.004,0.001v0.005l-0.002,0.002L19.5,28.457l-0.003,0.004l-0.005,0.002l-0.005-0.001l-0.003-0.001
		l-0.002-0.002l-0.001,0.001l0.002,0.004l0.003,0.002l0.003,0.001L19.49,28.467z"/>
	<path id="path11735" fill="#AAAAAA" d="M19.455,28.423l0.003-0.003l0.004-0.004l0.002-0.005v-0.004l-0.001-0.008v-0.005
		l-0.002-0.008l-0.004-0.004l-0.006-0.006l-0.005-0.005l-0.007-0.009l-0.008-0.007l-0.006-0.008l-0.005-0.002l-0.006-0.005
		l-0.005-0.006l-0.006-0.004l-0.01-0.008l-0.007-0.005l-0.009-0.005l-0.009-0.004l-0.005-0.005l-0.008-0.003l-0.007-0.005
		l-0.006-0.004l-0.005-0.004h-0.003l-0.004,0.003l-0.006,0.002l-0.002,0.005l-0.006,0.003l-0.007,0.004l-0.004,0.006l-0.005,0.008
		l-0.005,0.007l-0.007,0.003L19.28,28.33l-0.01,0.003h-0.011l-0.005,0.003L19.25,28.34l-0.001,0.004l0.001,0.004l0.004,0
		l0.004-0.001l0.004-0.002l0.005-0.003l0.007-0.004l0.004-0.004l0.005-0.002l0.004-0.001l0.003,0l0.006-0.001l0.005-0.002
		l0.005-0.002l0.005-0.002l0.004-0.003l0.004-0.003h0.006l0.005,0.002l0.004,0.001l0.005,0.003l0.004,0.003l0.007,0.006
		l0.008,0.006l0.005,0.005l0.008,0.006l0.01,0.008l0.005,0.007l0.009,0.006l0.006,0.005l0.006,0.005l0.004,0.004l0.004,0.004
		l0.001,0.006l0.004,0.005l0.004,0.005l0.004,0.002l0.003,0.004l0.001,0.003l0.004,0.002l0.002,0.006l0.002,0.002l0.002,0
		l0.002-0.001L19.455,28.423z"/>
	<path id="path11737" fill="#AAAAAA" d="M19.255,28.296l0.004-0.005l0-0.004v-0.002l0-0.003l0.002-0.004l0.001-0.005l-0.001-0.004
		l0-0.005l0.002-0.004l0.002-0.004l-0.002-0.003l-0.002-0.003l-0.004-0.005l-0.002,0l-0.004,0.002L19.25,28.25l-0.002,0.004
		l-0.001,0.005v0.004l-0.002,0.003v0.008l0.002,0.002v0.005l-0.001,0.004l0.001,0.005l-0.001,0.004l0.002,0.003l0.003,0.003
		l0.002-0.001v-0.002L19.255,28.296z"/>
	<path id="path11739" fill="#AAAAAA" d="M19.345,28.274l-0.001-0.002v-0.003l-0.002-0.002l-0.003-0.001l-0.001,0.003l0.001,0.004
		l0.002,0.004l0.002,0.002l0.001-0.001V28.274z"/>
	<path id="path11741" fill="#AAAAAA" d="M20.376,29.711l0.005-0.01l0.007-0.003h0.007l0.006-0.001l0.007-0.003l0.008-0.006
		l0.003-0.001l0.002-0.008v-0.005l-0.002-0.005l-0.005,0l-0.008,0.002l-0.008,0.001h-0.002L20.4,29.67l0.005-0.003l0.005-0.001
		h0.005l0.001-0.003l-0.004-0.005l-0.005-0.005l-0.005-0.001L20.4,29.656l-0.004,0.002l-0.001,0.003l-0.001,0.005l-0.002,0.005
		l-0.002,0.004l-0.005,0.001l-0.001,0.003l0.001,0.002l0.001,0.004l-0.002,0.008l-0.003,0.004l-0.005,0.005l-0.004,0.006l0,0.003
		l0.001,0.004l0.003,0v0l0.001-0.002L20.376,29.711z"/>
	<path id="path11743" fill="#AAAAAA" d="M20.447,29.918l-0.007-0.002h-0.007l-0.004,0.002l-0.004,0l-0.003,0.003l0.001,0.002
		l0.003,0.002l0.002,0.003l0.004,0.004l0.002,0.005l0.007,0.001h0.006l0.005-0.001l0.002-0.001l0.005,0.001l0.006,0.002
		l0.008-0.001l0.007,0.001l0.008,0h0.007l0.002-0.001v-0.004V29.93l-0.001-0.003l-0.001-0.004v-0.004l-0.002-0.004l-0.002-0.002
		l-0.005,0l-0.005,0.001l-0.007,0.002l-0.003,0l-0.003-0.001l-0.003,0.001l-0.005,0.003l-0.004,0.002h-0.004L20.447,29.918
		L20.447,29.918L20.447,29.918z"/>
	<path id="path11745" fill="#AAAAAA" d="M19.803,31.494l0.003-0.008l0.002-0.004l0.004-0.012l0-0.008l0.001-0.008l0.004-0.006
		l0.003-0.008v-0.005l-0.001-0.009l0.002-0.006l0.001-0.005l-0.001-0.006l-0.002-0.005l0-0.005v-0.012l-0.001-0.008l-0.003-0.012
		l-0.003-0.01l-0.005-0.011l-0.002-0.006V31.33l-0.001-0.009L19.8,31.313l-0.004-0.008l-0.001-0.009l-0.001-0.017l-0.001-0.007
		l0-0.01v-0.009l0-0.009l0.001-0.019l0-0.016l-0.002-0.009l-0.002-0.006l-0.004-0.003l-0.002-0.002l-0.01-0.001l-0.005-0.002
		l-0.002,0.002l-0.003,0.004l-0.004,0.001l-0.006,0.003l-0.006,0L19.741,31.2l-0.006,0.002l-0.004,0.003l-0.004,0.003l-0.003,0
		l-0.002,0.002l0,0.006l0.005,0.006l0.006,0.002l0.003,0.004l0.003,0.003l0.004,0.006l0.004,0.006l0.005,0.008l0.002,0.007
		l0.003,0.009l0.001,0.01l0.002,0.008v0.021l0,0.014v0.008l-0.002,0.006l-0.002,0.003l-0.006,0.005l-0.003,0.003l-0.002,0.007
		l0,0.006l-0.001,0.008l0.004,0.008l0.005,0.004l0.008,0.001l0.006-0.001l0.007-0.001l0.005-0.001l0.005,0l0,0.006l0.007,0.009
		l0.002,0.009l0,0.011l0,0.008l-0.002,0.005l-0.002,0.011l-0.003,0.008l-0.005,0.012l-0.005,0.007l-0.003,0.01l-0.009,0.01
		L19.76,31.49h-0.008l-0.003,0.003V31.5l0.002,0.006l0.004,0.004l0.002,0.004l0.003,0.005l0,0.006v0.007l0.002,0l0.003-0.002
		l0.002,0h0.006h0.003l0.005-0.004l0.006-0.006l0.005-0.008l0.004-0.007l0.002-0.005L19.803,31.494z"/>
		<path id="path3674" fill="#AAAAAA" d="M22.903,32.279l0.017-0.012l0.021-0.015l0.022-0.016l0.015-0.011l0.02-0.013l0.007-0.007
			l0.012-0.009l0.009-0.007l0.008-0.011l0.015-0.01l0.017-0.011l0.011-0.01l0.015-0.01l0.016-0.011l0.017-0.009l0.015-0.012
			l0.014-0.007l0.013-0.005l0.005-0.006l0.021-0.009l0.016-0.007l0.012-0.003l0.009-0.005l0.013-0.004l0.011-0.004l0.012-0.005
			l0.014-0.005l0.013-0.004l0.01-0.005l0.011-0.007l0.008-0.004l0.01-0.004l0.009-0.003l0.008-0.004l0.009-0.003h0.008l0.002,0.001
			l0.011-0.001l0.005-0.006l0.006-0.006l0.005-0.003l0.007-0.003l0.009-0.006l0.008-0.005l0.007-0.006l0.008-0.005l0.006-0.004
			l0.001-0.003l0.006-0.004l0.002-0.001l0-0.005l0.001-0.003l-0.002-0.003l0-0.006l-0.001-0.002l-0.001,0l-0.002,0.001l-0.002,0.005
			l0,0.003l-0.011-0.001l-0.017-0.006l-0.009-0.004l-0.009-0.006l-0.008-0.003l-0.007-0.005l-0.007-0.005l-0.003-0.004L23.372,31.9
			l0.004-0.002l0.003-0.001v-0.002l-0.002-0.002l-0.002-0.001l-0.002,0l-0.002,0l-0.002,0l0,0.002h-0.01l-0.005-0.002l-0.002-0.002
			l-0.003-0.004h-0.004v0.005l-0.002,0.002l-0.002,0.001l-0.001-0.002l-0.004,0.001l-0.002,0.001l-0.006,0.001l-0.011,0.002
			l-0.01-0.001l-0.006,0.002l-0.008,0.001l-0.008,0.002l-0.021,0l-0.018,0h-0.009l-0.015,0L23.21,31.9h-0.009l-0.01-0.003
			l-0.011-0.001l-0.012,0l-0.009,0h-0.006l-0.01,0.002l-0.008,0l-0.011-0.002l-0.01-0.002l-0.012-0.003l-0.013-0.003l-0.016-0.007
			l-0.006-0.005l-0.008-0.005l-0.008-0.007l-0.009-0.011l-0.009-0.012l-0.007-0.012l-0.005-0.009l-0.001-0.008l-0.004-0.01
			l-0.004-0.009l-0.006-0.004l-0.001-0.003l0-0.006v-0.009l0.001-0.006l-0.002-0.005l-0.004-0.001l-0.006-0.004l-0.005-0.002
			l-0.005,0.001l-0.004,0l-0.009-0.003l-0.007-0.001l-0.007,0.003l-0.003,0.001l-0.007,0l-0.009-0.003l-0.009-0.001l-0.011,0
			l-0.007,0l-0.005-0.003L22.9,31.744l-0.006-0.002l-0.005-0.001h-0.007l-0.003,0.001l-0.003,0h-0.003l-0.002,0.003l-0.002,0h-0.003
			l-0.013-0.005l-0.007-0.001l-0.008,0l-0.006-0.002l-0.007-0.002l-0.01,0l-0.006,0l-0.007,0.002l-0.007-0.001h-0.005l-0.003,0.001
			l-0.005-0.001h-0.003l-0.002,0.003l-0.003,0.001l-0.003,0.001l-0.008,0l-0.008,0.003l-0.005,0.003l-0.002,0.004l-0.002,0.003
			l-0.006,0h-0.016l-0.008,0l-0.007,0.001l-0.008,0.003l-0.01,0.003l-0.009,0.005L22.67,31.77l-0.008,0.002l-0.007,0.002
			l-0.009,0.003l-0.007,0.001l-0.003,0l-0.002,0.004l-0.006,0.001l-0.007-0.002l-0.009-0.001l-0.007,0.001l-0.009,0l-0.004,0.003
			l-0.007,0.003l-0.004,0.003l-0.006,0.002l-0.005,0.001l-0.006,0.003l-0.005,0.004l-0.006,0.005l-0.005,0.005l-0.012,0.012
			l-0.007,0.007l-0.007,0.006l-0.008,0.003l-0.006,0.004l0,0l-0.007,0.004l-0.012,0.005l-0.01,0.009l-0.006,0.004l-0.01,0.005
			l-0.007,0.005l-0.011,0.007l-0.005,0.005l-0.004,0.003l-0.007,0.004l-0.005,0.004l-0.007,0.006l-0.006,0.006l-0.006,0.006
			l-0.005,0.007l-0.004,0.005l-0.003,0.003l-0.006,0.013l-0.004,0.01l-0.005,0.011l-0.005,0.012l-0.002,0.007l0.001,0.005
			l0.001,0.011l0.002,0.012l0.001,0.007v0.008v0.004l-0.002,0.003l-0.007,0.006l-0.008,0.007l-0.005,0.006l-0.003,0.001l-0.001,0.005
			l-0.002,0.005l-0.002,0.006l-0.003,0.004l-0.001,0.006l-0.001,0.005L22.33,32.1l-0.002,0.003l0,0.002l0,0.007l0.001,0.005v0.006
			l0.002,0.004l0.002,0l0.002,0l0.002,0.001v0.001l-0.001,0.004l0,0.005l0.003,0.003l0.004,0.002l0.004,0.001l0.001,0.001
			l0.001,0.001l0.004,0.002l0.004,0l0.005,0l0.004,0.001l0.006,0.003l0.005,0.002l0.005,0.001l0.005,0.001l0.005,0.001l0.004,0.006
			l0.006,0.004l0.001,0.005l0.002,0.002l0.001,0.003l0,0.003l0.001,0.002h0.003l0.002,0.002h0.003l0.003-0.001l0.001-0.001
			l0.003-0.001l0.004,0.001h0.004l0.002-0.003l0.003-0.003l0.004-0.002h0.005h0.008h0.007l0.005-0.002l0.004,0l0.004-0.001
			l0.004-0.003l0.003-0.002l0.005-0.001h0.017l0.015,0.001l0.018,0.001l0.019,0.003l0.012,0.001l0.013,0.003l0.012,0.001l0.013,0.004
			l0.01,0.005l0.011,0.006l0.007,0.005l0.001,0.004l0.008,0.004l0.012,0.008l0.014,0.007l0.011,0.005l0.012,0.01l0.01,0.008
			l0.006,0.007l0.001,0.007l-0.001,0.005l-0.002,0.004l0,0.007l0,0.005v0.006l-0.001,0.005l0.002,0.006l0.002,0.003v0.003l0,0.005
			v0.005l0,0.004l0,0.004l0.004,0.002l0.003,0.005l0.001,0.004l0.002,0.004l0.003,0.003l0.003,0.005l0.004,0.002l0.002,0.001
			l0.001-0.003v-0.004l0.002-0.003h0.002l0.004,0.004l0.003,0.004l0.004,0l0.001-0.003l0-0.002l0.004-0.002l0.004,0l0.004,0.001
			h0.007l0.004,0.001l0.004,0.003l0.004,0.001l0.005,0h0.004l0.003,0.001l0.003,0.003v0.004l0.002,0.002v0.004l0.002,0.005
			l0.003,0.001l0.002-0.002l0.002-0.002l0.003-0.004l0.001-0.002l0.001-0.004l0.004-0.001l0.005-0.004l0.003-0.003l0.004-0.003
			l0.004-0.001l0.002-0.004l0.004-0.002l0.003-0.004h0.003l0.002,0l0.002-0.003l-0.001-0.003l0.002-0.003l0.004,0l0.003-0.004
			l0.003-0.005l0.004-0.004l0-0.003v-0.003l0-0.005l0.003-0.003l0.006-0.006l0.009-0.005L22.903,32.279L22.903,32.279L22.903,32.279z
			"/>
		<path id="path3676" fill="#AAAAAA" d="M23.361,31.885l0.002,0.001h0.003l0.002-0.001l0-0.001l-0.001-0.002l-0.001-0.001h-0.001
			h-0.002l-0.001,0l0,0.001V31.885L23.361,31.885L23.361,31.885z"/>
		<path id="path3678" fill="#AAAAAA" d="M22.311,31.36l0.004,0.001l0.003-0.001l0-0.002v-0.002l-0.002-0.002l-0.003,0l-0.003,0
			l-0.001,0.001v0.002L22.311,31.36L22.311,31.36L22.311,31.36z"/>
		<path id="path3680" fill="#AAAAAA" d="M22.356,31.372h-0.004l-0.001,0.002v0.003l0.002,0.003l0.002,0.002h0.004l0.001-0.003v-0.002
			l0-0.002l-0.001-0.002L22.356,31.372L22.356,31.372L22.356,31.372z"/>
		<path id="path3682" fill="#AAAAAA" d="M21.654,30.92l0.004,0l0.001-0.002v-0.003l-0.002-0.002l-0.003,0l-0.001,0l-0.001,0.002
			v0.002l0.001,0.001L21.654,30.92L21.654,30.92L21.654,30.92z"/>
		<path id="path3684" fill="#AAAAAA" d="M21.473,30.771h0.002l0.001-0.002l0.001-0.002l-0.001-0.001l-0.001,0h-0.002l-0.002,0.001
			v0.002l0,0.001l0,0.001H21.473L21.473,30.771L21.473,30.771z"/>
		<path id="path3686" fill="#AAAAAA" d="M21.397,30.71l0.002-0.001l0.001-0.001v-0.002L21.4,30.705l-0.002-0.001h-0.002l-0.001,0.002
			v0.002l0.001,0.002h0.001H21.397L21.397,30.71L21.397,30.71z"/>
		<path id="path3688" fill="#AAAAAA" d="M21.3,30.656l0.003-0.004l0.003-0.004l0-0.006l-0.001-0.002l-0.002,0.001L21.3,30.645
			l-0.003,0.005l-0.001,0.006v0.001h0.002L21.3,30.656z"/>
		<path id="path3690" fill="#AAAAAA" d="M21.318,30.641l-0.003,0.004l-0.001,0.003l0.001,0.002l0.002-0.001l0.003-0.004l0.001-0.003
			l-0.001-0.002H21.318L21.318,30.641z"/>
		<path id="path3692" fill="#AAAAAA" d="M21.097,30.603l0.004-0.001v-0.002L21.1,30.595l-0.004,0l-0.001,0.002l0,0.003L21.097,30.603
			L21.097,30.603L21.097,30.603z"/>
		<path id="path3694" fill="#AAAAAA" d="M21.428,31.568h0.004l0.001,0.001h0.003l0.004-0.002l0.001-0.001l-0.001-0.002l-0.003-0.006
			l0-0.005l0.002-0.006l0.004-0.005l0.008-0.006l0.006-0.003l0.004-0.002l0.009-0.002l0.01,0l0.01,0.001l0.007,0.001l0.013,0.002
			l0.008,0.003l0.012,0.006l0.008,0.002l0.015-0.001l0.009-0.001l0.011-0.002h0.011l0.011-0.002l0.014,0l0.008,0.002l0.011,0h0.012
			l0.009,0.002l0.012,0.002l0.012,0.004l0.011,0.003l0.013,0.003l0.01,0.001l0.009,0l0.012,0.001l0.016,0h0.01l0.013,0.001l0.015,0
			h0.01l0.01,0.001h0.011l0.009-0.001l0.009-0.003l0.008-0.005l0.006-0.004l0.009-0.006l0.007-0.001h0.007l0.005,0.002l0.006,0.001
			h0.01L21.9,31.54l0.006-0.003l0.015-0.007l0.01-0.004l0.009-0.003l0.01-0.003l0.014-0.004l0.017-0.001l0.006-0.001l0.006,0l0.006,0
			h0.003l0.003,0.004l0.003,0.002l0.006,0.002l0.007,0.001l0.004,0.002l0.004,0.004l0.003,0.003l0.003,0.003l0.005,0.001l0.005,0.002
			l0.007,0.001l0.005,0.003l0.006,0.004l0.007,0.004l0.004,0.004l0.008,0.003l0.006,0.001h0.007l0.006,0h0.005l0.004,0l0.005,0
			l0.006,0.004l0.008,0.003l0.007,0.002l0.004,0.002l0.009,0.001h0.009l0.008,0l0.008,0l0.008,0l0.006,0.001l0.009,0.001l0.009-0.002
			l0.007,0h0.016l0.013,0.001l0.008,0.001l0.004,0.002h0.009l0.003-0.002h0.007l0.005,0.001l0.006,0l0.007,0.001h0.018l0.02-0.001
			l0.021,0h0.021l0.024,0l0.014,0l0.012-0.002l0.006,0.001l0.004,0.002l0.007,0l0.005-0.003l0.007-0.002l0.009-0.002l0.013-0.004
			l0.009-0.002l0.008-0.002l0.005-0.004l0.004-0.001h0.007l0.009-0.001l0.007-0.001l0.002-0.003l0.004-0.003l0.004-0.006l0.003-0.004
			l0.003-0.005l0.006-0.004l0.007-0.002l0.006-0.001h0.007l0.005-0.002l0.008-0.001l0.007-0.001l0-0.003l0.002-0.001l0.006-0.001
			l0.004,0.001l0.003-0.003l0.004-0.002l0.005-0.002l0.004-0.001l0.005-0.004l0-0.004l-0.002-0.001l-0.001-0.002l0.001-0.004v-0.005
			l-0.001,0l0.001-0.003l0.001-0.002l0.001-0.002l-0.001-0.001l-0.003,0.001l-0.004,0.001l-0.005,0l-0.004-0.002l-0.002-0.002h-0.004
			l-0.002,0.003l-0.002,0h-0.003l-0.003,0l-0.004,0.002l-0.002,0.002l-0.004,0.001l-0.002-0.001l-0.001-0.003l-0.003-0.001h-0.004
			l-0.002,0l-0.003,0.001H22.56l-0.001-0.004l-0.004-0.002l-0.004,0l-0.002,0.001l-0.003-0.002l-0.003-0.001l-0.002,0l-0.004,0
			h-0.008l-0.003,0.002H22.52l-0.002-0.002l-0.004,0.001l-0.002,0.001l-0.002,0.002h-0.004l-0.006-0.002l-0.002,0l-0.002,0
			l-0.004-0.001l-0.004,0.001l-0.003,0.001l-0.001,0l-0.011-0.004l-0.01-0.002l-0.01-0.004l-0.01-0.007l-0.003-0.003l-0.005-0.004
			l-0.004-0.004l-0.005-0.005l-0.006-0.002l-0.003-0.002l-0.003-0.002l-0.005-0.002L22.4,31.43l-0.005-0.005l-0.012-0.013
			l-0.003-0.004l-0.002-0.002l-0.006-0.002L22.368,31.4l-0.007-0.004l-0.005-0.005l-0.004-0.003l-0.005-0.003l-0.005-0.002
			l-0.008-0.005l-0.004-0.004l-0.007-0.001l-0.003,0.001l-0.006-0.002l-0.008-0.001l-0.007,0l-0.006-0.001h-0.004l-0.006,0
			l-0.007-0.001l-0.007-0.004l-0.005-0.004l-0.008-0.002l-0.003-0.001l-0.005,0l-0.006,0l-0.002,0.001l-0.003,0.003l-0.002,0.002
			l-0.008,0.001l-0.005-0.001l-0.01-0.004l-0.007-0.001l-0.008-0.004l-0.004-0.002l-0.007-0.004l-0.006-0.004l-0.003-0.001
			l-0.001-0.002v-0.003l0.002-0.002l0.003-0.002V31.33l-0.001-0.004h-0.002l-0.002,0.001l-0.002,0.001l-0.001,0.002l0.001,0.002
			l0.001,0v0.003l-0.001,0.002l-0.003,0.001h-0.006l-0.012,0l-0.013,0l-0.012-0.001l-0.012-0.001l-0.009-0.003l-0.013-0.002
			l-0.01-0.01l-0.007-0.01l-0.009-0.009l-0.013-0.013l-0.013-0.009l-0.011-0.006l-0.015-0.009l-0.016-0.009l-0.012-0.007l-0.01-0.005
			l-0.006-0.006l0-0.005l-0.001-0.004l-0.006-0.004l-0.004-0.002l-0.002,0.003v0.004l-0.005,0l-0.004-0.005l-0.012-0.01l-0.014-0.01
			l-0.01-0.008l-0.011-0.013l-0.009-0.011l-0.008-0.01l-0.009-0.013l-0.009-0.015l-0.008-0.013l-0.011-0.016l-0.011-0.014
			l-0.01-0.013l-0.014-0.008l-0.013-0.009l-0.015-0.006l-0.009-0.005l-0.005-0.005l-0.006-0.009l-0.005-0.006l-0.01-0.007
			l-0.011-0.005l-0.015-0.007l-0.01-0.006l-0.015-0.009l-0.016-0.01l-0.013-0.007l-0.004-0.007l-0.004-0.01l-0.002-0.005
			l-0.002-0.012l-0.002-0.002l0.003-0.007l0.001-0.006l-0.005-0.005l-0.002,0.003l-0.001,0.006v0.003l-0.005,0.002l-0.006-0.006
			l-0.003-0.007l-0.006-0.012l-0.01-0.012L21.6,30.887l-0.006-0.006l-0.012-0.005l-0.012-0.01l-0.012-0.005l-0.011-0.006
			l-0.008-0.009l-0.006-0.01l-0.001-0.007l0.004-0.007l0.003-0.004v-0.008l-0.002-0.005h-0.005l-0.003,0.001h-0.006l-0.003,0.003
			l-0.002,0.002l-0.008-0.002l-0.008-0.003l-0.012-0.004l-0.011-0.004l-0.005-0.002l0.003-0.003l0.003-0.001l0.001-0.003v-0.004
			l-0.003-0.001l-0.009-0.001l-0.009-0.004l-0.005-0.004l-0.005-0.006l-0.002-0.009l-0.003-0.007l-0.005-0.008l-0.007-0.007
			l-0.006-0.003l-0.006-0.001l-0.007,0.001l-0.006,0.002l-0.005-0.004l-0.005-0.005l-0.007-0.002l-0.005,0l-0.008-0.004l-0.007-0.001
			h-0.007h-0.008l-0.003,0.004l-0.005,0.003l-0.012,0.003h-0.008l-0.003-0.004l-0.004-0.008l-0.003-0.006l0-0.007l-0.005-0.002
			l-0.006-0.003L21.3,30.691l-0.005-0.008l-0.008-0.01l-0.006,0l-0.005,0.002l-0.012-0.004l-0.009-0.005l-0.01-0.005l-0.013-0.004
			l-0.013-0.004l-0.02-0.005l-0.019-0.002l-0.011,0l-0.008,0.006l-0.006,0.003l-0.007-0.001L21.14,30.65l-0.007-0.004l-0.004-0.002
			h-0.004l-0.007,0.003l-0.005,0.002l-0.004,0.001L21.1,30.645l-0.003-0.006l0-0.007v-0.007l0-0.007l-0.003-0.008l-0.006-0.005
			l-0.009-0.009l-0.009-0.012l-0.004-0.013l0-0.01l-0.001-0.008l-0.002-0.004l0.003-0.005l0.001-0.003l-0.003-0.001l0.001-0.007
			l-0.005-0.002l-0.003,0.004v0.002l-0.004,0.003l-0.006,0l-0.002,0.004l-0.005,0h-0.01l-0.007-0.001l-0.006-0.002l-0.005-0.001
			l-0.001-0.002l0-0.005l0.002-0.002l0.001-0.002v-0.004l-0.002-0.002l-0.003,0.001l-0.001,0.004l-0.001,0.005l-0.002,0.004
			L21,30.539l-0.003-0.001l-0.003-0.001l-0.003,0.001v0.004l-0.001,0.004l-0.002,0.002l-0.003,0.002l-0.002,0.002l-0.003,0.002
			l-0.005,0.002l-0.007,0.005l-0.008,0.002l-0.007-0.001l-0.005-0.001l-0.007-0.003l-0.008-0.005l-0.009-0.006l-0.008-0.005
			l-0.009-0.006l-0.006-0.005l-0.005-0.005l-0.005-0.005l-0.01-0.008l-0.008-0.006L20.862,30.5l-0.009-0.005l-0.008-0.006
			l-0.009-0.006l-0.011-0.008l-0.008-0.006l-0.008-0.008l-0.008-0.005l-0.012-0.004l-0.008-0.003l-0.01-0.005l-0.012-0.002
			l-0.009-0.002l-0.008-0.003l-0.006-0.001l-0.009,0.001l-0.009,0.002l-0.005,0.004l-0.006,0.006l-0.004,0.004L20.7,30.46
			l-0.004,0.011l-0.001,0.011l-0.003,0.008l-0.003,0.005l-0.004,0.01l-0.003,0.005l-0.003,0.002l-0.004,0.002l-0.002,0.002v0.002
			l0.002,0.001l0.003,0.002l0.007,0.003l0.003,0.005l0.001,0.008v0.007l-0.004,0.005l-0.001,0.004l-0.005,0.011l-0.005,0.009
			l-0.006,0.008l-0.004,0.009L20.659,30.6l-0.003,0.007l0,0.004l0.001,0.009v0.008l-0.001,0.009l-0.002,0.004l0,0.004l0.002,0.003
			l0.003,0.002l0.005,0.005l0.002,0.004l0.001,0.007l0,0.008l0.006,0.007l0.008,0.003l0.005,0.003l0.002,0.008l0.001,0.007
			l0.001,0.007l0.002,0.007l0.003,0.011l0.003,0.01l0.002,0.01l0.004,0.011l0.002,0.009l0.002,0.009l0.004,0.008l0.005,0.008
			l0.003,0.008l0.002,0.012l0.003,0.007l0,0.011l0,0.007l0.001,0.006l0.004,0.005l0.002,0.004l0.004,0.006l0.004,0.01l0.005,0.008
			l0.003,0.009l0.003,0.009l0.002,0.008l0.003,0.008l0.001,0.006l0.002,0.006l0.003,0.006l0.005,0.005l0.003,0.007l0.003,0.005
			l0.003,0.008l0.004,0.009l0.004,0.009l0.003,0.009l0.003,0.005l0.003,0.007l0.002,0.009l0.001,0.007l-0.001,0.007l-0.003,0.002
			l-0.004,0.004l0.001,0.004l0.004,0.001l0.002,0l0.004,0.003l0.004,0.004l0.005,0.008l0.005,0.015l0.007,0.017l0.003,0.016v0.005
			l-0.003,0.006l0,0.008l0.004,0.013l0.004,0.017l0.005,0.014l0.005,0.015l0.002,0.012l-0.001,0.006l0,0.006l-0.003,0.004
			l-0.001,0.006l0.002,0.004l0.007,0.002l0.008,0.003l0.008,0.002l0.005,0.005l0.006,0.006l0.008,0.009l0.006,0.003l0.009,0.006
			l0.012,0.008l0.013,0.007l0.012,0.004l0.008,0.002l0.007-0.003l0.005-0.003h0.008l0.008-0.003h0.009l0.004,0.002l0.005,0.005
			L21,31.271l0.003,0.006v0.012l0,0.009l-0.005,0.01l-0.003,0.005l-0.01,0.002l-0.005-0.002l-0.002,0.004l0.006,0.002l0.015-0.004
			L21,31.321l-0.002,0.004l-0.005,0.001l0,0.006l0.002,0.005l0.001,0l0.001-0.002l0-0.004l0.002-0.002l0.003,0l0.005,0.005
			l0.002,0.007v0.005l-0.002,0.002l-0.001,0.004l-0.004,0.006l-0.004,0.003l-0.004,0.002l0,0.001l0.002,0.002l0.002,0l0.002,0.002
			l0.002,0.004l0.004,0.004l0.003,0.005l0.002,0.007l0.003,0.005l0.005,0.005l0.004,0.005l0.005,0.005l0.005,0.006l0.007,0.006
			l0.007,0.005l0.007,0.005l0.003,0.005l0.005,0.005l0.004,0.004h0.006l0.009,0.002l0.006,0.001l0.011,0.002l0.009,0.001l0.009,0.003
			l0.005,0.001l0.007,0.003l0.005,0.003l0.004,0.006l0.002,0.005l0.005,0.002l0.005,0.005l0.002,0.003l0.002,0.001h0.004l0.005,0
			l0.007,0.001l0.006,0.002l0.005,0.001l0.006,0.001l0.007,0.002l0.003,0.004l0.002,0.005l0.001,0.003l0.004,0.003l0.006,0
			l0.006-0.002l0.004-0.003l0.007-0.001h0.005l0.008,0l0.005,0.003l0.003,0.004l0.005,0.002l0.007,0.001l0.004,0.004l0.004,0.003
			l0.001,0.005l0.001,0.003l0.001,0.004l0,0.003l0.001,0.003l0.002,0.003l0.002,0.002l0.002,0l0.004,0l0.005,0.001h0.005l0.005,0.002
			l0.002,0.003l0.002,0.001l0.005,0.004h0.005h0.004l0.002-0.002l0.003-0.001l0.004-0.001l0.007-0.003l0.004-0.001l0.005-0.001
			l0.008,0.001l0.007,0.001l0.002,0.002v0.003l0.008,0l0.007,0l0.007,0h0.009l0.007,0l0.007,0.001l0.007,0.001L21.428,31.568
			L21.428,31.568L21.428,31.568z"/>
</g>
</svg>
