<?xml version="1.0" encoding="utf-8"?>
<!-- Generator: Adobe Illustrator 16.0.0, SVG Export Plug-In . SVG Version: 6.00 Build 0)  -->
<!DOCTYPE svg PUBLIC "-//W3C//DTD SVG 1.1//EN" "http://www.w3.org/Graphics/SVG/1.1/DTD/svg11.dtd">
<svg version="1.1" id="Layer_1" xmlns="http://www.w3.org/2000/svg" xmlns:xlink="http://www.w3.org/1999/xlink" x="0px" y="0px"
	 width="228px" height="209.5px" viewBox="621.5 0 228 209.5" enable-background="new 621.5 0 228 209.5" xml:space="preserve">
<g>
	<path fill="#00B794" d="M675.945,140.941h19.133v32.553h24.558v-57.113c0-8.281,6.855-15.135,15.135-15.135
		c8.28,0,15.135,6.854,15.135,15.135v57.113h24.561v-32.553h19.132v32.553h24.841v-58.541h-48.543
		c-0.57-15.42-11.138-28.27-25.417-32.268V66.98h-7.995V42.137h7.713V27.858h-7.713V23.29h-1.427h-1.428v43.406h-7.995v15.706
		c-14.278,3.998-25.131,16.848-25.7,32.268h-48.546v58.542h24.56L675.945,140.941L675.945,140.941z"/>
	<polygon fill="#00B794" points="651.386,177.494 627.97,177.494 627.97,186.631 841,186.631 841,177.494 818.154,177.494 
		818.154,177.494 	"/>
	<rect x="799.308" y="91.824" fill="#00B794" width="18.847" height="18.276"/>
	<rect x="651.386" y="91.824" fill="#00B794" width="18.848" height="18.276"/>
	<rect x="753.332" y="27.858" fill="#00B794" width="9.139" height="14.278"/>
</g>
</svg>
