<?xml version="1.0" encoding="utf-8"?>
<!-- Generator: Adobe Illustrator 16.0.0, SVG Export Plug-In . SVG Version: 6.00 Build 0)  -->
<!DOCTYPE svg PUBLIC "-//W3C//DTD SVG 1.1//EN" "http://www.w3.org/Graphics/SVG/1.1/DTD/svg11.dtd">
<svg version="1.1" id="Layer_1" xmlns="http://www.w3.org/2000/svg" xmlns:xlink="http://www.w3.org/1999/xlink" x="0px" y="0px"
	 width="1080px" height="396px" viewBox="0 0 1080 396" enable-background="new 0 0 1080 396" xml:space="preserve">
<g>
	<path fill="#00B794" d="M458.258,201.031h26.204v44.586h33.636v-78.222c0-11.342,9.388-20.729,20.729-20.729
		s20.729,9.387,20.729,20.729v78.222h33.637v-44.586h26.203v44.586h34.026V165.44h-66.488c-0.781-21.12-15.254-38.72-34.81-44.195
		V99.733h-10.951V65.707h10.562V46.151h-10.562v-6.258h-1.955h-1.955v59.449h-10.951v21.511
		c-19.556,5.476-34.418,23.075-35.199,44.195h-66.489v80.179h33.636L458.258,201.031L458.258,201.031z"/>
	<polygon fill="#00B794" points="424.622,251.094 392.551,251.094 392.551,263.609 684.32,263.609 684.32,251.094 653.031,251.094
		653.031,251.094 	"/>
	<rect x="627.218" y="133.76" fill="#00B794" width="25.813" height="25.031"/>
	<rect x="424.622" y="133.76" fill="#00B794" width="25.813" height="25.031"/>
	<rect x="564.249" y="46.151" fill="#00B794" width="12.516" height="19.555"/>
</g>
</svg>
