<svg xmlns="http://www.w3.org/2000/svg" xmlns:xlink="http://www.w3.org/1999/xlink" version="1.1" x="0px" y="0px" viewBox="0 0 100 125" style="enable-background:new 0 0 100 100;" xml:space="preserve">
  <g>
    <circle id="depute" cx="34.9" cy="20.5" r="8.1"/>
    <path id="depute" d="M44.7,64.8c-3.1-1.8-5.2-5.2-5.2-9.1c0-5.3,4-9.8,9.2-10.5v-0.4c0-7.6-6.2-13.7-13.7-13.7c-3.9,0-7.4,1.6-9.9,4.3   c3.3,1.8,5.5,5.3,5.5,9.3c0,3.9-2.1,7.2-5.2,9.1C31.6,56,36.2,62,36.2,69.1v2.4v0.2c0-0.1,0.1-0.1,0.1-0.2   C38.2,68.5,41.2,66.1,44.7,64.8z"/>
    <circle cx="65.1" cy="20.5" r="8.1"/>
    <path d="M74.7,53.8c-3.1-1.8-5.2-5.2-5.2-9.1c0-4,2.2-7.5,5.5-9.3c-2.5-2.6-6-4.3-9.9-4.3c-7.6,0-13.7,6.2-13.7,13.7v0.3   c5.2,0.6,9.3,5.1,9.3,10.5c0,3.9-2.1,7.2-5.2,9.1c3.5,1.2,6.4,3.6,8.3,6.7v-2.4C63.8,62,68.4,56,74.7,53.8z"/>
    <circle cx="50.1" cy="55.7" r="8.1"/>
    <path d="M50.1,66.4c-7.6,0-13.7,6.2-13.7,13.7v4.3c3.2,2,8.3,3.1,13.7,3.1c5.4,0,10.5-1.2,13.7-3.1v-4.3   C63.8,72.6,57.7,66.4,50.1,66.4z"/>
    <circle cx="19.9" cy="44.7" r="8.1"/>
    <path d="M19.9,55.4c-7.6,0-13.7,6.2-13.7,13.7v4.3c3.2,2,8.3,3.1,13.7,3.1c5.4,0,10.5-1.2,13.7-3.1v-4.3   C33.7,61.5,27.5,55.4,19.9,55.4z"/>
    <circle cx="80.1" cy="44.7" r="8.1"/>
    <path d="M80.1,55.4c-7.6,0-13.7,6.2-13.7,13.7v4.3c3.2,2,8.3,3.1,13.7,3.1c5.4,0,10.5-1.2,13.7-3.1v-4.3   C93.8,61.5,87.6,55.4,80.1,55.4z"/>
  </g>
</svg>
