<svg xmlns="http://www.w3.org/2000/svg" xmlns:xlink="http://www.w3.org/1999/xlink" version="1.1" x="0px" y="0px" viewBox="0 0 1400 1750" style="enable-background:new 0 0 1400 1400;" xml:space="preserve"><style type="text/css">
	.st0{fill:none;}
	.st1{fill-rule:evenodd;clip-rule:evenodd;}
</style><rect x="-529.4" y="-685.3" class="st0" width="1753.4" height="1799.3"/><g><g><path class="st1" d="M341.4,808c-15.1,1.6-27.5,3.8-40,4c-49.2,0.4-98.4,0.3-147.6,0.1c-37-0.1-53.4-22.1-43.7-58.2    c25.6-95.8,51.3-191.7,77-287.5c9.2-34.5,23.7-45.5,59.3-45.5c46.8,0,93.7,0,140.6,0c43.3,0,52.6,8,58.3,53.1    c12.8-1.3,26.2-0.8,38.5-4.3c38.9-10.9,77.8-22.2,115.8-35.7c20.8-7.4,38.2-6.1,54.7,7.8c10.5,8.8,21,11.2,31.8,1    c33.3-31.2,70.8-17.1,107.8-10.3c52.7,9.7,105.5,18.8,158.9,28.3c1.9-3.8,3.4-6.2,4.3-8.8c7.8-21.9,19.7-30.9,42.3-31    c53.8-0.2,107.6-0.2,161.4,0c25.9,0.1,43.2,13.8,50.1,39.4c26.5,98,52.9,196.1,79.1,294.2c9.5,35.6-7.8,57.6-44.6,57.6    c-50.9,0.1-101.8-0.3-152.8,0.1c-17.2,0.2-31.5-4.6-43.9-16.9c-3-2.9-10.4-4.5-14.2-2.9c-23,9.4-45.6,19.6-68.1,30.2    c-4.3,2-8.6,5.9-11,10c-16.6,28.9-41.8,43.6-75.3,46.7c-16.2,41.1-47.4,61.2-91.8,61.8c-3.8,0.1-8.9,2.8-11.2,5.9    c-23.3,30.6-55.5,35-90.3,30.9c-9.7-1.2-19.5-3.5-28.5-7.2c-21.4-8.8-40.4-16.9-65.6-4.7c-20.5,10-41.5-4.3-56.1-21.4    c-7-8.1-12.6-16-24.9-15.2c-3.7,0.3-7.5-2.8-11.5-3.7c-22.3-4.6-24.9-33.8-48.6-37.8c-21.7-3.7-36.8-18.4-48.3-36.6    c-1.7-2.7-4.7-5.1-7.7-6.3C360.5,830.3,360.4,830.4,341.4,808z M638.9,470.6c0-2.6-0.1-5.2-0.2-7.9c-9.1-0.5-18.5-2.3-27.3-1.1    c-9.6,1.3-18.7,5.8-28.2,8c-46.8,11.2-90.3,36.2-140.6,33.7c-3.7-0.2-10.1,6.7-11.4,11.4c-18.6,67.8-36.7,135.8-54.2,203.9    c-1.2,4.7,2.1,12.8,6,16.3c19.3,17.4,40.1,33.2,59.4,50.6c58.1,52.4,117.1,103.8,187,139.9c22.6,11.7,48.2,19,73.3,24    c19.3,3.9,38.6-1.9,51.5-22.1c-18-11.4-35.1-22.1-52.1-32.8c-8.5-5.4-15.2-12-8.7-22.6c6.6-10.6,15.6-7.3,24.1-2.1    c16.8,10.3,33.1,21.3,50.3,30.8c27.9,15.4,55.1,11,73.8-10.7c11.2-13,10.5-20-3.8-29.4c-20.4-13.2-41.1-26-61.6-38.9    c-9.2-5.7-14.1-14.7-6.7-22.7c3.8-4.1,16.4-4.7,22.1-1.5c23.2,12.9,45.2,27.9,67.9,41.9c25.6,15.7,48.6,10.9,66.3-13.7    c10.1-13.9,8.7-24-5.8-33.4c-22.3-14.5-45-28.3-67.5-42.5c-8.1-5.2-16.1-11.1-9.7-22.2c6.9-11.7,16.1-8.3,25.2-2.6    c19.6,12.4,39.1,24.7,58.8,36.8c19.5,12,40.9,5,55.3-17.6c10.3-16.3,5.2-31.7-15.4-44.6c-51.7-32.4-103.2-65-155.4-96.4    c-7.8-4.7-19.6-6.4-28.7-4.7c-35.8,6.5-71.3,14.4-106.6,22.9c-10.8,2.6-21.8,7.5-30.7,13.9c-11.1,8-19.6,19.5-30.3,28    c-28,22.3-57.7,37.2-96.2,32.4c-39.4-4.9-56-42.4-38.8-72.1c15.3-26.5,31.1-52.7,48.1-78.2c6.1-9.2,15.2-17.3,24.7-23.2    C581.1,504.2,610.2,487.6,638.9,470.6z M1010.8,685.9c0.9-1.2,1.9-2.4,2.8-3.6c-15.8-58.9-32-117.8-47.3-176.8    c-2.8-10.8-7.5-14.7-18.4-16.5c-68.2-11.7-136.2-24.6-204.5-36.3c-7.6-1.3-17.3,0.9-24.1,4.8c-44.7,25.5-88,53.4-133.3,77.6    c-42.6,22.8-58.7,65.1-81.1,102.7c-9,15,0.4,29.1,17.2,29c15.2-0.1,32.7-0.4,45-7.6c20.4-12.1,37.3-30.1,56.1-45    c7.7-6.1,16-13.4,25.1-15.6c46.5-11.3,93.5-21,140.1-31.7c11.3-2.6,20.5-1.7,30.8,4.7c49.3,30.9,99.1,61,149,91    C982,670.8,996.6,678.1,1010.8,685.9z M366.9,758.8c-7.9,22.5-3,37.4,15.2,49.8c13.1,8.9,26.8,12.7,42.2-0.8    C405.1,791.5,386.9,775.9,366.9,758.8z M999.3,776c10.7-4.9,22.9-10.5,35.4-16.2c-4.6-15.8-8.7-29.7-12.5-42.9    C1014.1,737.7,1006.7,756.8,999.3,776z M432.3,839.9c15.1,20.9,30.8,25.6,43.3,13.5c-9.6-8.1-19.2-16.3-28.7-24.3    C441.5,833.1,437.4,836.1,432.3,839.9z M533.7,899.8c-11-8.3-19.1-15-27.9-20.8c-1.9-1.3-6.2,0.1-8.8,1.4    c-0.8,0.4-0.5,5.6,0.9,7.3C506.3,897.4,516.1,903.7,533.7,899.8z"/></g></g></svg>
