<?xml version="1.0" encoding="UTF-8"?>
<svg xmlns="http://www.w3.org/2000/svg" xmlns:xlink="http://www.w3.org/1999/xlink" width="16px" height="15px" viewBox="0 0 15 15" version="1.1">
<g id="surface1">
<path style="fill-rule:nonzero;fill:rgb(0%,0%,0%);fill-opacity:1;stroke-width:0.5;stroke-linecap:round;stroke-linejoin:round;stroke:rgb(100%,100%,100%);stroke-opacity:1;stroke-miterlimit:4;" d="M 519.010417 43.5 L 520.052083 46 L 520.572917 50.25 L 521.354167 52 L 523.4375 54.5 L 524.479167 56 L 524.479167 58 L 524.21875 58.5 L 522.916667 60 L 522.395833 61 L 523.697917 65.25 L 523.697917 66 L 523.177083 67 L 523.177083 67.75 L 523.958333 68 L 524.21875 68.5 L 525 69.75 L 525.260417 70.25 L 525.520833 70.5 L 526.5625 70.75 L 527.083333 70.75 L 528.125 70.5 L 528.90625 70.5 L 529.6875 71 L 529.947917 71.5 L 530.46875 73 L 532.8125 75.25 L 534.114583 77.75 L 534.375 78.5 L 535.416667 79.5 L 540.364583 81.5 L 540.625 81.75 L 541.666667 82 L 542.447917 81.5 L 544.270833 78 L 546.875 76 L 550 75 L 555.208333 73.5 L 556.770833 74 L 557.8125 75 L 558.59375 76.75 L 559.635417 78.25 L 560.416667 80.25 L 560.9375 80.75 L 562.5 81.25 L 563.020833 82 L 563.802083 84.5 L 563.020833 86 L 563.28125 88.75 L 565.104167 94.25 L 565.104167 97.5 L 565.364583 98.5 L 566.40625 99.75 L 567.1875 100.5 L 569.791667 101.75 L 571.09375 102 L 572.395833 102 L 575.260417 101 L 576.041667 100.25 L 576.822917 99.75 L 577.34375 99.25 L 578.125 99.25 L 579.166667 99.5 L 579.427083 100 L 579.427083 100.75 L 578.90625 102 L 579.6875 102.5 L 583.59375 102.5 L 584.895833 102.75 L 586.197917 103.5 L 587.5 104.5 L 588.541667 106.5 L 589.0625 110.25 L 589.0625 114.75 L 589.583333 118.75 L 591.927083 120.75 L 591.927083 120 L 592.1875 120 L 592.1875 120.25 L 592.708333 119.75 L 592.96875 119 L 594.010417 117 L 594.53125 116.5 L 595.3125 116 L 598.177083 116 L 600.78125 116.25 L 601.822917 116.75 L 603.125 117.5 L 604.166667 118 L 605.46875 118 L 609.375 116.5 L 610.677083 116.25 L 611.979167 117 L 614.0625 119.25 L 615.364583 120 L 616.666667 121 L 618.229167 124.75 L 619.270833 125.25 L 619.791667 124.75 L 619.791667 123.5 L 620.572917 123.25 L 621.09375 123.5 L 621.875 124 L 622.916667 124.5 L 623.177083 125.25 L 622.916667 126.25 L 622.395833 127 L 620.833333 128 L 620.3125 129 L 620.052083 129.75 L 619.791667 131.5 L 618.489583 135.5 L 618.229167 137.25 L 619.270833 137.5 L 620.3125 137 L 621.09375 137 L 621.614583 137.25 L 622.916667 141.5 L 623.177083 142.25 L 623.697917 143 L 623.4375 143.75 L 622.135417 144.5 L 620.572917 145.5 L 619.010417 147 L 618.75 147.75 L 618.489583 149 L 618.75 149 L 619.270833 152 L 618.75 152 L 622.135417 153.75 L 622.916667 154 L 623.958333 154 L 627.604167 153.5 L 636.979167 156 L 637.5 156 L 639.322917 155.75 L 647.916667 151.5 L 650.520833 151 L 651.302083 150.5 L 651.822917 149.5 L 652.604167 145 L 652.604167 144.25 L 652.083333 143.25 L 652.34375 142.25 L 652.604167 141.5 L 659.375 134.75 L 660.9375 134 L 661.197917 135.5 L 661.979167 135.75 L 663.802083 135.25 L 664.583333 136 L 664.322917 137.75 L 664.0625 139.75 L 663.802083 141.5 L 663.28125 140.75 L 663.020833 140.75 L 661.71875 143.5 L 661.71875 146 L 659.375 152 L 659.114583 153.5 L 659.895833 155 L 662.760417 156 L 663.802083 158 L 663.802083 160 L 663.28125 160.75 L 663.020833 162 L 663.020833 162.5 L 662.239583 163 L 662.239583 164 L 663.020833 165.25 L 663.020833 169.25 L 663.541667 170 L 665.364583 170.25 L 666.666667 170 L 669.270833 169 L 670.572917 169 L 671.614583 169.75 L 673.958333 172 L 675.260417 172.5 L 677.604167 173.25 L 678.125 174 L 680.989583 177.75 L 681.770833 178.75 L 682.8125 179.5 L 684.375 180 L 686.979167 179.25 L 688.541667 179.25 L 689.84375 180.5 L 690.885417 182 L 691.40625 183.25 L 691.145833 183.75 L 690.625 184 L 690.364583 185.5 L 690.625 186.25 L 690.885417 186.5 L 691.927083 186.75 L 692.1875 186.75 L 692.708333 186.25 L 692.96875 185.75 L 693.229167 185.5 L 693.489583 185.5 L 694.270833 186 L 696.09375 186.5 L 696.614583 187 L 697.395833 187.5 L 700.260417 193 L 700.520833 194 L 700.520833 195 L 700.260417 195.75 L 700.260417 196.75 L 700.520833 197.5 L 702.083333 198 L 703.645833 197 L 705.208333 195.75 L 706.25 195.25 L 708.072917 196 L 708.854167 196.25 L 709.635417 196 L 709.895833 195.75 L 709.895833 195 L 710.677083 194 L 712.239583 193.25 L 713.802083 193.5 L 715.104167 194.25 L 716.40625 194.5 L 717.1875 194 L 717.96875 193 L 718.489583 192.75 L 719.270833 192.75 L 720.572917 193.5 L 721.354167 193.75 L 723.177083 196.5 L 724.479167 197.5 L 725.78125 198.25 L 729.947917 199 L 730.989583 200.25 L 731.770833 203 L 732.8125 202.5 L 738.28125 202.25 L 739.0625 202 L 739.583333 201 L 740.625 200.75 L 740.625 199.75 L 740.885417 199 L 741.40625 199 L 743.229167 198.75 L 742.708333 198 L 746.354167 197.5 L 747.916667 197.75 L 749.739583 198.25 L 749.739583 198.5 L 754.427083 201.5 L 755.729167 201.75 L 756.25 201.75 L 756.770833 201.5 L 758.072917 200.75 L 758.59375 200.5 L 764.84375 203.5 L 765.885417 204.5 L 766.40625 205.5 L 766.40625 206.75 L 766.927083 207.5 L 769.791667 210.5 L 770.052083 211 L 769.791667 212 L 768.75 212 L 768.229167 212.75 L 768.75 214 L 769.791667 215.25 L 773.958333 219.25 L 773.958333 219.5 L 773.697917 220.5 L 773.958333 221 L 774.21875 221.25 L 775 221.5 L 775.520833 221.75 L 775.78125 223.5 L 776.041667 224 L 776.302083 225 L 776.302083 225.25 L 776.822917 225.25 L 777.604167 224.5 L 777.864583 224.5 L 778.125 226 L 777.604167 228.5 L 778.385417 229.75 L 779.166667 230 L 781.770833 230 L 784.375 231 L 785.15625 231 L 786.197917 229.5 L 785.9375 228 L 785.416667 226.25 L 785.9375 225 L 786.458333 225 L 789.0625 225.5 L 790.885417 225.25 L 791.666667 225.5 L 795.3125 227.5 L 796.875 227.5 L 796.614583 231 L 797.395833 233.5 L 798.697917 234.75 L 800.78125 233.5 L 800.78125 233 L 800.520833 232.5 L 800.520833 232 L 801.041667 231.5 L 801.5625 231.5 L 803.90625 233.25 L 804.6875 233.75 L 805.729167 234 L 811.197917 234 L 812.760417 234.75 L 813.020833 235 L 813.541667 234.5 L 814.322917 233.25 L 814.583333 232.75 L 815.104167 232.5 L 816.40625 232.5 L 816.927083 232 L 817.1875 231.5 L 817.708333 230.25 L 817.96875 229.75 L 819.010417 229.25 L 819.270833 229 L 820.3125 228.75 L 821.614583 229 L 821.875 230 L 824.479167 230 L 825.520833 230.5 L 826.041667 232 L 825.520833 232.25 L 825.520833 232.5 L 825.260417 232.75 L 826.302083 233.5 L 827.604167 236 L 828.385417 237 L 829.6875 237.75 L 832.552083 238.25 L 833.854167 239 L 834.375 239.5 L 834.895833 240.75 L 835.416667 241.25 L 836.197917 241.5 L 838.541667 240.75 L 839.322917 241 L 840.625 241.5 L 841.145833 241.5 L 841.927083 241.25 L 844.010417 240.25 L 849.21875 241.75 L 852.604167 241.5 L 853.90625 241.5 L 863.541667 246.75 L 869.791667 248 L 870.3125 248.75 L 869.010417 250.25 L 867.1875 254 L 864.322917 261.5 L 863.541667 263 L 863.28125 263.25 L 860.9375 264.5 L 860.416667 264.5 L 860.416667 264.75 L 859.895833 265 L 859.635417 265.5 L 859.635417 266.5 L 859.375 267 L 859.114583 267.25 L 858.59375 267.5 L 856.770833 267.5 L 856.25 267.75 L 855.989583 268.5 L 855.729167 270.25 L 855.46875 271 L 854.947917 272 L 853.90625 272.75 L 853.385417 273.25 L 851.5625 275.25 L 850.78125 276 L 849.479167 276.5 L 848.958333 277 L 846.354167 281 L 845.833333 284 L 845.833333 287.25 L 846.614583 289.25 L 846.614583 290 L 845.052083 291 L 844.270833 292 L 844.010417 292.75 L 843.75 294.5 L 843.489583 295.5 L 842.1875 298 L 841.927083 300.5 L 841.927083 302.75 L 842.447917 304 L 842.708333 305.25 L 842.708333 306.5 L 841.927083 308 L 840.625 308.5 L 839.583333 309.25 L 839.0625 313.25 L 838.802083 314.75 L 838.020833 316 L 834.114583 321.5 L 833.59375 322.75 L 833.59375 324 L 833.333333 324.75 L 832.291667 326.25 L 832.03125 327.5 L 831.510417 329.5 L 831.770833 333.25 L 834.375 338 L 834.635417 340.75 L 834.114583 342 L 832.291667 343.75 L 832.03125 345 L 832.03125 347 L 831.510417 347.75 L 831.510417 348.25 L 830.989583 348.5 L 830.729167 349 L 830.729167 350.25 L 830.989583 352 L 830.989583 353 L 830.208333 353.5 L 829.6875 354 L 828.90625 357 L 828.645833 358.25 L 829.427083 361.5 L 829.427083 363 L 829.166667 363.5 L 828.125 364.5 L 827.864583 365.25 L 828.125 367.25 L 828.125 368.25 L 828.385417 368.5 L 829.427083 369 L 830.208333 370.25 L 831.510417 373 L 832.8125 374.25 L 832.8125 375.5 L 832.291667 376.5 L 830.208333 377.25 L 828.645833 378 L 828.385417 378.5 L 826.041667 380.25 L 827.083333 381.25 L 827.34375 381.25 L 827.34375 382 L 827.083333 382.5 L 826.822917 382.75 L 825.78125 382.75 L 825.520833 383 L 825.78125 383.5 L 826.302083 384 L 826.302083 384.5 L 826.041667 385 L 825 386 L 824.21875 385.75 L 823.697917 385.5 L 823.4375 385.25 L 822.395833 385 L 821.875 385 L 821.875 385.75 L 822.135417 386.25 L 822.395833 386.5 L 822.65625 387 L 822.65625 387.5 L 822.395833 388.25 L 822.135417 388.75 L 821.354167 390 L 820.3125 390.25 L 819.53125 390.5 L 815.364583 390.5 L 813.802083 390.75 L 811.197917 391.75 L 810.9375 391.75 L 810.416667 391.5 L 809.635417 390.75 L 807.8125 390.25 L 806.510417 389.5 L 806.25 388 L 807.291667 385.25 L 805.729167 385.5 L 804.947917 385.25 L 803.90625 385 L 802.604167 384.5 L 799.479167 385 L 797.916667 385 L 797.395833 384.5 L 796.875 384.25 L 796.09375 384.5 L 795.572917 385 L 794.53125 385.25 L 794.791667 386.25 L 795.3125 387.5 L 795.572917 388.5 L 795.052083 389.5 L 794.270833 390 L 793.229167 390.75 L 791.666667 391 L 791.40625 392.75 L 789.84375 393.75 L 789.0625 395 L 788.28125 396.5 L 788.020833 397.5 L 795.3125 396.75 L 796.354167 396.25 L 797.395833 397 L 798.177083 398 L 798.958333 398.75 L 798.4375 399.75 L 797.916667 400.25 L 797.135417 400.25 L 796.614583 400.75 L 795.572917 402 L 795.3125 402 L 794.791667 402.25 L 793.489583 403.5 L 793.229167 405.25 L 793.489583 407.5 L 789.322917 410.5 L 787.5 412.5 L 786.197917 414.5 L 782.291667 418 L 780.46875 418.75 L 780.46875 420.25 L 779.6875 420.75 L 779.427083 421 L 779.166667 421.5 L 777.604167 422 L 777.083333 422.75 L 776.041667 424 L 776.822917 425.75 L 775.520833 428 L 771.354167 431 L 764.583333 433 L 761.71875 435 L 760.677083 438 L 760.9375 439 L 761.71875 440.5 L 761.979167 441.5 L 761.979167 442.75 L 761.71875 443.25 L 761.71875 443.5 L 761.197917 444.25 L 760.15625 447.25 L 760.15625 447.75 L 760.677083 448.75 L 761.197917 449.25 L 761.197917 450.75 L 760.9375 451.5 L 760.15625 452.25 L 759.375 452.75 L 757.552083 454 L 755.208333 456.25 L 750.78125 458.75 L 742.447917 466.25 L 741.666667 467.5 L 741.927083 468.5 L 743.229167 470.25 L 741.145833 473 L 739.0625 476.75 L 738.28125 477.5 L 738.020833 478 L 738.020833 478.5 L 738.28125 479 L 738.28125 480.25 L 738.541667 481 L 738.28125 481.5 L 737.760417 482.25 L 738.020833 482.5 L 740.885417 484.25 L 741.927083 485.25 L 742.708333 486.5 L 742.708333 487.5 L 741.666667 490 L 740.625 492 L 740.625 492.75 L 740.104167 495.25 L 740.104167 497 L 739.84375 497.75 L 738.541667 498 L 738.020833 498.25 L 737.760417 498 L 736.979167 498 L 733.072917 499.75 L 731.770833 500.75 L 731.510417 501.75 L 732.03125 503 L 733.072917 504.5 L 733.072917 505.25 L 732.552083 506 L 731.770833 508 L 733.072917 507.25 L 735.9375 506.5 L 738.802083 506.5 L 740.885417 507.25 L 742.96875 506.25 L 746.09375 502.5 L 750 500 L 751.822917 498.25 L 751.302083 496.25 L 750.78125 496 L 750 496.5 L 749.21875 496 L 748.958333 495.75 L 748.4375 494.25 L 748.4375 494 L 747.916667 492.5 L 747.395833 491.5 L 747.916667 490.25 L 749.21875 488.5 L 750.78125 486.25 L 753.125 484.5 L 754.947917 483.75 L 756.770833 483.75 L 758.854167 483.25 L 764.322917 479.5 L 768.229167 478.75 L 772.395833 479 L 781.510417 481.25 L 782.291667 481.75 L 783.072917 482.75 L 783.072917 484.5 L 782.8125 486 L 780.989583 487.75 L 780.729167 488.75 L 781.770833 491 L 784.114583 493.25 L 785.416667 495.5 L 783.333333 500 L 782.291667 503 L 781.770833 506.25 L 782.291667 507.75 L 786.979167 508.75 L 788.020833 509.75 L 788.020833 510.25 L 787.5 511 L 786.979167 511.5 L 786.71875 512 L 786.979167 512 L 786.979167 515.25 L 787.5 515.75 L 788.020833 515.75 L 788.541667 515.5 L 789.0625 515 L 789.583333 514.75 L 790.885417 515.25 L 795.052083 520 L 795.3125 520.25 L 795.572917 521.25 L 796.354167 523 L 796.875 524.75 L 797.395833 526.25 L 796.614583 526.75 L 796.09375 527.5 L 795.572917 528.5 L 795.052083 529.75 L 794.270833 531.25 L 792.96875 532.25 L 791.666667 533 L 790.364583 533.5 L 788.28125 533.5 L 788.28125 535 L 787.760417 535 L 787.5 534.5 L 786.458333 534 L 784.895833 534.5 L 783.854167 535 L 783.072917 536.5 L 782.8125 538 L 782.8125 541 L 783.59375 544.75 L 784.895833 546.5 L 786.458333 548 L 788.020833 548.25 L 788.802083 548.5 L 790.364583 550 L 791.145833 550.5 L 793.229167 551 L 794.010417 551.5 L 794.270833 553 L 794.010417 553.5 L 793.229167 555.75 L 793.489583 556.5 L 794.270833 558 L 794.53125 561.75 L 795.052083 563 L 797.916667 564.5 L 800.520833 566.75 L 801.302083 567.5 L 801.822917 568.75 L 802.083333 569.75 L 805.729167 571.5 L 805.989583 572 L 805.989583 573 L 805.46875 574.25 L 804.166667 576.5 L 802.083333 579 L 801.822917 579.5 L 802.083333 582 L 802.864583 583.75 L 802.864583 585.25 L 801.302083 586.5 L 800 588.75 L 799.479167 589.25 L 798.4375 588.25 L 797.916667 588 L 795.833333 588.5 L 793.489583 589.5 L 792.708333 590.25 L 791.666667 592.25 L 790.885417 593 L 790.364583 593.25 L 788.802083 593.25 L 788.28125 593.5 L 788.020833 594.25 L 788.802083 595 L 788.541667 595.5 L 786.458333 596.5 L 784.375 595.75 L 782.03125 594.5 L 779.947917 594.25 L 779.427083 594.5 L 778.385417 595.25 L 777.604167 595.5 L 777.34375 595.75 L 776.041667 595.5 L 775.520833 595.75 L 773.4375 597 L 773.177083 597 L 771.614583 599 L 772.65625 600.5 L 773.697917 601.5 L 773.697917 602.75 L 773.958333 603.5 L 774.479167 604.75 L 775.260417 605.5 L 777.34375 605.5 L 779.166667 606.75 L 779.427083 609.25 L 779.427083 614.25 L 780.46875 616 L 782.291667 617.75 L 786.71875 620.25 L 788.020833 620.5 L 790.885417 620 L 791.927083 620 L 795.052083 621.25 L 796.09375 622.5 L 796.614583 623 L 796.614583 624.5 L 796.354167 624.5 L 796.09375 626 L 796.875 628 L 797.135417 630 L 797.395833 630.75 L 799.21875 634.25 L 799.479167 635.5 L 798.4375 635.5 L 796.09375 634.75 L 795.052083 634.75 L 793.75 635.5 L 792.447917 637 L 792.1875 638.75 L 792.708333 640.5 L 791.927083 641.25 L 789.84375 645 L 786.71875 647.5 L 785.9375 648.5 L 786.197917 651.25 L 787.5 653.75 L 789.583333 655.75 L 791.145833 657 L 789.0625 658.25 L 788.541667 659 L 788.020833 661.5 L 788.020833 663.5 L 788.28125 663.75 L 789.583333 665.5 L 790.104167 666.25 L 790.885417 668 L 791.40625 668.75 L 791.927083 669.25 L 793.229167 670 L 793.489583 670.75 L 794.010417 671.75 L 794.53125 673.25 L 795.052083 674 L 795.833333 674.25 L 797.395833 673.75 L 798.177083 673.75 L 798.958333 674 L 802.604167 676 L 805.208333 677 L 811.71875 681 L 813.020833 681.5 L 814.583333 681.75 L 815.364583 682 L 816.145833 683.5 L 816.666667 684 L 819.791667 684 L 830.46875 681 L 832.291667 681 L 834.895833 679.25 L 836.71875 679.5 L 835.9375 682.5 L 836.71875 684 L 838.020833 685.25 L 838.802083 687 L 839.0625 687.5 L 838.802083 689 L 838.28125 689.75 L 837.239583 690.5 L 836.71875 691.25 L 836.197917 692.5 L 835.677083 694.25 L 835.15625 695.25 L 833.854167 696.75 L 830.729167 699.5 L 829.427083 701.5 L 826.822917 704.5 L 825.78125 706.25 L 826.041667 708.5 L 827.34375 712.5 L 826.302083 713 L 825.78125 713 L 825.520833 713.25 L 825.520833 713.5 L 825.78125 714.5 L 825.520833 715 L 825.260417 715.25 L 824.739583 715 L 824.21875 715.5 L 823.697917 716.25 L 823.177083 716.75 L 822.395833 715.75 L 821.354167 715 L 820.3125 715.5 L 819.270833 716.5 L 818.75 718.5 L 817.96875 719 L 817.447917 719.75 L 817.1875 720.5 L 816.666667 721.5 L 815.885417 721.75 L 814.84375 721.5 L 813.541667 721 L 811.979167 721.25 L 811.197917 721.75 L 810.416667 722.75 L 810.416667 723.5 L 809.375 724.75 L 808.854167 725.25 L 808.333333 724 L 807.291667 724 L 806.510417 724.25 L 805.729167 724.25 L 805.208333 725 L 804.6875 725.5 L 804.427083 726 L 803.90625 728.5 L 804.427083 730.75 L 804.427083 731.25 L 804.6875 732.25 L 804.6875 733 L 803.90625 733.5 L 803.125 732 L 802.604167 731.75 L 801.5625 731.75 L 800.520833 732.5 L 798.4375 734.5 L 798.177083 733.5 L 794.791667 733.5 L 793.75 734 L 792.708333 735.25 L 792.447917 736.5 L 793.229167 737 L 792.96875 737 L 793.229167 737.25 L 793.229167 737.5 L 791.40625 740 L 791.145833 742 L 789.84375 742.75 L 789.583333 743.75 L 788.28125 743.75 L 788.020833 743.25 L 788.020833 743 L 787.760417 742.75 L 787.5 743 L 787.239583 743.5 L 787.5 744.75 L 786.71875 745 L 785.9375 744.75 L 784.895833 744.75 L 782.8125 745.25 L 782.03125 744.5 L 780.989583 744 L 779.427083 745.5 L 779.6875 747.5 L 778.645833 749 L 778.645833 750.25 L 777.083333 750.5 L 776.041667 750.5 L 775.520833 751.75 L 775.260417 752.75 L 774.479167 753.25 L 772.916667 755 L 771.354167 756 L 770.833333 757.25 L 772.135417 757.5 L 775.78125 756.5 L 777.083333 757 L 777.604167 757.5 L 776.822917 759 L 775.78125 759.75 L 775.520833 761.25 L 775.78125 762 L 776.302083 763 L 775.260417 764 L 773.958333 764.5 L 773.177083 764.75 L 771.875 765.25 L 771.354167 765.25 L 771.09375 764.75 L 771.09375 764 L 770.3125 764.5 L 767.708333 764.5 L 767.447917 765.5 L 766.927083 766.5 L 765.625 767.25 L 763.802083 766.75 L 762.239583 767 L 760.416667 767 L 759.114583 767.5 L 757.8125 768.5 L 756.770833 770 L 757.291667 771 L 757.552083 772.25 L 755.46875 772.25 L 754.427083 771.25 L 753.125 770.75 L 751.5625 770 L 750 769.75 L 747.916667 770.25 L 746.354167 770.75 L 745.3125 771.25 L 744.270833 772.25 L 743.75 774 L 743.75 776 L 744.791667 776.5 L 745.833333 776.25 L 745.3125 777 L 744.010417 777.25 L 740.364583 777.5 L 739.84375 777 L 740.625 776.5 L 741.666667 776.25 L 742.447917 775.5 L 742.1875 774 L 741.145833 773 L 740.104167 773 L 736.979167 773.5 L 735.9375 773.5 L 735.416667 771.5 L 731.770833 771.5 L 730.208333 770.5 L 730.46875 770 L 730.46875 769 L 730.729167 768.75 L 729.6875 768.5 L 728.645833 769 L 726.822917 769.75 L 727.864583 770.25 L 728.90625 772 L 729.6875 772.5 L 731.25 773.25 L 730.729167 774 L 727.34375 774 L 726.5625 774.25 L 725.520833 776.25 L 723.177083 775.5 L 721.354167 774 L 720.833333 773.25 L 722.135417 772.5 L 722.916667 771.5 L 722.65625 771 L 721.875 770.5 L 720.833333 770.25 L 720.572917 769.5 L 720.3125 769 L 719.53125 768.75 L 718.229167 768.75 L 715.625 767.5 L 715.104167 765.75 L 714.0625 764.75 L 713.020833 764.25 L 711.71875 764.25 L 710.9375 765 L 710.416667 766.5 L 708.854167 765.75 L 707.8125 765.75 L 707.03125 764.5 L 706.25 763.5 L 705.729167 762.5 L 704.947917 762 L 704.166667 762.5 L 703.645833 762.5 L 700.78125 762.25 L 699.479167 762.5 L 697.916667 762 L 696.875 762 L 695.3125 762.5 L 694.010417 761.75 L 694.010417 760.25 L 694.270833 759.5 L 694.791667 758.5 L 695.3125 757 L 694.53125 756.25 L 694.270833 755.25 L 694.270833 754.75 L 693.489583 751.75 L 690.625 750 L 687.239583 752.25 L 682.552083 752 L 680.208333 752.5 L 676.302083 752.25 L 674.479167 751.5 L 673.177083 749.75 L 672.916667 747.5 L 673.958333 745.25 L 676.041667 744.25 L 681.510417 744.25 L 683.072917 743.75 L 684.375 742.75 L 685.677083 741 L 686.458333 739.25 L 686.197917 737.25 L 684.375 738.5 L 682.8125 739 L 680.989583 738.75 L 679.6875 737.25 L 679.427083 736 L 679.427083 735.25 L 678.90625 734.75 L 677.604167 734.25 L 675.78125 734.25 L 675.520833 734 L 674.479167 732.75 L 674.21875 732.5 L 673.697917 733 L 673.177083 735.5 L 672.916667 736 L 673.177083 737.75 L 673.958333 738.5 L 674.479167 738.75 L 675.520833 739.5 L 676.302083 741.75 L 675.520833 743.5 L 674.21875 744.5 L 672.395833 744.75 L 671.354167 744.5 L 667.96875 742.5 L 666.40625 743.5 L 665.885417 744 L 664.322917 744.25 L 663.802083 744.75 L 663.28125 746 L 663.28125 746.5 L 664.0625 748 L 664.322917 749 L 666.40625 749 L 664.84375 750.25 L 663.541667 751 L 663.28125 749.5 L 661.979167 747.5 L 659.375 746 L 657.291667 744.25 L 656.510417 742 L 656.510417 735.5 L 655.989583 734.25 L 655.46875 732.75 L 654.6875 731.5 L 653.385417 730.75 L 653.385417 731.25 L 655.46875 734.25 L 655.729167 735.25 L 655.729167 741.25 L 656.510417 744 L 658.072917 746 L 660.15625 747.25 L 661.458333 749 L 661.197917 750.5 L 659.375 750.75 L 651.822917 750.5 L 647.135417 749.5 L 645.572917 748.5 L 645.572917 747 L 646.875 745.75 L 646.875 744.5 L 646.354167 743.5 L 644.791667 742.5 L 642.1875 741.25 L 635.9375 742 L 623.177083 741 L 620.572917 740 L 618.75 738.75 L 617.708333 736.75 L 618.75 734.75 L 618.75 734.5 L 617.1875 733 L 613.541667 732.75 L 609.895833 733.25 L 607.552083 734 L 606.770833 734.75 L 594.53125 745 L 587.239583 748.25 L 585.15625 750 L 580.46875 756.25 L 579.166667 756.75 L 576.822917 755.5 L 575.260417 755.75 L 572.395833 756 L 568.229167 757.75 L 563.802083 761.5 L 562.760417 762.75 L 562.239583 763.5 L 559.635417 766 L 558.854167 767 L 558.072917 768.5 L 557.03125 769.75 L 555.729167 771 L 554.6875 774 L 553.90625 775.5 L 552.604167 779.25 L 552.083333 780.5 L 551.5625 783 L 551.041667 785 L 551.302083 785.75 L 552.083333 786.25 L 552.083333 788 L 551.5625 793 L 551.302083 797.75 L 551.041667 801 L 551.302083 803.25 L 551.041667 806.75 L 551.302083 811.25 L 551.5625 814.75 L 551.822917 817.5 L 552.864583 818.5 L 554.166667 819.25 L 555.729167 819.5 L 557.291667 820 L 557.8125 821 L 557.8125 822 L 557.552083 822.75 L 559.635417 825.75 L 559.895833 827.5 L 559.895833 828 L 557.291667 828.5 L 555.729167 828.5 L 553.90625 828.25 L 552.604167 828 L 551.302083 826.75 L 550.78125 826 L 550.520833 825 L 548.177083 825 L 547.65625 824.75 L 546.614583 825.5 L 544.53125 824.5 L 542.447917 826.25 L 541.40625 826.5 L 539.322917 826.5 L 538.28125 827 L 536.71875 829 L 535.677083 829.5 L 534.375 829.75 L 531.770833 829.5 L 530.729167 829.5 L 529.427083 830 L 526.822917 832 L 526.302083 832.75 L 527.083333 834.5 L 527.604167 835.25 L 527.864583 835.5 L 526.041667 835.75 L 524.739583 835.5 L 521.875 834.5 L 520.572917 834.5 L 520.3125 835 L 519.791667 836.25 L 519.270833 836.75 L 518.75 836.75 L 517.96875 836.5 L 516.666667 835.75 L 515.625 835.5 L 514.322917 834.5 L 513.28125 833.25 L 513.020833 832 L 511.979167 832 L 509.895833 831.5 L 506.510417 829.75 L 505.729167 829 L 503.90625 828 L 502.083333 828.25 L 498.177083 829.5 L 495.3125 829.25 L 494.270833 829.5 L 494.010417 830 L 493.489583 831.25 L 493.229167 831.75 L 491.927083 833 L 490.625 834 L 490.104167 834.5 L 489.0625 834.75 L 487.5 835 L 486.458333 834.75 L 485.677083 834.25 L 484.635417 833.25 L 484.114583 832 L 483.072917 829 L 482.291667 827.5 L 481.25 827 L 480.208333 827 L 478.645833 826.5 L 475.260417 824.25 L 473.958333 823.75 L 470.052083 823.25 L 469.010417 822.75 L 469.010417 822 L 468.75 822 L 469.010417 819.75 L 469.53125 818 L 470.572917 817 L 472.395833 816.75 L 471.875 816.5 L 471.614583 815.75 L 470.052083 815.25 L 469.010417 814.5 L 469.53125 813 L 462.5 812.25 L 461.979167 812 L 458.59375 809.5 L 457.552083 809.75 L 455.729167 810.5 L 453.90625 810.25 L 452.864583 813.5 L 451.5625 814 L 450.520833 813 L 449.479167 810 L 448.4375 808.5 L 447.395833 806.5 L 446.614583 806.25 L 446.09375 806 L 445.833333 805.75 L 446.09375 804.5 L 444.791667 804.25 L 436.979167 804.25 L 434.895833 805 L 434.375 804.75 L 433.072917 804 L 431.510417 800.25 L 430.46875 799.25 L 429.166667 799 L 423.958333 798.5 L 423.4375 798.25 L 422.395833 797.5 L 421.875 797.25 L 421.09375 797.5 L 420.572917 798 L 420.052083 798.25 L 419.270833 798 L 418.489583 797 L 417.96875 796.5 L 415.885417 795.75 L 413.28125 794.25 L 412.239583 794 L 411.197917 794.25 L 409.895833 794 L 407.8125 793 L 405.208333 793 L 403.645833 793.75 L 403.385417 795 L 403.385417 796.75 L 402.604167 799 L 403.385417 800 L 402.604167 800.75 L 402.083333 801.5 L 403.125 802 L 403.90625 802.75 L 404.427083 804 L 404.166667 805.5 L 404.166667 805.75 L 403.645833 806.5 L 392.96875 806.5 L 391.927083 806 L 389.583333 806.75 L 388.28125 806.75 L 386.979167 806.5 L 386.71875 806.25 L 386.71875 805.25 L 384.895833 804 L 383.854167 804.25 L 382.8125 805.5 L 380.989583 807.75 L 380.208333 808 L 379.166667 806.75 L 377.864583 804.5 L 376.822917 804 L 373.4375 803 L 372.395833 803.25 L 371.354167 804 L 367.708333 804.5 L 362.760417 806.5 L 360.677083 806.5 L 358.072917 805.5 L 357.8125 805.25 L 357.552083 804.75 L 357.03125 804.5 L 356.25 804.25 L 355.729167 804 L 355.46875 803.5 L 355.46875 802.75 L 354.947917 802.25 L 353.90625 801.5 L 353.385417 800.25 L 352.864583 798.75 L 353.125 797.25 L 351.822917 797.75 L 350.260417 798.25 L 348.4375 798 L 347.916667 796.5 L 344.270833 794.25 L 344.010417 794.25 L 343.229167 793.25 L 342.708333 794.25 L 341.927083 795 L 341.40625 794.5 L 338.28125 796.75 L 336.71875 797.75 L 334.895833 797.75 L 331.510417 796.25 L 329.947917 796.25 L 329.947917 798.25 L 327.864583 799.25 L 327.083333 798.75 L 327.083333 798.25 L 327.34375 797.75 L 327.083333 797.25 L 325.78125 797.25 L 325.260417 797 L 325.260417 796.75 L 325.520833 796.25 L 325.260417 796 L 322.916667 792.75 L 321.875 791.75 L 319.791667 790.5 L 317.96875 790.5 L 317.1875 789.75 L 316.927083 789 L 316.927083 788.5 L 317.1875 788 L 317.1875 787.5 L 316.927083 787 L 315.885417 784.5 L 314.322917 784 L 309.635417 784.75 L 304.6875 784.5 L 302.34375 783.75 L 300.260417 782 L 299.479167 781 L 298.4375 780.75 L 296.09375 780.5 L 295.833333 780.25 L 294.791667 779.5 L 294.270833 779.25 L 291.927083 779.5 L 289.84375 778 L 287.760417 776.75 L 284.114583 776 L 283.072917 775.25 L 282.03125 774 L 281.770833 773 L 282.291667 772 L 283.59375 770.75 L 282.03125 770.5 L 280.729167 771 L 279.6875 772 L 279.166667 773.75 L 278.90625 776 L 278.385417 777.25 L 277.604167 777.5 L 275.78125 777.5 L 274.21875 777 L 272.916667 776.25 L 271.875 775 L 271.09375 773 L 271.614583 772.5 L 274.739583 768.5 L 275.78125 766 L 276.302083 762.5 L 276.302083 759.5 L 274.479167 757.5 L 273.697917 757.5 L 272.916667 757.75 L 272.395833 758 L 269.791667 756.5 L 267.708333 756 L 266.666667 756 L 265.625 756.5 L 264.84375 758.75 L 263.28125 759.25 L 262.760417 759 L 261.979167 758.75 L 261.71875 758.25 L 261.197917 757 L 261.197917 755.25 L 260.677083 754.75 L 259.375 754.25 L 258.854167 754.25 L 257.8125 754.75 L 256.25 755 L 255.729167 755.25 L 254.947917 755.25 L 254.6875 755 L 254.6875 754.75 L 254.427083 753 L 253.645833 752 L 251.822917 751 L 251.822917 748.25 L 252.083333 747.25 L 252.083333 747.5 L 253.125 748 L 253.645833 747.5 L 254.6875 747 L 260.416667 746 L 261.71875 744 L 264.322917 742.5 L 264.84375 741.75 L 266.145833 739 L 266.40625 738 L 266.927083 737.5 L 269.270833 734.25 L 269.791667 733.25 L 271.614583 730.75 L 272.135417 728 L 273.697917 723.25 L 276.041667 709 L 277.604167 704.25 L 279.6875 693 L 283.59375 668.75 L 285.416667 656.5 L 285.9375 651 L 285.677083 650 L 285.15625 647.5 L 285.416667 646.75 L 286.979167 644.25 L 286.979167 643.75 L 288.28125 638.75 L 289.583333 637.25 L 291.145833 637 L 295.052083 638 L 297.135417 637.75 L 298.4375 636.75 L 298.4375 635.5 L 296.875 634 L 297.65625 634 L 297.135417 632.5 L 292.447917 628.25 L 291.40625 627.75 L 290.885417 627.25 L 290.625 627.25 L 290.364583 627.5 L 290.104167 628 L 290.104167 628.25 L 289.84375 628.5 L 289.583333 629.25 L 286.71875 633.5 L 285.9375 637.5 L 285.15625 640.5 L 288.802083 597.5 L 291.40625 583.5 L 292.447917 565 L 292.96875 563.5 L 295.052083 559.25 L 295.833333 558 L 296.875 557.5 L 297.65625 558.25 L 297.65625 560 L 297.395833 560.25 L 297.395833 561.5 L 298.177083 562.75 L 298.697917 563.5 L 302.864583 566.5 L 305.46875 568 L 306.510417 568.5 L 313.802083 576.75 L 315.625 579.25 L 316.40625 582 L 316.40625 583.75 L 317.1875 587 L 318.489583 595.25 L 318.75 596.25 L 320.833333 601.25 L 322.916667 604 L 325.260417 606.25 L 327.34375 607.5 L 327.864583 608 L 328.385417 609.25 L 328.385417 613.25 L 328.645833 615 L 329.166667 616.5 L 329.947917 617 L 329.6875 616 L 329.427083 613.5 L 329.166667 612.5 L 329.6875 610 L 328.90625 608 L 327.604167 606.75 L 326.302083 605.75 L 328.125 606 L 329.6875 606.25 L 330.989583 607 L 332.552083 608 L 330.989583 605.5 L 328.385417 604.25 L 325.78125 603.25 L 323.697917 601.5 L 322.395833 599.25 L 321.614583 596.5 L 319.270833 579.75 L 318.489583 576.25 L 316.40625 570.75 L 315.104167 568.25 L 313.802083 566 L 310.9375 562.75 L 302.083333 556.25 L 302.083333 556 L 301.822917 554.25 L 301.302083 554 L 299.21875 553.25 L 296.09375 549.75 L 294.010417 549 L 292.96875 548.75 L 291.927083 548.25 L 290.364583 546.25 L 289.322917 545.5 L 286.979167 546 L 285.9375 545.5 L 286.979167 539.25 L 286.979167 538 L 290.885417 537 L 292.1875 537 L 296.09375 541.5 L 296.875 542 L 297.65625 542.75 L 302.083333 544.75 L 300.520833 543.25 L 295.052083 538.75 L 293.489583 536.75 L 293.229167 536 L 292.96875 535 L 292.708333 533.5 L 292.1875 532.25 L 291.927083 531.5 L 292.96875 530.5 L 293.489583 529.5 L 294.270833 529 L 295.3125 528.5 L 295.572917 528.25 L 296.09375 528.5 L 296.614583 528.25 L 296.875 527.25 L 296.875 526.25 L 296.354167 525.25 L 296.09375 524.5 L 295.572917 524 L 296.09375 523.75 L 296.614583 523 L 296.875 523 L 295.833333 522.25 L 295.3125 521 L 294.270833 518 L 295.572917 519 L 296.614583 519 L 297.395833 518.25 L 298.177083 516.75 L 298.177083 516.25 L 297.916667 515.75 L 297.395833 515.5 L 297.135417 515 L 296.09375 514.5 L 295.572917 514 L 295.572917 513 L 295.3125 511.75 L 295.3125 510.5 L 294.791667 510.5 L 294.010417 510.25 L 294.010417 510 L 293.489583 509.75 L 293.229167 509.5 L 293.229167 509 L 294.010417 508.25 L 292.447917 507 L 291.927083 507 L 291.927083 505.75 L 290.625 505.75 L 289.84375 505.5 L 288.802083 505.5 L 288.28125 505 L 288.020833 504 L 289.0625 502.5 L 289.583333 502 L 289.322917 500.5 L 290.104167 499.25 L 294.270833 496.5 L 294.791667 495.5 L 294.791667 494.75 L 294.53125 494 L 294.270833 492.5 L 292.96875 490.75 L 290.104167 490.5 L 288.020833 492 L 288.020833 494.75 L 286.197917 494.25 L 285.15625 492.75 L 284.114583 491 L 283.072917 491 L 282.291667 490.75 L 280.46875 489.5 L 279.166667 488.5 L 278.385417 488 L 275 489 L 273.4375 489 L 272.65625 487 L 272.395833 484.75 L 271.354167 483.25 L 270.052083 482.25 L 268.229167 482 L 264.0625 481.75 L 262.5 481 L 263.020833 480 L 261.979167 479 L 258.59375 478.5 L 256.510417 476.5 L 254.947917 476.25 L 254.166667 475.75 L 253.645833 475 L 252.864583 473 L 252.34375 472 L 252.34375 473 L 252.604167 474.5 L 252.864583 475.5 L 252.604167 475.75 L 252.083333 475.5 L 251.302083 474.5 L 250 468 L 250.260417 466.5 L 249.21875 466 L 248.697917 465 L 248.4375 463.75 L 248.177083 462.75 L 246.09375 460.75 L 245.572917 460 L 244.791667 457.75 L 244.010417 457 L 241.927083 456.5 L 241.40625 456 L 239.583333 452.25 L 236.197917 448.5 L 234.375 447.25 L 232.8125 446.75 L 231.770833 446 L 231.510417 444.75 L 231.25 443 L 231.25 439.5 L 231.770833 438.5 L 233.333333 437.5 L 233.072917 436 L 233.854167 435 L 236.197917 433.5 L 236.979167 432.25 L 238.020833 429 L 238.802083 427.5 L 239.84375 426.5 L 239.84375 425 L 239.0625 423.5 L 237.5 421.5 L 233.59375 419.25 L 226.5625 418 L 224.479167 416.75 L 225.260417 416.25 L 226.5625 415 L 228.645833 415 L 229.166667 414.5 L 229.427083 413.75 L 229.427083 411.25 L 228.90625 409.75 L 228.645833 408.5 L 228.645833 407.5 L 228.90625 406.25 L 229.427083 405 L 229.947917 404.25 L 231.510417 403.75 L 236.979167 403 L 238.020833 402.5 L 238.28125 402.5 L 239.322917 403.5 L 242.447917 404.5 L 243.489583 404.25 L 242.96875 403.75 L 243.75 403.75 L 244.270833 404 L 245.052083 404.25 L 245.572917 405 L 244.270833 405 L 244.270833 405.5 L 246.875 407.5 L 249.479167 408 L 250 408.5 L 251.302083 410 L 252.864583 410.5 L 256.25 410.5 L 254.947917 409.75 L 252.34375 409.25 L 251.302083 408.5 L 249.479167 406.25 L 247.395833 404.25 L 245.052083 403 L 244.010417 402.5 L 242.447917 402.5 L 241.927083 402.25 L 240.885417 401.5 L 238.802083 400.75 L 230.208333 401.25 L 228.125 402.5 L 227.864583 403.25 L 227.604167 403.75 L 227.083333 404.25 L 226.5625 405 L 224.739583 405.5 L 223.177083 407 L 222.135417 407.5 L 220.833333 407.5 L 219.791667 407 L 218.75 406 L 217.1875 404.25 L 216.40625 403.75 L 215.364583 403.5 L 214.583333 403.5 L 213.802083 404.25 L 213.28125 405.25 L 213.28125 405.5 L 211.71875 405.5 L 205.729167 402.5 L 205.729167 402 L 207.291667 402 L 209.895833 403.25 L 211.197917 403 L 212.239583 402 L 211.71875 400.5 L 210.416667 399.5 L 209.635417 398 L 209.114583 398.5 L 208.854167 398.5 L 208.59375 398.75 L 209.114583 399.5 L 209.114583 399.75 L 208.59375 400.5 L 208.333333 400.5 L 208.072917 398 L 207.291667 396.5 L 204.947917 395 L 209.895833 392 L 210.416667 392 L 211.979167 392.5 L 211.979167 393 L 211.71875 393 L 211.979167 393.75 L 212.760417 393 L 214.84375 391.75 L 215.104167 391.25 L 214.0625 391 L 212.5 391 L 211.71875 390.5 L 211.979167 389.25 L 211.197917 388.5 L 209.895833 388.5 L 209.114583 388 L 209.635417 386.25 L 208.59375 385 L 209.375 384.5 L 213.28125 384.25 L 215.625 383.5 L 216.927083 383.5 L 215.885417 383.5 L 214.0625 383.75 L 213.020833 383.5 L 208.333333 381.75 L 207.291667 381.5 L 206.510417 381.75 L 204.427083 382.5 L 201.5625 382.5 L 201.302083 383 L 200.78125 383 L 200.260417 382.5 L 201.041667 382.25 L 202.083333 381.5 L 203.125 380.5 L 203.645833 379.25 L 202.604167 380.25 L 201.822917 380.5 L 200.78125 380.25 L 199.739583 380.5 L 200.260417 380.5 L 200.78125 380.75 L 200.78125 381.25 L 201.041667 381.75 L 199.479167 381.75 L 198.697917 381.5 L 198.177083 381 L 197.916667 383.25 L 197.135417 383.75 L 195.052083 383 L 194.010417 383 L 190.885417 384.25 L 189.583333 384.5 L 188.020833 384 L 186.979167 383 L 186.979167 382.75 L 185.9375 381 L 185.677083 380.75 L 185.416667 380.25 L 184.895833 380 L 184.114583 380 L 184.114583 379.25 L 183.072917 379 L 184.114583 378 L 185.677083 378 L 186.71875 380 L 186.979167 380 L 187.760417 379.25 L 188.28125 379.5 L 188.802083 380 L 188.802083 379.5 L 189.322917 378 L 190.104167 379.25 L 191.666667 379.75 L 193.489583 379.5 L 194.791667 378.5 L 194.270833 378 L 196.614583 374.5 L 196.875 373 L 195.572917 371 L 195.572917 371.75 L 196.09375 372.25 L 196.354167 373 L 195.833333 373.5 L 195.052083 373.5 L 196.09375 374.25 L 195.572917 374.5 L 195.572917 374.75 L 194.791667 375 L 194.270833 374.5 L 191.40625 372.5 L 192.708333 372.5 L 194.010417 373 L 193.229167 372 L 192.447917 371.5 L 190.625 371 L 191.40625 371.75 L 190.104167 372.25 L 186.71875 372.5 L 186.197917 373.25 L 185.677083 374.5 L 184.375 375 L 182.291667 375.5 L 182.291667 375 L 182.8125 375 L 182.8125 374.25 L 182.03125 374.25 L 181.770833 374.5 L 181.510417 375 L 180.989583 375 L 180.989583 373.75 L 180.729167 372.75 L 180.989583 372 L 181.510417 371.75 L 180.729167 371.75 L 179.947917 371.25 L 179.427083 369.25 L 178.90625 369.25 L 179.166667 370 L 179.427083 371 L 179.427083 374 L 179.6875 374.75 L 180.208333 375.75 L 180.989583 376.75 L 181.510417 377.5 L 181.510417 378 L 180.989583 378.5 L 180.989583 378.25 L 180.208333 377.5 L 179.6875 377.75 L 179.427083 377.25 L 178.645833 376.25 L 177.864583 375.5 L 178.125 376.75 L 177.864583 377.25 L 177.083333 377 L 176.822917 375.75 L 176.822917 374.5 L 176.302083 374.5 L 176.041667 375.5 L 176.5625 376.75 L 175.520833 376.75 L 174.739583 376 L 172.916667 377.25 L 171.875 377.25 L 171.09375 376.75 L 171.875 376 L 171.09375 375.5 L 170.572917 375 L 169.791667 375.25 L 169.270833 376 L 170.052083 376.75 L 169.270833 380 L 169.791667 382.5 L 170.833333 384.5 L 172.135417 386.25 L 171.354167 386.25 L 170.052083 385.75 L 169.791667 386.25 L 169.270833 386.25 L 168.489583 383.5 L 168.489583 381.75 L 169.010417 380.25 L 169.270833 379 L 169.010417 376.75 L 168.75 375.25 L 167.96875 374 L 167.1875 373 L 166.40625 372.5 L 165.364583 372 L 165.104167 371.5 L 165.104167 370.25 L 165.885417 367.5 L 170.572917 365.5 L 170.3125 365 L 170.3125 364.5 L 170.052083 363.75 L 170.052083 363 L 169.791667 363 L 169.010417 363.5 L 168.75 363.5 L 168.75 361 L 168.489583 361 L 167.96875 362 L 166.40625 361.5 L 165.625 361.5 L 166.40625 362 L 166.927083 362.5 L 167.1875 363.5 L 167.708333 364.75 L 167.1875 365 L 167.1875 365.5 L 166.40625 365 L 165.885417 365.25 L 165.625 366 L 164.583333 366 L 164.84375 366.5 L 165.625 367.5 L 164.583333 367.75 L 164.322917 368.5 L 164.0625 369.5 L 163.541667 370 L 163.020833 369.5 L 161.197917 367.5 L 159.635417 367 L 156.770833 366.25 L 155.208333 366 L 156.510417 365.5 L 157.552083 365.75 L 159.895833 366.75 L 159.895833 366 L 159.114583 365.5 L 157.8125 365 L 155.208333 364.75 L 155.208333 364.25 L 155.729167 364 L 155.989583 364 L 155.989583 362.5 L 156.25 362.25 L 157.291667 362.5 L 157.8125 362.25 L 158.59375 360.25 L 159.114583 359 L 159.895833 358.5 L 159.895833 357.75 L 158.59375 359.5 L 156.770833 361 L 154.947917 362 L 153.645833 362.5 L 154.6875 363 L 154.947917 363.5 L 154.947917 364.25 L 149.739583 365.5 L 148.958333 365.25 L 148.697917 364.75 L 146.875 362.25 L 145.833333 360.5 L 145.3125 359.5 L 145.052083 359.25 L 144.791667 358.5 L 144.010417 359 L 142.96875 359 L 140.885417 358.5 L 138.802083 358.5 L 138.28125 358.25 L 137.239583 357.25 L 134.895833 357.5 L 133.59375 357 L 133.072917 355.75 L 132.8125 355.5 L 129.427083 357.25 L 128.385417 356.5 L 127.083333 356.5 L 125.78125 356.75 L 124.739583 356.5 L 124.479167 356.25 L 123.4375 354 L 122.65625 353.25 L 122.395833 352.75 L 122.65625 351.5 L 121.614583 351.5 L 120.833333 351 L 120.572917 350 L 119.53125 348.5 L 117.96875 347.5 L 116.40625 347 L 116.927083 349 L 116.40625 350.5 L 115.104167 352 L 113.802083 351.5 L 114.84375 351.5 L 115.104167 351 L 115.364583 350.25 L 114.583333 350.5 L 114.0625 350.5 L 113.541667 350.75 L 113.28125 351.5 L 111.458333 350 L 110.677083 349.75 L 109.635417 349.75 L 108.072917 348.25 L 107.552083 346.75 L 107.291667 345.25 L 106.770833 346.25 L 107.03125 347.75 L 107.8125 349 L 108.59375 349.75 L 108.59375 350.25 L 107.8125 350.25 L 107.291667 350.5 L 106.770833 351 L 105.989583 351.5 L 104.947917 349.5 L 104.166667 349.75 L 103.90625 351 L 104.6875 351.5 L 104.6875 352 L 104.427083 352.25 L 104.427083 352.75 L 105.989583 352.75 L 105.989583 353.5 L 104.166667 355.5 L 103.125 356 L 101.5625 356.5 L 92.447917 356 L 92.708333 355.25 L 92.447917 354 L 92.447917 353.5 L 92.96875 353.25 L 93.489583 353.25 L 94.010417 353 L 94.270833 352.5 L 94.010417 351 L 92.447917 346 L 91.666667 344.25 L 88.802083 340.5 L 83.072917 336 L 82.552083 335.75 L 81.770833 336.25 L 80.989583 337.25 L 80.208333 337.75 L 78.385417 335.75 L 77.083333 335.5 L 75 335.75 L 70.572917 334.5 L 71.09375 333.5 L 71.614583 333 L 71.875 332.25 L 71.875 331.5 L 72.135417 331.25 L 72.395833 331.25 L 73.177083 332 L 93.229167 327.5 L 96.614583 328.5 L 97.65625 328.25 L 97.916667 327.5 L 98.4375 325 L 98.177083 324 L 97.395833 322.75 L 97.135417 322 L 96.875 320 L 96.09375 319.25 L 93.489583 318.5 L 92.96875 318.25 L 92.447917 317.75 L 92.1875 317.25 L 92.1875 316.75 L 90.625 317.25 L 87.239583 315 L 85.416667 315.75 L 84.635417 317.5 L 83.59375 319.5 L 82.8125 321.25 L 80.989583 321.75 L 81.510417 319.75 L 81.770833 319.25 L 81.25 318 L 80.729167 317.25 L 80.729167 316.75 L 80.989583 315.5 L 81.510417 315.25 L 81.770833 314.75 L 81.25 313.75 L 80.46875 313.5 L 76.822917 313.5 L 77.083333 312.5 L 76.822917 311.5 L 77.604167 311.25 L 78.125 311.25 L 78.385417 311.5 L 79.166667 311.5 L 79.947917 311.25 L 80.208333 310.75 L 79.947917 310 L 79.6875 309.75 L 80.989583 306.75 L 81.770833 306 L 82.8125 306.5 L 81.770833 310 L 83.59375 310.75 L 89.322917 310.5 L 89.84375 310.75 L 90.625 311.5 L 92.1875 311.5 L 95.052083 310.75 L 99.21875 310.5 L 98.958333 310.75 L 98.4375 311 L 97.65625 311 L 98.958333 311.5 L 103.90625 310.5 L 103.90625 309.75 L 102.083333 309.75 L 101.302083 309.5 L 101.041667 308.5 L 100.520833 309 L 99.479167 309.25 L 98.697917 309 L 98.4375 308 L 98.177083 308.25 L 95.572917 308.5 L 96.09375 307.5 L 96.09375 307.25 L 96.875 307 L 96.875 306.75 L 97.135417 306.25 L 97.65625 306 L 98.958333 304.5 L 97.916667 304.5 L 95.572917 306 L 95.572917 305.25 L 95.833333 305.25 L 95.833333 304.5 L 95.572917 304.5 L 95.3125 305 L 94.791667 305.5 L 94.791667 306 L 93.75 305.5 L 91.927083 306.75 L 90.364583 307 L 90.885417 306.5 L 90.364583 306 L 89.84375 306.5 L 89.322917 306.75 L 88.28125 307 L 87.5 307 L 87.5 306.5 L 90.885417 302.25 L 91.666667 301.5 L 97.65625 298 L 94.53125 299.5 L 93.229167 300 L 89.322917 300.75 L 87.239583 301.5 L 83.333333 304 L 80.208333 304.75 L 78.385417 305.75 L 77.34375 306 L 76.302083 305.5 L 73.958333 304.75 L 72.916667 304.5 L 72.65625 304.75 L 72.65625 305.5 L 72.395833 306.25 L 71.875 306.5 L 68.75 306.5 L 67.96875 306.25 L 67.447917 305.25 L 67.1875 303.25 L 68.229167 303.25 L 68.229167 302 L 67.1875 299.5 L 66.927083 297.75 L 67.1875 296 L 67.96875 294.75 L 69.270833 294.25 L 69.270833 293.75 L 67.708333 292.5 L 68.229167 290 L 69.791667 287 L 70.833333 285.5 L 71.614583 285.75 L 72.135417 286 L 71.614583 285.5 L 72.65625 284.75 L 73.958333 284.25 L 75.78125 284 L 77.083333 284.5 L 79.166667 285.5 L 79.6875 285.5 L 78.385417 283.5 L 77.864583 282 L 78.90625 281.5 L 81.510417 282.25 L 82.8125 282.25 L 80.989583 281.5 L 81.25 281.25 L 81.510417 280.75 L 81.25 280.5 L 80.729167 280.25 L 80.729167 279.5 L 86.979167 279.5 L 89.0625 278.5 L 90.364583 278.25 L 89.583333 277.75 L 89.322917 277.75 L 89.322917 277 L 90.885417 276.75 L 92.708333 275.75 L 94.270833 275 L 95.833333 275 L 96.875 276.5 L 96.614583 278.5 L 97.916667 278.25 L 100.520833 277 L 101.302083 277.25 L 102.604167 277.75 L 103.645833 277.75 L 103.645833 277 L 102.34375 276.75 L 102.604167 275.75 L 103.90625 274.5 L 104.6875 274 L 107.291667 273 L 108.854167 273.25 L 109.895833 274 L 110.416667 273.25 L 110.677083 273.25 L 110.9375 273.75 L 111.197917 274.5 L 111.71875 274.5 L 112.239583 273.5 L 112.239583 272.75 L 111.979167 272 L 113.020833 271.75 L 113.802083 271.5 L 115.104167 270.5 L 117.1875 270 L 117.447917 270.25 L 117.447917 271 L 117.1875 271.75 L 117.1875 272.25 L 117.96875 272.5 L 117.96875 273.25 L 117.447917 273.25 L 117.447917 274 L 118.229167 274.25 L 118.489583 275 L 118.75 276 L 118.229167 277 L 120.052083 275.25 L 121.09375 274.75 L 122.135417 275 L 121.354167 275.75 L 121.354167 276.5 L 122.135417 277.5 L 123.958333 278.5 L 124.739583 279.5 L 125.260417 279 L 124.739583 278.25 L 125.260417 277.75 L 124.739583 276.25 L 124.21875 274.5 L 124.739583 274.5 L 125 275 L 125 275.25 L 125.520833 275.75 L 125.520833 272.25 L 126.041667 271.25 L 126.822917 272 L 127.34375 271 L 127.34375 270 L 128.125 271 L 129.427083 271.5 L 132.03125 271.25 L 132.8125 271.5 L 134.114583 272.75 L 134.895833 273.25 L 135.677083 273.25 L 138.020833 272.5 L 138.020833 274.25 L 139.322917 274.5 L 141.145833 274.5 L 142.1875 274.25 L 141.40625 272 L 141.40625 270 L 144.791667 269.25 L 143.75 268.75 L 141.666667 266 L 141.40625 264.5 L 142.1875 263.75 L 143.75 263 L 145.3125 260.5 L 145.572917 259.75 L 145.833333 259.75 L 146.614583 260.25 L 148.4375 260.25 L 150.520833 261.5 L 151.302083 261.5 L 151.041667 262 L 150.78125 262.25 L 150.78125 262.5 L 150.520833 263 L 152.864583 263 L 153.385417 262.5 L 153.90625 261.75 L 154.427083 261.5 L 159.635417 259.5 L 160.416667 259 L 160.677083 259 L 161.458333 259.25 L 163.28125 256.75 L 164.322917 257 L 164.583333 258.5 L 164.583333 260.25 L 164.0625 262 L 163.28125 263 L 163.28125 263.25 L 163.541667 263.5 L 163.802083 264.25 L 164.0625 263 L 164.583333 262 L 166.40625 259.75 L 167.96875 258.5 L 168.489583 257.75 L 169.010417 258 L 170.3125 256.75 L 171.09375 256.5 L 171.875 257 L 172.135417 257.75 L 172.135417 258.75 L 171.875 259.75 L 171.875 260.25 L 172.65625 261 L 172.135417 261.75 L 171.354167 264.25 L 171.09375 265 L 169.791667 266.75 L 169.791667 267.5 L 170.052083 267.5 L 172.135417 263.25 L 173.4375 261.5 L 174.479167 261.5 L 175 261 L 176.302083 261 L 176.822917 261.5 L 176.5625 262.25 L 176.822917 262.5 L 176.822917 263 L 176.302083 263 L 175.78125 263.5 L 174.739583 264.25 L 174.739583 264.75 L 175.520833 265.5 L 177.083333 266 L 180.208333 266.25 L 181.510417 266.75 L 181.510417 268.75 L 180.989583 269.25 L 180.729167 269.25 L 180.729167 270 L 181.510417 270.5 L 182.8125 271.5 L 183.59375 272.5 L 184.114583 273.5 L 188.020833 277 L 188.802083 279.75 L 189.0625 280.5 L 189.0625 281 L 188.802083 281.5 L 188.802083 282 L 189.0625 282.5 L 189.322917 282.75 L 191.666667 284.25 L 195.052083 286 L 194.791667 287 L 194.791667 287.5 L 194.270833 288 L 194.010417 288.5 L 194.53125 288.5 L 195.3125 289 L 195.572917 289.5 L 196.09375 290.25 L 197.135417 291 L 197.135417 288.75 L 197.395833 288 L 200 288 L 200.78125 287.75 L 202.083333 286.5 L 203.645833 284 L 204.6875 283 L 205.729167 282.5 L 209.895833 280 L 210.9375 279 L 210.9375 278.25 L 210.416667 278.25 L 209.114583 277.75 L 211.979167 277 L 213.28125 277 L 213.802083 278.25 L 215.364583 277.75 L 217.1875 276.5 L 219.010417 275 L 219.791667 273.25 L 220.052083 274.25 L 220.3125 275 L 221.09375 275.25 L 221.875 275 L 221.875 275.75 L 221.09375 276.5 L 220.833333 277.25 L 220.572917 277.75 L 219.010417 279.5 L 220.052083 280.5 L 221.09375 279.75 L 222.395833 278.5 L 223.697917 277.75 L 224.21875 278.25 L 224.479167 280.5 L 224.479167 281 L 225.260417 281.25 L 225.78125 282 L 226.041667 283 L 226.041667 284 L 226.822917 283.75 L 227.083333 283 L 227.34375 282 L 227.34375 281 L 227.604167 282.25 L 228.125 283.5 L 228.385417 284 L 229.427083 283.5 L 229.427083 282.75 L 229.166667 282.75 L 228.645833 282.25 L 229.427083 281.25 L 230.208333 280.5 L 230.729167 280.75 L 231.510417 281.5 L 231.25 281 L 230.729167 280.25 L 230.208333 279 L 233.072917 278 L 236.197917 277.75 L 236.197917 278 L 237.5 280.5 L 237.5 281.5 L 238.020833 282.5 L 238.541667 283.25 L 239.322917 283.5 L 239.0625 284.5 L 238.802083 284.75 L 240.364583 287.25 L 240.885417 288.5 L 240.625 290.5 L 241.145833 289.75 L 242.96875 288.5 L 241.40625 287.25 L 241.666667 286.5 L 240.625 285 L 240.625 283.5 L 240.885417 283.5 L 241.145833 284 L 241.40625 284 L 242.1875 284.75 L 241.666667 283.5 L 241.145833 283 L 240.625 282.75 L 239.84375 282.75 L 239.322917 282.25 L 238.020833 279.5 L 237.5 278.25 L 237.760417 277.5 L 238.802083 276 L 239.84375 275.75 L 240.104167 275.5 L 240.104167 274.25 L 240.625 274 L 242.96875 274 L 242.708333 273.25 L 248.958333 272 L 248.697917 272.25 L 248.697917 272.75 L 248.958333 273.25 L 249.479167 274 L 247.916667 276.5 L 247.916667 278.5 L 249.21875 280.25 L 251.822917 281 L 256.510417 281 L 261.197917 280.25 L 264.322917 278.5 L 264.583333 278.5 L 265.364583 278.25 L 270.3125 279 L 276.822917 277.5 L 279.166667 278.25 L 278.125 276.75 L 276.822917 276 L 274.479167 275.75 L 274.479167 276 L 274.21875 276.5 L 273.697917 276.5 L 273.697917 276 L 272.916667 274.5 L 270.833333 274 L 270.052083 273.5 L 269.791667 273 L 269.270833 270.75 L 266.927083 268.5 L 266.40625 266.5 L 266.40625 263.75 L 266.145833 261.5 L 265.364583 260 L 263.802083 259.75 L 263.802083 259 L 264.583333 258.5 L 265.364583 257.75 L 265.885417 256.75 L 266.40625 252.25 L 266.666667 251.25 L 267.1875 252 L 267.708333 251 L 267.708333 250 L 267.1875 249.5 L 266.666667 249.5 L 266.40625 248.75 L 266.927083 243.5 L 267.447917 242 L 268.229167 241.5 L 269.791667 242.25 L 269.791667 241.5 L 268.489583 241 L 267.1875 241 L 265.885417 241.75 L 265.625 243.25 L 265.364583 243.5 L 264.84375 243 L 264.322917 242 L 264.322917 238 L 264.583333 237 L 263.802083 237 L 263.541667 236.25 L 263.541667 235 L 263.802083 234 L 264.322917 232.75 L 264.583333 232 L 265.885417 231.25 L 265.104167 230.75 L 264.583333 231.25 L 264.322917 229.75 L 263.802083 228 L 263.541667 226 L 263.28125 224.5 L 263.802083 223.5 L 265.104167 223.5 L 267.1875 224 L 267.1875 223.5 L 265.885417 223 L 264.322917 222.25 L 263.020833 222.25 L 262.5 224 L 261.458333 223 L 260.416667 219.5 L 259.635417 218.25 L 260.416667 217.5 L 258.59375 216.25 L 257.8125 215.25 L 257.291667 213.75 L 258.59375 213.75 L 258.59375 213 L 257.8125 211 L 257.291667 211 L 256.770833 212.75 L 255.729167 212 L 254.427083 210.5 L 253.125 209.75 L 253.385417 209 L 253.385417 208.75 L 253.645833 208.5 L 252.083333 209 L 251.302083 209 L 250.78125 208.5 L 250.520833 207.25 L 250.78125 204 L 250.78125 202.5 L 250.260417 201.5 L 249.21875 199.75 L 249.21875 198.75 L 248.958333 198 L 248.4375 197 L 246.875 195 L 246.354167 194.5 L 246.875 193 L 248.697917 191.5 L 248.958333 190.5 L 249.21875 187.5 L 249.21875 186 L 248.697917 184.5 L 248.177083 183.5 L 247.916667 182.75 L 247.395833 182 L 245.3125 181.5 L 242.708333 180.5 L 243.229167 178.25 L 242.96875 176.75 L 243.229167 176 L 245.052083 175.75 L 245.572917 176 L 246.875 177 L 249.739583 177 L 250 177.5 L 250.520833 178.75 L 250.78125 179 L 250.78125 179.25 L 251.5625 179 L 251.822917 179 L 253.385417 179.5 L 257.291667 180.25 L 261.979167 181.75 L 263.020833 181.75 L 263.020833 182.5 L 263.28125 183 L 264.322917 183 L 265.104167 182 L 265.625 181.75 L 266.40625 182 L 267.708333 182.5 L 268.489583 182.5 L 269.53125 182 L 270.572917 181 L 272.135417 178.75 L 272.916667 178 L 275.78125 177.25 L 277.083333 177 L 284.375 178.5 L 284.895833 178.75 L 285.15625 179.5 L 285.416667 181 L 286.71875 184 L 286.979167 185.5 L 285.416667 186.75 L 285.15625 187.5 L 285.15625 188.5 L 284.895833 189 L 282.8125 189 L 282.552083 189.5 L 282.291667 192 L 283.072917 193.75 L 284.114583 195.5 L 284.895833 198 L 289.583333 204 L 290.364583 205.5 L 290.625 207.5 L 290.104167 209.5 L 289.583333 210 L 289.84375 211 L 290.364583 211 L 291.145833 210.5 L 291.927083 210.5 L 292.447917 211 L 292.96875 211.75 L 293.489583 212 L 294.791667 211.75 L 294.791667 211 L 294.010417 210.25 L 294.53125 209 L 295.572917 207.75 L 296.614583 207.25 L 304.947917 207.75 L 312.239583 210.5 L 322.916667 211 L 325.520833 212 L 327.083333 212 L 329.166667 210.75 L 330.729167 211.25 L 333.333333 212.5 L 337.5 212.5 L 338.802083 212.75 L 340.625 214 L 343.75 214.75 L 349.479167 218.25 L 351.041667 217 L 360.9375 214.5 L 363.802083 213 L 365.625 211.75 L 366.927083 211.25 L 367.447917 210.75 L 369.010417 208.5 L 373.177083 205.5 L 380.729167 203.75 L 388.541667 202 L 391.40625 200.5 L 392.447917 199.5 L 393.489583 198 L 389.322917 200.75 L 384.114583 201.5 L 378.90625 200.75 L 374.479167 199.25 L 372.135417 199.25 L 370.572917 198.75 L 369.53125 198 L 368.75 196.5 L 367.96875 196 L 367.708333 195 L 367.708333 194 L 371.09375 187.5 L 373.697917 179 L 374.479167 178 L 377.604167 175.5 L 378.385417 175.5 L 378.90625 175 L 386.979167 171 L 387.760417 170.25 L 395.3125 165.5 L 397.395833 165 L 400 163.25 L 404.6875 161.5 L 410.15625 161.5 L 435.677083 153.25 L 436.979167 152 L 438.541667 151.5 L 441.145833 148.75 L 449.21875 142.25 L 452.34375 138.25 L 453.125 137.5 L 453.645833 136.75 L 454.947917 131.75 L 457.291667 128.75 L 459.375 128.5 L 465.364583 131.5 L 465.885417 131.5 L 466.40625 131 L 466.40625 130.25 L 465.625 130.25 L 465.104167 129.75 L 464.84375 129 L 466.145833 129 L 466.145833 128.25 L 464.84375 128.25 L 463.541667 128 L 462.760417 127 L 462.239583 126 L 461.71875 124.75 L 459.114583 123.5 L 458.333333 122.75 L 458.59375 119.5 L 459.114583 115.75 L 460.416667 113.25 L 461.71875 113.5 L 462.760417 113.75 L 462.760417 113 L 459.375 110.5 L 459.375 109.75 L 460.416667 106.5 L 460.416667 102 L 460.677083 98 L 462.760417 96.5 L 460.9375 94 L 460.677083 92.5 L 460.416667 88 L 459.895833 83.75 L 459.635417 81.75 L 459.895833 80 L 461.197917 76.25 L 461.979167 74.75 L 462.5 73 L 461.979167 70.5 L 460.9375 67 L 460.9375 65.5 L 460.677083 65 L 462.239583 64 L 463.020833 63.75 L 464.322917 63.5 L 465.364583 63 L 466.40625 62 L 468.229167 59.5 L 470.052083 57.75 L 481.770833 52.5 L 483.072917 52.75 L 485.15625 51.5 L 495.052083 50.25 L 505.729167 46.75 L 506.510417 46.5 L 506.770833 46.5 L 510.677083 46.75 L 515.625 45.5 L 518.229167 44.25 L 519.010417 43.75 Z M 485.677083 827 L 486.71875 827 L 486.197917 825.75 L 485.416667 824.25 L 484.895833 823.5 L 484.114583 823.75 L 483.333333 825.25 L 483.59375 826.25 L 484.375 827 Z M 948.177083 809.75 L 949.739583 812 L 949.479167 812 Z M 893.229167 846.5 L 893.489583 845.5 L 893.229167 845 L 892.1875 844.75 L 891.927083 844.5 L 891.927083 843.75 L 892.708333 843.5 L 894.791667 843.5 L 895.3125 843 L 895.833333 842.75 L 898.177083 842.25 L 900.260417 841.25 L 900.520833 841.25 L 900.78125 840.5 L 899.739583 839.75 L 899.479167 839.5 L 897.395833 838.5 L 897.135417 838.25 L 896.875 837.5 L 896.614583 837.25 L 895.833333 838 L 895.572917 838 L 895.3125 837.75 L 895.3125 837 L 895.572917 836.75 L 897.395833 835.75 L 896.09375 834.5 L 894.53125 834.5 L 892.1875 835.75 L 892.708333 835 L 892.1875 834.25 L 892.1875 833.5 L 891.927083 832.5 L 892.1875 831.75 L 892.708333 832 L 893.229167 832 L 894.010417 831.75 L 894.270833 831 L 895.052083 831.5 L 895.3125 831.25 L 895.3125 830.5 L 895.833333 829.5 L 896.354167 829 L 898.177083 828.5 L 898.958333 828 L 898.958333 826.25 L 899.479167 825 L 900 824.5 L 898.958333 824 L 898.697917 823.75 L 898.697917 823.5 L 899.21875 821.25 L 900 820.5 L 901.302083 820 L 902.34375 819.5 L 902.083333 818.75 L 902.34375 817 L 901.822917 816 L 901.822917 815.5 L 902.34375 815.75 L 902.604167 815.75 L 902.604167 816 L 902.864583 816.75 L 903.90625 816 L 904.947917 817 L 905.729167 817.25 L 906.770833 817 L 907.552083 816 L 908.072917 815 L 908.333333 813.75 L 907.8125 813.25 L 910.15625 813 L 914.0625 811 L 921.09375 809.5 L 922.916667 808.5 L 923.177083 807 L 926.5625 803.25 L 927.083333 802.5 L 931.510417 802.5 L 934.635417 803.5 L 935.9375 804.25 L 936.197917 804.5 L 936.71875 805.25 L 936.979167 805.75 L 937.5 807.5 L 938.020833 807.5 L 940.104167 803.75 L 941.145833 801.25 L 940.625 799.5 L 940.885417 797.75 L 940.625 796.25 L 939.84375 795 L 938.802083 793.5 L 940.625 791.25 L 940.625 790.5 L 940.104167 789.75 L 940.104167 789 L 940.364583 788.25 L 940.885417 787.5 L 942.1875 786 L 941.927083 785.5 L 941.927083 785 L 942.1875 784.25 L 941.666667 783.5 L 941.145833 782.25 L 941.145833 780.75 L 941.40625 779.75 L 942.447917 779 L 944.791667 779 L 946.09375 778.5 L 946.875 779.75 L 947.395833 780.25 L 948.697917 781 L 948.697917 781.5 L 948.177083 782.25 L 947.916667 783 L 948.177083 784 L 948.958333 785 L 948.697917 786.5 L 950 794.25 L 949.739583 796.75 L 947.916667 804.5 L 947.916667 805.5 L 947.65625 806.75 L 947.916667 809.25 L 947.395833 809.75 L 947.395833 810.5 L 947.916667 810.75 L 948.177083 811 L 948.177083 811.5 L 948.4375 812 L 948.4375 812.5 L 948.177083 813.25 L 948.697917 813.5 L 948.958333 814.25 L 948.958333 814.75 L 949.479167 815.5 L 950 816 L 951.5625 816.75 L 951.302083 815.5 L 951.302083 815 L 950.260417 812.75 L 952.083333 815.5 L 952.604167 816.75 L 952.864583 818.5 L 952.604167 823.25 L 952.864583 825.75 L 953.645833 827.5 L 952.864583 831.25 L 952.864583 832.75 L 953.125 834.5 L 954.427083 837.75 L 954.427083 839.5 L 954.166667 849.75 L 954.427083 851.75 L 954.427083 854 L 954.166667 854.5 L 953.645833 855.25 L 952.083333 857 L 951.302083 858 L 950.520833 860 L 946.09375 866.25 L 945.3125 867 L 944.791667 868 L 944.791667 870.75 L 944.270833 876.5 L 944.791667 882.25 L 944.791667 888.25 L 944.53125 888.75 L 944.010417 889 L 943.489583 889.5 L 942.96875 890.25 L 942.708333 891 L 943.489583 891 L 943.229167 892.5 L 942.96875 893.5 L 942.447917 893.75 L 941.40625 893.75 L 941.145833 894.25 L 941.40625 895.5 L 940.625 895 L 939.583333 895 L 938.802083 894.75 L 938.020833 895 L 938.020833 895.75 L 937.5 896.5 L 937.239583 897.25 L 938.020833 897.75 L 940.104167 897 L 941.40625 896.75 L 941.927083 897.5 L 941.666667 898.75 L 940.885417 899.75 L 940.104167 900.5 L 939.0625 900.5 L 938.541667 901 L 938.020833 902 L 937.5 902.75 L 936.197917 903 L 936.71875 904 L 936.458333 904.5 L 936.197917 905.25 L 936.979167 905.5 L 937.239583 906 L 936.979167 906.75 L 936.197917 907.5 L 936.71875 908 L 935.677083 908.5 L 934.114583 909.5 L 933.072917 909.75 L 933.072917 910.25 L 933.59375 910.75 L 933.59375 912 L 933.072917 912.5 L 933.072917 913 L 933.59375 912.75 L 934.635417 911.75 L 935.416667 911.5 L 935.15625 912.5 L 934.635417 914 L 934.114583 915.25 L 933.59375 916 L 932.8125 916.5 L 931.770833 916.25 L 930.46875 914.75 L 929.427083 914.5 L 925.78125 913.5 L 926.5625 911.25 L 926.822917 911 L 927.34375 910.75 L 926.302083 910 L 925 909.25 L 923.958333 908.5 L 925 907.5 L 925 907 L 924.21875 907 L 922.395833 908.5 L 921.875 908 L 921.875 907.75 L 922.135417 907.75 L 922.395833 907.5 L 921.614583 907.5 L 921.09375 908 L 920.572917 907.5 L 920.052083 906.75 L 918.489583 906.25 L 916.927083 906 L 915.885417 906.25 L 914.322917 904.75 L 912.760417 904.5 L 912.5 904.25 L 912.5 903.75 L 911.458333 903.25 L 910.416667 903.25 L 909.895833 903 L 910.677083 902.25 L 910.677083 901.75 L 909.635417 901.25 L 909.114583 901.25 L 908.072917 901 L 907.291667 900.75 L 907.03125 900.5 L 907.291667 898.75 L 907.03125 898.25 L 906.25 897.75 L 906.510417 896.75 L 907.03125 895 L 907.8125 894 L 908.59375 894.5 L 911.979167 893 L 912.5 892.5 L 913.020833 891.25 L 913.541667 890.75 L 914.322917 890.25 L 915.104167 889.25 L 913.802083 889.25 L 909.895833 888 L 908.333333 888 L 906.770833 887.75 L 905.989583 887 L 906.510417 885.25 L 905.208333 885.25 L 902.604167 886.25 L 901.041667 886.5 L 901.302083 886 L 901.5625 885.25 L 900.78125 885.5 L 900 885.25 L 899.479167 885 L 898.697917 884.75 L 899.479167 884.25 L 901.041667 884 L 901.822917 883.5 L 902.34375 883 L 902.604167 882 L 902.604167 881.25 L 901.822917 880.75 L 901.822917 880.25 L 903.385417 880.25 L 904.6875 879.75 L 906.510417 878.5 L 906.25 877.75 L 905.729167 877.25 L 905.208333 877 L 904.427083 876.75 L 906.510417 876 L 907.03125 875.75 L 906.770833 875.5 L 906.770833 875 L 906.510417 874.5 L 906.25 874.5 L 906.770833 873.5 L 907.291667 873 L 907.8125 872.25 L 907.8125 871.5 L 907.03125 871 L 906.510417 870 L 905.989583 869.5 L 904.166667 869.5 L 902.083333 870.75 L 900.78125 871 L 898.177083 871.25 L 896.875 871.5 L 896.09375 872.25 L 895.572917 871 L 896.354167 869.75 L 896.09375 868.5 L 894.270833 866.5 L 897.395833 866.25 L 898.697917 865.75 L 899.479167 864.25 L 898.697917 863.75 L 899.21875 862.75 L 900.520833 861.75 L 901.822917 861.5 L 902.083333 861.25 L 903.645833 860.25 L 903.90625 860.25 L 904.166667 859.25 L 903.90625 858.75 L 902.864583 858 L 901.822917 855.5 L 901.302083 854.75 L 900.78125 854.75 L 898.958333 855.25 L 898.177083 853.75 L 896.875 853 L 895.572917 852.75 L 894.270833 852.75 L 894.53125 852 L 894.791667 851.75 L 894.270833 851.25 L 893.75 851 L 892.708333 851 L 893.229167 851 L 893.75 850.75 L 894.791667 850 L 894.791667 849.5 L 893.229167 849.5 L 893.229167 848.75 L 893.75 848.5 L 894.010417 847.75 L 893.75 847 Z M 287.5 524.75 L 287.239583 525.5 L 288.020833 526 L 289.583333 527.25 L 290.104167 528 L 290.364583 528.75 L 289.84375 532.5 L 289.0625 534.75 L 288.28125 536.25 L 286.979167 535.75 L 286.197917 532.5 L 285.677083 531.5 L 285.15625 530.25 L 281.510417 526 L 280.208333 525 L 278.90625 523.5 L 277.864583 521.75 L 278.125 521 L 278.125 520 L 277.604167 518 L 276.041667 515 L 278.125 515.25 L 280.208333 516.25 L 284.114583 520 L 284.895833 519.5 L 285.677083 519.5 L 286.71875 520.5 L 286.979167 521.5 L 286.979167 523.5 L 287.5 524 Z M 283.854167 505.75 L 283.59375 505.5 L 283.072917 505.25 L 280.46875 504.75 L 274.479167 501 L 270.833333 501.5 L 270.052083 501 L 267.447917 498.25 L 266.927083 497.75 L 266.927083 497.25 L 270.3125 496.25 L 271.614583 496.5 L 272.135417 497.5 L 272.135417 498 L 271.875 498.5 L 270.3125 497.75 L 269.791667 497.75 L 270.833333 499.5 L 272.395833 499.5 L 274.21875 498.75 L 275.78125 498.5 L 275.78125 499 L 275 499 L 275 499.75 L 275.78125 500.25 L 282.03125 501.25 L 283.59375 502.25 L 284.635417 503.5 L 285.416667 505.25 L 284.895833 505.25 Z M 218.489583 454 L 220.833333 455 L 221.875 456 L 222.65625 457.25 L 221.354167 456.5 L 216.40625 456.5 L 215.625 455 L 216.145833 454 Z M 226.822917 431 L 227.604167 432 L 229.6875 433 L 230.208333 433.5 L 230.729167 435 L 230.729167 436.75 L 230.46875 438 L 229.427083 437.5 L 228.385417 435.25 L 227.083333 433.25 L 225.78125 432.25 L 223.958333 433 L 222.916667 431.5 L 222.135417 428 L 221.09375 426.75 L 224.479167 426.5 L 225.78125 426.75 L 226.822917 427.5 L 227.083333 428.5 L 226.822917 429.75 Z M 170.3125 399.5 L 171.09375 400 L 172.916667 400 L 173.4375 400.5 L 173.177083 402.25 L 171.614583 402.75 L 166.927083 402.5 L 163.541667 401.5 L 162.5 400.5 L 162.760417 399.25 L 161.71875 396.25 L 161.197917 395 L 161.71875 394.5 L 161.979167 393.75 L 162.5 393.75 L 163.020833 394.25 L 163.802083 394.5 L 166.40625 396 L 167.96875 397.25 Z M 50.520833 293.75 L 50.78125 294 L 50.78125 294.25 L 51.041667 294.5 L 51.302083 294.25 L 51.302083 295 L 48.177083 296.75 L 47.135417 297 L 47.135417 296.25 L 47.916667 296.25 L 47.65625 295.25 L 46.875 295.25 L 45.572917 295.5 L 45.572917 295 L 47.916667 293.5 L 49.479167 293 Z M 748.697917 778 L 749.21875 778 L 749.739583 778.5 L 750 779.75 L 748.4375 780.5 L 746.875 781 L 746.09375 781 L 744.53125 780 L 744.53125 779.5 L 745.052083 779.25 L 746.875 779.25 L 747.395833 779 L 747.65625 778.75 L 748.697917 778.75 Z M 748.697917 778 " transform="matrix(0.015,0,0,0.015625,0,0)"/>
</g>
</svg>
