<svg xmlns:dc="http://purl.org/dc/elements/1.1/" xmlns:cc="http://creativecommons.org/ns#" xmlns:rdf="http://www.w3.org/1999/02/22-rdf-syntax-ns#" xmlns:svg="http://www.w3.org/2000/svg" xmlns="http://www.w3.org/2000/svg" xmlns:sodipodi="http://sodipodi.sourceforge.net/DTD/sodipodi-0.dtd" xmlns:inkscape="http://www.inkscape.org/namespaces/inkscape" version="1.1" x="0px" y="0px" viewBox="0 0 100 125"><g transform="translate(0,-952.36218)"><path d="m 60.929296,967.5374 c -6.96834,2.65602 -14.38691,6.2909 -22.36689,10.0391 -0.13365,0.0664 -0.25208,0.16311 -0.34375,0.28072 -2.19807,2.74236 -3.42457,6.85986 -4.3125,11.29116 -0.8577,4.2804 -1.36078,8.8343 -1.84375,12.72592 l -15.84375,19.8999 c -0.32341,0.3895 -0.27959,1.0304 0.0937,1.3724 l 17.8125,16.2193 -18.125,0 0,1.9963 59,0 0,-1.9963 -30.1875,0 23.9375,-27.2921 c 0.32161,-0.3707 0.30723,-0.9858 -0.0312,-1.3412 l -6.78125,-6.7685 c 1.36138,-1.1959 2.61929,-2.3686 3.6875,-3.5869 2.61455,-2.98212 4.17165,-6.44152 4.3125,-11.26002 l 13.53125,-6.1758 c 0.32571,-0.1724 0.53964,-0.5367 0.53125,-0.9046 l 0,-17.57331 c 9.4e-4,-0.50244 -0.4351,-0.96666 -0.9375,-0.99811 -7.5623,-0.6334 -16.01292,1.7635 -22.13311,4.07204 z m -16.83564,22.45318 8.53125,8.5151 c -2.24199,2.61152 -4.48766,4.94092 -6.03125,6.95562 -1.75241,1.9892 -2.81802,4.6504 -1.3125,6.6749 2.9313,2.6807 6.96972,0.39 9.375,-1.965 1.94863,-1.6815 4.01169,-3.4255 5.75,-4.897 l 6.21875,6.207 -24.4375,27.8848 -5.125,0 -18.6875,-17.0615 c 8.59599,-10.7992 17.18087,-21.4938 25.71875,-32.31392 z" style="text-indent:0;text-transform:none;direction:ltr;block-progression:tb;baseline-shift:baseline;color:#000000;enable-background:accumulate;" fill="#000000" fill-opacity="1" stroke="none" marker="none" visibility="visible" display="inline" overflow="visible"/></g></svg>
