<?xml version="1.0" encoding="UTF-8"?><svg id="Layer_1" xmlns="http://www.w3.org/2000/svg" xmlns:xlink="http://www.w3.org/1999/xlink" viewBox="0 0 188.84 379"><defs><style>.cls-1{fill:#fff;}.cls-2{fill:#4c4c4c;}.cls-3{fill:#d9efec;}.cls-4{fill:#00b794;}.cls-5{fill:#c5283d;}.cls-6{fill:#fb9b00;}.cls-7{clip-path:url(#clippath);}.cls-8,.cls-9{fill:none;}.cls-9{stroke:#4c4d4d;stroke-width:10px;}</style><clipPath id="clippath"><rect class="cls-8" width="188.84" height="379"/></clipPath></defs><g class="cls-7"><rect class="cls-3" x="5" y="5" width="178.84" height="369" rx="29" ry="29"/><rect class="cls-9" x="5" y="5" width="178.84" height="369" rx="29" ry="29"/><path class="cls-2" d="M60.92,0c-4.14,0-7.5,3.36-7.5,7.5s3.36,7.5,7.5,7.5H127.92c4.14,0,7.5-3.36,7.5-7.5s-3.36-7.5-7.5-7.5H60.92Z"/><path class="cls-5" d="M26.81,324.2c-4.97,.04-8.96,4.11-8.92,9.08l.04,4.95c.04,4.97,4.11,8.96,9.08,8.92l26-.23c4.97-.04,8.97-4.11,8.92-9.08l-.04-4.95c-.04-4.97-4.11-8.96-9.08-8.92l-26,.23Z"/><rect class="cls-6" x="72.42" y="322.26" width="44" height="22.95" rx="9" ry="9"/><rect class="cls-4" x="122.42" y="322" width="44" height="22.95" rx="9" ry="9"/><path class="cls-1" d="M47.13,108c-2.76,0-5,2.24-5,5s2.24,5,5,5h94.58c2.76,0,5-2.24,5-5s-2.24-5-5-5H47.13Z"/><path class="cls-1" d="M30.92,135c-2.76,0-5,2.24-5,5s2.24,5,5,5h127c2.76,0,5-2.24,5-5s-2.24-5-5-5H30.92Z"/><path class="cls-1" d="M44.48,160.2c-2.76,0-5,2.24-5,5s2.24,5,5,5h101.76c2.76,0,5-2.24,5-5s-2.24-5-5-5H44.48Z"/><path class="cls-1" d="M57.89,186.31c-2.76,0-5,2.24-5,5s2.24,5,5,5h72c2.76,0,5-2.24,5-5s-2.24-5-5-5H57.89Z"/></g></svg>