<svg xmlns="http://www.w3.org/2000/svg" xmlns:xlink="http://www.w3.org/1999/xlink" width="182.609" height="185.838" viewBox="0 0 48.315 49.17"><defs><linearGradient id="h" x1="-65.286" x2="-64.284" y1="338.842" y2="338.842" gradientTransform="scale(273.4274 -273.4274) rotate(45 377.515 247.987)" gradientUnits="userSpaceOnUse"><stop offset="0" style="stop-color:#00668e"/><stop offset=".004" style="stop-color:#00668e"/><stop offset=".425" style="stop-color:#008f91"/><stop offset=".791" style="stop-color:#00ac93"/><stop offset="1" style="stop-color:#00b794"/></linearGradient><linearGradient id="j" x1="-65.285" x2="-64.285" y1="339.077" y2="339.077" gradientTransform="scale(273.4274 -273.4274) rotate(45 377.515 247.987)" gradientUnits="userSpaceOnUse"><stop offset="0" style="stop-color:#00668e"/><stop offset=".004" style="stop-color:#00668e"/><stop offset=".425" style="stop-color:#008f91"/><stop offset=".791" style="stop-color:#00ac93"/><stop offset="1" style="stop-color:#00b794"/></linearGradient><linearGradient id="l" x1="-65.285" x2="-64.285" y1="338.836" y2="338.836" gradientTransform="scale(273.4274 -273.4274) rotate(45 377.515 247.987)" gradientUnits="userSpaceOnUse"><stop offset="0" style="stop-color:#00668e"/><stop offset=".004" style="stop-color:#00668e"/><stop offset=".425" style="stop-color:#008f91"/><stop offset=".791" style="stop-color:#00ac93"/><stop offset="1" style="stop-color:#00b794"/></linearGradient><linearGradient id="n" x1="-65.284" x2="-64.286" y1="339.08" y2="339.08" gradientTransform="scale(273.4274 -273.4274) rotate(45 377.515 247.987)" gradientUnits="userSpaceOnUse"><stop offset="0" style="stop-color:#00668e"/><stop offset=".004" style="stop-color:#00668e"/><stop offset=".425" style="stop-color:#008f91"/><stop offset=".791" style="stop-color:#00ac93"/><stop offset="1" style="stop-color:#00b794"/></linearGradient><linearGradient id="p" x1="-65.285" x2="-64.285" y1="338.962" y2="338.962" gradientTransform="scale(273.4274 -273.4274) rotate(45 377.515 247.987)" gradientUnits="userSpaceOnUse"><stop offset="0" style="stop-color:#00668e"/><stop offset=".004" style="stop-color:#00668e"/><stop offset=".425" style="stop-color:#008f91"/><stop offset=".791" style="stop-color:#00ac93"/><stop offset="1" style="stop-color:#00b794"/></linearGradient><linearGradient id="r" x1="-65.285" x2="-64.285" y1="339.199" y2="339.199" gradientTransform="scale(273.4274 -273.4274) rotate(45 377.515 247.987)" gradientUnits="userSpaceOnUse"><stop offset="0" style="stop-color:#00668e"/><stop offset=".004" style="stop-color:#00668e"/><stop offset=".425" style="stop-color:#008f91"/><stop offset=".791" style="stop-color:#00ac93"/><stop offset="1" style="stop-color:#00b794"/></linearGradient><clipPath id="g"><use xlink:href="#a" overflow="visible"/></clipPath><clipPath id="i"><use xlink:href="#b" overflow="visible"/></clipPath><clipPath id="k"><use xlink:href="#c" overflow="visible"/></clipPath><clipPath id="m"><use xlink:href="#d" overflow="visible"/></clipPath><clipPath id="o"><use xlink:href="#e" overflow="visible"/></clipPath><clipPath id="q"><use xlink:href="#f" overflow="visible"/></clipPath><path id="a" d="m136.935 103.394-2.469 67.258h25.658l-2.962-67.258z"/><path id="b" d="M29.308 86.665h143.715v10.789H29.308z"/><path id="c" d="M30.211 176.051 25 194.405h152.332l-5.21-18.354z"/><path id="d" d="m44.672 103.394-2.464 67.258H67.37l-2.962-67.258z"/><path id="e" d="m91.049 103.394-2.961 67.258h25.657l-2.962-67.258z"/><path id="f" d="M99.66 9.792v28.365L9.861 75.747v5.522H192.47v-5.522l-88.841-37.189v-9.061c4.899 2.453 9.501 1.012 12.509-2.709 3.377-4.174 5.836-5.343 10.871-7.197 0 0-4.898-4.793-12.249-4.899-4.803-.069-9.53-.946-12.249-4.899 0-.679-.762-1.226-1.439-1.226-.676-.001-1.412.546-1.412 1.225"/></defs><path fill="url(#h)" d="m100.837 137.022 46.457-46.457 46.459 46.457-46.459 46.459z" clip-path="url(#g)" style="fill:url(#h)" transform="matrix(.26458 0 0 .26458 -2.61 -2.267)"/><path fill="url(#j)" d="m23.914 92.06 77.252-77.252 77.251 77.252-77.251 77.253z" clip-path="url(#i)" style="fill:url(#j)" transform="matrix(.26458 0 0 .26458 -2.61 -2.267)"/><path fill="url(#l)" d="m15.823 185.228 85.343-85.343 85.343 85.343-85.343 85.343z" clip-path="url(#k)" style="fill:url(#l)" transform="matrix(.26458 0 0 .26458 -2.61 -2.267)"/><path fill="url(#n)" d="m8.578 137.022 46.211-46.209L101 137.022l-46.211 46.211z" clip-path="url(#m)" style="fill:url(#n)" transform="matrix(.26458 0 0 .26458 -2.61 -2.267)"/><path fill="url(#p)" d="m54.458 137.022 46.459-46.457 46.458 46.457-46.458 46.458z" clip-path="url(#o)" style="fill:url(#p)" transform="matrix(.26458 0 0 .26458 -2.61 -2.267)"/><path fill="url(#r)" d="M-26.491 44.918 101.166-82.738 228.822 44.918 101.166 172.574z" clip-path="url(#q)" style="fill:url(#r)" transform="matrix(.26458 0 0 .26458 -2.61 -2.267)"/></svg>