<?xml version="1.0" encoding="utf-8"?>
<!-- Generator: Adobe Illustrator 16.0.0, SVG Export Plug-In . SVG Version: 6.00 Build 0)  -->
<!DOCTYPE svg PUBLIC "-//W3C//DTD SVG 1.1//EN" "http://www.w3.org/Graphics/SVG/1.1/DTD/svg11.dtd">
<svg version="1.1" xmlns="http://www.w3.org/2000/svg" xmlns:xlink="http://www.w3.org/1999/xlink" x="0px" y="0px"
	 width="936.667px" height="203.644px" viewBox="0 0 936.667 203.644" enable-background="new 0 0 936.667 203.644"
	 xml:space="preserve">
<g id="fond">
	<rect x="1123" y="-76" fill="#4CA8A3" width="1080" height="204"/>
</g>
<g id="datan">
	<g>
		<defs>
			<path id="SVGID_1_" d="M1795.323,81.364c-3.23-3.041-4.841-6.984-4.841-11.826c0-6.233,2.455-11.074,7.371-14.524
				c4.911-3.445,12.139-5.171,21.676-5.171h14.304v22.225c-2.055,3.816-5.301,7.082-9.737,9.792
				c-4.439,2.716-9.518,4.072-15.239,4.072C1803.06,85.931,1798.55,84.411,1795.323,81.364 M1789.107-10.508
				c-7.521,3.411-13.314,7.922-17.386,13.533c-4.069,5.612-6.105,11.608-6.105,17.99h27.396c0-3.006,0.841-5.721,2.53-8.142
				c1.686-2.42,4.071-4.327,7.152-5.722c3.081-1.39,6.637-2.09,10.673-2.09c6.747,0,11.843,1.78,15.293,5.337
				c3.446,3.559,5.172,8.491,5.172,14.798v7.702h-16.504c-17.314,0-30.683,3.375-40.106,10.122
				c-9.426,6.752-14.138,16.47-14.138,29.157c0,6.751,1.722,12.839,5.171,18.265c3.447,5.431,8.253,9.683,14.414,12.763
				c6.162,3.082,13.129,4.621,20.905,4.621c6.602,0,12.504-1.211,17.715-3.631c5.206-2.42,9.682-5.646,13.422-9.682
				c0.881,4.842,1.907,8.547,3.082,11.114h27.946v-1.871c-3.01-6.381-4.512-15-4.512-25.858V25.417
				c0-8.874-1.965-16.395-5.886-22.556c-3.926-6.161-9.372-10.782-16.339-13.863c-6.971-3.08-15.003-4.621-24.096-4.621
				C1805.226-15.624,1796.624-13.919,1789.107-10.508"/>
		</defs>
		<use xlink:href="#SVGID_1_"  overflow="visible" fill="#FFFFFF"/>
		<clipPath id="SVGID_2_">
			<use xlink:href="#SVGID_1_"  overflow="visible"/>
		</clipPath>
		
			<rect x="1736.779" y="-26.504" transform="matrix(-0.4226 0.9063 -0.9063 -0.4226 2623.0027 -1578.8298)" clip-path="url(#SVGID_2_)" fill="#FFFFFF" width="155.267" height="145.209"/>
	</g>
	<g>
		<defs>
			<path id="SVGID_3_" d="M1940.194-11.499c-5.87,2.752-10.932,6.697-15.185,11.829l-0.879-13.754h-25.746v119.051h27.396V20.905
				c2.421-4.472,5.643-7.958,9.683-10.452c4.031-2.493,8.613-3.742,13.753-3.742c7.041,0,12.27,1.671,15.68,5.007
				c3.41,3.34,5.114,8.967,5.114,16.888v77.021h27.398v-76.8c0-15.624-3.285-26.937-9.849-33.943
				c-6.569-7.002-15.898-10.507-28.001-10.507C1952.518-15.624,1946.058-14.249,1940.194-11.499"/>
		</defs>
		<use xlink:href="#SVGID_3_"  overflow="visible" fill="#FFFFFF"/>
		<clipPath id="SVGID_4_">
			<use xlink:href="#SVGID_3_"  overflow="visible"/>
		</clipPath>
		
			<rect x="1872.027" y="-25.493" transform="matrix(-0.4226 0.9063 -0.9063 -0.4226 2811.9006 -1701.3738)" clip-path="url(#SVGID_4_)" fill="#FFFFFF" width="151.739" height="140.989"/>
	</g>
	<g>
		<path fill="#FFFFFF" d="M1538.802-59.357v169.001h-12.323l-0.66-15.955c-4.035,5.796-9.15,10.271-15.349,13.423
			c-6.198,3.154-13.479,4.732-21.84,4.732c-9.17,0-17.202-2.549-24.097-7.648c-6.896-5.096-12.213-12.229-15.953-21.399
			c-3.741-9.169-5.611-19.657-5.611-31.469v-2.31c0-12.249,1.852-22.941,5.557-32.073c3.702-9.133,9.021-16.175,15.953-21.126
			c6.932-4.951,15.055-7.426,24.371-7.426c8.215,0,15.385,1.633,21.512,4.896c6.123,3.265,11.203,7.905,15.237,13.918v-66.566
			H1538.802z M1512.341,94.626c5.685-3.852,10.104-9.077,13.258-15.68V22.833c-2.935-6.821-7.151-12.358-12.653-16.613
			c-5.5-4.253-12.69-6.382-21.565-6.382c-7.774,0-14.304,2.129-19.585,6.382c-5.281,4.255-9.206,10.068-11.771,17.439
			c-2.57,7.371-3.852,15.826-3.852,25.361v2.31c0,9.463,1.281,17.899,3.852,25.307c2.565,7.41,6.453,13.222,11.662,17.439
			c5.207,4.219,11.699,6.326,19.475,6.326C1499.595,100.402,1506.654,98.477,1512.341,94.626"/>
		<path fill="#FFFFFF" d="M1659.997,97.762c0.621,4.328,1.521,7.812,2.695,10.453v1.43h-14.084
			c-1.395-3.887-2.273-9.424-2.64-16.614c-4.329,5.575-9.923,10.106-16.78,13.588c-6.859,3.482-14.687,5.227-23.49,5.227
			c-7.63,0-14.341-1.449-20.135-4.348c-5.795-2.896-10.287-6.912-13.478-12.047c-3.191-5.133-4.787-10.928-4.787-17.384
			c0-7.702,2.182-14.396,6.547-20.08c4.363-5.685,10.635-10.048,18.814-13.093c8.178-3.043,17.807-4.566,28.883-4.566h24.315V26.905
			c0-8.582-2.66-15.311-7.977-20.19c-5.32-4.878-12.893-7.317-22.721-7.317c-6.016,0-11.462,1.083-16.339,3.245
			c-4.88,2.165-8.691,5.08-11.443,8.747c-2.75,3.669-4.125,7.703-4.125,12.103l-13.203-0.109c0-5.941,1.941-11.607,5.83-16.999
			c3.888-5.392,9.314-9.738,16.285-13.039c6.967-3.301,14.815-4.951,23.545-4.951c8.581,0,16.136,1.449,22.665,4.346
			c6.527,2.898,11.607,7.245,15.238,13.038c3.631,5.795,5.447,12.911,5.447,21.345v57.545
			C1659.062,89.07,1659.372,93.435,1659.997,97.762 M1631.114,93.636c6.822-4.363,11.734-9.994,14.744-16.89V50.45h-22.556
			c-8.95,0-16.633,1.063-23.051,3.19c-6.418,2.129-11.332,5.172-14.742,9.133c-3.412,3.961-5.117,8.692-5.117,14.193
			c0,4.329,1.1,8.253,3.301,11.773c2.2,3.521,5.316,6.309,9.352,8.362c4.033,2.054,8.729,3.08,14.084,3.08
			C1616.299,100.182,1624.292,98,1631.114,93.636"/>
		<path fill="#FFFFFF" d="M1741.472,110.084c-1.54,0.514-3.613,0.936-6.216,1.266c-2.604,0.33-5.227,0.496-7.867,0.496
			c-8.216,0-14.598-2.383-19.145-7.152c-4.549-4.767-6.822-12.799-6.822-24.096V1.377h-21.785V-9.404h21.785v-30.588h13.313v30.588
			h24.536V1.377h-24.536v79.22c0,7.63,1.375,12.818,4.126,15.569s6.508,4.126,11.278,4.126c2.641,0,6.233-0.402,10.782-1.21
			L1741.472,110.084z"/>
	</g>
	<g>
		<defs>
			<polygon id="SVGID_5_" points="1349.641,22.341 1347.172,89.6 1372.829,89.6 1369.867,22.341 			"/>
		</defs>
		<use xlink:href="#SVGID_5_"  overflow="visible" fill="#FFFFFF"/>
		<clipPath id="SVGID_6_">
			<use xlink:href="#SVGID_5_"  overflow="visible"/>
		</clipPath>
		
			<rect x="1327.151" y="23.119" transform="matrix(-0.7071 0.7071 -0.7071 -0.7071 2361.239 -866.124)" clip-path="url(#SVGID_6_)" fill="#FFFFFF" width="65.701" height="65.702"/>
	</g>
	<g>
		<defs>
			<rect id="SVGID_7_" x="1242.014" y="5.613" width="143.715" height="10.789"/>
		</defs>
		<use xlink:href="#SVGID_7_"  overflow="visible" fill="#FFFFFF"/>
		<clipPath id="SVGID_8_">
			<use xlink:href="#SVGID_7_"  overflow="visible"/>
		</clipPath>
		
			<rect x="1259.245" y="-43.618" transform="matrix(-0.7071 0.7071 -0.7071 -0.7071 2250.6992 -910.2585)" clip-path="url(#SVGID_8_)" fill="#FFFFFF" width="109.251" height="109.251"/>
	</g>
	<g>
		<defs>
			<polygon id="SVGID_9_" points="1242.917,94.999 1237.706,113.354 1390.037,113.354 1384.827,94.999 			"/>
		</defs>
		<use xlink:href="#SVGID_9_"  overflow="visible" fill="#FFFFFF"/>
		<clipPath id="SVGID_10_">
			<use xlink:href="#SVGID_9_"  overflow="visible"/>
		</clipPath>
		
			<rect x="1253.525" y="43.829" transform="matrix(-0.7071 0.7071 -0.7071 -0.7071 2316.5801 -751.2112)" clip-path="url(#SVGID_10_)" fill="#FFFFFF" width="120.693" height="120.694"/>
	</g>
	<g>
		<defs>
			<polygon id="SVGID_11_" points="1257.378,22.341 1254.913,89.6 1280.075,89.6 1277.113,22.341 			"/>
		</defs>
		<use xlink:href="#SVGID_11_"  overflow="visible" fill="#FFFFFF"/>
		<clipPath id="SVGID_12_">
			<use xlink:href="#SVGID_11_"  overflow="visible"/>
		</clipPath>
		
			<rect x="1234.818" y="23.294" transform="matrix(-0.7071 0.7071 -0.7071 -0.7071 2203.3337 -800.6968)" clip-path="url(#SVGID_12_)" fill="#FFFFFF" width="65.351" height="65.351"/>
	</g>
	<g>
		<defs>
			<polygon id="SVGID_13_" points="1303.755,22.341 1300.794,89.6 1326.45,89.6 1323.488,22.341 			"/>
		</defs>
		<use xlink:href="#SVGID_13_"  overflow="visible" fill="#FFFFFF"/>
		<clipPath id="SVGID_14_">
			<use xlink:href="#SVGID_13_"  overflow="visible"/>
		</clipPath>
		
			<rect x="1280.772" y="23.12" transform="matrix(-0.7071 0.7071 -0.7071 -0.7071 2282.0793 -833.3138)" clip-path="url(#SVGID_14_)" fill="#FFFFFF" width="65.701" height="65.701"/>
	</g>
	<g>
		<defs>
			<path id="SVGID_15_" d="M1312.365-71.261v28.366l-89.799,37.589v5.523h182.609v-5.523l-88.841-37.189v-9.06
				c4.899,2.453,9.501,1.012,12.509-2.709c3.377-4.174,5.836-5.343,10.871-7.197c0,0-4.898-4.793-12.249-4.9
				c-4.803-0.069-9.53-0.946-12.249-4.9c0-0.678-0.762-1.225-1.439-1.225C1313.102-72.486,1312.365-71.939,1312.365-71.261"/>
		</defs>
		<use xlink:href="#SVGID_15_"  overflow="visible" fill="#FFFFFF"/>
		<clipPath id="SVGID_16_">
			<use xlink:href="#SVGID_15_"  overflow="visible"/>
		</clipPath>
		
			<rect x="1223.604" y="-126.401" transform="matrix(-0.7071 0.7071 -0.7071 -0.7071 2217.3674 -990.7322)" clip-path="url(#SVGID_16_)" fill="#FFFFFF" width="180.533" height="180.533"/>
	</g>
</g>
<g id="beta">
	<g>
		<path fill="#4C4C4C" d="M808.045,152.95h10.596c4.915,0,8.468,0.717,10.657,2.148c2.188,1.433,3.283,3.695,3.283,6.787
			c0,2.084-0.537,3.817-1.611,5.2c-1.074,1.384-2.621,2.255-4.639,2.612v0.244c2.506,0.473,4.35,1.403,5.529,2.796
			c1.181,1.391,1.771,3.275,1.771,5.651c0,3.207-1.119,5.717-3.356,7.532c-2.238,1.814-5.352,2.722-9.339,2.722h-12.891V152.95z
			 M813.88,167.696h5.615c2.441,0,4.224-0.387,5.347-1.159c1.123-0.773,1.685-2.088,1.685-3.943c0-1.676-0.606-2.889-1.818-3.638
			c-1.213-0.748-3.138-1.123-5.774-1.123h-5.054V167.696z M813.88,172.433v11.304h6.201c2.441,0,4.285-0.468,5.529-1.404
			c1.246-0.936,1.868-2.412,1.868-4.431c0-1.855-0.635-3.23-1.904-4.126c-1.27-0.895-3.198-1.343-5.786-1.343H813.88z"/>
		<path fill="#4C4C4C" d="M861.243,188.644h-20.19V152.95h20.19v4.932h-14.355v9.717h13.452v4.883h-13.452v11.206h14.355V188.644z"
			/>
		<path fill="#4C4C4C" d="M881.287,188.644h-5.835v-30.688h-10.498v-5.005h26.831v5.005h-10.498V188.644z"/>
		<path fill="#4C4C4C" d="M919.397,188.644l-3.564-9.912h-13.647l-3.491,9.912h-6.152l13.354-35.84h6.348l13.354,35.84H919.397z
			 M914.295,173.702l-3.345-9.717c-0.244-0.65-0.582-1.676-1.014-3.076c-0.431-1.399-0.729-2.425-0.891-3.076
			c-0.439,2.002-1.083,4.191-1.929,6.567l-3.223,9.302H914.295z"/>
	</g>
</g>
<g id="datan_x5F_colour">
	<g>
		<defs>
			<path id="SVGID_17_" d="M582.617,164.416c-3.23-3.041-4.84-6.984-4.84-11.826c0-6.233,2.455-11.074,7.371-14.524
				c4.91-3.445,12.139-5.171,21.676-5.171h14.303v22.225c-2.055,3.816-5.301,7.082-9.736,9.792
				c-4.439,2.716-9.518,4.072-15.24,4.072C590.354,168.983,585.844,167.463,582.617,164.416 M576.402,72.544
				c-7.521,3.412-13.314,7.922-17.387,13.533c-4.068,5.612-6.105,11.608-6.105,17.99h27.396c0-3.006,0.842-5.721,2.531-8.143
				c1.686-2.42,4.07-4.326,7.152-5.721c3.08-1.391,6.637-2.091,10.672-2.091c6.748,0,11.844,1.78,15.293,5.337
				c3.447,3.559,5.172,8.491,5.172,14.799v7.701h-16.504c-17.314,0-30.682,3.375-40.105,10.122
				c-9.426,6.752-14.139,16.47-14.139,29.157c0,6.751,1.723,12.839,5.172,18.265c3.447,5.431,8.252,9.683,14.414,12.764
				s13.129,4.621,20.904,4.621c6.602,0,12.504-1.211,17.715-3.632c5.207-2.42,9.682-5.646,13.422-9.682
				c0.881,4.842,1.908,8.547,3.082,11.113h27.947v-1.87c-3.01-6.382-4.512-15-4.512-25.858v-52.482
				c0-8.873-1.965-16.394-5.887-22.555c-3.926-6.162-9.371-10.783-16.338-13.863c-6.971-3.08-15.004-4.621-24.096-4.621
				C592.52,67.429,583.918,69.134,576.402,72.544"/>
		</defs>
		<clipPath id="SVGID_18_">
			<use xlink:href="#SVGID_17_"  overflow="visible"/>
		</clipPath>
		
			<linearGradient id="SVGID_19_" gradientUnits="userSpaceOnUse" x1="-65.5552" y1="339.3477" x2="-64.5552" y2="339.3477" gradientTransform="matrix(53.8159 -115.4086 -115.4086 -53.8159 43265.6953 10884.9951)">
			<stop  offset="0" style="stop-color:#00668E"/>
			<stop  offset="0.0036" style="stop-color:#00668E"/>
			<stop  offset="0.2896" style="stop-color:#008991"/>
			<stop  offset="0.5593" style="stop-color:#00A292"/>
			<stop  offset="0.8036" style="stop-color:#00B294"/>
			<stop  offset="1" style="stop-color:#00B794"/>
		</linearGradient>
		<polygon clip-path="url(#SVGID_18_)" fill="url(#SVGID_19_)" points="503.096,168.829 568.715,28.109 700.318,89.478 
			634.699,230.197 		"/>
	</g>
	<g>
		<defs>
			<path id="SVGID_20_" d="M727.488,72.554c-5.869,2.752-10.932,6.697-15.184,11.828l-0.879-13.754H685.68v119.051h27.396v-84.723
				c2.42-4.471,5.643-7.957,9.682-10.451c4.031-2.492,8.613-3.741,13.754-3.741c7.041,0,12.27,1.671,15.68,5.007
				c3.41,3.34,5.113,8.967,5.113,16.888v77.021h27.398V112.88c0-15.625-3.285-26.938-9.848-33.944
				c-6.57-7.002-15.898-10.507-28.002-10.507C739.813,68.429,733.352,69.804,727.488,72.554"/>
		</defs>
		<clipPath id="SVGID_21_">
			<use xlink:href="#SVGID_20_"  overflow="visible"/>
		</clipPath>
		
			<linearGradient id="SVGID_22_" gradientUnits="userSpaceOnUse" x1="-65.5093" y1="339.2637" x2="-64.5097" y2="339.2637" gradientTransform="matrix(59.2755 -127.1168 -127.1168 -59.2755 47712.4453 11980.5508)">
			<stop  offset="0" style="stop-color:#00668E"/>
			<stop  offset="0.0036" style="stop-color:#00668E"/>
			<stop  offset="0.2896" style="stop-color:#008991"/>
			<stop  offset="0.5593" style="stop-color:#00A292"/>
			<stop  offset="0.8036" style="stop-color:#00B294"/>
			<stop  offset="1" style="stop-color:#00B794"/>
		</linearGradient>
		<polygon clip-path="url(#SVGID_21_)" fill="url(#SVGID_22_)" points="639.238,168.022 703.365,30.5 831.145,90.085 
			767.018,227.606 		"/>
	</g>
	<g>
		<defs>
			<rect id="SVGID_23_" x="-128.706" y="-88.153" width="1079.846" height="473.594"/>
		</defs>
		<clipPath id="SVGID_24_">
			<use xlink:href="#SVGID_23_"  overflow="visible"/>
		</clipPath>
		<path clip-path="url(#SVGID_24_)" fill="#4C4C4C" d="M326.096,21.695v169.002h-12.323l-0.66-15.955
			c-4.035,5.796-9.15,10.271-15.349,13.424c-6.198,3.153-13.479,4.731-21.84,4.731c-9.17,0-17.202-2.548-24.097-7.647
			c-6.896-5.097-12.213-12.229-15.953-21.399c-3.741-9.169-5.611-19.657-5.611-31.469v-2.31c0-12.249,1.852-22.94,5.557-32.073
			c3.702-9.133,9.021-16.175,15.953-21.126c6.932-4.95,15.055-7.426,24.371-7.426c8.215,0,15.385,1.633,21.512,4.896
			c6.123,3.266,11.203,7.905,15.237,13.918V21.695H326.096z M299.635,175.679c5.685-3.852,10.104-9.077,13.258-15.68v-56.113
			c-2.935-6.822-7.151-12.359-12.653-16.614c-5.5-4.253-12.69-6.382-21.565-6.382c-7.774,0-14.304,2.129-19.585,6.382
			c-5.281,4.255-9.206,10.067-11.771,17.438c-2.57,7.372-3.852,15.827-3.852,25.362v2.31c0,9.463,1.281,17.899,3.852,25.307
			c2.565,7.41,6.453,13.222,11.662,17.439c5.207,4.219,11.699,6.326,19.475,6.326C286.889,181.454,293.949,179.529,299.635,175.679"
			/>
		<path clip-path="url(#SVGID_24_)" fill="#4C4C4C" d="M447.291,178.814c0.621,4.328,1.521,7.812,2.695,10.452v1.431h-14.083
			c-1.395-3.888-2.273-9.425-2.64-16.614c-4.329,5.575-9.923,10.105-16.78,13.588c-6.859,3.483-14.687,5.227-23.49,5.227
			c-7.63,0-14.341-1.449-20.135-4.347c-5.795-2.896-10.287-6.912-13.478-12.048c-3.191-5.133-4.787-10.928-4.787-17.384
			c0-7.702,2.182-14.396,6.547-20.08c4.363-5.685,10.635-10.048,18.814-13.093c8.178-3.043,17.807-4.566,28.883-4.566h24.315
			v-13.423c0-8.582-2.66-15.312-7.977-20.19c-5.32-4.877-12.893-7.316-22.721-7.316c-6.016,0-11.462,1.083-16.339,3.244
			c-4.88,2.166-8.691,5.08-11.443,8.748c-2.75,3.668-4.125,7.703-4.125,12.103l-13.203-0.108c0-5.942,1.941-11.608,5.83-17
			c3.888-5.392,9.314-9.737,16.285-13.039c6.967-3.301,14.815-4.95,23.545-4.95c8.581,0,16.136,1.448,22.665,4.346
			c6.527,2.897,11.607,7.245,15.238,13.038c3.631,5.795,5.447,12.911,5.447,21.346v57.544
			C446.355,170.122,446.666,174.487,447.291,178.814 M418.409,174.688c6.822-4.363,11.734-9.994,14.744-16.89v-26.297h-22.556
			c-8.95,0-16.633,1.063-23.051,3.19c-6.418,2.129-11.332,5.172-14.742,9.133c-3.412,3.961-5.117,8.692-5.117,14.193
			c0,4.329,1.1,8.253,3.301,11.773c2.2,3.521,5.316,6.309,9.352,8.362c4.033,2.054,8.729,3.08,14.084,3.08
			C403.593,181.234,411.586,179.053,418.409,174.688"/>
		<path clip-path="url(#SVGID_24_)" fill="#4C4C4C" d="M528.766,191.137c-1.539,0.513-3.613,0.936-6.215,1.266
			c-2.605,0.33-5.227,0.495-7.867,0.495c-8.217,0-14.598-2.383-19.145-7.151c-4.549-4.768-6.822-12.8-6.822-24.097V82.43h-21.785
			V71.647h21.785V41.06h13.313v30.588h24.537V82.43h-24.537v79.22c0,7.63,1.375,12.818,4.127,15.569
			c2.75,2.751,6.508,4.126,11.277,4.126c2.641,0,6.234-0.402,10.783-1.21L528.766,191.137z"/>
	</g>
	<g>
		<defs>
			<polygon id="SVGID_25_" points="136.935,103.394 134.466,170.652 160.124,170.652 157.162,103.394 			"/>
		</defs>
		<clipPath id="SVGID_26_">
			<use xlink:href="#SVGID_25_"  overflow="visible"/>
		</clipPath>
		
			<linearGradient id="SVGID_27_" gradientUnits="userSpaceOnUse" x1="-65.2861" y1="338.8418" x2="-64.2841" y2="338.8418" gradientTransform="matrix(193.3424 -193.3424 -193.3424 -193.3424 78179.6875 53129.5586)">
			<stop  offset="0" style="stop-color:#00668E"/>
			<stop  offset="0.0036" style="stop-color:#00668E"/>
			<stop  offset="0.4254" style="stop-color:#008F91"/>
			<stop  offset="0.7912" style="stop-color:#00AC93"/>
			<stop  offset="1" style="stop-color:#00B794"/>
		</linearGradient>
		<polygon clip-path="url(#SVGID_26_)" fill="url(#SVGID_27_)" points="100.837,137.022 147.294,90.565 193.753,137.022 
			147.294,183.481 		"/>
	</g>
	<g>
		<defs>
			<rect id="SVGID_28_" x="29.308" y="86.665" width="143.715" height="10.789"/>
		</defs>
		<clipPath id="SVGID_29_">
			<use xlink:href="#SVGID_28_"  overflow="visible"/>
		</clipPath>
		
			<linearGradient id="SVGID_30_" gradientUnits="userSpaceOnUse" x1="-65.2852" y1="339.0771" x2="-64.2852" y2="339.0771" gradientTransform="matrix(193.3424 -193.3424 -193.3424 -193.3424 78179.6875 53129.5586)">
			<stop  offset="0" style="stop-color:#00668E"/>
			<stop  offset="0.0036" style="stop-color:#00668E"/>
			<stop  offset="0.4254" style="stop-color:#008F91"/>
			<stop  offset="0.7912" style="stop-color:#00AC93"/>
			<stop  offset="1" style="stop-color:#00B794"/>
		</linearGradient>
		<polygon clip-path="url(#SVGID_29_)" fill="url(#SVGID_30_)" points="23.914,92.06 101.166,14.808 178.417,92.06 101.166,169.313 
					"/>
	</g>
	<g>
		<defs>
			<polygon id="SVGID_31_" points="30.211,176.051 25,194.405 177.332,194.405 172.122,176.051 			"/>
		</defs>
		<clipPath id="SVGID_32_">
			<use xlink:href="#SVGID_31_"  overflow="visible"/>
		</clipPath>
		
			<linearGradient id="SVGID_33_" gradientUnits="userSpaceOnUse" x1="-65.2847" y1="338.8359" x2="-64.2847" y2="338.8359" gradientTransform="matrix(193.3424 -193.3424 -193.3424 -193.3424 78179.6875 53129.5586)">
			<stop  offset="0" style="stop-color:#00668E"/>
			<stop  offset="0.0036" style="stop-color:#00668E"/>
			<stop  offset="0.4254" style="stop-color:#008F91"/>
			<stop  offset="0.7912" style="stop-color:#00AC93"/>
			<stop  offset="1" style="stop-color:#00B794"/>
		</linearGradient>
		<polygon clip-path="url(#SVGID_32_)" fill="url(#SVGID_33_)" points="15.823,185.228 101.166,99.885 186.509,185.228 
			101.166,270.571 		"/>
	</g>
	<g>
		<defs>
			<polygon id="SVGID_34_" points="44.672,103.394 42.208,170.652 67.37,170.652 64.408,103.394 			"/>
		</defs>
		<clipPath id="SVGID_35_">
			<use xlink:href="#SVGID_34_"  overflow="visible"/>
		</clipPath>
		
			<linearGradient id="SVGID_36_" gradientUnits="userSpaceOnUse" x1="-65.2842" y1="339.0801" x2="-64.2862" y2="339.0801" gradientTransform="matrix(193.3424 -193.3424 -193.3424 -193.3424 78179.6875 53129.5586)">
			<stop  offset="0" style="stop-color:#00668E"/>
			<stop  offset="0.0036" style="stop-color:#00668E"/>
			<stop  offset="0.4254" style="stop-color:#008F91"/>
			<stop  offset="0.7912" style="stop-color:#00AC93"/>
			<stop  offset="1" style="stop-color:#00B794"/>
		</linearGradient>
		<polygon clip-path="url(#SVGID_35_)" fill="url(#SVGID_36_)" points="8.578,137.022 54.789,90.813 101,137.022 54.789,183.233 		
			"/>
	</g>
	<g>
		<defs>
			<polygon id="SVGID_37_" points="91.049,103.394 88.088,170.652 113.745,170.652 110.783,103.394 			"/>
		</defs>
		<clipPath id="SVGID_38_">
			<use xlink:href="#SVGID_37_"  overflow="visible"/>
		</clipPath>
		
			<linearGradient id="SVGID_39_" gradientUnits="userSpaceOnUse" x1="-65.2847" y1="338.9619" x2="-64.2847" y2="338.9619" gradientTransform="matrix(193.3424 -193.3424 -193.3424 -193.3424 78179.6875 53129.5586)">
			<stop  offset="0" style="stop-color:#00668E"/>
			<stop  offset="0.0036" style="stop-color:#00668E"/>
			<stop  offset="0.4254" style="stop-color:#008F91"/>
			<stop  offset="0.7912" style="stop-color:#00AC93"/>
			<stop  offset="1" style="stop-color:#00B794"/>
		</linearGradient>
		<polygon clip-path="url(#SVGID_38_)" fill="url(#SVGID_39_)" points="54.458,137.022 100.917,90.565 147.375,137.022 
			100.917,183.48 		"/>
	</g>
	<g>
		<defs>
			<path id="SVGID_40_" d="M99.66,9.792v28.365L9.861,75.747v5.522H192.47v-5.522l-88.841-37.189v-9.061
				c4.899,2.453,9.501,1.012,12.509-2.709c3.377-4.174,5.836-5.343,10.871-7.197c0,0-4.898-4.793-12.249-4.899
				c-4.803-0.069-9.53-0.946-12.249-4.899c0-0.679-0.762-1.226-1.439-1.226C100.396,8.566,99.66,9.113,99.66,9.792"/>
		</defs>
		<clipPath id="SVGID_41_">
			<use xlink:href="#SVGID_40_"  overflow="visible"/>
		</clipPath>
		
			<linearGradient id="SVGID_42_" gradientUnits="userSpaceOnUse" x1="-65.2847" y1="339.1992" x2="-64.2847" y2="339.1992" gradientTransform="matrix(193.3424 -193.3424 -193.3424 -193.3424 78179.6875 53129.5586)">
			<stop  offset="0" style="stop-color:#00668E"/>
			<stop  offset="0.0036" style="stop-color:#00668E"/>
			<stop  offset="0.4254" style="stop-color:#008F91"/>
			<stop  offset="0.7912" style="stop-color:#00AC93"/>
			<stop  offset="1" style="stop-color:#00B794"/>
		</linearGradient>
		<polygon clip-path="url(#SVGID_41_)" fill="url(#SVGID_42_)" points="-26.491,44.918 101.166,-82.738 228.822,44.918 
			101.166,172.574 		"/>
	</g>
</g>
</svg>
