<?xml version="1.0" encoding="utf-8"?>
<!-- Generator: Adobe Illustrator 16.0.0, SVG Export Plug-In . SVG Version: 6.00 Build 0)  -->
<!DOCTYPE svg PUBLIC "-//W3C//DTD SVG 1.1//EN" "http://www.w3.org/Graphics/SVG/1.1/DTD/svg11.dtd">
<svg version="1.1" xmlns="http://www.w3.org/2000/svg" xmlns:xlink="http://www.w3.org/1999/xlink" x="0px" y="0px"
	 width="817.333px" height="203.644px" viewBox="0 0 817.333 203.644" enable-background="new 0 0 817.333 203.644"
	 xml:space="preserve">
<g id="fond">
</g>
<g id="datan">
</g>
<g id="beta">
</g>
<g id="datan_x5F_colour">
	<g>
		<defs>
			<path id="SVGID_17_" d="M582.617,164.416c-3.23-3.041-4.84-6.984-4.84-11.826c0-6.233,2.455-11.074,7.371-14.524
				c4.91-3.445,12.139-5.171,21.676-5.171h14.303v22.225c-2.055,3.816-5.301,7.082-9.736,9.792
				c-4.439,2.716-9.518,4.072-15.24,4.072C590.354,168.983,585.844,167.463,582.617,164.416 M576.402,72.544
				c-7.521,3.412-13.314,7.922-17.387,13.533c-4.068,5.612-6.105,11.608-6.105,17.99h27.396c0-3.006,0.842-5.721,2.531-8.143
				c1.686-2.42,4.07-4.326,7.152-5.721c3.08-1.391,6.637-2.091,10.672-2.091c6.748,0,11.844,1.78,15.293,5.337
				c3.447,3.559,5.172,8.491,5.172,14.799v7.701h-16.504c-17.314,0-30.682,3.375-40.105,10.122
				c-9.426,6.752-14.139,16.47-14.139,29.157c0,6.751,1.723,12.839,5.172,18.265c3.447,5.431,8.252,9.683,14.414,12.764
				s13.129,4.621,20.904,4.621c6.602,0,12.504-1.211,17.715-3.632c5.207-2.42,9.682-5.646,13.422-9.682
				c0.881,4.842,1.908,8.547,3.082,11.113h27.947v-1.87c-3.01-6.382-4.512-15-4.512-25.858v-52.482
				c0-8.873-1.965-16.394-5.887-22.555c-3.926-6.162-9.371-10.783-16.338-13.863c-6.971-3.08-15.004-4.621-24.096-4.621
				C592.52,67.429,583.918,69.134,576.402,72.544"/>
		</defs>
		<clipPath id="SVGID_2_">
			<use xlink:href="#SVGID_17_"  overflow="visible"/>
		</clipPath>
		
			<linearGradient id="SVGID_4_" gradientUnits="userSpaceOnUse" x1="-65.5552" y1="339.3477" x2="-64.5552" y2="339.3477" gradientTransform="matrix(53.8159 -115.4086 -115.4086 -53.8159 43265.6953 10884.9951)">
			<stop  offset="0" style="stop-color:#00668E"/>
			<stop  offset="0.0036" style="stop-color:#00668E"/>
			<stop  offset="0.2896" style="stop-color:#008991"/>
			<stop  offset="0.5593" style="stop-color:#00A292"/>
			<stop  offset="0.8036" style="stop-color:#00B294"/>
			<stop  offset="1" style="stop-color:#00B794"/>
		</linearGradient>
		<polygon clip-path="url(#SVGID_2_)" fill="url(#SVGID_4_)" points="503.096,168.829 568.715,28.109 700.318,89.478 
			634.699,230.197 		"/>
	</g>
	<g>
		<defs>
			<path id="SVGID_20_" d="M727.488,72.554c-5.869,2.752-10.932,6.697-15.184,11.828l-0.879-13.754H685.68v119.051h27.396v-84.723
				c2.42-4.471,5.643-7.957,9.682-10.451c4.031-2.492,8.613-3.741,13.754-3.741c7.041,0,12.27,1.671,15.68,5.007
				c3.41,3.34,5.113,8.967,5.113,16.888v77.021h27.398V112.88c0-15.625-3.285-26.938-9.848-33.944
				c-6.57-7.002-15.898-10.507-28.002-10.507C739.813,68.429,733.352,69.804,727.488,72.554"/>
		</defs>
		<clipPath id="SVGID_6_">
			<use xlink:href="#SVGID_20_"  overflow="visible"/>
		</clipPath>
		
			<linearGradient id="SVGID_8_" gradientUnits="userSpaceOnUse" x1="-65.5093" y1="339.2637" x2="-64.5097" y2="339.2637" gradientTransform="matrix(59.2755 -127.1168 -127.1168 -59.2755 47712.4453 11980.5508)">
			<stop  offset="0" style="stop-color:#00668E"/>
			<stop  offset="0.0036" style="stop-color:#00668E"/>
			<stop  offset="0.2896" style="stop-color:#008991"/>
			<stop  offset="0.5593" style="stop-color:#00A292"/>
			<stop  offset="0.8036" style="stop-color:#00B294"/>
			<stop  offset="1" style="stop-color:#00B794"/>
		</linearGradient>
		<polygon clip-path="url(#SVGID_6_)" fill="url(#SVGID_8_)" points="639.238,168.022 703.365,30.5 831.145,90.085 767.018,227.606 
					"/>
	</g>
	<g>
		<defs>
			<rect id="SVGID_23_" x="-128.706" y="-88.153" width="1079.846" height="473.594"/>
		</defs>
		<clipPath id="SVGID_10_">
			<use xlink:href="#SVGID_23_"  overflow="visible"/>
		</clipPath>
		<path clip-path="url(#SVGID_10_)" fill="#4C4C4C" d="M326.096,21.695v169.002h-12.323l-0.66-15.955
			c-4.035,5.796-9.15,10.271-15.349,13.424c-6.198,3.153-13.479,4.731-21.84,4.731c-9.17,0-17.202-2.548-24.097-7.647
			c-6.896-5.097-12.213-12.229-15.953-21.399c-3.741-9.169-5.611-19.657-5.611-31.469v-2.31c0-12.249,1.852-22.94,5.557-32.073
			c3.702-9.133,9.021-16.175,15.953-21.126c6.932-4.95,15.055-7.426,24.371-7.426c8.215,0,15.385,1.633,21.512,4.896
			c6.123,3.266,11.203,7.905,15.237,13.918V21.695H326.096z M299.635,175.679c5.685-3.852,10.104-9.077,13.258-15.68v-56.113
			c-2.935-6.822-7.151-12.359-12.653-16.614c-5.5-4.253-12.69-6.382-21.565-6.382c-7.774,0-14.304,2.129-19.585,6.382
			c-5.281,4.255-9.206,10.067-11.771,17.438c-2.57,7.372-3.852,15.827-3.852,25.362v2.31c0,9.463,1.281,17.899,3.852,25.307
			c2.565,7.41,6.453,13.222,11.662,17.439c5.207,4.219,11.699,6.326,19.475,6.326C286.889,181.454,293.949,179.529,299.635,175.679"
			/>
		<path clip-path="url(#SVGID_10_)" fill="#4C4C4C" d="M447.291,178.814c0.621,4.328,1.521,7.812,2.695,10.452v1.431h-14.083
			c-1.395-3.888-2.273-9.425-2.64-16.614c-4.329,5.575-9.923,10.105-16.78,13.588c-6.859,3.483-14.687,5.227-23.49,5.227
			c-7.63,0-14.341-1.449-20.135-4.347c-5.795-2.896-10.287-6.912-13.478-12.048c-3.191-5.133-4.787-10.928-4.787-17.384
			c0-7.702,2.182-14.396,6.547-20.08c4.363-5.685,10.635-10.048,18.814-13.093c8.178-3.043,17.807-4.566,28.883-4.566h24.315
			v-13.423c0-8.582-2.66-15.312-7.977-20.19c-5.32-4.877-12.893-7.316-22.721-7.316c-6.016,0-11.462,1.083-16.339,3.244
			c-4.88,2.166-8.691,5.08-11.443,8.748c-2.75,3.668-4.125,7.703-4.125,12.103l-13.203-0.108c0-5.942,1.941-11.608,5.83-17
			c3.888-5.392,9.314-9.737,16.285-13.039c6.967-3.301,14.815-4.95,23.545-4.95c8.581,0,16.136,1.448,22.665,4.346
			c6.527,2.897,11.607,7.245,15.238,13.038c3.631,5.795,5.447,12.911,5.447,21.346v57.544
			C446.355,170.122,446.666,174.487,447.291,178.814 M418.409,174.688c6.822-4.363,11.734-9.994,14.744-16.89v-26.297h-22.556
			c-8.95,0-16.633,1.063-23.051,3.19c-6.418,2.129-11.332,5.172-14.742,9.133c-3.412,3.961-5.117,8.692-5.117,14.193
			c0,4.329,1.1,8.253,3.301,11.773c2.2,3.521,5.316,6.309,9.352,8.362c4.033,2.054,8.729,3.08,14.084,3.08
			C403.593,181.234,411.586,179.053,418.409,174.688"/>
		<path clip-path="url(#SVGID_10_)" fill="#4C4C4C" d="M528.766,191.137c-1.539,0.513-3.613,0.936-6.215,1.266
			c-2.605,0.33-5.227,0.495-7.867,0.495c-8.217,0-14.598-2.383-19.145-7.151c-4.549-4.768-6.822-12.8-6.822-24.097V82.43h-21.785
			V71.647h21.785V41.06h13.313v30.588h24.537V82.43h-24.537v79.22c0,7.63,1.375,12.818,4.127,15.569
			c2.75,2.751,6.508,4.126,11.277,4.126c2.641,0,6.234-0.402,10.783-1.21L528.766,191.137z"/>
	</g>
	<g>
		<defs>
			<polygon id="SVGID_25_" points="136.935,103.394 134.466,170.652 160.124,170.652 157.162,103.394 			"/>
		</defs>
		<clipPath id="SVGID_12_">
			<use xlink:href="#SVGID_25_"  overflow="visible"/>
		</clipPath>
		
			<linearGradient id="SVGID_14_" gradientUnits="userSpaceOnUse" x1="-65.2861" y1="338.8418" x2="-64.2841" y2="338.8418" gradientTransform="matrix(193.3424 -193.3424 -193.3424 -193.3424 78179.6875 53129.5586)">
			<stop  offset="0" style="stop-color:#00668E"/>
			<stop  offset="0.0036" style="stop-color:#00668E"/>
			<stop  offset="0.4254" style="stop-color:#008F91"/>
			<stop  offset="0.7912" style="stop-color:#00AC93"/>
			<stop  offset="1" style="stop-color:#00B794"/>
		</linearGradient>
		<polygon clip-path="url(#SVGID_12_)" fill="url(#SVGID_14_)" points="100.837,137.022 147.294,90.565 193.753,137.022 
			147.294,183.481 		"/>
	</g>
	<g>
		<defs>
			<rect id="SVGID_28_" x="29.308" y="86.665" width="143.715" height="10.789"/>
		</defs>
		<clipPath id="SVGID_16_">
			<use xlink:href="#SVGID_28_"  overflow="visible"/>
		</clipPath>
		
			<linearGradient id="SVGID_18_" gradientUnits="userSpaceOnUse" x1="-65.2852" y1="339.0771" x2="-64.2852" y2="339.0771" gradientTransform="matrix(193.3424 -193.3424 -193.3424 -193.3424 78179.6875 53129.5586)">
			<stop  offset="0" style="stop-color:#00668E"/>
			<stop  offset="0.0036" style="stop-color:#00668E"/>
			<stop  offset="0.4254" style="stop-color:#008F91"/>
			<stop  offset="0.7912" style="stop-color:#00AC93"/>
			<stop  offset="1" style="stop-color:#00B794"/>
		</linearGradient>
		<polygon clip-path="url(#SVGID_16_)" fill="url(#SVGID_18_)" points="23.914,92.06 101.166,14.808 178.417,92.06 101.166,169.313 
					"/>
	</g>
	<g>
		<defs>
			<polygon id="SVGID_31_" points="30.211,176.051 25,194.405 177.332,194.405 172.122,176.051 			"/>
		</defs>
		<clipPath id="SVGID_19_">
			<use xlink:href="#SVGID_31_"  overflow="visible"/>
		</clipPath>
		
			<linearGradient id="SVGID_21_" gradientUnits="userSpaceOnUse" x1="-65.2847" y1="338.8359" x2="-64.2847" y2="338.8359" gradientTransform="matrix(193.3424 -193.3424 -193.3424 -193.3424 78179.6875 53129.5586)">
			<stop  offset="0" style="stop-color:#00668E"/>
			<stop  offset="0.0036" style="stop-color:#00668E"/>
			<stop  offset="0.4254" style="stop-color:#008F91"/>
			<stop  offset="0.7912" style="stop-color:#00AC93"/>
			<stop  offset="1" style="stop-color:#00B794"/>
		</linearGradient>
		<polygon clip-path="url(#SVGID_19_)" fill="url(#SVGID_21_)" points="15.823,185.228 101.166,99.885 186.509,185.228 
			101.166,270.571 		"/>
	</g>
	<g>
		<defs>
			<polygon id="SVGID_34_" points="44.672,103.394 42.208,170.652 67.37,170.652 64.408,103.394 			"/>
		</defs>
		<clipPath id="SVGID_22_">
			<use xlink:href="#SVGID_34_"  overflow="visible"/>
		</clipPath>
		
			<linearGradient id="SVGID_24_" gradientUnits="userSpaceOnUse" x1="-65.2842" y1="339.0801" x2="-64.2862" y2="339.0801" gradientTransform="matrix(193.3424 -193.3424 -193.3424 -193.3424 78179.6875 53129.5586)">
			<stop  offset="0" style="stop-color:#00668E"/>
			<stop  offset="0.0036" style="stop-color:#00668E"/>
			<stop  offset="0.4254" style="stop-color:#008F91"/>
			<stop  offset="0.7912" style="stop-color:#00AC93"/>
			<stop  offset="1" style="stop-color:#00B794"/>
		</linearGradient>
		<polygon clip-path="url(#SVGID_22_)" fill="url(#SVGID_24_)" points="8.578,137.022 54.789,90.813 101,137.022 54.789,183.233 		
			"/>
	</g>
	<g>
		<defs>
			<polygon id="SVGID_37_" points="91.049,103.394 88.088,170.652 113.745,170.652 110.783,103.394 			"/>
		</defs>
		<clipPath id="SVGID_26_">
			<use xlink:href="#SVGID_37_"  overflow="visible"/>
		</clipPath>
		
			<linearGradient id="SVGID_27_" gradientUnits="userSpaceOnUse" x1="-65.2847" y1="338.9619" x2="-64.2847" y2="338.9619" gradientTransform="matrix(193.3424 -193.3424 -193.3424 -193.3424 78179.6875 53129.5586)">
			<stop  offset="0" style="stop-color:#00668E"/>
			<stop  offset="0.0036" style="stop-color:#00668E"/>
			<stop  offset="0.4254" style="stop-color:#008F91"/>
			<stop  offset="0.7912" style="stop-color:#00AC93"/>
			<stop  offset="1" style="stop-color:#00B794"/>
		</linearGradient>
		<polygon clip-path="url(#SVGID_26_)" fill="url(#SVGID_27_)" points="54.458,137.022 100.917,90.565 147.375,137.022 
			100.917,183.48 		"/>
	</g>
	<g>
		<defs>
			<path id="SVGID_40_" d="M99.66,9.792v28.365L9.861,75.747v5.522H192.47v-5.522l-88.841-37.189v-9.061
				c4.899,2.453,9.501,1.012,12.509-2.709c3.377-4.174,5.836-5.343,10.871-7.197c0,0-4.898-4.793-12.249-4.899
				c-4.803-0.069-9.53-0.946-12.249-4.899c0-0.679-0.762-1.226-1.439-1.226C100.396,8.566,99.66,9.113,99.66,9.792"/>
		</defs>
		<clipPath id="SVGID_29_">
			<use xlink:href="#SVGID_40_"  overflow="visible"/>
		</clipPath>
		
			<linearGradient id="SVGID_30_" gradientUnits="userSpaceOnUse" x1="-65.2847" y1="339.1992" x2="-64.2847" y2="339.1992" gradientTransform="matrix(193.3424 -193.3424 -193.3424 -193.3424 78179.6875 53129.5586)">
			<stop  offset="0" style="stop-color:#00668E"/>
			<stop  offset="0.0036" style="stop-color:#00668E"/>
			<stop  offset="0.4254" style="stop-color:#008F91"/>
			<stop  offset="0.7912" style="stop-color:#00AC93"/>
			<stop  offset="1" style="stop-color:#00B794"/>
		</linearGradient>
		<polygon clip-path="url(#SVGID_29_)" fill="url(#SVGID_30_)" points="-26.491,44.918 101.166,-82.738 228.822,44.918 
			101.166,172.574 		"/>
	</g>
</g>
</svg>
